<?xml version="1.0" encoding="utf-8" standalone="no"?>
<svg version="1.1" id="Layer_1" xmlns="http://www.w3.org/2000/svg" xmlns:xlink="http://www.w3.org/1999/xlink" x="0px" y="0px" viewBox="0 0 150 180" enable-background="new 0 0 150 180" xml:space="preserve">
    <g>
    </g>
    <g>
        <g>
            <path fill="#0081C6" d="M124.6,170.9c0,0-0.2,4.4-0.3,5.4c0,0.3,0,0.6-0.1,1.4c-0.1,0.9-0.4,1-0.2,2.2c0.1,0.6,0.3,0.8,0.6,1.1
                c0.6,0.6,1.9,0.9,2.8,1c0.9,0.1,1.4-0.2,1.3-0.7c-0.1-0.6-1.8-4-1.8-4.3c0-0.2,0.1-0.6,0-1.1c-0.1-0.6,0.9-5.1,0.9-5.1
                L124.6,170.9z"></path>
            <path fill="#0081C6" d="M137.1,171.7l-0.2,4.2l-0.2,0.7c-0.2,0.7-0.7,1.1-0.4,1.7c0.3,0.6,0.4,0.3,1.4,1c1,0.7,1.9,1.6,2.5,1.9
                c0.7,0.4,2.3,0.5,3.1,0c0.4-0.2,0-1.1-0.3-1.4c-0.6-0.6-1.1-0.6-1.8-1c-0.8-0.6-1.8-1.4-2.2-1.8c-0.4-0.3,1.8-6.5,1.8-6.5
                L137.1,171.7z"></path>
            <g>
                <path fill="#0081C6" d="M133.4,83.8c0,0-1.5,0.4-2.8,1.2c-1.3,0.9-2.8,2.8-2.7,5.1c0,2,1.8,2.2,2,3.2c0.2,1,0,2-0.1,2.4
                    c-0.1,0.9,1.1,0.5,1.1,0.5l0.5,0.6c0,0,0.5,1.3,0.8,1.4c0.3,0.1,2.3-0.3,2.3-0.3s0.6,0.7,0.2,0.8c-0.4,0.1-4.2,0.3-5.5,1.6
                    c-1.3,1.3-1.5,0.3-3.3,8.5c-1.8,8.2-2.1,12.1-2.9,17.2c-0.7,5-1.2,5.9-1.2,6.5c0,0.6,0.5,0.8,0.5,0.8s-0.4,1.8-0.6,2.4
                    c-0.2,0.5-1,1.4-0.8,2.3c0.2,0.9,0.6,1.9,0.6,1.9l1.4,1.5l0.8,0.2c0,0,0.6,0.4,1.5-0.1c0.5,1.3,0.3,5.8,0.3,6.3
                    c-0.1,0.9-0.2,5.2-0.3,5.7c-0.1,0.5-2.1,15.4-2.4,17.5c0,0,2.2,1.6,5.6,1c3.4-0.5,6.2-0.3,8.8,0.2c2.6,0.5,7.7-0.2,7.7-0.2
                    l-0.2-28.4c0,0,0.7-1.5,1.2-2.3c0.4-0.8,0.4-3.6,0.4-3.6s-0.4-2,0.1-2.5c0.5-0.4,0.9-0.2,1.2-1c0.3-0.8,0.3-1.9,0.4-2.4
                    c0.1-0.4,0.8-1.8,1.1-2.6c0.3-0.8,0.5-10.9,0.5-11.6c0-0.6,0.2-6.4,0.3-8c0.1-1.6,0.1-4-0.1-5c-0.2-1.1,0.1-2.5-1.1-3.1
                    c-4.5-2.4-7.8-4-7.8-4s-1.2-2.6-0.7-4.4c0.3-0.9,1.1-4.5,0.3-6.2C139.9,85.3,137,83,133.4,83.8"></path>
                <path fill="#0081C6" d="M114.8,155.6c0.6,4.7,0.2,6.2-0.2,8c-0.4,1.8-0.9,3.8-0.7,4.6c0.1,0.7-0.1,2.3-0.3,4.2
                    c-0.2,1.9-0.1,3.3,0.2,4.1c0.3,0.8,2.8,2.3,3.6,2.7c0.8,0.4-0.3,0.6-0.4,0.9c-0.1,0.3-0.6,0.3-1.3,0.2c-0.6-0.1-0.2,0-1.3,0
                    c-1.1,0-1.3-0.2-1.8-0.3c-0.6-0.1-1.3-0.3-1.7-0.3c-0.3,0-0.7-0.3-0.9-0.7c-0.2-0.3,0.3-1.6,0.3-2.5c0-0.9-0.1-3-0.7-4.7
                    c-0.6-1.7,0-3.4-0.2-4.1c-0.2-0.7-0.4-1.3-0.4-1.3s-0.3,1.1-0.4,1.8c-0.1,0.7-0.1,0.3-0.7,2.2c-0.7,1.9-0.9,7.1-0.9,7.8
                    c0,0.7,1.4,1.8,2.1,2.3c0.6,0.5,1.1,1.3,1.3,1.5c0.1,0.2-1.2,0.3-1.5,0.3c-0.3,0-0.6,0-1,0.1c-0.5,0.1-1.3,0.1-1.9,0.1
                    c-0.6-0.1-1-0.6-1.2-0.8c-0.2-0.2-1.1-0.5-1.4-0.9c-0.2-0.4,0-0.9,0.2-1.4c0.2-0.6,0.3-1.4,0.3-2.7c0.1-1.3-0.6-4.3-0.6-5.6
                    c0.1-1.3,0.6-2.6,0.8-3.2c0.2-0.6-0.2-4.2-0.2-4.2c-0.8-4.7-0.2-8.5,0.1-9.8c0.3-1.3,0.4-2.6,0.5-3.3c0.1-0.6-1-2.4-1-3.3
                    c0-0.9-1.6,3.9-1.6,4.3c0,0.4-0.5,1.9-0.7,2.4c-0.2,0.5-0.2,2.5-0.2,3.2c0,0.7-0.1,1.4,0.3,1.8c0.3,0.4,0.3,1.6,0.3,2.2
                    c0.1,0.6,0.3,2.9,0,3c-0.3,0.1-1.2-0.2-1.7-0.4c-0.5-0.2-0.7-0.7-1.2-1.5c-0.5-0.7-0.3-1.3-0.2-1.6c0.1-0.3,0-0.6,0-1.2
                    c0-0.6-0.2-4.3-0.2-6c0.1-1.7,0.5-2.2,0.7-2.9c0.2-0.6,0.5-2.9,0.7-4.1c0.2-1.3,0.9-2.6,1.5-3.3c0,0,3.9-3.4,3.9-3.8
                    c0-0.4-0.2-0.6-0.2-0.6s-0.5,0-0.6-0.5c-0.1-0.6-3.8-0.2-5.4-3.3c-1.2-2.2,0.1-4.7,1.7-5.7c1.7-1,4.5-1.8,6.7-0.6
                    c1.3,0.7,1.4,1.4,1.4,3c0,0-0.1,0.5,0.4,0.7c0.5,0.2,1,0.2,1.1,0.5c0.2,0.3,0.4,1.4,0.5,1.5c0.1,0.2,0.3,0.5,0.3,0.7
                    c0.1,0.3-0.1,0.6-0.2,0.7c-0.2,0.1-1.4,0.7-1.5,0.9c-0.2,0.1-0.4,0.2-0.2,0.6c0.2,0.4,0.3,0.7,1.2,0.8c0.9,0.1,2.8,0.4,3.4,0.4
                    c0.6,0,0.4-0.1,0.6,0c0.2,0.1,4.2,4.4,5,4.3c0.8-0.2,3.4-3.1,3.4-3.1l1.4,1.5c0,0-3.6,4.8-4.1,4.9c-0.5,0.1-0.6,0.2-1.2,0.1
                    c-0.6-0.1-4.3-2.8-5-3.1c0,0-0.6-0.3-0.8,0c-0.5,0.5,0.6,4,0.9,5.6C114.5,150.5,114.8,155.6,114.8,155.6"></path>
            </g>
        </g>
    </g>
</svg>