<?xml version="1.0" encoding="utf-8"?>
<!-- Generator: Adobe Illustrator 19.1.0, SVG Export Plug-In . SVG Version: 6.00 Build 0)  -->
<svg version="1.1" id="Layer_1" xmlns="http://www.w3.org/2000/svg" xmlns:xlink="http://www.w3.org/1999/xlink" x="0px" y="0px"
	 viewBox="0 0 171.1 65" enable-background="new 0 0 171.1 65" xml:space="preserve">
<g>
	<path fill-rule="evenodd" clip-rule="evenodd" fill="#00A65E" d="M35.9,24.8l5.4-0.3c9.5-0.5,9.7-7.8,9.7-7.8V0.1L50.2,0
		c0,0-1.5,7.4-8.3,7.8L35.7,8c-5.3,0.3-7.9,3.5-9.2,6.6c-1.3,3.1-1.3,6.1-1.3,6.1v11.6c-0.2-0.5-0.3-1-0.5-1.4
		c-1.3-3.1-4-6.4-9.2-6.6l-6.2-0.3c-4.1-0.2-6.7-3-8-6.6c-0.2-0.7-0.3-1.2-0.3-1.2L0,16.4V33c0,0,0,0.5,0.2,1.2
		c1.1,4.5,5.1,6.4,9.5,6.7l5.4,0.3c8,0.4,9.8,9.3,9.9,10.8V65h0.8c0-0.9,1.6-10.5,9.9-10.9l5.4-0.3c9.5-0.5,9.7-7.8,9.7-7.8V29.4
		l-0.8-0.1c0,0-1.5,7.4-8.3,7.7l-6.2,0.3c-5.3,0.3-7.9,3.5-9.2,6.6c-0.2,0.5-0.4,0.9-0.5,1.4l0-9.7C25.8,34.9,28.1,24.8,35.9,24.8z
		 M24.4,45.2c-1.8-3-3.7-5.3-9.4-5.6l-5.2-0.3c-3.8-0.2-7.4-1.7-8.3-5.4C1.3,33.4,1.3,33,1.3,33V20.9c1.4,3.1,3.8,4.2,7.8,4.8
		l5.9,0.3c9.2,0.4,9.3,10.7,9.3,10.8V45.2z M26.5,49.8c0-0.1,0.1-10.4,9.3-10.8l5.9-0.3c4-0.6,6.4-1.7,7.8-4.8V46c0,0,0,0.4-0.1,0.9
		c-0.9,3.7-4.5,5.2-8.3,5.4l-5.2,0.3c-5.7,0.3-7.6,2.6-9.4,5.6V49.8z M26.5,28.8v-8.4c0-0.1,0.1-10.4,9.3-10.8l5.9-0.3
		c4-0.6,6.4-1.7,7.8-4.8v12.1c0,0,0,0.4-0.1,0.9c-0.9,3.7-4.5,5.2-8.3,5.4l-5.2,0.3C30.2,23.6,28.3,25.9,26.5,28.8z"/>
	<g>
		<path fill="#00A65E" d="M74.7,30.5v-0.2c0-1.2-0.4-1.8-1.2-1.8c-0.4,0-0.7,0.2-0.9,0.5c-0.2,0.3-0.2,0.6-0.2,1.5v3.4
			c0,0.8,0,1.2,0.2,1.5c0.2,0.4,0.5,0.7,1,0.7c0.8,0,1.2-0.7,1.2-2c0,0,0-0.2,0-0.3h1.6v0.4c0,2.2-1,3.4-2.8,3.4
			c-1,0-1.8-0.4-2.3-1.1c-0.4-0.6-0.5-1.2-0.5-2.7v-2.9c0-1.6,0.1-2.2,0.6-2.8c0.4-0.6,1.2-0.9,2.1-0.9c1.7,0,2.8,1.2,2.8,3.2v0.3
			H74.7z"/>
		<path fill="#00A65E" d="M82.6,34.7c0,1.2-0.1,1.7-0.6,2.1c-0.4,0.4-1,0.6-1.7,0.6c-0.7,0-1.3-0.2-1.7-0.6c-0.4-0.4-0.6-1-0.6-2.1
			v-2.3c0-1.2,0.2-1.7,0.6-2.2c0.4-0.4,1-0.6,1.7-0.6c0.7,0,1.3,0.2,1.7,0.6c0.5,0.5,0.6,1,0.6,2.2V34.7z M79.3,34.8
			c0,1,0.3,1.4,0.9,1.4c0.6,0,0.9-0.4,0.9-1.4v-2.5c0-1-0.3-1.4-0.9-1.4c-0.6,0-0.9,0.4-0.9,1.4V34.8z"/>
		<path fill="#00A65E" d="M85.8,30.7c0.7-0.8,1.2-1.1,1.9-1.1c0.8,0,1.2,0.6,1.2,1.8v5.9h-1.4v-5.6c0-0.7-0.1-0.9-0.5-0.9
			c-0.4,0-0.8,0.3-1.2,0.8v5.7h-1.4v-7.6h1.4V30.7z"/>
		<path fill="#00A65E" d="M92.4,37.3l-1.9-7.6H92l1.1,4.8l1-4.8h1.5l-1.7,7.6H92.4z"/>
		<path fill="#00A65E" d="M98.3,33.8v0.7c0,0.7,0,1.1,0.2,1.3c0.1,0.3,0.4,0.4,0.8,0.4c0.6,0,0.9-0.4,0.9-1.3v-0.2h1.4
			c0,1-0.1,1.4-0.3,1.8c-0.4,0.7-1.1,1-2,1c-0.9,0-1.5-0.3-1.9-0.8c-0.3-0.5-0.5-1-0.5-2.1v-2.3c0-1.2,0.1-1.7,0.6-2.2
			c0.4-0.4,1-0.6,1.7-0.6c0.8,0,1.4,0.2,1.8,0.7c0.4,0.5,0.6,1,0.6,2.2v1.3H98.3z M100.2,32.1c0-0.9-0.3-1.3-0.9-1.3
			c-0.7,0-0.9,0.4-0.9,1.3v0.4h1.9V32.1z"/>
		<path fill="#00A65E" d="M104.8,30.7c0.7-0.8,1.2-1.1,1.9-1.1c0.8,0,1.2,0.6,1.2,1.8v5.9h-1.4v-5.6c0-0.7-0.1-0.9-0.5-0.9
			c-0.4,0-0.8,0.3-1.2,0.8v5.7h-1.4v-7.6h1.4V30.7z"/>
		<path fill="#00A65E" d="M113.1,31h-1.3v4c0,0.8,0.3,1.1,0.9,1.1c0.2,0,0.3,0,0.5-0.1v1.3c-0.4,0.1-0.6,0.1-1,0.1
			c-0.7,0-1.2-0.2-1.5-0.6c-0.3-0.3-0.3-0.7-0.3-1.7V31h-1.1v-1.3h1.1v-2.1h1.4v2.1h1.3V31z"/>
		<path fill="#00A65E" d="M116,28.6h-1.4v-1.5h1.4V28.6z M116,37.3h-1.4v-7.6h1.4V37.3z"/>
		<path fill="#00A65E" d="M122.4,34.7c0,1.2-0.1,1.7-0.6,2.1c-0.4,0.4-1,0.6-1.7,0.6c-0.7,0-1.3-0.2-1.7-0.6c-0.4-0.4-0.6-1-0.6-2.1
			v-2.3c0-1.2,0.2-1.7,0.6-2.2c0.4-0.4,1-0.6,1.7-0.6c0.7,0,1.3,0.2,1.7,0.6c0.5,0.5,0.6,1,0.6,2.2V34.7z M119.2,34.8
			c0,1,0.3,1.4,0.9,1.4c0.6,0,0.9-0.4,0.9-1.4v-2.5c0-1-0.3-1.4-0.9-1.4c-0.6,0-0.9,0.4-0.9,1.4V34.8z"/>
		<path fill="#00A65E" d="M125.6,30.7c0.7-0.8,1.2-1.1,1.9-1.1c0.8,0,1.2,0.6,1.2,1.8v5.9h-1.4v-5.6c0-0.7-0.1-0.9-0.5-0.9
			c-0.4,0-0.8,0.3-1.2,0.8v5.7h-1.4v-7.6h1.4V30.7z"/>
		<path fill="#00A65E" d="M138.5,34.7c0,1.2-0.1,1.7-0.6,2.1c-0.4,0.4-1,0.6-1.7,0.6c-0.7,0-1.3-0.2-1.7-0.6c-0.4-0.4-0.6-1-0.6-2.1
			v-2.3c0-1.2,0.2-1.7,0.6-2.2c0.4-0.4,1-0.6,1.7-0.6c0.7,0,1.3,0.2,1.7,0.6c0.5,0.5,0.6,1,0.6,2.2V34.7z M135.3,34.8
			c0,1,0.3,1.4,0.9,1.4c0.6,0,0.9-0.4,0.9-1.4v-2.5c0-1-0.3-1.4-0.9-1.4c-0.6,0-0.9,0.4-0.9,1.4V34.8z"/>
		<path fill="#00A65E" d="M141.5,30.7c0.7-0.8,1.2-1.1,1.9-1.1c0.8,0,1.2,0.6,1.2,1.8v5.9h-1.4v-5.6c0-0.7-0.1-0.9-0.5-0.9
			c-0.4,0-0.8,0.3-1.2,0.8v5.7H140v-7.6h1.4V30.7z"/>
		<path fill="#00A65E" d="M70.9,42.8h2.3c1.9,0,3,0.9,3,2.6c0,1.2-0.5,1.9-1.7,2.3c1.4,0.4,1.9,1.1,1.9,2.4c0,1.8-1.1,2.9-3,2.9
			h-2.5V42.8z M73,47c1,0,1.6-0.6,1.6-1.4c0-0.4-0.1-0.7-0.4-0.9c-0.3-0.2-0.6-0.3-1.2-0.3h-0.6V47H73z M73.3,51.5
			c1,0,1.6-0.5,1.6-1.4c0-1-0.7-1.7-1.8-1.7h-0.6v3.1H73.3z"/>
		<path fill="#00A65E" d="M79.6,44.3h-1.4v-1.5h1.4V44.3z M79.6,53h-1.4v-7.6h1.4V53z"/>
		<path fill="#00A65E" d="M86,50.4c0,1.2-0.1,1.7-0.6,2.1c-0.4,0.4-1,0.6-1.7,0.6c-0.7,0-1.3-0.2-1.7-0.6c-0.4-0.4-0.6-1-0.6-2.1V48
			c0-1.2,0.2-1.7,0.6-2.2c0.4-0.4,1-0.6,1.7-0.6c0.7,0,1.3,0.2,1.7,0.6c0.5,0.5,0.6,1,0.6,2.2V50.4z M82.7,50.4c0,1,0.3,1.4,0.9,1.4
			c0.6,0,0.9-0.4,0.9-1.4v-2.5c0-1-0.3-1.4-0.9-1.4c-0.6,0-0.9,0.4-0.9,1.4V50.4z"/>
		<path fill="#00A65E" d="M89.1,53h-1.4V42.8h1.4V53z"/>
		<path fill="#00A65E" d="M95.5,50.4c0,1.2-0.1,1.7-0.6,2.1c-0.4,0.4-1,0.6-1.7,0.6c-0.7,0-1.3-0.2-1.7-0.6c-0.4-0.4-0.6-1-0.6-2.1
			V48c0-1.2,0.2-1.7,0.6-2.2c0.4-0.4,1-0.6,1.7-0.6c0.7,0,1.3,0.2,1.7,0.6c0.5,0.5,0.6,1,0.6,2.2V50.4z M92.3,50.4
			c0,1,0.3,1.4,0.9,1.4c0.6,0,0.9-0.4,0.9-1.4v-2.5c0-1-0.3-1.4-0.9-1.4c-0.6,0-0.9,0.4-0.9,1.4V50.4z"/>
		<path fill="#00A65E" d="M102.6,46.8c-0.2-0.2-0.3-0.2-0.5-0.2c-0.2,0-0.4,0.1-0.5,0.3c0.1,0.4,0.2,0.7,0.2,1.3
			c0,1.9-0.8,2.9-2.3,2.9c-0.2,0-0.3,0-0.5-0.1c-0.2,0.1-0.3,0.3-0.3,0.4c0,0.2,0.1,0.3,0.3,0.3c0.2,0,0.3,0,1.2,0.1
			c1,0.1,1.4,0.2,1.8,0.4c0.5,0.3,0.7,0.8,0.7,1.5c0,1.3-0.9,1.9-3,1.9c-1.8,0-2.6-0.5-2.6-1.4c0-0.6,0.4-1,1.2-1.3
			c-0.6-0.3-0.9-0.5-0.9-1c0-0.6,0.3-0.9,1.2-1.2c-0.9-0.5-1.3-1.3-1.3-2.7c0-1.9,0.8-2.9,2.3-2.9c0.9,0,1.4,0.3,1.8,1
			c0.2-0.7,0.6-1,1.3-0.9V46.8z M98.7,53.2c-0.2,0.2-0.3,0.4-0.3,0.6c0,0.4,0.4,0.6,1.4,0.6c1,0,1.4-0.2,1.4-0.7
			c0-0.3-0.2-0.4-0.6-0.5c-0.2,0-0.4,0-1.1-0.1C99.3,53.2,99.1,53.2,98.7,53.2C98.7,53.2,98.7,53.2,98.7,53.2z M98.5,48.6
			c0,0.8,0.3,1.2,0.9,1.2c0.6,0,0.9-0.4,0.9-1.2v-0.8c0-0.8-0.3-1.2-0.9-1.2c-0.6,0-0.9,0.4-0.9,1.2V48.6z"/>
		<path fill="#00A65E" d="M105.2,44.3h-1.4v-1.5h1.4V44.3z M105.2,53h-1.4v-7.6h1.4V53z"/>
		<path fill="#00A65E" d="M110.3,48v-0.2c0-0.9-0.3-1.3-0.9-1.3c-0.4,0-0.6,0.2-0.8,0.4c-0.1,0.3-0.2,0.6-0.2,1.3v1.8
			c0,0.7,0,1.1,0.2,1.3c0.1,0.3,0.4,0.4,0.8,0.4c0.6,0,0.9-0.4,0.9-1.3v-0.2h1.4v0.3c0,0.9-0.2,1.4-0.5,1.8c-0.4,0.5-1,0.7-1.8,0.7
			c-0.9,0-1.5-0.3-1.9-0.8c-0.4-0.5-0.5-1-0.5-2v-2.2c0-1,0.1-1.6,0.5-2.1c0.4-0.5,1.1-0.8,1.9-0.8c0.8,0,1.4,0.2,1.8,0.7
			c0.4,0.4,0.5,0.9,0.5,1.8V48H110.3z"/>
		<path fill="#00A65E" d="M116.3,53c-0.1-0.2-0.1-0.5-0.1-0.9c-0.7,0.7-1.1,1-1.7,1c-1,0-1.5-0.8-1.5-2c0-0.9,0.4-1.5,1.2-2.1
			c0.4-0.2,0.7-0.4,2-1v-0.4c0-0.8-0.2-1.1-0.7-1.1c-0.5,0-0.8,0.3-0.8,1.1h-1.5c0.1-1.5,1-2.3,2.5-2.3c0.7,0,1.2,0.2,1.6,0.6
			c0.3,0.4,0.4,0.7,0.4,1.7v3.4c0,1.1,0,1.5,0.2,2.1H116.3z M116.2,49.1c-1.3,0.7-1.8,1.2-1.8,1.9c0,0.5,0.3,0.9,0.7,0.9
			c0.4,0,0.8-0.2,1-0.7V49.1z"/>
		<path fill="#00A65E" d="M120.9,53h-1.4V42.8h1.4V53z"/>
		<path fill="#00A65E" d="M125.9,42.8h2.5c2,0,2.9,1,2.9,3.2v3.8c0,2.2-0.9,3.2-2.9,3.2h-2.5V42.8z M128.3,51.5
			c1.1,0,1.5-0.6,1.5-2.2v-2.9c0-1.6-0.4-2.2-1.5-2.2h-0.8v7.3H128.3z"/>
		<path fill="#00A65E" d="M134.5,44.3h-1.4v-1.5h1.4V44.3z M134.5,53h-1.4v-7.6h1.4V53z"/>
		<path fill="#00A65E" d="M137.7,53l-1.9-7.6h1.5l1.1,4.8l1-4.8h1.5l-1.7,7.6H137.7z"/>
		<path fill="#00A65E" d="M143.6,49.4v0.7c0,0.7,0,1.1,0.2,1.3c0.1,0.3,0.4,0.4,0.8,0.4c0.6,0,0.9-0.4,0.9-1.3v-0.2h1.4
			c0,1-0.1,1.4-0.3,1.8c-0.4,0.7-1.1,1-2,1c-0.9,0-1.5-0.3-1.9-0.8c-0.3-0.5-0.5-1-0.5-2.1V48c0-1.2,0.1-1.7,0.6-2.2
			c0.4-0.4,1-0.6,1.7-0.6c0.8,0,1.4,0.2,1.8,0.7c0.4,0.5,0.6,1,0.6,2.2v1.3H143.6z M145.4,47.8c0-0.9-0.3-1.3-0.9-1.3
			c-0.7,0-0.9,0.4-0.9,1.3v0.4h1.9V47.8z"/>
		<path fill="#00A65E" d="M149.9,45.4v1.3c0.4-1,0.9-1.4,1.8-1.4v1.6c-0.3-0.1-0.5-0.1-0.7-0.1c-0.4,0-0.7,0.1-0.9,0.4
			c-0.2,0.3-0.2,0.5-0.2,1.2V53h-1.4v-7.6H149.9z"/>
		<path fill="#00A65E" d="M155.8,47.6c-0.3-0.8-0.6-1.1-1.2-1.1c-0.4,0-0.7,0.3-0.7,0.7c0,0.4,0.2,0.6,1.3,1.2
			c0.9,0.5,1.2,0.7,1.5,1c0.3,0.4,0.5,0.9,0.5,1.4c0,1.3-0.9,2.2-2.3,2.2c-1.3,0-2.1-0.7-2.6-2.1l1.3-0.5c0.3,0.9,0.7,1.3,1.3,1.3
			c0.5,0,0.8-0.3,0.8-0.8c0-0.4-0.2-0.7-1.1-1.1c-1.1-0.6-1.3-0.8-1.7-1.1c-0.4-0.4-0.5-0.9-0.5-1.4c0-1.2,0.9-2.1,2.2-2.1
			c1.2,0,2,0.6,2.5,1.8L155.8,47.6z"/>
		<path fill="#00A65E" d="M160.1,44.3h-1.4v-1.5h1.4V44.3z M160.1,53h-1.4v-7.6h1.4V53z"/>
		<path fill="#00A65E" d="M165.1,46.7h-1.3v4c0,0.8,0.3,1.1,0.9,1.1c0.2,0,0.3,0,0.5-0.1V53c-0.4,0.1-0.6,0.1-1,0.1
			c-0.7,0-1.2-0.2-1.5-0.6c-0.3-0.3-0.4-0.7-0.4-1.7v-4.2h-1.1v-1.3h1.1v-2.1h1.4v2.1h1.3V46.7z"/>
		<path fill="#00A65E" d="M171.1,45.4l-1.6,7.3c-0.5,2.5-1.1,3-3.2,3v-1.5c0.1,0,0.2,0,0.2,0c0.8,0,1.3-0.5,1.3-1.3
			c0-0.2,0-0.4-0.1-0.7l-1.7-6.9h1.5l1.1,5.2l1-5.2H171.1z"/>
	</g>
</g>
</svg>
