<?xml version="1.0" encoding="utf-8"?>
<!-- Generator: Adobe Illustrator 19.1.0, SVG Export Plug-In . SVG Version: 6.00 Build 0)  -->
<svg version="1.1" id="Layer_1" xmlns="http://www.w3.org/2000/svg" xmlns:xlink="http://www.w3.org/1999/xlink" x="0px" y="0px"
	 viewBox="0 0 66.6 70.6" enable-background="new 0 0 66.6 70.6" xml:space="preserve">
<g>
	<text transform="matrix(1 0 0 1 34.2629 23.6401)" fill="#231F20" font-family="'MyriadPro-Regular'" font-size="1.2184px">648422</text>
	<g>
		<g>
			<path fill="#0771A0" d="M57.1,42.7c0.6-1.6,0.8-3.2,0.7-4.9c-0.1-2.2-0.8-1.5-2,1.9c-1.2,3.4-2.5,4.9-4,4.5
				c-1.5-0.4-3.2-0.1-5.1,1c-1.8,1.1-3.4,2.1-4.8,3c-1.3,0.9-2.7,1.9-4.2,3c-3.6-2.3-7-1.8-8-1.7c-1,0.1-2.1,0.4-3.4,0.8
				c-1.3,0.4-1.2,0.6,0.6,0.6c1.8,0,2.5,0.5,3.4,0.7c1.4,0.3,2.8,0.3,5.6,0.3c-2.3,0.3-5,0.7-7.9,1.3c-3.2,0.7-6.3,0.5-9.2-0.7
				C16,51.3,13.5,48.6,14,47c0,0,2.9-7.5,2.1-10.5c-0.6,1.6-2.4,5.2-4.2,6.1c-0.7-3.1-2.2-5.5-4.3-7.1c0.3,8.6,3.3,15.1,9,19.6
				c5.7,4.5,11.5,6.5,17.4,6.1l1-0.1c0.7-0.9,1.2-1.5,1.6-1.8c0.4-0.3,0.8-0.6,1.2-0.8c0.4-0.2,1-0.4,1.9-0.5
				c0.9-0.1,1.8-0.2,2.7-0.2c0.9,0,1.5,0,1.8-0.1c-0.1,0.3-0.5,0.4-1.3,0.5c-0.8,0.1-1.7,0.2-2.9,0.3c-1.1,0.2-2.2,1-3.3,2.3
				c0.5-0.1,0.9-0.2,1.4-0.2c2.6-0.5,4.5-1,5.5-1.5c1-0.5,1.9-0.9,2.5-1.3c0.7-0.4,1.3-0.7,1.9-1.2c0.6-0.4,0.9-0.6,0.9-0.6
				c3.9-2.6,6.7-6,8.4-10.3c1.8-4.2,2.1-7.3,1.2-9.1c-0.1,3-0.6,5.5-1.4,7.6c-0.9,2.1-1.7,3.7-2.4,4.7c-0.8,1-1.5,1.7-2.2,1.9
				c-0.7,0.2-1.5,0.8-2.3,1.8c-0.1-1,0.5-1.8,1.7-2.4c1.2-0.5,2.2-1.5,3.1-3C55.8,45.9,56.5,44.3,57.1,42.7z M47.8,50.2
				c0.3-0.5,0.6-0.8,1-1c0.2,0.1,0.3,0.4,0,0.7C48.7,50.2,48.3,50.3,47.8,50.2z"/>
		</g>
		<g>
			<path fill="#C84F27" d="M48.5,18.3c1.7,0.6,3.5,2.1,5.4,4.5c1.9,2.4,3,5.7,3.2,10c0.1,2.6,0.3,3.3,1,3.3c0.3,0,0.7-0.4,0.8-1.5
				c0-0.3,0-1,0-1.4c-0.6-6-3.1-11.1-7.3-15.4c-2.7-2.7-5.6-4.6-8.9-5.9c-0.1-0.1-0.3-0.1-0.4-0.2c0,0-0.1,0.1-0.1,0.2
				c-0.2,0.5-0.3,1.2-0.3,2.2c0,1,0.1,2.2,0.4,3.4c0-0.1-0.1-0.1-0.1-0.2c-1-1.6-1.6-3.2-1.6-4.8c0-0.3,0-0.6,0.1-0.9
				c0-0.1,0.1-0.2,0.1-0.3c-0.7-0.2-1.4-0.4-2.2-0.5c-0.6-0.1-1.2-0.2-1.9-0.3c-0.2,0-0.4,0-0.5-0.1c-0.1,0.3-0.1,0.6-0.1,1
				c0,1.3,0.4,2.5,1.1,3.6c0.3,0.4,0.6,0.8,0.9,1.1c-1.8-1-3-2.3-3.6-3.8c-0.3-1-0.4-1.6-0.2-2c-0.3,0-0.5,0-0.8,0c-0.3,0-0.7,0-1,0
				c-1,0-2,0.1-3,0.3c-0.1,0-0.2,0-0.3,0c0.5,1.4,1.2,2.5,2,3.3c0.9,0.8,1.6,1.4,2.2,1.7c-0.9-0.3-1.7-0.6-2.4-1
				c-2-1-3.2-2.2-3.7-3.6c0,0-0.1,0-0.1,0c-0.8,0.2-1.7,0.4-2.5,0.7c-0.5,0.2-1,0.4-1.5,0.6c-0.3,0.2-0.7,0.3-1,0.5
				c0.1,0.2,0.4,0.4,0.6,0.6c0.5,0.4,1.3,0.9,2.3,1.4c0.7,0.4,1.5,0.8,2.3,1.1c-0.9-0.1-1.6-0.1-2.2-0.2c-1.6-0.1-2.9-0.5-3.8-1.3
				c-0.3-0.3-0.6-0.6-0.8-0.9c-0.4,0.2-0.8,0.5-1.2,0.7c-0.7,0.5-1.4,1-2.1,1.6c0.5,1.1,1.4,1.9,2.5,2.5c0.9,0.5,1.5,0.7,1.9,0.8
				c-0.1,0-0.2,0-0.2,0c-1.1,0-2.1-0.1-2.9-0.4c-1.1-0.3-2.5-1.9-2.5-1.9c-2.7,2-5.8,6.9-6.5,9.4c0.4,0.2,0.6,0.6,0.5,1.2
				c-0.1,0.6,0,1.3,0.3,2h0.3c0,0.4,0.2,0.9,0.5,1.5c0.3,0.6,1.2,0.7,2.6,0.4c-0.5-1.1-0.6-1.7-0.5-1.9c0.2-0.2,0.3-0.3,0.6-0.4
				c0.2-0.1,0.6-0.3,1.1-0.4c0.5-0.2,0.8-0.6,0.9-1.3c0.1-0.7,0-1.5-0.3-2.2c0.5-0.1,1.4-0.6,2.8-1.4c-0.3,1.2-0.9,2.6-1.7,4.4
				c-0.8,1.7-1.7,3.6-2.9,5.6c-1.2,2-1.7,4.2-1.6,6.7c1.4-2.3,2.9-4.3,4.4-6c1.5-1.7,3-4.1,4.4-7.2c1.5-3.1,3.4-5.6,5.9-7.6
				c2.5-2,5.2-2.8,8.2-2.4c3,0.4,5.4,1.8,7.2,4.1c1.8,2.3,3.3,3.9,4.5,4.8c1.2,0.9,2.3,1.6,3.5,2.1c1.2,0.6,2.8,1.6,5.1,3
				c-2.8-3.1-5-5.7-6.6-8c-1.6-2.3-2.4-3.9-2.5-4.9c0,0,0-0.1,0-0.1c0,0,0-0.1,0-0.1v0C46.4,17.7,47.1,17.8,48.5,18.3z M12.4,25.7
				c-0.3,0.3-0.6,0.1-0.6-0.1c0.1-0.5,0.4-0.8,1.1-0.7C12.6,25.3,12.5,25.6,12.4,25.7z"/>
		</g>
	</g>
	<path fill="#55692F" d="M26.8,21.5c-0.6,0.5-1.1,1.1-1.3,1.8c-0.2,0.7-0.3,1.3,0,1.9c0.2,0.6,0.6,1,1.2,1.2
		c0.5,0.2,1.1,0.1,1.7-0.2c0.2-0.1,0.3-0.2,0.4-0.3c0.1,0.8,0.2,1.4,0.3,1.7c0.1,0.3-0.1,0.4-0.4,0.2c-0.1,0-0.3-0.1-0.6-0.4
		c-0.3-0.2-0.7-0.4-1.2-0.4c-0.8,0-1.5,0.2-2.2,0.8c-0.8,0.6-1.4,1.2-2,1.8c1-0.4,1.5-0.5,2.1-0.4c0.6,0.1,1.6,0.4,2.3,1.7
		c0.6,1,1.2,2.3,2.1,4.9c0.9,2.5,2.4,4,4.4,4.7c-0.3-0.8-0.5-1.5-0.4-2.2c0-0.6,0.4-1.3,1-2c0.6-0.7,0.5-1.6-0.4-2.7
		c-1.5-1.6-2.5-2.9-3-3.9c-1.1-1.9-0.5-3.4-0.5-3.5c0.3-0.9,1-1.6,2.3-1.9c1.3-0.3,2.5,0,3.3,0.2c1.7,0.5,3,0.4,3.9,0.3
		c0-1.3-0.6-2.4-1.7-3.3c-1.2-1-2.1-1.4-3.7-1.3c-0.8,0-1.8,0.2-3,1.1c-0.7,0.6-1.2,0.7-1.6,0.4c-0.5-0.3-0.8-0.5-1.2-0.6
		C27.8,21,27.3,21.1,26.8,21.5z"/>
	<path fill="#55692F" d="M45.4,28.2c-0.4-0.1-0.6,0-0.6,0.3c0,0.3,0.4,1.3,0.9,1.3c0.2,0,0.3,0,0.5-0.2c0.1-0.1,0.2-0.3,0.2-0.5
		c0-0.2-0.1-0.4-0.2-0.5C46.1,28.4,45.8,28.3,45.4,28.2z"/>
	<path fill="#55692F" d="M43.3,26.9c0.1-0.3,0.2-0.6,0.1-1c-0.1-0.4-0.2-0.6-0.5-0.9c-0.3-0.2-0.5-0.3-0.8-0.2
		c-0.3,0.1-0.5,0.2-0.6,0.5c-0.1,0.3-0.2,0.6-0.1,1c0.1,0.4,0.2,0.6,0.5,0.9c0.2,0.2,0.5,0.3,0.8,0.2C42.9,27.4,43.1,27.2,43.3,26.9
		z"/>
	<path fill="#55692F" d="M43,29.1c-0.3-0.1-0.6-0.1-0.9,0c-0.3,0.1-0.5,0.3-0.7,0.5c-0.2,0.2-0.2,0.5-0.1,0.7
		c0.1,0.2,0.3,0.4,0.6,0.5c0.3,0.1,0.5,0.1,0.8,0c0.3-0.1,0.5-0.3,0.7-0.5c0.2-0.2,0.2-0.5,0.1-0.7C43.5,29.3,43.3,29.2,43,29.1z"/>
	<path fill="#55692F" d="M40.7,31.2c-0.3-0.1-0.5-0.1-0.7,0c-0.2,0.1-0.4,0.3-0.4,0.6c-0.1,0.3,0,0.6,0.1,0.9
		c0.1,0.3,0.4,0.5,0.7,0.7c0.3,0.2,0.6,0.2,0.8,0.1c0.3-0.1,0.4-0.3,0.3-0.7c0-0.3-0.1-0.6-0.2-0.9C41.2,31.6,41,31.4,40.7,31.2z"/>
	<path fill="#55692F" d="M44.8,33.3c1-0.5,1.7-0.6,1.4,0.6c-0.9,3.1-3.8,6-6.4,7.6c-0.4,0.3-0.3,0.5,0.4,0.9
		c0.8,0.3,1.1,0.9,0.7,1.7c-0.6,0.9-2,1.5-3.6,1.8c-1.5,0.3-3.7,0.5-6.3-0.4c-3-1.1-5.8-3.5-7.5-7.8c-0.9-2.8-0.4-3.9-0.2-4.5
		c0.3-0.6,0.6-0.2,1.1,2c2.1,8.8,8.6,11.2,14.5,9.2c1.5-0.5,1.4-1.5,0.1-1.6c-1.4-0.1-2.3-0.2-2.6-0.5c-0.3-0.3,0-0.5,0.9-0.8
		c0.9-0.2,0.9-0.5,0-0.7c-1-0.3-2-0.1-3,0.5c-1.1,0.6-2.7-0.1-3.7-1.3c-3.1-3.7-3.5-8.3-5-9.8c-0.8-0.8-2-0.5-2.7,0.3
		c-0.9,1.1-1.5,2.9-1.2,5.9c0.5,3.1,1.7,4.8,2.7,6c7.8,8.8,17.9,4.1,20.4,1.1c3.8-4.4,3.5-8.2,3-10.1c-0.4-1.7-1.4-2.2-2.7-1.7
		c-1.9,0.8-7.2,4.2-10,8.4C38.2,37.3,42,34.7,44.8,33.3z"/>
	<path fill="#55692F" d="M38.9,26c-0.1,0-0.4,0.1-0.7,0c-0.7,0-1.7-0.2-2.8-0.6c-1.1-0.4-2.1-0.4-3.1,0c-0.9,0.3-1.5,1.2-1.6,2.6
		c0,0.7,0.1,1.5,0.8,2.3c1.1,1.1,2.7,1.2,3.6,0.7c-0.2-0.1-0.4-0.3-0.6-0.6c-0.4-0.4-0.6-0.7-0.7-1c0.2,0.2,0.4,0.4,0.5,0.5
		c0.5,0.5,0.9,0.7,1.3,0.8c0.6-0.3,1-0.7,1.4-1.3l0.8,0.7C38.6,28.7,38.9,27.3,38.9,26z M36.8,27.9c0,0.1,0,0.2,0.1,0.3
		c-0.9,0-1.2-0.1-1.8-0.5c-0.6-0.5-0.8-0.7-1-1.2c0.1,0,0.3,0,0.5,0c0.3,0,0.7,0,1.1,0.1c0.4,0.1,0.6,0.3,0.9,0.6
		C36.6,27.4,36.8,27.6,36.8,27.9z"/>
	<path fill="#55692F" d="M37.6,32.9c-0.2-0.1-0.5,0-0.7,0.2c-0.2,0.2-0.4,0.5-0.4,0.9c-0.1,0.4-0.1,0.8,0,1.1
		c0.1,0.3,0.3,0.5,0.5,0.6c0.2,0.1,0.5,0,0.7-0.2c0.2-0.2,0.4-0.5,0.4-0.9c0.1-0.4,0.1-0.7,0-1.1C38,33.1,37.8,32.9,37.6,32.9z"/>
	<path fill="#55692F" d="M41.3,36.3c-0.2,0.3-0.4,0.7-0.4,1.1c0,0.4,0.1,0.8,0.3,1.1c0.2,0.3,0.5,0.5,0.8,0.5c0.3,0,0.6-0.1,0.9-0.4
		c0.2-0.3,0.4-0.7,0.4-1.1c0-0.4-0.1-0.8-0.3-1.2c-0.2-0.3-0.5-0.5-0.8-0.5C41.8,35.9,41.5,36,41.3,36.3z"/>
	<path fill="#55692F" d="M20.6,39c-0.2-1-0.3-1.7-0.4-2c-0.1,0.2-1.9,2.1-1.6,3.5c0.3,0.8,1.1,1.1,2.1,1.1c-0.7,0.2-1.4,0-2-0.3
		c-0.6-0.3-1.2,0.9-0.1,1.6c1.4,0.8,1.9,0.3,2.5,0.2c-1,0.7-1.8,0.5-2.4,0.4c-0.9,0-0.9,1.1,0.5,1.6c1,0.3,1.7,0.1,2.5-0.5
		c-0.2,0.8-1.4,1.1-2.3,1c-1,0.3-0.5,1.2,0.4,1.3c0.4,0.1,1.3,0,2.4-0.8c-0.4,0.8-0.7,0.5-1.9,1.5c-3.6,2.9-2.3-1.8-3.5-5.5
		c-0.1,0.7-0.4,1.3-0.6,1.8c0.2,1.4,0.7,3.8,1.6,5.2c-1.2-1.1-1.9-4.4-1.9-4.6c-0.1,0.4-0.3,1.1-0.4,1.5c0,0,0.5,3.1,2.2,3.5
		c-1.5,0.1-2.3-2.6-2.4-3.1c-0.4,1.2-0.4,1.5-0.2,1.9c1.1,1.7,1.8,2,3.8,2.3c0.6,0.2,0.5,1,1.1,1.1c0.9,0.1,1.2-0.5,2.1-0.6
		c1.9-0.4,2-1,3.3-2.1c0.9-0.8,2.5-1.2,3.6-1c-1.1-0.3-1.5-0.7-2.4-1.3c-0.2-0.1-0.6-0.4-1.3-0.4c-1.4,0.2-1.6,1.4-3,1.8
		c1.1-0.5,2.6-2.8,0.2-5.3C21.7,41.5,21,40.7,20.6,39z"/>
	<g>
		<g id="XMLID_2_">
			<g>
				<path fill="#55692F" d="M53.7,15.8C59.2,21.3,62,28,62,35.8c0,7.8-2.8,14.5-8.3,20.1c-5.5,5.5-12.2,8.3-20.1,8.3
					c-7.8,0-14.5-2.8-20.1-8.3C8,50.3,5.3,43.7,5.3,35.8c0-7.8,2.8-14.5,8.3-20.1c5.5-5.5,12.2-8.3,20.1-8.3
					C41.5,7.4,48.2,10.2,53.7,15.8z M60.8,35.8c0-7.5-2.7-13.9-8-19.2s-11.7-8-19.2-8c-7.5,0-13.9,2.7-19.2,8s-8,11.7-8,19.2
					c0,7.5,2.7,13.9,8,19.2c5.3,5.3,11.7,8,19.2,8c7.5,0,13.9-2.7,19.2-8C58.2,49.7,60.8,43.3,60.8,35.8z"/>
			</g>
			<g>
			</g>
		</g>
	</g>
	<path fill="#C87C3B" d="M16,17.5"/>
	<path fill="#55692F" d="M55.9,7.2c-0.3-0.6-0.6-1-0.9-1.3C54.7,5.6,54.3,5.3,54,5c-0.4-0.2-0.9-0.4-1.4-0.5
		c-0.4-0.1-0.8-0.1-1.2-0.1c-0.2,0-0.4,0-0.6,0.1c-0.4,0-0.6,0.2-0.7,0.4v0c-0.1,0.1-0.1,0.4,0,0.8c-0.1-0.1-0.2-0.1-0.3-0.2h0
		c0,0-0.2,0.1-0.5,0.2c-0.1,0-0.2,0.1-0.2,0.1c0,0,0.1,0,0.1,0.1c0.1,0.2-0.1,0.6-0.8,1.3c-0.6,0.6-0.9,1.1-0.9,1.3c0,0,0,0.1,0,0.1
		C47.6,9,48,9.1,48.7,9.1c-0.2,0-0.4-0.1-0.4-0.3c0-0.2,0-0.4,0.2-0.6c0.2-0.3,0.4-0.4,0.6-0.5C49.4,7.2,49.6,7,49.7,7
		c0.2-0.2,0.2-0.4,0.2-0.5h0c0,0,0,0,0,0c0,0,0,0,0-0.1c0.3,0.2,0.5,0.4,0.9,0.6l0.7-0.3c-0.1-0.1-0.2-0.2-0.3-0.2
		C51,6.1,51,5.8,51,5.6c0-0.1,0-0.2,0-0.3c0.1-0.3,0.3-0.5,0.6-0.5c0.1,0,0.2,0,0.3,0c0.1,0,0.2,0,0.3,0.1C52.6,5,53,5.3,53.5,5.6
		C54,6,54.4,6.5,54.8,7.2c0.3,0.6,0.4,1.1,0.2,1.3c-0.2,0.1-0.3,0.2-0.5,0.3c-0.2-0.2-0.4-0.3-0.5-0.4c-0.2,0-0.4,0-0.7,0.1
		c-0.1,0-0.2,0-0.2,0c0.3,0.3,0.7,0.5,1.1,0.8c0.1,0.1,0,0.2,0,0.4l-0.1,0c-0.2-0.1-0.3-0.2-0.6-0.2c-0.2,0-0.4,0-0.4,0.1
		c0.2,0.1,0.4,0.2,0.5,0.4c0,0.1,0.1,0.1,0.1,0.2c0,0-0.1,0-0.1,0.1c-0.1,0.1-0.2,0.2-0.3,0.3c-0.4,0.3-0.6,0.6-0.8,0.8
		c-0.1,0.1-0.2,0.3-0.2,0.5c0,0.2,0.1,0.3,0.3,0.4c0.2,0.1,0.4,0.1,0.8,0.1c-0.1-0.1-0.2-0.3-0.2-0.4c0-0.1,0.1-0.3,0.3-0.4l0.2-0.2
		c0.1-0.1,0.2-0.2,0.3-0.3c0.2-0.2,0.3-0.3,0.4-0.4c0.1-0.1,0.2-0.3,0.3-0.4c0.1-0.1,0.1-0.3,0.1-0.4c0.2,0.2,0.4,0.4,0.6,0.6
		c0.2,0,0.5-0.1,0.9-0.1c-0.4-0.4-0.9-0.8-1.3-1.2c0.6,0,1-0.2,1.1-0.5c0.1-0.2,0.1-0.3,0.1-0.5C56.1,7.8,56.1,7.5,55.9,7.2z"/>
	<path fill="#55692F" d="M47.5,5.2c0.1,0,0.3,0.1,0.4,0.2c0.2,0.1,0.4,0.2,0.7,0.3c0,0,0.1-0.1,0.2-0.1c0.2-0.1,0.4-0.2,0.5-0.2
		c-0.4-0.2-0.7-0.4-1.1-0.5c-1.3-0.6-2.5-1.1-3.8-1.5c-0.2,0.1-0.4,0.2-0.6,0.4c0,0-0.1,0-0.1,0.1c0.4,0.1,0.8,0.2,1.1,0.4
		c0.4,0.1,0.8,0.3,1.2,0.4c0.2,0.1,0.3,0.1,0.3,0.1c0,0,0.1,0,0.2,0.1c0,0,0.1,0.1,0.2,0.3c0,0.1,0,0.3,0,0.5
		c-0.1,0.2-0.3,0.2-0.7,0.2c-0.4-0.1-0.7-0.3-0.8-0.6c-0.1-0.4-0.3-0.6-0.4-0.8c-0.3,0.1-0.4,0.1-0.4,0.1c-0.2,0.1-0.4,0.1-0.5,0.2
		c0.1,0.1,0.3,0.5,0.5,1.3c0.2,0.8,0.3,1.3,0.4,1.5c0.1,0.2,0.2,0.4,0.4,0.5c0.2,0.1,0.4,0.2,0.7,0.2c0.3,0,0.6-0.1,1-0.2
		c0,0,0-0.1,0-0.1c-0.2,0.1-0.3,0.1-0.4,0.1c-0.2,0-0.3-0.1-0.5-0.3C46,7.5,45.8,7.3,45.7,7c-0.2-0.3-0.3-0.7-0.4-1.2
		c0,0,0,0,0.1,0.1c0.3,0.3,0.8,0.5,1.5,0.5c0.6,0,0.9-0.2,0.8-0.7C47.6,5.5,47.6,5.3,47.5,5.2z"/>
	<path fill="#55692F" d="M50.4,7.6c-0.2,0-0.3,0-0.4,0.1c-0.1,0-0.3,0.1-0.5,0.2c-0.3,0.1-0.4,0.2-0.5,0.4c-0.1,0.2-0.2,0.4-0.1,0.7
		c0.1,0.3,0.3,0.5,0.6,0.7c0.4,0.2,0.8,0.3,1.2,0.3c-0.3,0.4-0.4,0.9-0.3,1.3c0.1,0.5,0.3,0.9,0.8,1.2c0.4,0.2,0.8,0.3,1.3,0.3
		c0.4,0,0.8-0.2,1-0.5c-0.2,0.1-0.5,0.2-0.7,0.2c-0.3,0-0.7-0.1-0.9-0.3c-0.3-0.3-0.6-0.5-0.7-0.8c-0.1-0.3-0.2-0.6-0.1-0.9
		c0-0.3,0.1-0.5,0.2-0.5c0.3,0,0.6,0,0.9-0.1c0.3-0.1,0.5-0.2,0.7-0.4c0.2-0.2,0.2-0.4,0.2-0.5c0,0,0,0,0-0.1c0,0,0,0,0,0
		c-0.2-0.1-0.6-0.1-1,0c-0.5,0.2-0.9,0.4-1.2,0.8c-0.3-0.1-0.5-0.2-0.7-0.3c-0.2-0.2-0.4-0.4-0.5-0.6c-0.1-0.2,0-0.5,0.2-0.7
		c0.2-0.3,0.5-0.4,0.9-0.4c0.3,0,0.9,0.1,1.6,0.2c0.7,0.1,1.2,0.2,1.6,0c0.3-0.1,0.5-0.3,0.5-0.5c0-0.2-0.1-0.4-0.3-0.6
		c-0.2-0.2-0.3-0.3-0.4-0.3c-0.1-0.1-0.2-0.1-0.3-0.1c-0.1,0-0.1,0-0.2,0c-0.4-0.1-0.8-0.1-1.1,0c-0.3,0-0.5,0.1-0.7,0.2
		c-0.1,0-0.2,0.1-0.3,0.2c-0.1,0.2,0,0.4,0.3,0.7c-0.3,0-0.5,0-0.7,0.1C50.7,7.6,50.5,7.6,50.4,7.6z M52.3,7.1c-0.1-0.2,0-0.3,0-0.3
		c0.1-0.1,0.2-0.1,0.5,0.1c0.3,0.2,0.5,0.4,0.5,0.5c0.1,0.2,0.1,0.3,0.1,0.4c0,0.1-0.1,0.1-0.2,0.1c-0.2,0-0.3-0.1-0.5-0.3
		C52.5,7.4,52.4,7.2,52.3,7.1z"/>
	<path fill="#55692F" d="M53.9,13.2c0.1,0.2,0.2,0.4,0.4,0.5c0.2,0.1,0.4,0.2,0.6,0.2c0,0,0,0,0,0c0,0,0-0.1-0.1-0.2
		c-0.2-0.6,0-1.1,0.4-1.4c0.1-0.1,0.3,0,0.6,0.2c0.2,0.2,0.5,0.5,0.8,0.8c0.3,0.3,0.4,0.5,0.5,0.5c-0.2,0.1-0.4,0.2-0.6,0.4
		c-0.2,0.2-0.5,0.3-0.8,0.5c-0.2,0.2-0.3,0.3-0.2,0.5c0,0.2,0.2,0.3,0.5,0.4c0.1,0,0.3,0.1,0.5,0.1c-0.1,0-0.1-0.1-0.1-0.1
		c0-0.1-0.1-0.1-0.1-0.2c0-0.1,0.3-0.4,1.1-0.9c0.8-0.5,1.1-0.8,1.1-1c0.1,0.1,0.2,0.2,0.4,0.4l0.4-0.1c0.2,0,0.3,0,0.5,0
		c-0.2-0.2-0.4-0.4-0.6-0.7l-1-1.1c-0.1-0.1-0.2-0.2-0.3-0.3c-0.5-0.5-1-0.9-1.4-1.3h0c0,0-0.2,0-0.5,0.1c-0.1,0-0.2,0-0.3,0.1
		c0.5,0.4,1,0.9,1.5,1.4c0.3,0.2,0.5,0.5,0.8,0.8l0.1,0.1c0,0.1-0.1,0.2-0.3,0.4c0,0,0,0,0,0l-0.2-0.1c-0.1-0.1-0.3-0.3-0.5-0.5
		c-0.2-0.2-0.4-0.4-0.6-0.5c-0.1-0.2-0.4-0.3-0.6-0.3c-0.3-0.1-0.6-0.1-1,0c-0.4,0.1-0.7,0.3-0.9,0.5C53.9,12.7,53.8,13,53.9,13.2z"
		/>
	<path fill="#55692F" d="M58.3,15.5c-1,0.5-1.4,0.8-1.4,1.1c0,0.2,0.4,0.5,1.1,0.7c-0.2-0.1-0.3-0.2-0.3-0.4c0-0.2,0.1-0.3,0.4-0.5
		c0.3-0.2,0.6-0.3,0.7-0.3c0.5-0.3,0.8-0.5,0.9-0.5c0.2-0.1,0.3-0.2,0.3-0.3c0,0,0,0,0-0.1c0,0,0,0,0,0c0.1,0.1,0.1,0.2,0.2,0.3
		c0.4,0,0.7,0,0.9,0c-0.1-0.1-0.2-0.2-0.2-0.3c-0.3-0.4-0.6-0.8-0.9-1.1l0,0c0,0-0.2,0-0.5,0c-0.1,0-0.2,0-0.3,0
		c0.1,0.1,0.2,0.2,0.3,0.4c-0.1,0.2-0.5,0.5-1.2,0.8C58.3,15.4,58.3,15.4,58.3,15.5z"/>
	<path fill="#55692F" d="M39.7,2.7c0.3,0.1,0.7,0.2,1,0.2l0,0c0.1,0.1,0.1,0.2,0.1,0.5c0,0,0,0,0,0l-0.2,0c-0.2,0-0.4-0.1-0.6-0.1
		c-0.3-0.1-0.5-0.1-0.7-0.2c-0.2,0-0.4,0-0.6,0.1c-0.2,0.1-0.5,0.3-0.7,0.5c-0.3,0.3-0.4,0.5-0.3,0.9c0,0.3,0.1,0.5,0.4,0.7
		c0.2,0.1,0.4,0.2,0.6,0.2c0.2,0,0.4-0.1,0.6-0.2c0,0,0,0,0,0c0,0-0.1-0.1-0.2-0.2c-0.5-0.4-0.7-0.8-0.5-1.2c0-0.1,0.2-0.2,0.5-0.2
		c0.3,0,0.6,0.1,1,0.2c0.4,0.1,0.6,0.2,0.7,0.2c-0.1,0.2-0.1,0.3-0.2,0.6c-0.1,0.2-0.1,0.4-0.2,0.8c-0.1,0.2,0,0.4,0.1,0.5
		C40.4,6,40.6,6,40.8,5.9c0.1,0,0.2-0.1,0.4-0.2c-0.1,0-0.2-0.1-0.3-0.2c-0.1-0.1,0-0.5,0.3-1.2c0.3-0.7,0.4-1.1,0.2-1.3l0.4,0.1
		c0.2,0.1,0.5,0.2,0.8,0.2c0.1-0.1,0.2-0.2,0.4-0.3c0.1-0.1,0.2-0.1,0.2-0.1C43,3,42.8,2.9,42.5,2.8h0c-0.1,0-0.2,0-0.2-0.1L42,2.7
		c-0.1,0-0.2,0-0.2,0c-0.1-0.1-0.2-0.1-0.4-0.1l0.2-0.1c0.6-0.2,0.8-0.5,0.7-0.7c-0.1-0.3-0.4-0.5-0.8-0.8c-0.4-0.3-0.9-0.5-1.2-0.6
		C40,0.1,39.6,0.1,39.2,0c0,0-0.1,0-0.1,0c0,0,0,0,0,0c-0.3,0-0.6,0-1,0.2c-0.5,0.1-0.9,0.3-1.2,0.6c-0.2,0.1-0.2,0.3-0.2,0.4
		c0,0.1,0.1,0.3,0.3,0.5c-0.2,0-0.4,0-0.6-0.1l0,0c0,0-0.1,0.1-0.3,0.4C36,2,36,2.1,36,2.2c0.1,0,0.2,0,0.4,0c0.2,0.1,0.2,0.6,0,1.4
		C36,4.5,36,5,36.2,5.2c0.2,0.1,0.6,0,1.2-0.2c-0.2,0-0.4,0-0.4-0.1c-0.1-0.1-0.1-0.3-0.1-0.6C37,4,37,3.7,37.1,3.6
		c0.1-0.5,0.2-0.8,0.2-0.8c0-0.2,0-0.4-0.1-0.5h0l0,0C37.9,2.4,38.8,2.5,39.7,2.7z M41.1,2.4L41.1,2.4c-0.4-0.1-0.8-0.2-1.1-0.3
		c-1-0.2-1.4-0.3-1.3-0.3c-0.1,0-0.2,0-0.2,0c-0.1,0-0.1,0,0,0v0c-0.3-0.2-0.5-0.5-0.7-0.6c-0.1-0.1-0.1-0.1-0.1-0.2
		c-0.1-0.2-0.1-0.4,0-0.5c0.1-0.1,0.5-0.1,1.2,0c0.7,0.1,1.2,0.4,1.7,0.7c0.5,0.3,0.7,0.6,0.7,0.8C41.3,2.2,41.2,2.3,41.1,2.4
		C41.1,2.4,41.1,2.4,41.1,2.4z"/>
	<path fill="#55692F" d="M35.5,2.2L36,1.6c-0.9-0.1-1.8-0.1-2.6-0.1c-0.1,0.1-0.3,0.3-0.4,0.5c-0.1,0-0.1,0.1-0.1,0.2
		c0.4,0,0.9,0,1.3,0c0.1,0,0.2,0.1,0.2,0.3l-0.1,0c-0.2,0-0.4,0.1-0.5,0.2c-0.2,0.1-0.3,0.2-0.2,0.3c0.2-0.1,0.5-0.1,0.7,0
		c0.1,0,0.1,0,0.2,0.1c0,0,0,0.1,0,0.1c0,0.1,0,0.3,0,0.4c-0.1,0.5-0.1,0.8-0.1,1c0,0.2,0.1,0.3,0.2,0.5c0.1,0.1,0.3,0.2,0.5,0.1
		c0.2-0.1,0.4-0.2,0.6-0.4c-0.2,0-0.3-0.1-0.4-0.2c-0.1-0.1-0.1-0.3-0.1-0.5l0-0.3c0-0.1,0-0.2,0-0.3c0-0.2,0-0.4,0.1-0.5
		c0-0.2,0-0.3,0-0.5c0-0.2-0.1-0.3-0.2-0.3C35.1,2.2,35.3,2.2,35.5,2.2z"/>
	<path fill="#55692F" d="M31.9,0.4c-0.1,0-0.1,0.1-0.2,0.1c-0.3,0.2-0.6,0.4-0.9,0.7c-0.2,0.2-0.3,0.3-0.4,0.5
		c-0.1,0.1-0.1,0.2-0.1,0.3c0,0.2,0.2,0.3,0.7,0.3c-0.2,0.2-0.3,0.3-0.5,0.4c-0.2,0.1-0.3,0.2-0.3,0.3c-0.1,0.1-0.2,0.2-0.2,0.2
		c-0.1,0.1-0.2,0.2-0.3,0.4c-0.1,0.2-0.1,0.4-0.1,0.6c0,0.2,0.2,0.4,0.4,0.5C30.3,5,30.6,5.1,31.1,5c0.4-0.1,0.8-0.2,1.1-0.4
		c0.1,0.5,0.3,0.9,0.7,1.1C33.2,6,33.6,6.1,34,6.1c0.1,0,0.1,0,0.2,0c0.5,0,0.8-0.2,1.1-0.4c0.3-0.3,0.4-0.6,0.4-0.9
		c-0.1,0.2-0.2,0.3-0.4,0.5c-0.3,0.2-0.5,0.3-0.9,0.3c-0.4,0-0.8-0.1-1-0.2C33.2,5.2,33,5,32.8,4.8c-0.2-0.3-0.2-0.5-0.2-0.5
		c0.3-0.2,0.5-0.4,0.6-0.5c0.1-0.2,0.2-0.4,0.2-0.7c0-0.3-0.1-0.4-0.2-0.5c0,0,0,0,0,0c0,0,0,0,0,0c-0.3,0-0.5,0.2-0.7,0.6
		c-0.3,0.4-0.4,0.8-0.4,1.2c-0.2,0.1-0.5,0.1-0.7,0.2c-0.3,0-0.5,0-0.7-0.2c-0.2-0.1-0.4-0.4-0.4-0.7c0-0.3,0.1-0.6,0.4-0.8
		C31,2.7,31.4,2.4,32,2.2c0.6-0.3,1-0.6,1.2-0.9c0.2-0.3,0.2-0.5,0-0.7c-0.2-0.2-0.4-0.3-0.6-0.3c-0.2,0-0.4,0-0.5,0
		C32,0.3,31.9,0.3,31.9,0.4z M32.6,1.6c-0.1,0.1-0.3,0.1-0.6,0.1c-0.3,0-0.5-0.1-0.7-0.2c-0.2-0.1-0.2-0.2-0.2-0.3
		c0-0.1,0.2-0.2,0.5-0.2c0.3,0,0.6,0,0.8,0.1c0.2,0.1,0.3,0.2,0.3,0.3C32.8,1.4,32.7,1.5,32.6,1.6z"/>
	<path fill="#55692F" d="M28.9,2.5c0.2,0,0.4-0.1,0.7-0.1c0-0.1,0.1-0.1,0.1-0.2c0.1-0.2,0.2-0.4,0.3-0.4c-0.4,0-0.7,0.1-1.1,0.1
		c-0.1,0-0.1,0-0.2,0c-1.4,0.2-2.7,0.5-4,0.8c-0.1,0.1-0.2,0.4-0.2,0.6c0,0,0,0,0,0.1v0c0.4-0.1,0.8-0.2,1.2-0.3
		C26,3,26.4,2.9,26.8,2.9c0.1,0,0.2-0.1,0.3-0.1c0,0,0.1,0,0.2,0c0.1,0,0.2,0,0.4,0.2C27.8,3,27.9,3.2,28,3.4c0,0.2-0.1,0.3-0.4,0.5
		c-0.3,0.2-0.7,0.1-1-0.1c-0.4-0.2-0.7-0.4-0.9-0.5c-0.2,0.2-0.3,0.3-0.3,0.3c-0.1,0.2-0.2,0.3-0.2,0.4c0.2,0,0.6,0.3,1.3,0.8
		c0.7,0.5,1.1,0.8,1.4,0.9c0.2,0.1,0.4,0.2,0.7,0.2c0.1,0,0.3-0.1,0.5-0.2c0.1,0,0.1-0.1,0.2-0.1c0.2-0.2,0.4-0.4,0.6-0.7
		c0,0,0-0.1,0-0.1c-0.1,0.1-0.2,0.2-0.3,0.3c-0.1,0-0.3,0.1-0.5,0c0,0,0,0,0,0c-0.2,0-0.5-0.2-0.8-0.3c-0.3-0.2-0.7-0.4-1.1-0.7
		c0,0,0.1,0,0.1,0c0.5,0.1,1-0.1,1.5-0.4c0.1,0,0.1-0.1,0.2-0.1c0.3-0.3,0.3-0.5,0-0.8c0,0,0,0,0,0c-0.2-0.2-0.4-0.3-0.5-0.3
		C28.5,2.5,28.6,2.5,28.9,2.5C28.8,2.5,28.8,2.5,28.9,2.5z"/>
	<path fill="#55692F" d="M24.3,5.6c-0.1,0.1-0.1,0.2-0.1,0.2c-0.1,0-0.1,0-0.2,0c-0.1,0-0.2,0-0.3-0.1c-0.1,0-0.2-0.1-0.2-0.1
		c-0.1,0-0.2,0-0.2,0.1c0,0-0.1,0.2-0.2,0.5L23,6.5h0c0.1,0,0.1,0,0.2,0c0,0,0,0,0.2,0c0.1,0,0.3,0,0.5,0.1c0.1,0,0.1,0,0.1,0
		c0,0,0.1-0.1,0.2-0.3c0.1-0.2,0.1-0.3,0.2-0.4c0-0.1,0.1-0.2,0.1-0.3C24.4,5.5,24.4,5.5,24.3,5.6z"/>
	<path fill="#55692F" d="M21.1,2.8c-0.2-0.1-0.4-0.2-0.7-0.2c-0.2,0-0.3,0-0.5,0c-0.5,0-1,0.1-1.3,0.2c-0.4,0.1-0.7,0.3-1.1,0.5
		c-0.3,0.1-0.5,0.4-0.8,0.8c-0.3,0.4-0.4,0.7-0.6,1.1c0,0,0,0.1,0,0.1c0,0.1,0,0.2,0.2,0.3l0,0c0.1,0.1,0.2,0.1,0.5,0.2
		c-0.2,0.1-0.3,0.2-0.5,0.3l0,0c0,0,0,0.2,0,0.5c0,0.1,0,0.1,0,0.2c0.1-0.1,0.2-0.1,0.3-0.2c0.2,0,0.5,0.3,0.9,1.1
		c0.4,0.8,0.7,1.2,0.9,1.2c0.2,0,0.5-0.3,0.7-0.8c-0.1,0.1-0.2,0.2-0.4,0.2c-0.2,0-0.3-0.2-0.4-0.4c-0.1-0.3-0.2-0.5-0.3-0.6
		c-0.2-0.5-0.3-0.7-0.3-0.7c-0.1-0.2-0.3-0.3-0.4-0.4l0,0c0.6-0.4,1.4-0.7,2.3-1.1h0C20,5,20.3,4.9,20.7,4.8c0.1,0,0.2,0.1,0.3,0.3
		c0,0,0,0,0,0l-0.2,0.1c-0.1,0.1-0.3,0.2-0.6,0.3c-0.3,0.1-0.5,0.2-0.7,0.3c-0.2,0.1-0.3,0.2-0.4,0.4C19,6.4,18.9,6.7,18.9,7
		c0,0.3,0,0.7,0.3,0.9c0.2,0.2,0.5,0.3,0.7,0.3c0.2,0,0.4-0.1,0.6-0.2c0.1-0.1,0.2-0.3,0.4-0.5c0,0,0,0-0.1,0c0,0-0.1,0-0.2,0
		c-0.6-0.1-1-0.3-1.2-0.7c-0.1-0.2,0.1-0.3,0.3-0.4c0.3-0.2,0.6-0.3,1-0.4c0.4-0.1,0.6-0.2,0.7-0.3c0.1,0.1,0.1,0.3,0.2,0.6
		c0.1,0.2,0.2,0.4,0.3,0.8c0.1,0.2,0.2,0.3,0.4,0.3c0.3,0,0.5-0.2,0.8-0.6c-0.1,0.1-0.2,0.1-0.3,0.1c-0.1,0-0.3-0.4-0.5-1.2
		c-0.2-0.7-0.4-1.1-0.6-1.2l0.4-0.1c0.2-0.1,0.5-0.2,0.8-0.3c0-0.2,0.1-0.3,0.2-0.5c0-0.1,0.1-0.2,0.1-0.3c-0.3,0.1-0.5,0.1-0.8,0.2
		c0,0,0,0,0,0c-0.1,0-0.2,0-0.2,0.1l-0.3,0.1c-0.1,0-0.2,0-0.2,0.1C21.1,3.9,21,4,20.9,4L21,3.8C21.3,3.3,21.4,3,21.1,2.8z
		 M19.5,4.6c-0.9,0.4-1.3,0.5-1.2,0.5c-0.1,0-0.1,0.1-0.2,0.1h0c0,0,0,0,0,0c-0.4,0-0.7-0.1-0.9-0.1c-0.1,0-0.2,0-0.2-0.1
		c-0.2-0.1-0.3-0.2-0.3-0.4c0-0.2,0.4-0.4,1-0.6c0.6-0.3,1.2-0.4,1.7-0.5c0.5-0.1,0.9,0,1.1,0.2c0.1,0.1,0.1,0.3,0,0.4c0,0,0,0,0,0
		C20.2,4.3,19.9,4.4,19.5,4.6z"/>
	<path fill="#55692F" d="M23.8,4.1C23.8,4.1,23.8,4.1,23.8,4.1c-0.1,0.1-0.1,0.2-0.2,0.2c0,0-0.1,0-0.1,0c-0.1,0-0.2-0.1-0.4-0.1
		c-0.2-0.1-0.3-0.1-0.3-0.1c-0.1,0-0.1,0-0.2,0.1c-0.1,0.1-0.2,0.3-0.3,0.6c0,0,0.1,0,0.1,0c0.1,0,0.2,0,0.4,0.1
		C22.9,5,23,5,23.1,5.1c0,0,0.1,0,0.2,0c0,0,0.1-0.1,0.1-0.1c0-0.1,0.1-0.2,0.2-0.3C23.7,4.4,23.7,4.3,23.8,4.1z"/>
	<path fill="#55692F" d="M17.4,9.1c0.1-0.4,0.1-0.7-0.1-1c-0.2-0.3-0.4-0.5-0.7-0.6c-0.3-0.1-0.7,0.1-1,0.4
		c-0.4,0.3-0.6,0.5-0.8,0.6c0-0.1-0.2-0.2-0.4-0.3h0c0.6-0.5,1.3-0.9,1.9-1.3c0-0.1,0-0.2,0-0.3c0-0.2,0-0.3,0-0.4
		c-1.7,1-3.3,2.2-4.8,3.6c0,0.2,0,0.4,0.1,0.8c0.7-0.7,1.4-1.3,2.2-1.9l0,0C13.8,8.8,14,8.9,14.1,9h0v0c0.2,0.1,0.3,0.3,0.5,0.5
		c0,0.1,0,0.3,0,0.5c-0.1,0.2-0.3,0.5-0.6,0.8c-0.3,0.3-0.6,0.5-0.8,0.5c-0.2,0-0.4,0-0.4-0.1c0-0.1-0.1-0.2,0-0.2
		c0-0.1,0.2-0.3,0.7-0.6c0.4-0.3,0.6-0.6,0.7-0.8c0-0.1,0-0.2,0-0.3c0-0.2,0-0.3,0-0.3l0,0c-0.7,0.5-1.1,0.9-1.3,1.1
		c-0.2,0.2-0.3,0.4-0.3,0.8c0,0.3,0,0.6,0.1,0.7c0.1,0.2,0.3,0.3,0.5,0.4c0.3,0.1,0.6-0.1,1-0.4c0.4-0.4,0.6-0.7,0.7-1.1
		c0-0.4,0-0.6,0-0.7c0.1,0.3,0.2,0.4,0.4,0.5c-0.1,0.1-0.2,0.3-0.4,0.5c-0.2,0.3-0.2,0.5-0.3,0.8c-0.1,0.4,0,0.6,0.1,0.8
		c0.1,0.2,0.4,0.2,0.9,0c0.4-0.2,0.8-0.4,1.1-0.7c0.3-0.3,0.3-0.7,0.2-1.2c-0.1,0-0.1-0.1-0.1-0.1c0,0.2-0.1,0.4-0.2,0.6
		c-0.2,0.2-0.4,0.4-0.8,0.6c-0.4,0.1-0.6,0.2-0.7,0.2c-0.1-0.1-0.2-0.2-0.2-0.3c0-0.2,0.2-0.4,0.5-0.6c0.3-0.2,0.6-0.4,1-0.4
		c0-0.1,0-0.2,0-0.4c0-0.2-0.1-0.4-0.1-0.5c0,0-0.1,0.1-0.1,0.1c-0.1,0-0.2,0-0.3-0.2c-0.2-0.2-0.3-0.4-0.4-0.6
		c0.2-0.3,0.4-0.5,0.6-0.6c0.2-0.2,0.4-0.2,0.7-0.2c0.2,0,0.4,0.1,0.6,0.2c0.1,0.1,0.2,0.2,0.2,0.4c0,0.2-0.2,0.3-0.4,0.4
		c-0.2,0.1-0.4,0.1-0.5,0.1c0.1,0.1,0.1,0.3,0.2,0.4c0,0.1,0,0.2,0.1,0.3c0.1-0.1,0.3-0.2,0.4-0.3C17.1,9.7,17.3,9.4,17.4,9.1z"/>
	<path fill="#55692F" d="M7.1,14.2c0,0.1,0.1,0.3,0.1,0.5c0,0.1,0,0.2,0.1,0.3c0.2-0.3,0.4-0.5,0.6-0.7l0.2-0.1
		c0.2,0,0.5,0.2,0.8,0.5c0.3,0.3,0.5,0.5,0.8,0.5c0.3,0,0.5-0.2,0.8-0.6c0.2-0.5,0.4-0.9,0.5-1.2l0.1-0.6c0,0,0,0,0-0.1
		c0,0,0.1,0.1,0.1,0.1c0,0.1,0,0.3,0,0.4c0,0.4-0.1,1-0.4,1.7c0,0.1-0.1,0.3-0.2,0.4c-0.3,0.6-0.8,1.2-1.6,1.9
		c-0.1,0.1-0.2,0.2-0.3,0.3c0,0.1,0,0.3,0.1,0.5c0,0.2,0,0.3,0,0.5c0.3-0.2,0.5-0.5,0.7-0.7c0.8-0.9,1.3-1.7,1.5-2.3
		c0-0.1,0-0.2,0-0.2c0.1-0.7,0.2-1.2,0.2-1.6c0-0.4,0-0.6-0.1-0.7c0,0,0.1,0.1,0.1,0.1c0.5,0.7,0.8,1,0.9,1c0.5,0,0.7-0.4,0.8-1.3
		c0,0.2-0.1,0.3-0.1,0.3c0,0-0.1,0-0.2,0c-0.1,0-0.4-0.3-0.9-0.9c-0.5-0.6-0.8-0.8-0.9-0.8c-0.1,0-0.2,0-0.3,0c0,0,0,0,0,0
		c0.2-0.2,0.4-0.4,0.6-0.5c0-0.4-0.1-0.6-0.1-0.8c-0.6,0.5-1.2,1.1-1.8,1.7C8.5,12.5,7.7,13.3,7.1,14.2z M9.8,12.1
		c0,0,0.1-0.1,0.1-0.1c0,0,0.1,0,0.1,0c0.2,0,0.5,0.2,0.8,0.5c0,0.1-0.1,0.2-0.1,0.3c-0.1,0.3-0.2,0.6-0.3,1
		c-0.2,0.4-0.3,0.5-0.5,0.5c-0.2-0.1-0.4-0.2-0.7-0.4c-0.3-0.2-0.5-0.4-0.6-0.4c-0.1,0-0.2,0-0.4,0.1C8.8,13.1,9.3,12.6,9.8,12.1z"
		/>
	<path fill="#FFFFFF" d="M26.3,47.2c0,0-0.1-0.3-0.4-0.2c-0.2,0-0.2,0.2-0.2,0.2s0.1,0.2,0.3,0.2C26.2,47.4,26.3,47.2,26.3,47.2z"/>
	<g>
		<path fill="#55692F" d="M62.6,44.5c-0.1-0.1-0.1-0.1-0.1-0.2l-0.1,0l0,1.1l0,0.1c0,0.1,0.1,0.2,0.1,0.2c0.1,0.1,0.1,0.1,0.2,0
			c0.1,0,0.2-0.1,0.4-0.2c0.2-0.1,0.4-0.2,0.6-0.4c0.2-0.2,0.4-0.2,0.5-0.3c0.1,0,0.2-0.1,0.4-0.2c0.2-0.1,0.4-0.2,0.6-0.2
			c0.2,0,0.4,0,0.5,0.1c0.1,0.1,0.2,0.1,0.2,0.1c0,0,0.1,0,0.1,0.1c0.1,0,0.1,0.1,0.2,0.2c0.1,0.1,0.1,0.2,0.1,0.4
			c0,0.1,0,0.3-0.1,0.4c0,0-0.1,0.1-0.1,0.1c-0.1,0-0.1,0.1-0.3,0.2c-0.1,0.1-0.3,0.1-0.6,0.1c-0.1,0-0.2,0-0.2,0c0,0-0.1,0-0.2-0.1
			c-0.1,0-0.2-0.1-0.2-0.1c-0.2-0.1-0.3-0.3-0.4-0.5l-0.1,0l0,0.3c-0.1,0.6,0.1,1,0.4,1.3c0.2,0.2,0.5,0.3,0.9,0.3
			c0.4,0,0.7-0.1,0.9-0.4c0.1-0.1,0.1-0.2,0.2-0.4c0-0.1,0.1-0.3,0.1-0.5c0-0.2,0-0.3,0-0.4c0-0.1,0-0.2,0-0.3c0-0.2,0-0.3-0.1-0.5
			c0-0.2-0.1-0.3-0.1-0.4c-0.1-0.2-0.2-0.4-0.4-0.5c-0.3-0.2-0.5-0.3-0.7-0.2c-0.2,0.1-0.4,0.1-0.5,0.2c-0.1,0-0.2,0.1-0.4,0.2
			l-0.2,0.1c-0.2,0.1-0.3,0.2-0.4,0.2c-0.1,0-0.2,0.1-0.3,0.2L63,44.5C62.8,44.6,62.7,44.5,62.6,44.5z"/>
		<path fill="#55692F" d="M64.2,47.3c0-0.2,0-0.3,0-0.4c0-0.1,0-0.2-0.1-0.2c0-0.1-0.1-0.1-0.1-0.1c-0.1-0.1-0.3-0.1-0.4,0
			c-0.2,0.1-0.3,0.2-0.4,0.4c-0.1,0.1-0.1,0.3-0.2,0.5c0,0.2,0,0.4,0,0.7c0,0.3,0.1,0.5,0.2,0.8c0.1,0.2,0.3,0.4,0.5,0.5
			c0.3,0.2,0.6,0.3,0.8,0.2c0.2,0,0.4-0.1,0.4-0.1c0,0,0.1,0,0.3-0.1c0.1-0.1,0.3-0.2,0.4-0.3c0.1-0.1,0.1-0.2,0.1-0.3
			c0-0.1,0-0.2,0-0.3c0-0.1,0-0.3-0.1-0.6l0-0.1l-0.1,0l0,0.1c0,0.2-0.1,0.3-0.2,0.4c-0.2,0.2-0.4,0.4-0.6,0.4
			c-0.3,0.1-0.5,0.1-0.6,0c-0.2,0-0.3-0.1-0.5-0.2c-0.1-0.1-0.2-0.2-0.3-0.3c0-0.1,0-0.2,0-0.3c0,0,0.1-0.1,0.2-0.2
			c0.1-0.1,0.3-0.1,0.4,0c0.1,0,0.1,0.1,0.1,0.2c0,0.1,0.1,0.2,0.1,0.5l0,0.1l0.1,0l0-0.6L64.2,47.3z"/>
		<path fill="#55692F" d="M62.6,48.5c0,0.1-0.1,0.2-0.1,0.3c0,0.1-0.1,0.2-0.1,0.2l-0.2,0.3l-0.8-0.4l0.1,1l0.3,0.2l-0.1,0.2
			l0.1,0.3l0.2,0.5c0-0.1,0.1-0.1,0.1-0.2c0-0.1,0.1-0.2,0.1-0.2l0.1-0.2l0.4,0.3c0.4,0.2,0.7,0.4,0.9,0.5c0.2,0.1,0.4,0.1,0.6,0.2
			c0.2,0,0.3,0,0.4-0.1c0-0.1,0.1-0.2,0.1-0.4l0-0.2c0-0.1,0-0.2,0-0.2c0-0.1,0-0.1,0-0.3l-0.1,0c0,0,0,0.1,0,0.1c0,0,0,0-0.1,0.1
			c0,0-0.1,0.1-0.1,0.1c-0.1,0-0.2,0-0.3-0.1l-0.2-0.1l0,0c0,0-0.1,0-0.2-0.1c-0.1,0-0.2-0.1-0.4-0.2l-0.5-0.2l0.1-0.2
			c-0.1-0.2-0.1-0.3-0.2-0.5C62.6,48.8,62.6,48.6,62.6,48.5z"/>
		<path fill="#55692F" d="M61.2,51c-0.1,0.1-0.1,0.1-0.2,0.2c-0.1,0.1-0.1,0.2-0.2,0.4c0,0.1-0.1,0.3-0.1,0.4c0,0.1,0,0.3,0,0.6
			c0,0.3,0.1,0.5,0.2,0.7c0.1,0.2,0.3,0.3,0.4,0.4c0.1,0,0.1,0.1,0.2,0.1c0.1,0,0.1,0.1,0.2,0.1c0.1,0,0.1,0,0.2,0.1
			c0.1,0,0.2,0,0.5,0c0.3,0,0.5-0.1,0.7-0.4c0.1-0.2,0.2-0.5,0.2-0.9l0-0.4l-0.2,0c0,0.1-0.1,0.2-0.1,0.3c0,0,0,0-0.1,0.1
			c0,0.1-0.1,0.1-0.2,0.2c-0.1,0.1-0.2,0.1-0.3,0.1c-0.1,0-0.3,0.1-0.5,0.1c-0.2,0-0.4,0-0.6-0.1c-0.2-0.1-0.3-0.1-0.4-0.2
			c-0.1-0.1-0.2-0.2-0.2-0.3l0-0.1c0-0.1,0-0.2,0.1-0.3c0.1-0.1,0.2-0.2,0.4-0.2c0.2,0,0.3,0,0.4,0.1l0-0.2l0-0.4
			c0-0.2-0.1-0.3-0.2-0.3c-0.1-0.1-0.2-0.1-0.4,0C61.4,50.9,61.3,50.9,61.2,51z"/>
		<path fill="#55692F" d="M59.9,54.1c0,0,0.1-0.1,0.2-0.2c0.1-0.1,0.3-0.1,0.4,0.1c0,0,0.1,0.1,0.1,0.2c0,0.1,0,0.3,0,0.5l0,0.1
			l0.1,0l0.1-0.6l0-0.3c0-0.2,0-0.3,0-0.4c0-0.1,0-0.2-0.1-0.2c0-0.1-0.1-0.1-0.1-0.2c-0.1-0.1-0.2-0.1-0.4-0.1
			c-0.2,0-0.3,0.1-0.5,0.3c-0.1,0.1-0.2,0.3-0.2,0.4c-0.1,0.2-0.1,0.4-0.1,0.7c0,0.3,0,0.5,0.1,0.8c0.1,0.2,0.2,0.4,0.4,0.6
			c0.3,0.2,0.5,0.4,0.7,0.3c0.2,0,0.4,0,0.4,0c0,0,0.1,0,0.3-0.1c0.2,0,0.3-0.1,0.4-0.3c0.1-0.1,0.1-0.2,0.2-0.3
			c0-0.1,0.1-0.2,0.1-0.3c0-0.1,0-0.3,0-0.6l0-0.1l-0.1,0l0,0.1c-0.1,0.2-0.1,0.3-0.2,0.4c-0.2,0.2-0.4,0.3-0.7,0.3
			c-0.3,0-0.5,0-0.6-0.1c-0.2-0.1-0.3-0.1-0.4-0.3c-0.1-0.1-0.2-0.2-0.2-0.3C59.8,54.3,59.8,54.2,59.9,54.1z"/>
		<path fill="#55692F" d="M57.8,55.6l0.3,0.2L57.9,56l0.1,0.3l0.1,0.5c0,0,0.1-0.1,0.1-0.2c0.1-0.1,0.1-0.2,0.1-0.2l0.1-0.1l0.4,0.3
			c0.4,0.3,0.7,0.5,0.8,0.6c0.1,0.1,0.3,0.2,0.5,0.3c0.2,0.1,0.3,0.1,0.4,0c0-0.1,0.1-0.2,0.1-0.3l0-0.2c0-0.1,0-0.2,0-0.2
			c0-0.1,0-0.2,0-0.3l-0.1,0c0,0,0,0.1,0,0.1c0,0,0,0-0.1,0.1c0,0-0.1,0-0.2,0c-0.1,0-0.1,0-0.3-0.1l-0.2-0.1l0,0
			c0,0-0.1-0.1-0.1-0.1c-0.1-0.1-0.2-0.1-0.3-0.3L59,55.6l0.2-0.2c0-0.2-0.1-0.3-0.1-0.5c0-0.2,0-0.3,0-0.5
			c-0.1,0.1-0.1,0.2-0.2,0.2c-0.1,0.1-0.1,0.1-0.1,0.2l-0.2,0.3l-0.7-0.6L57.8,55.6z"/>
		<path fill="#55692F" d="M57.3,56.8c-0.2,0-0.3,0.1-0.5,0.2c-0.2,0.2-0.3,0.4-0.4,0.8l-0.1,0.3l0.1,0.1l0.1-0.1c0,0,0,0,0.1-0.1
			c0,0,0,0,0.1-0.1c0.2-0.1,0.3-0.2,0.5-0.3c0.2,0,0.4,0,0.6,0.1c0.2,0.1,0.3,0.1,0.4,0.2c0.1,0.1,0.2,0.2,0.3,0.3
			c0.2,0.2,0.2,0.5,0,0.6c0,0-0.1,0.1-0.2,0.1l-0.1,0c-0.3,0.1-0.5,0.1-0.7-0.1c-0.2-0.1-0.3-0.2-0.4-0.3c-0.1-0.1-0.2-0.2-0.2-0.4
			L56.8,58c0,0,0,0.1,0,0.2c0,0.1,0,0.2-0.1,0.4c0,0.2,0,0.4,0,0.5c0,0.1,0.1,0.3,0.2,0.4c0.1,0.1,0.2,0.2,0.3,0.2
			c0.1,0.1,0.3,0.1,0.6,0.2c0.3,0,0.5,0,0.7-0.2c0.2-0.2,0.4-0.6,0.4-1c0-0.4,0-0.8,0-1c-0.1-0.2-0.2-0.4-0.3-0.5
			c-0.1-0.1-0.3-0.2-0.5-0.3c-0.1-0.1-0.2-0.1-0.3-0.1C57.6,56.7,57.5,56.7,57.3,56.8z"/>
		<path fill="#55692F" d="M54.7,59.2C54.6,59.2,54.6,59.2,54.7,59.2l-0.4,1.2l0.1,0.1l0-0.1c0-0.1,0.1-0.1,0.1-0.1
			c0.1,0,0.1,0,0.2,0c0.1,0.1,0.2,0.2,0.4,0.4c0.2,0.2,0.4,0.4,0.5,0.6l0.1,0.1c0.1,0.1,0.1,0.2,0.2,0.3c0.1,0.1,0.1,0.2,0.2,0.3
			l0.3-0.9l-0.1-0.2c-0.1-0.1-0.1-0.2-0.2-0.3c-0.1-0.1-0.2-0.2-0.2-0.3c-0.1-0.1-0.2-0.2-0.2-0.3c0-0.1-0.1-0.2-0.1-0.3
			c0-0.1,0-0.2,0.1-0.3c0,0,0.1,0,0.1,0l0.2,0c0.1,0.1,0.2,0.1,0.3,0.2l0.2-0.9c-0.1-0.1-0.2-0.1-0.3-0.2c-0.3-0.1-0.4-0.2-0.5-0.1
			c0,0-0.1,0.1-0.1,0.3l-0.2,0.9l-0.2-0.2l-0.1-0.1c-0.1-0.1-0.1-0.1-0.1-0.1c0,0-0.1,0-0.1,0C54.7,59.1,54.7,59.1,54.7,59.2z"/>
		<path fill="#55692F" d="M54.2,60.6c0-0.2,0-0.4-0.1-0.5C54,60,54,59.9,53.9,59.8c-0.2-0.1-0.4-0.2-0.7-0.2c-0.2,0-0.5,0.1-0.7,0.1
			c-0.2,0.1-0.5,0.2-0.7,0.4c-0.2,0.1-0.3,0.2-0.5,0.4L51,60.8l0,0.2c0,0.1,0,0.3-0.1,0.4c0,0.1-0.1,0.3-0.1,0.4
			c0.2-0.2,0.4-0.4,0.6-0.5c0,0,0.2,0.2,0.4,0.6c0.3,0.4,0.6,0.8,0.9,1.2l0.2,0.2l0.6,1c0.1-0.2,0.1-0.3,0.2-0.5
			c0.1-0.2,0.1-0.4,0.2-0.5l-0.5-0.7L53,62l-0.8-1.2l0.1-0.1c0.2-0.1,0.4-0.2,0.6-0.2c0.2,0,0.4,0,0.4,0.1c0.1,0.1,0.2,0.2,0.2,0.2
			c0.1,0.1,0.1,0.3,0.1,0.4c0,0.1-0.1,0.3-0.2,0.5l-0.1,0.2l0.1,0.1l0.1-0.2c0.1-0.1,0.1-0.2,0.2-0.3c0.1-0.1,0.1-0.2,0.2-0.4
			C54.2,60.9,54.2,60.8,54.2,60.6z"/>
		<path fill="#55692F" d="M50.3,63.4c0-0.1,0-0.1,0-0.2c0,0,0-0.1-0.1-0.1c0,0-0.1,0-0.2-0.1c-0.1,0-0.3,0-0.4,0
			c-0.2,0.1-0.4,0.3-0.6,0.6c-0.2,0.3-0.3,0.5-0.3,0.5c0,0.1-0.1,0.2-0.1,0.3c0,0.1,0,0.3,0,0.4c0.1,0.2,0.3,0.3,0.6,0.3l0.1,0
			l0.3-0.1c0.2-0.1,0.4-0.1,0.5,0c0.1,0,0.2,0.1,0.3,0.1c0.1,0.1,0.1,0.1,0.1,0.1c0,0.1,0,0.2-0.2,0.3c-0.2,0.1-0.3,0.1-0.4,0.1
			c-0.1,0-0.2,0-0.3-0.1c-0.1-0.1-0.1-0.1-0.2-0.2l-0.1,0.2c-0.1,0.2-0.2,0.3-0.3,0.4c0,0.1,0,0.2,0,0.3c0,0.1,0.1,0.1,0.2,0.2
			c0.1,0.1,0.2,0.1,0.3,0.1c0.1,0,0.2,0,0.2,0c0.1,0,0.1,0,0.2-0.1c0.1,0,0.2-0.1,0.3-0.2c0.1-0.1,0.2-0.1,0.2-0.2
			c0.1-0.1,0.1-0.2,0.3-0.5c0.1-0.2,0.2-0.4,0.2-0.6c0-0.2,0-0.3,0-0.4c-0.1-0.1-0.2-0.2-0.3-0.2c-0.1,0-0.2,0-0.3,0l-0.6,0.1
			c-0.1,0-0.1,0-0.2,0c-0.1,0-0.1,0-0.2,0c-0.1,0-0.1,0-0.2,0c0,0-0.1,0-0.1-0.1c0,0-0.1,0-0.1-0.1c0-0.1,0-0.1,0-0.1
			c0,0,0.1-0.1,0.1-0.1c0,0,0,0,0,0c0,0,0,0,0.1,0c0.1-0.1,0.3-0.1,0.4-0.1c0.1,0,0.2,0.1,0.3,0.2l0.2-0.4
			C50.3,63.5,50.3,63.4,50.3,63.4z"/>
		<path fill="#55692F" d="M47.7,63.5c-0.1,0-0.2-0.1-0.3-0.1l-0.1-0.1l-0.1,0.2c-0.1,0.2-0.2,0.4-0.4,0.6l0.1,0.1
			c0.1,0.1,0.1,0.1,0.2,0.1c0.1,0,0.1,0,0.2,0c0.1,0,0.1,0,0.1,0c0.1,0,0.2-0.1,0.2-0.1l0.4-0.6C47.8,63.5,47.7,63.5,47.7,63.5z"/>
		<path fill="#55692F" d="M47.8,64.3c-0.1,0-0.1,0-0.1,0c0,0-0.1,0-0.1,0.1c0,0.1-0.1,0.1-0.2,0.3c-0.1,0.1-0.2,0.3-0.3,0.4
			l-0.3,0.3l0.1,0.1l0,0c0.1,0,0.1-0.1,0.1-0.1c0.2-0.1,0.3,0.1,0.4,0.4l0.3,0.8c0,0.1,0.1,0.2,0.2,0.4c0.1,0.2,0.1,0.4,0.2,0.5
			c0.2-0.3,0.4-0.6,0.6-0.8l-0.4-1l-0.4-0.9c-0.1-0.2-0.1-0.3-0.2-0.3C47.9,64.3,47.9,64.3,47.8,64.3z"/>
		<path fill="#55692F" d="M44.7,65.4c-0.1,0.1-0.3,0.1-0.4,0.3c-0.1,0.1-0.3,0.3-0.4,0.5c-0.1,0.2-0.2,0.5-0.3,0.8
			c0,0.3,0,0.5,0.1,0.7c0.1,0.3,0.3,0.5,0.5,0.7c0.2,0.1,0.3,0.2,0.4,0.2c0,0,0.1,0,0.3,0.1c0.2,0,0.3,0,0.5,0
			c0.1,0,0.2-0.1,0.3-0.2c0.1-0.1,0.2-0.2,0.2-0.3c0.1-0.1,0.2-0.3,0.3-0.6l0.1-0.1l-0.1-0.1l-0.1,0.1c-0.1,0.1-0.3,0.2-0.4,0.2
			c-0.3,0.1-0.5,0.1-0.8,0c-0.2-0.1-0.4-0.2-0.5-0.4c-0.1-0.1-0.2-0.3-0.3-0.4c-0.1-0.2-0.1-0.3,0-0.4c0-0.1,0.1-0.2,0.2-0.2
			c0,0,0.1,0,0.3,0c0.2,0,0.3,0.1,0.3,0.2c0,0.1,0,0.1,0,0.2c0,0.1-0.1,0.2-0.2,0.5l-0.1,0.1l0.1,0.1l0.4-0.5l0.2-0.3
			c0.1-0.1,0.2-0.2,0.2-0.3c0-0.1,0.1-0.2,0.1-0.2c0-0.1,0-0.1,0-0.2c-0.1-0.1-0.2-0.2-0.3-0.3C45.1,65.3,44.9,65.3,44.7,65.4z"/>
		<path fill="#55692F" d="M39.5,65.8L39.5,65.8c0.1-0.1,0.2-0.1,0.2-0.1c0.1,0,0.2,0,0.2,0.1c0.1,0.1,0.1,0.2,0.1,0.3
			c0,0.1,0.1,0.2,0.1,0.3l0.1,0.6l0,0.2c0.1,0.3,0.1,0.6,0.2,0.9c0.1,0.3,0.1,0.7,0.2,1l0.1,0.7l0.1,0c0.1-0.4,0.2-0.8,0.3-1.1
			c0.2-0.3,0.3-0.5,0.3-0.6c0.1-0.1,0.1-0.2,0.2-0.2c0-0.1,0.1-0.1,0.2-0.2c0.1-0.1,0.2-0.1,0.2-0.2c0.1,0,0.2,0,0.3,0.2
			c0.1,0.1,0.1,0.2,0.2,0.4c0,0.1,0.1,0.3,0.2,0.5c0.1,0.2,0.1,0.4,0.1,0.5c0,0.1,0.1,0.3,0.1,0.4l0.5-0.5l0.2-0.2l-0.1-0.2
			l-0.1-0.5l-0.1-0.4c-0.1-0.3-0.2-0.6-0.3-0.7c-0.1-0.2-0.1-0.3-0.2-0.4c-0.1-0.1-0.2-0.2-0.3-0.1c-0.1,0-0.1,0.1-0.2,0.1
			c-0.1,0.1-0.2,0.2-0.3,0.4c-0.1,0.1-0.2,0.3-0.3,0.4c-0.1,0.1-0.2,0.3-0.4,0.6L41.3,68l-0.4-2c0-0.1-0.1-0.3-0.1-0.4
			c0-0.1-0.1-0.3-0.1-0.5c-0.1-0.3-0.2-0.4-0.3-0.4c0,0-0.1,0-0.1,0L40.1,65L40,65.1c-0.2,0.1-0.3,0.3-0.4,0.4
			C39.5,65.6,39.4,65.7,39.5,65.8L39.5,65.8C39.5,65.8,39.5,65.8,39.5,65.8c-0.2-0.1-0.4-0.2-0.7-0.2c-0.3,0-0.5,0.1-0.8,0.2
			c-0.2,0.1-0.4,0.2-0.4,0.2c-0.1,0-0.2,0.1-0.3,0.2c-0.2,0.1-0.3,0.3-0.5,0.5c-0.1,0.2-0.2,0.4-0.2,0.6c0,0.2,0.1,0.4,0.2,0.5
			c0.1,0.1,0.2,0.1,0.3,0.2c0.1,0,0.1,0,0.1,0.1l1.2,0.3c0.2,0.1,0.4,0.1,0.5,0.2c0.1,0.1,0.1,0.2,0.2,0.3c0,0.1,0,0.2,0,0.2
			c0,0.2-0.1,0.3-0.2,0.4c-0.1,0.1-0.3,0.2-0.5,0.2c0,0-0.1,0-0.1,0c-0.2,0-0.3-0.1-0.5-0.2c-0.2-0.1-0.3-0.3-0.3-0.4L37.3,69
			c-0.2,0.2-0.4,0.3-0.5,0.4c-0.1,0.1-0.1,0.2-0.1,0.2c0,0,0,0.1,0.1,0.1c0,0,0.1,0.1,0.2,0.2c0.1,0.1,0.2,0.1,0.4,0.2
			c0.1,0,0.3,0.1,0.5,0.1c0.2,0,0.3,0,0.5-0.1c0.2,0,0.3-0.1,0.4-0.2c0.1-0.1,0.3-0.1,0.3-0.2c0.1-0.1,0.2-0.1,0.2-0.2
			c0,0,0.1-0.1,0.2-0.2c0.1-0.1,0.2-0.2,0.3-0.3c0.1-0.1,0.2-0.2,0.2-0.3c0.1-0.1,0.1-0.3,0.1-0.4c0-0.4-0.3-0.6-0.8-0.7l-1-0.2
			c-0.2-0.1-0.4-0.2-0.5-0.3c-0.1-0.1-0.2-0.2-0.2-0.3c0-0.1,0-0.2,0.1-0.3c0-0.1,0.1-0.2,0.3-0.2c0.2,0,0.2,0,0.3,0
			c0.3,0,0.5,0.1,0.7,0.3l0.1,0.1l0.5-0.3l0.2-0.1c0,0,0.1-0.1,0.1-0.1C39.7,66,39.6,65.9,39.5,65.8z"/>
		<path fill="#55692F" d="M34.7,65.7c0,0-0.1,0-0.2,0c-0.1,0-0.1,0-0.2,0.1c-0.1,0-0.2,0.1-0.3,0.2c-0.1,0.1-0.2,0.1-0.2,0.2
			c-0.1,0.1-0.2,0.1-0.3,0.3c-0.1,0.1-0.2,0.3-0.3,0.4c-0.1,0.1-0.1,0.3-0.1,0.5v0.3l-0.6,0l-0.2,0.6c0.1,0,0.1,0,0.2,0
			c0.1,0,0.1,0,0.2,0c0.1,0,0.3,0,0.4,0v0.4l0.1,2l0.7-0.5l0.2-0.1c0-0.1,0-0.3-0.1-0.5c0-0.2,0-0.4,0-0.6v-0.3l0-0.5l0.3,0l0.5-0.6
			l-0.2,0c-0.1,0-0.2,0-0.4,0c-0.1,0-0.2,0-0.3,0v-0.3c0-0.2,0-0.4,0-0.5c0-0.1,0-0.3,0.1-0.4c0-0.1,0.1-0.2,0.2-0.2
			c0.1,0,0.1,0,0.2,0.1c0.1,0.1,0.2,0.1,0.3,0.2l0.1,0.1l0.5-0.4l0.2-0.1c0,0,0,0,0-0.1c0,0-0.1-0.1-0.2-0.1l-0.3-0.1
			C34.9,65.7,34.8,65.7,34.7,65.7z"/>
		<path fill="#55692F" d="M32.3,66.6c-0.1,0-0.2-0.1-0.2-0.1c-0.1,0-0.1-0.1-0.2-0.2l-0.1-0.1l-0.2,0.1c-0.2,0.1-0.4,0.3-0.5,0.4
			l0,0.1c0.1,0.1,0.1,0.2,0.1,0.2c0,0,0.1,0.1,0.1,0.1c0.1,0,0.1,0,0.1,0c0.1,0,0.2,0,0.2-0.1L32.3,66.6z"/>
		<path fill="#55692F" d="M31.8,67.3c0,0-0.1,0-0.1,0c-0.1,0-0.1,0.1-0.3,0.2c-0.1,0.1-0.3,0.2-0.4,0.2l-0.3,0.2l0.1,0.1l0.1,0
			c0.1,0,0.1,0,0.2,0c0.2,0,0.2,0.2,0.2,0.5l0,0.9c0,0.1,0,0.2,0,0.5c0,0.2,0,0.4,0,0.6c0.3-0.2,0.6-0.4,0.9-0.5l0-1.1v-1
			c0-0.2,0-0.3,0-0.4c0-0.1-0.1-0.1-0.1-0.1C31.9,67.3,31.8,67.3,31.8,67.3z"/>
		<path fill="#55692F" d="M29.6,67.7c0,0,0.1-0.1,0.1-0.1c0,0,0-0.1,0-0.1c0,0-0.1-0.1-0.1-0.2c-0.1-0.1-0.2-0.1-0.4-0.2
			c-0.3,0-0.5,0.1-0.8,0.2c-0.3,0.2-0.4,0.3-0.5,0.3c-0.1,0-0.1,0.1-0.2,0.2c-0.1,0.1-0.2,0.2-0.2,0.3c0,0.2,0.1,0.3,0.4,0.5
			l0.1,0.1l0.3,0.1c0.2,0.1,0.4,0.1,0.5,0.2c0.1,0.1,0.2,0.2,0.2,0.2c0,0.1,0,0.1,0,0.2c0,0.1-0.1,0.2-0.3,0.1
			c-0.2,0-0.3-0.1-0.4-0.1c-0.1-0.1-0.2-0.1-0.2-0.2c0-0.1,0-0.2,0-0.3l-0.2,0.1c-0.2,0.1-0.4,0.2-0.4,0.3c-0.1,0.1-0.1,0.1-0.1,0.2
			c0,0.1,0,0.1,0.1,0.2c0.1,0.1,0.1,0.2,0.2,0.2c0.1,0,0.1,0.1,0.2,0.1c0.1,0,0.1,0,0.2,0c0.1,0,0.2,0,0.3,0c0.1,0,0.2-0.1,0.3-0.1
			c0.1-0.1,0.2-0.1,0.4-0.3c0.2-0.1,0.4-0.3,0.5-0.4c0.1-0.1,0.2-0.3,0.2-0.4c0-0.2,0-0.3-0.2-0.4c-0.1-0.1-0.2-0.1-0.2-0.1
			l-0.5-0.2c-0.1,0-0.1,0-0.2-0.1c-0.1,0-0.1-0.1-0.2-0.1c-0.1,0-0.1-0.1-0.1-0.1c0,0-0.1-0.1-0.1-0.1c0,0,0-0.1,0-0.1
			c0-0.1,0-0.1,0.1-0.1c0,0,0.1,0,0.1,0c0,0,0,0,0.1,0c0,0,0.1,0,0.1,0c0.1,0,0.3,0.1,0.3,0.1c0.1,0.1,0.1,0.2,0.2,0.3l0.3-0.1
			l0.1-0.1C29.5,67.8,29.5,67.7,29.6,67.7z"/>
		<path fill="#55692F" d="M26.4,66.8l-0.2-0.1l-0.7,0.6c0.1,0,0.1,0,0.2,0c0.1,0,0.2,0,0.2,0l0.2,0l-0.1,0.5c-0.1,0.5-0.2,0.8-0.2,1
			c0,0.2,0,0.4,0,0.6c0,0.2,0.1,0.3,0.2,0.4c0.1,0,0.2,0,0.4,0l0.2-0.1c0.1,0,0.2,0,0.2-0.1c0.1,0,0.1-0.1,0.3-0.1l0-0.1
			c0,0-0.1,0-0.1,0c0,0-0.1,0-0.1,0c0,0-0.1-0.1-0.1-0.1c0-0.1,0-0.1,0-0.3l0-0.2l0,0c0,0,0-0.1,0-0.2c0-0.1,0-0.2,0.1-0.4l0.1-0.5
			l0.3,0.1c0.1-0.1,0.3-0.2,0.4-0.3c0.1-0.1,0.3-0.2,0.4-0.3c-0.1,0-0.2,0-0.3,0c-0.1,0-0.2,0-0.2,0l-0.4-0.1l0.2-0.8l-0.9,0.4
			L26.4,66.8z"/>
		<path fill="#55692F" d="M25.6,66.9c0-0.1,0-0.2-0.1-0.3c-0.1-0.1-0.1-0.1-0.2-0.2c-0.1,0-0.2-0.1-0.3-0.1c-0.1,0-0.3,0-0.4,0
			c-0.1,0-0.3,0-0.4,0.1c-0.1,0-0.3,0.1-0.5,0.2c-0.2,0.1-0.4,0.3-0.5,0.5c-0.1,0.2-0.2,0.4-0.2,0.5c0,0.1,0,0.1,0,0.2
			c0,0.1,0,0.1,0,0.2c0,0.1,0,0.1,0,0.2c0,0.1,0.1,0.2,0.2,0.5c0.1,0.3,0.3,0.4,0.6,0.5c0.3,0.1,0.6,0,0.9-0.2l0.3-0.2L25,68.7
			c-0.1,0-0.2,0-0.3,0c0,0,0,0-0.1,0c-0.1,0-0.1,0-0.2-0.1c-0.1,0-0.1-0.1-0.2-0.2c-0.1-0.1-0.2-0.2-0.3-0.4
			c-0.1-0.2-0.2-0.4-0.2-0.5c0-0.2,0-0.3,0-0.4c0-0.1,0.1-0.2,0.2-0.3l0.1-0.1c0.1-0.1,0.2-0.1,0.3-0.1c0.1,0,0.3,0.1,0.4,0.3
			c0.1,0.2,0.1,0.3,0.1,0.4l0.2-0.1l0.4-0.2C25.5,67.1,25.6,67,25.6,66.9z"/>
		<path fill="#55692F" d="M21.9,65.9c0,0,0.1,0.1,0.3,0.1c0.1,0.1,0.2,0.2,0.1,0.4c0,0.1-0.1,0.1-0.1,0.2c-0.1,0.1-0.2,0.1-0.4,0.2
			l-0.1,0l0,0.1l0.6-0.2l0.3-0.1c0.2-0.1,0.3-0.1,0.4-0.1c0.1,0,0.2-0.1,0.2-0.2c0-0.1,0.1-0.1,0.1-0.2c0-0.1,0-0.3-0.1-0.4
			c-0.1-0.1-0.2-0.2-0.5-0.3c-0.1,0-0.3-0.1-0.5,0c-0.2,0-0.4,0.1-0.6,0.2c-0.3,0.1-0.5,0.3-0.7,0.4c-0.2,0.2-0.3,0.4-0.4,0.6
			c-0.1,0.3-0.1,0.6,0,0.8c0.1,0.2,0.2,0.3,0.2,0.4c0,0,0.1,0.1,0.2,0.2c0.1,0.1,0.2,0.2,0.4,0.3c0.1,0,0.2,0,0.3,0
			c0.1,0,0.2,0,0.3-0.1c0.1,0,0.3-0.1,0.6-0.3l0.1-0.1l0-0.1l-0.1,0c-0.2,0-0.3,0-0.5,0c-0.3-0.1-0.5-0.2-0.6-0.5
			c-0.1-0.2-0.2-0.4-0.2-0.6c0-0.2,0-0.3,0.1-0.5c0.1-0.2,0.1-0.3,0.2-0.3C21.7,65.8,21.8,65.8,21.9,65.9z"/>
		<path fill="#55692F" d="M20.1,64.6l-0.2-0.1l-0.8,0.4c0.1,0,0.1,0.1,0.2,0.1c0.1,0,0.2,0.1,0.2,0.1l0.2,0.1l-0.3,0.4
			c-0.2,0.4-0.4,0.7-0.5,0.9c-0.1,0.2-0.1,0.4-0.2,0.6c0,0.2,0,0.3,0.1,0.4c0.1,0,0.2,0.1,0.3,0.1l0.2,0c0.1,0,0.2,0,0.2,0
			c0.1,0,0.1,0,0.3,0l0-0.1c0,0-0.1,0-0.1,0c0,0,0,0-0.1-0.1c0,0-0.1-0.1-0.1-0.1c0-0.1,0-0.1,0.1-0.3l0.1-0.2l0,0
			c0,0,0-0.1,0.1-0.2c0-0.1,0.1-0.2,0.2-0.4l0.2-0.5l0.2,0.1c0.2-0.1,0.3-0.1,0.5-0.2c0.2,0,0.3-0.1,0.5-0.1c-0.1,0-0.2-0.1-0.3-0.1
			c-0.1,0-0.2-0.1-0.2-0.1L20.8,65l0.4-0.8l-1,0.1L20.1,64.6z"/>
		<path fill="#55692F" d="M17.5,63.7C17.6,63.7,17.6,63.7,17.5,63.7c0.1,0.1,0.1,0.1,0.1,0.1c0.2,0.1,0.3,0.3,0.4,0.5
			c0.1,0.2,0.1,0.4,0.1,0.6c0,0.2-0.1,0.4-0.1,0.5c0,0.1-0.1,0.2-0.2,0.3c-0.2,0.2-0.4,0.3-0.6,0.1c-0.1,0-0.1-0.1-0.1-0.1L17,65.5
			c-0.1-0.3-0.2-0.5-0.1-0.7c0.1-0.2,0.1-0.4,0.2-0.4c0.1-0.1,0.2-0.2,0.3-0.3l0.2-0.1c0,0-0.1,0-0.2,0c-0.1,0-0.2,0-0.4,0
			c-0.2,0-0.4,0-0.5,0.1c-0.1,0.1-0.2,0.2-0.4,0.3c-0.1,0.1-0.1,0.2-0.2,0.4c0,0.1-0.1,0.3,0,0.6c0,0.3,0.1,0.5,0.4,0.7
			c0.3,0.2,0.6,0.2,1.1,0.2c0.4-0.1,0.8-0.2,0.9-0.3c0.2-0.1,0.3-0.2,0.5-0.4c0.1-0.2,0.2-0.3,0.2-0.6c0-0.1,0-0.2,0-0.3
			c0-0.1,0-0.2-0.1-0.4c-0.1-0.2-0.2-0.3-0.3-0.4c-0.2-0.1-0.5-0.2-0.9-0.2l-0.3,0l0,0.1L17.5,63.7z"/>
		<path fill="#55692F" d="M16.2,62.5c0,0,0-0.1,0-0.1c0,0,0-0.1-0.1-0.1c0,0-0.1,0-0.1,0l-1.2-0.1l0,0.2l0.1,0c0.1,0,0.1,0,0.1,0.1
			c0.1,0.1,0.1,0.1,0,0.2c0,0.1-0.1,0.3-0.3,0.5c-0.2,0.2-0.3,0.4-0.5,0.7l-0.1,0.1c-0.1,0.1-0.2,0.2-0.2,0.3
			c-0.1,0.1-0.2,0.2-0.2,0.3l1,0.1l0.1-0.2c0.1-0.1,0.2-0.2,0.2-0.3c0.1-0.1,0.2-0.2,0.3-0.3c0.1-0.1,0.2-0.2,0.2-0.3
			c0.1-0.1,0.1-0.1,0.2-0.2c0.1-0.1,0.2-0.1,0.3,0c0,0,0,0.1,0.1,0.1l0,0.2c0,0.1-0.1,0.2-0.1,0.3l0.9,0c0.1-0.1,0.1-0.2,0.1-0.3
			c0.1-0.3,0.1-0.5,0-0.5c-0.1,0-0.2-0.1-0.3-0.1l-0.9,0l0.2-0.2l0.1-0.2C16.2,62.6,16.2,62.5,16.2,62.5z"/>
		<path fill="#55692F" d="M13,59.2c-0.1,0-0.3,0-0.4,0c0.2,0.1,0.4,0.3,0.7,0.4c0,0-0.2,0.2-0.4,0.6c-0.3,0.4-0.6,0.8-0.9,1.2
			l-0.2,0.2l-0.8,0.9c0.2,0,0.4,0,0.6,0c0.2,0,0.4,0,0.5,0l0.5-0.6l0.5-0.7l0.9-1.2l0.1,0.1c0.2,0.2,0.3,0.3,0.4,0.5
			c0.1,0.2,0.1,0.4,0,0.5c-0.1,0.1-0.1,0.2-0.1,0.2c-0.1,0.1-0.2,0.2-0.3,0.2c-0.1,0-0.3,0-0.5,0l-0.2,0l0,0.1l0.2,0.1
			c0.1,0,0.2,0.1,0.4,0.1c0.1,0,0.3,0.1,0.5,0.1c0.2,0,0.4,0,0.6,0c0.2,0,0.3-0.1,0.4-0.3c0.1-0.1,0.1-0.2,0.2-0.3
			c0.1-0.2,0.1-0.5,0-0.7c-0.1-0.2-0.2-0.4-0.3-0.6c-0.1-0.2-0.3-0.4-0.6-0.6c-0.1-0.1-0.3-0.2-0.5-0.4L13.6,59l-0.2,0
			C13.2,59.1,13.1,59.1,13,59.2z"/>
		<path fill="#55692F" d="M9.1,58.4c-0.3,0.2-0.4,0.5-0.4,0.7c0,0.2,0,0.4,0,0.4c0,0,0,0.1,0,0.3c0,0.2,0.1,0.3,0.2,0.4
			c0.1,0.1,0.2,0.1,0.3,0.2c0.1,0,0.2,0.1,0.3,0.1c0.1,0,0.3,0,0.6,0.1l0.1,0l0-0.1l-0.1,0c-0.2-0.1-0.3-0.2-0.4-0.3
			c-0.2-0.2-0.3-0.4-0.3-0.7c0-0.3,0-0.5,0.1-0.6c0.1-0.2,0.2-0.3,0.3-0.4c0.1-0.1,0.2-0.2,0.4-0.2c0.1,0,0.2,0,0.3,0.1
			c0,0,0.1,0.1,0.2,0.3c0.1,0.1,0.1,0.3-0.1,0.4c0,0-0.1,0.1-0.2,0.1c-0.1,0-0.3,0-0.5,0l-0.1,0l0,0.1l0.6,0.1l0.3,0.1
			c0.2,0,0.3,0,0.4,0c0.1,0,0.2,0,0.2,0c0.1,0,0.1-0.1,0.2-0.1c0.1-0.1,0.2-0.2,0.1-0.4c0-0.2-0.1-0.3-0.3-0.5
			c-0.1-0.1-0.2-0.2-0.4-0.3C11,58.1,10.8,58,10.5,58c-0.3,0-0.5,0-0.8,0.1C9.5,58.1,9.3,58.2,9.1,58.4z"/>
		<path fill="#55692F" d="M8.2,55.7l-0.1,0.1l0.1,0c0.1,0,0.1,0.1,0.1,0.1c0,0.1,0,0.1,0,0.2c-0.1,0.1-0.2,0.2-0.4,0.4
			c-0.2,0.2-0.4,0.4-0.6,0.5l-0.1,0.1c-0.1,0.1-0.2,0.1-0.3,0.2c-0.1,0.1-0.2,0.1-0.3,0.2l0.9,0.3l0.2-0.1c0.1-0.1,0.2-0.1,0.3-0.2
			c0.1-0.1,0.2-0.2,0.3-0.2c0.1-0.1,0.2-0.2,0.3-0.2c0.1,0,0.2-0.1,0.3-0.1c0.1,0,0.2,0,0.3,0.1c0,0,0,0.1,0,0.1l0,0.2
			c-0.1,0.1-0.1,0.2-0.2,0.3l0.9,0.2c0.1-0.1,0.1-0.2,0.2-0.2c0.1-0.3,0.2-0.4,0.1-0.5c0-0.1-0.1-0.1-0.3-0.1L9,56.8l0.2-0.2
			l0.1-0.1c0.1-0.1,0.1-0.1,0.1-0.1c0,0,0-0.1,0-0.1c0,0,0-0.1,0-0.1c0,0,0,0-0.1-0.1L8.2,55.7z"/>
		<path fill="#55692F" d="M4.7,54.3c0,0-0.1,0.1-0.1,0.1c0,0.1,0,0.1,0,0.3c0,0.1,0.1,0.1,0.1,0.1L5.2,55L5.5,55
			c0.2,0.1,0.4,0.1,0.5,0.1c0.1,0,0.2,0,0.4,0h0.1l0,0l0.2,0l-1.4,0.8c0.1,0.1,0.3,0.1,0.3,0.1c0.1,0,0.2,0.1,0.4,0.2l0.2,0.1
			l0.8-0.5l0.6-0.4c0.2-0.1,0.3-0.2,0.4-0.2c0.1-0.1,0.3-0.1,0.4-0.2c-0.1-0.1-0.2-0.1-0.3-0.2c-0.1,0-0.2-0.1-0.3-0.1
			c-0.1-0.1-0.2-0.1-0.3-0.1c0,0-0.1,0-0.1,0C7.3,55,7.1,55,6.8,55c-0.2,0-0.4-0.1-0.5-0.1c-0.1,0-0.2-0.1-0.3-0.1
			c-0.1,0-0.1-0.1-0.1-0.1c0-0.1,0-0.1,0-0.2c0,0,0-0.1,0.1-0.1c0,0,0,0,0.1-0.1l0.7-0.5l0.6-0.4c0,0,0.1-0.1,0.1-0.1
			c0,0,0-0.1,0-0.1c0,0,0-0.1-0.1-0.1l-0.9-0.6l-0.1,0.1l0,0c0,0,0,0.1,0.1,0.1c0.1,0.1,0.1,0.2,0,0.2c0,0.1-0.1,0.2-0.3,0.3
			l-1.2,0.8C4.8,54.2,4.7,54.2,4.7,54.3z"/>
		<path fill="#55692F" d="M5.2,51.1l0.1,0.2l-0.4,0.2C4.4,51.7,4.1,51.9,4,52c-0.2,0.1-0.3,0.2-0.5,0.4c-0.1,0.1-0.2,0.3-0.1,0.4
			c0,0.1,0.1,0.1,0.3,0.2l0.2,0.1l0,0c0.1,0.1,0.1,0.1,0.2,0.1c0.1,0,0.1,0.1,0.3,0.1l0.1-0.1c0,0-0.1-0.1-0.1-0.1c0,0,0-0.1,0-0.1
			c0-0.1,0-0.1,0-0.2c0-0.1,0.1-0.1,0.2-0.2l0.2-0.1l0,0c0,0,0.1,0,0.2-0.1c0.1,0,0.2-0.1,0.4-0.2L5.7,52l0.1,0.2
			c0.2,0,0.3,0.1,0.5,0.1c0.1,0,0.3,0.1,0.5,0.2c-0.1-0.1-0.1-0.2-0.2-0.2c-0.1-0.1-0.1-0.1-0.1-0.2l-0.2-0.3l0.8-0.4l-0.9-0.5
			L5.9,51l-0.1-0.2l-0.8-0.1c0,0,0.1,0.1,0.1,0.2C5.1,51,5.2,51.1,5.2,51.1z"/>
		<path fill="#55692F" d="M2.8,49.1c0.1,0,0.1-0.1,0.1-0.1C3,49,3,49,3.1,49c0.1,0,0.1,0.1,0.1,0.1c0,0.1,0.1,0.1,0.1,0.2
			c0,0,0,0.1,0.1,0.2c0,0.1,0,0.2,0,0.2c0,0.1,0,0.2,0,0.3c0,0.1-0.1,0.3-0.1,0.4c-0.1,0.2-0.2,0.3-0.3,0.4
			c-0.1,0.1-0.2,0.2-0.2,0.2c0,0-0.1,0.1-0.2,0.1l0.7,0.5l0.1-0.1c0.2-0.2,0.4-0.4,0.5-0.6c0.1-0.1,0.2-0.3,0.3-0.4
			c0.1-0.1,0.2-0.3,0.3-0.4c0.1-0.1,0.2-0.3,0.4-0.6c0.2-0.3,0.2-0.4,0.2-0.6c0-0.1-0.1-0.1-0.1-0.2c-0.1-0.1-0.2-0.1-0.3-0.2
			l-0.5-0.3l0,0.1c0.1,0,0.1,0.1,0.1,0.2c0,0.1,0,0.2,0,0.3c0,0.1-0.1,0.3-0.2,0.4l-0.1,0.1l-0.2-0.3l0-0.1
			c-0.1-0.2-0.3-0.3-0.4-0.4c-0.3-0.2-0.5-0.3-0.7-0.4c-0.2,0-0.3,0-0.4,0c-0.1,0.1-0.2,0.2-0.3,0.3c-0.1,0.2-0.1,0.4,0,0.6
			c0,0,0,0,0,0.1l0,0.1C2,49.8,2,49.9,2.1,50c0.1,0.1,0.2,0.2,0.4,0.3l0.4,0.2l0,0L3,50.3c-0.1-0.1-0.2-0.2-0.2-0.4c0,0,0,0,0-0.1
			c0,0,0-0.1,0-0.2c0-0.1,0-0.2,0-0.3C2.7,49.2,2.8,49.1,2.8,49.1z"/>
		<path fill="#55692F" d="M0.7,45.2l0.2,0.2l0.7-0.3c0.1,0,0.3-0.1,0.5-0.2c0.2-0.1,0.4-0.1,0.5-0.2l0.2,0L2.7,45l-0.2,0.5
			c-0.1,0.3-0.3,0.5-0.4,0.8c-0.2,0.3-0.3,0.5-0.4,0.7c-0.1,0.1-0.3,0.3-0.5,0.5L1,47.6l0.7,0.5L2.3,48c0.5-0.2,1-0.3,1.4-0.4
			c0.4-0.1,0.8-0.2,1.1-0.3l0.8-0.2l-1-0.7c-0.2,0.1-0.4,0.2-0.6,0.3c-0.2,0.1-0.6,0.2-1,0.4l-0.3,0.1l0.2-0.3l0.2-0.4
			c0.2-0.3,0.4-0.7,0.6-1.2l0.2-0.4C3.9,44.6,4,44.4,4,44.3c0.1-0.2,0.1-0.3,0.2-0.4l0.1-0.2c0-0.1,0-0.2,0-0.3c0,0,0-0.1-0.1-0.1
			l-0.8-0.6l-0.1,0.1c0,0,0.1,0.1,0.1,0.1c0,0.1,0,0.2,0,0.3c0,0.1-0.1,0.3-0.1,0.5l-0.1,0.2L0,44.7C0.2,44.9,0.5,45,0.7,45.2z"/>
	</g>
	<path fill="#55692F" d="M56,35c-1.3-3.7-6.3-5-7.6-5.4c0.9,2.7,1.4,4.7,0.6,9.4c-0.1,0.3-0.2,1.4,0.7,1.7c0.4,0,0.8-0.1,1.2-0.4
		c0.3-0.3,0.7-0.7,1-1.3c0.3-0.5,0.5-1,0.6-1.4c0.1-0.5,0.2-0.8,0.1-1c0.3,0.1,0.6,1.8,0.5,2.6c-0.1,0.9-0.3,1.6-0.7,2
		c-0.4,0.5-0.6,0.7-0.7,0.7c0,0.1,0.1,0.4,0.5,0.3c0.4-0.1,0.7-0.3,1-0.8c1.3-2.9-0.2-5.2-0.2-5.2c0.4,0.2,0.9,0.9,1.2,1.5
		c0.1,0.2,0.2,0.4,0.3,0.4c0.1,0.1,0.3,0.2,0.5,0.3c0.2,0.1,0.5,0,0.9-0.7C56.1,36.7,56.2,35.6,56,35z M53.7,35.9
		c-0.8-0.1-0.9-0.6-0.9-0.6s0,0.7-0.4,1.3c-0.1,0.2-1.9,2.9-2.5-1c0.4,0.7,0.4,2.6,2,0.9c0.2-0.2,0.7-1,0.3-1.3
		c-0.3-0.2-1.9,0.9-2.4-1.9c0.7,2.2,2.3,1.3,2.3,1.3s0-0.1-0.2-0.6c-0.3-0.6-0.5-0.8-0.5-0.8s-1.4,0-2.1-2c0.8,1.5,1.9,1.5,1.9,1.5
		s-0.2-0.7-1.5-2.2c0.4,0.3,1.3,1.1,1.9,2c0.2-0.3,0.7-1.3-0.1-1.9c1.1,0.7,0.3,2.2,0.3,2.2c0.1,0.2,0.7,1.2,0.8,1.5
		c1.1-0.6,0.8-2.5,0.6-2.9c0.6,0.5,0.9,2.5-0.3,3.1c1.1,1.8,2.5-0.4,1.6-1.8C55.8,34.5,54.3,36,53.7,35.9z"/>
</g>
</svg>
