<?xml version="1.0" encoding="utf-8"?>
<!-- Generator: Adobe Illustrator 19.1.0, SVG Export Plug-In . SVG Version: 6.00 Build 0)  -->
<svg version="1.1" id="Layer_1" xmlns="http://www.w3.org/2000/svg" xmlns:xlink="http://www.w3.org/1999/xlink" x="0px" y="0px"
	 viewBox="0 0 300 180" enable-background="new 0 0 300 180" xml:space="preserve">
<g>
	<g>
		<path fill="#044437" d="M48.7,124.7c-0.1-1.4,0.7-2.4,2.1-2.4c1.2,0,2.1,0.7,2.1,1.9c0,1.2-0.8,1.8-1.6,2.3
			c-0.8,0.5-1.7,0.9-1.9,1.8h3.4v0.7h-4.4c0.1-1.6,0.9-2.1,1.9-2.7c1.1-0.7,1.7-1.1,1.7-2c0-0.7-0.6-1.2-1.3-1.2
			c-0.9,0-1.3,0.9-1.3,1.7H48.7z"/>
		<path fill="#044437" d="M56.3,122.3c2.1,0,2.2,1.9,2.2,3.4c0,1.5-0.1,3.4-2.2,3.4c-2.1,0-2.2-1.9-2.2-3.4
			C54,124.3,54.2,122.3,56.3,122.3z M56.3,128.4c1.4,0,1.4-1.7,1.4-2.7c0-1,0-2.7-1.4-2.7c-1.4,0-1.4,1.7-1.4,2.7
			C54.9,126.7,54.9,128.4,56.3,128.4z"/>
		<path fill="#044437" d="M61.9,129h-0.8v-4.8h-1.7v-0.6c0.9,0,1.7-0.2,1.9-1.3h0.6V129z"/>
		<path fill="#044437" d="M65.4,122.3c2.1,0,2.2,1.9,2.2,3.4c0,1.5-0.1,3.4-2.2,3.4c-2.1,0-2.2-1.9-2.2-3.4
			C63.1,124.3,63.3,122.3,65.4,122.3z M65.4,128.4c1.4,0,1.4-1.7,1.4-2.7c0-1,0-2.7-1.4-2.7c-1.4,0-1.4,1.7-1.4,2.7
			C64,126.7,64,128.4,65.4,128.4z"/>
	</g>
	<g>
		<path fill="#00924B" d="M70.1,122.3H71v6.7h-0.9V122.3z"/>
		<path fill="#00924B" d="M71.9,124.1h0.8v0.8h0c0.3-0.6,0.9-0.9,1.6-0.9c1.3,0,1.7,0.7,1.7,1.8v3.2h-0.8v-3.3c0-0.6-0.4-1-1-1
			c-1,0-1.4,0.7-1.4,1.5v2.8h-0.8V124.1z"/>
		<path fill="#00924B" d="M77.8,124.1h1v0.7h-1v3c0,0.4,0.1,0.4,0.6,0.4h0.4v0.7h-0.6c-0.8,0-1.2-0.2-1.2-1.1v-3.1h-0.8v-0.7H77
			v-1.5h0.8V124.1z"/>
		<path fill="#00924B" d="M83.5,127.5c-0.2,1.1-1,1.7-2.1,1.7c-1.6,0-2.3-1.1-2.3-2.6c0-1.5,1-2.5,2.3-2.5c1.7,0,2.3,1.6,2.2,2.8
			h-3.6c0,0.8,0.5,1.6,1.5,1.6c0.7,0,1.1-0.3,1.3-1H83.5z M82.7,126.1c0-0.8-0.6-1.4-1.4-1.4c-0.8,0-1.3,0.6-1.4,1.4H82.7z"/>
		<path fill="#00924B" d="M84.3,124.1H85v1h0c0.4-0.8,0.9-1.2,1.8-1.1v0.8c-1.3,0-1.8,0.7-1.8,2v2.2h-0.8V124.1z"/>
		<path fill="#00924B" d="M87.6,124.1h0.8v0.8h0c0.3-0.6,0.9-0.9,1.6-0.9c1.3,0,1.7,0.7,1.7,1.8v3.2h-0.8v-3.3c0-0.6-0.4-1-1-1
			c-1,0-1.4,0.7-1.4,1.5v2.8h-0.8V124.1z"/>
		<path fill="#00924B" d="M96.9,129c-0.1,0.1-0.3,0.1-0.6,0.1c-0.4,0-0.7-0.2-0.7-0.8c-0.4,0.5-1,0.8-1.7,0.8
			c-0.9,0-1.6-0.4-1.6-1.4c0-1.1,0.8-1.3,1.6-1.5c0.9-0.2,1.6-0.1,1.6-0.7c0-0.7-0.6-0.8-1.1-0.8c-0.7,0-1.2,0.2-1.2,0.9h-0.8
			c0-1.2,1-1.6,2.1-1.6c0.9,0,1.8,0.2,1.8,1.3v2.5c0,0.4,0,0.5,0.3,0.5c0.1,0,0.1,0,0.2,0V129z M95.6,126.5
			c-0.3,0.2-0.9,0.2-1.5,0.3c-0.5,0.1-1,0.3-1,0.9c0,0.5,0.5,0.7,0.9,0.7c1.1,0,1.5-0.7,1.5-1.1V126.5z"/>
		<path fill="#00924B" d="M98.5,124.1h1v0.7h-1v3c0,0.4,0.1,0.4,0.6,0.4h0.4v0.7h-0.6c-0.8,0-1.2-0.2-1.2-1.1v-3.1h-0.8v-0.7h0.8
			v-1.5h0.8V124.1z"/>
		<path fill="#00924B" d="M101.1,123.3h-0.8v-1h0.8V123.3z M100.3,124.1h0.8v4.9h-0.8V124.1z"/>
		<path fill="#00924B" d="M104.1,124c1.5,0,2.4,1.1,2.4,2.6c0,1.4-0.8,2.5-2.4,2.5c-1.5,0-2.4-1.1-2.4-2.5
			C101.7,125.2,102.5,124,104.1,124z M104.1,128.4c0.8,0,1.5-0.7,1.5-1.8c0-1.2-0.7-1.8-1.5-1.8c-0.8,0-1.5,0.7-1.5,1.8
			C102.5,127.8,103.2,128.4,104.1,128.4z"/>
		<path fill="#00924B" d="M107,124.1h0.8v0.8h0c0.3-0.6,0.9-0.9,1.6-0.9c1.3,0,1.7,0.7,1.7,1.8v3.2h-0.8v-3.3c0-0.6-0.4-1-1-1
			c-1,0-1.4,0.7-1.4,1.5v2.8H107V124.1z"/>
		<path fill="#00924B" d="M116.3,129c-0.1,0.1-0.3,0.1-0.6,0.1c-0.4,0-0.7-0.2-0.7-0.8c-0.4,0.5-1,0.8-1.7,0.8
			c-0.9,0-1.6-0.4-1.6-1.4c0-1.1,0.8-1.3,1.6-1.5c0.9-0.2,1.6-0.1,1.6-0.7c0-0.7-0.6-0.8-1.1-0.8c-0.7,0-1.2,0.2-1.2,0.9h-0.8
			c0-1.2,1-1.6,2.1-1.6c0.9,0,1.8,0.2,1.8,1.3v2.5c0,0.4,0,0.5,0.3,0.5c0.1,0,0.1,0,0.2,0V129z M115,126.5c-0.3,0.2-0.9,0.2-1.5,0.3
			c-0.5,0.1-1,0.3-1,0.9c0,0.5,0.5,0.7,0.9,0.7c1.1,0,1.5-0.7,1.5-1.1V126.5z"/>
		<path fill="#00924B" d="M117.1,122.3h0.8v6.7h-0.8V122.3z"/>
		<path fill="#00924B" d="M123.4,126.3v2.8h-0.9v-2.8l-2.6-4h1.1l2,3.2l2-3.2h1L123.4,126.3z"/>
		<path fill="#00924B" d="M129.1,127.5c-0.2,1.1-1,1.7-2.1,1.7c-1.6,0-2.3-1.1-2.3-2.6c0-1.5,1-2.5,2.3-2.5c1.7,0,2.3,1.6,2.2,2.8
			h-3.6c0,0.8,0.5,1.6,1.5,1.6c0.7,0,1.1-0.3,1.3-1H129.1z M128.3,126.1c0-0.8-0.6-1.4-1.4-1.4c-0.8,0-1.3,0.6-1.4,1.4H128.3z"/>
		<path fill="#00924B" d="M134.2,129c-0.1,0.1-0.3,0.1-0.6,0.1c-0.4,0-0.7-0.2-0.7-0.8c-0.4,0.5-1,0.8-1.7,0.8
			c-0.9,0-1.6-0.4-1.6-1.4c0-1.1,0.8-1.3,1.6-1.5c0.9-0.2,1.6-0.1,1.6-0.7c0-0.7-0.6-0.8-1.1-0.8c-0.7,0-1.2,0.2-1.2,0.9h-0.8
			c0-1.2,1-1.6,2.1-1.6c0.9,0,1.8,0.2,1.8,1.3v2.5c0,0.4,0,0.5,0.3,0.5c0.1,0,0.1,0,0.2,0V129z M132.9,126.5
			c-0.3,0.2-0.9,0.2-1.5,0.3c-0.5,0.1-1,0.3-1,0.9c0,0.5,0.5,0.7,0.9,0.7c1.1,0,1.5-0.7,1.5-1.1V126.5z"/>
		<path fill="#00924B" d="M135,124.1h0.8v1h0c0.4-0.8,0.9-1.2,1.8-1.1v0.8c-1.3,0-1.8,0.7-1.8,2v2.2H135V124.1z"/>
		<path fill="#00924B" d="M140.9,124c1.5,0,2.4,1.1,2.4,2.6c0,1.4-0.8,2.5-2.4,2.5c-1.5,0-2.4-1.1-2.4-2.5
			C138.5,125.2,139.3,124,140.9,124z M140.9,128.4c0.8,0,1.5-0.7,1.5-1.8c0-1.2-0.7-1.8-1.5-1.8c-0.8,0-1.5,0.7-1.5,1.8
			C139.4,127.8,140.1,128.4,140.9,128.4z"/>
		<path fill="#00924B" d="M144.2,124.8h-0.8v-0.7h0.8v-0.7c0-0.8,0.5-1.2,1.3-1.2c0.2,0,0.4,0,0.5,0.1v0.7c-0.1,0-0.3-0.1-0.5-0.1
			c-0.4,0-0.6,0.1-0.6,0.5v0.7h0.9v0.7H145v4.2h-0.8V124.8z"/>
		<path fill="#00924B" d="M148.1,122.3h2.4c0.6,0,1.4,0,1.8,0.2c0.4,0.3,0.8,0.7,0.8,1.4c0,0.7-0.4,1.3-1,1.5v0
			c0.8,0.2,1.3,0.8,1.3,1.6c0,1-0.7,1.9-2,1.9h-3.2V122.3z M149,125.2h1.8c1,0,1.4-0.4,1.4-1.1c0-0.9-0.7-1.1-1.4-1.1H149V125.2z
			 M149,128.3h2.2c0.8,0,1.3-0.5,1.3-1.2c0-0.9-0.7-1.1-1.5-1.1h-2V128.3z"/>
		<path fill="#00924B" d="M155,123.3h-0.8v-1h0.8V123.3z M154.2,124.1h0.8v4.9h-0.8V124.1z"/>
		<path fill="#00924B" d="M158.1,124c1.5,0,2.4,1.1,2.4,2.6c0,1.4-0.8,2.5-2.4,2.5c-1.5,0-2.4-1.1-2.4-2.5
			C155.7,125.2,156.5,124,158.1,124z M158.1,128.4c0.8,0,1.5-0.7,1.5-1.8c0-1.2-0.7-1.8-1.5-1.8c-0.8,0-1.5,0.7-1.5,1.8
			C156.6,127.8,157.2,128.4,158.1,128.4z"/>
		<path fill="#00924B" d="M165.4,129h-0.8v-0.7h0c-0.3,0.5-0.9,0.8-1.6,0.8c-1.5,0-2.2-1.2-2.2-2.6c0-1.4,0.7-2.5,2.2-2.5
			c0.5,0,1.2,0.2,1.6,0.8h0v-2.5h0.8V129z M163.1,128.4c1.1,0,1.5-0.9,1.5-1.8c0-1-0.4-1.8-1.5-1.8c-1.1,0-1.5,0.9-1.5,1.9
			C161.6,127.5,162.1,128.4,163.1,128.4z"/>
		<path fill="#00924B" d="M167.2,123.3h-0.8v-1h0.8V123.3z M166.4,124.1h0.8v4.9h-0.8V124.1z"/>
		<path fill="#00924B" d="M170.5,129h-0.9l-1.8-4.9h0.9l1.4,4.1h0l1.3-4.1h0.8L170.5,129z"/>
		<path fill="#00924B" d="M176.7,127.5c-0.2,1.1-1,1.7-2.1,1.7c-1.6,0-2.3-1.1-2.3-2.6c0-1.5,1-2.5,2.3-2.5c1.7,0,2.3,1.6,2.2,2.8
			h-3.6c0,0.8,0.5,1.6,1.5,1.6c0.7,0,1.1-0.3,1.3-1H176.7z M175.9,126.1c0-0.8-0.6-1.4-1.4-1.4c-0.8,0-1.3,0.6-1.4,1.4H175.9z"/>
		<path fill="#00924B" d="M177.4,124.1h0.8v1h0c0.4-0.8,0.9-1.2,1.8-1.1v0.8c-1.3,0-1.8,0.7-1.8,2v2.2h-0.8V124.1z"/>
		<path fill="#00924B" d="M180.6,127.5c0,0.7,0.7,0.9,1.3,0.9c0.5,0,1.2-0.1,1.2-0.7c0-0.6-0.8-0.7-1.6-0.9
			c-0.8-0.2-1.6-0.4-1.6-1.4c0-1,1-1.4,1.8-1.4c1.1,0,1.9,0.3,2,1.5h-0.8c-0.1-0.6-0.6-0.8-1.1-0.8c-0.5,0-1,0.1-1,0.6
			c0,0.6,0.8,0.7,1.6,0.8c0.8,0.2,1.6,0.4,1.6,1.4c0,1.2-1.1,1.5-2.1,1.5c-1.1,0-2-0.4-2.1-1.6H180.6z"/>
		<path fill="#00924B" d="M185.5,123.3h-0.8v-1h0.8V123.3z M184.7,124.1h0.8v4.9h-0.8V124.1z"/>
		<path fill="#00924B" d="M187.7,124.1h1v0.7h-1v3c0,0.4,0.1,0.4,0.6,0.4h0.4v0.7h-0.6c-0.8,0-1.2-0.2-1.2-1.1v-3.1h-0.8v-0.7h0.8
			v-1.5h0.8V124.1z"/>
		<path fill="#00924B" d="M191.1,129.7c-0.4,1-0.7,1.3-1.4,1.3c-0.2,0-0.4,0-0.6-0.1v-0.7c0.1,0,0.3,0.1,0.5,0.1
			c0.3,0,0.5-0.2,0.7-0.4l0.3-0.8l-1.9-4.8h0.9l1.4,4h0l1.4-4h0.8L191.1,129.7z"/>
	</g>
</g>
<g>
	<path fill="#044437" d="M108,98.2c-1.2,0.2-2.3,1.9-2.4,3.2c-0.2,2.9,2,4.8,4.4,7.3c0.4,0.4,0.8,0.8,1.2,1.2v-6.5
		c-0.1,0.1-0.3,0.1-0.5,0.1c-1.3,0.3-2.5-0.1-2.8-1.2c-0.2-0.7,0.1-1.4,0.8-1.8c0.7-0.4,1.9-0.1,2.2,0.8c0,0,0.1,0,0.3-0.2v-1.5
		C110.7,98.3,109.2,97.9,108,98.2z M102.5,93.9c7.6-4.1,7.8-17.9,7.8-18.6c0-18.8-15-24.5-30.5-24.5c-33.3,1.1-32.5,32-32.5,32h23.5
		c0.1-2.8,2.4-5,5.2-5c2.9,0,5.3,2.3,5.3,5.2c0,2.9-1.9,4.5-5.3,5c-2,0.3-3.2,0.5-5.7,1.2c-10.7,2.7-20,9-21.9,29.3l37.6,0
		c-1-1-9-9.6-0.7-13.4c0,0,1.6-0.7,3.2-0.4c1.2,0.3,2.3,1.4,2.5,2.4c0.2,1-0.3,2.5-1.5,2.7c-0.7,0.1-1.2-0.2-1.4-0.3
		c-0.4-0.3-0.6-0.9-0.3-1.5c0.2-0.3,1-0.6,1.4-0.1c0,0,0.1-0.9-0.8-1.2c-1.4-0.4-3.6,1.2-3,3.7c0.3,1.3,1.4,2.3,3,2.3
		c2.3-0.1,3.7-2.8,4.4-3.4c0.5-0.4,1.1-0.8,2.2-1c0,0,2.2-0.2,3.1,2c0,0,1,2.8-1.5,2.9c0,0-2,0-1.5-1.6c0,0,0.4-0.9,1.7-0.4
		c0,0-1.3-2.3-2.8-0.2c0,0-0.7,1.2-0.4,2.5c0.2,1.2,1.9,3.3,4.5,2.9c1-0.1,4.2-0.5,3.9-3.4c-0.2-1.6-3.7-8.4-0.5-13.2
		c1.6-2.4,3.5-3,3.8-3.2c0.9-0.3,3.2-1.3,5.8,0.5c0.1,0,0.1,0.1,0.2,0.2v-3.4H102.5z M70.5,99.1c1.3-5.7,6-3.9,6-3.9s0.6,5-5.2,4.9
		c0,0,0.4,1.2-0.3,2.1c0,0-1-1.1-0.9-1.9l0,0c-1,0.1-1.8-1.4-1.8-1.4C69.4,98.4,70.5,99.1,70.5,99.1z M70.6,108.5
		c0,0,0.3,1.7-0.8,2.6c0,0-1.1-1.6-0.7-2.6l0,0c-1.3-0.1-1.9-2.1-1.9-2.1c1.4-0.4,2.6,0.8,2.6,0.8c2.9-6.9,8.4-3.7,8.4-3.7
		S78,109.9,70.6,108.5z M86,97.1c0,0,0.4,1.2-0.3,2.1c0,0-1-1.1-0.9-1.9l0,0c-1,0.1-1.8-1.4-1.8-1.4c1-0.5,2.1,0.3,2.1,0.3
		c1.3-5.7,6-3.9,6-3.9S91.8,97.3,86,97.1z"/>
	<path fill="#00924B" d="M161.6,100.3c-0.2,0.2-1.8,2.3-2,2.5c-0.2,0.3-0.3,0.2-0.6,0.1c-0.3-0.1-2.2-1.4-2.6-1.6c0,0-0.3-0.1-0.4,0
		c-0.3,0.3,0.3,2,0.5,2.8c0.2,0.8,0.3,3.4,0.3,3.4c0.1,0.4,0.1,0.8,0.1,1.2c2.1-2.1,4-4.4,5.5-7l-0.2-1.7L161.6,100.3z M166.6,79.3
		c-0.3,0.1-0.8,0.2-0.9,0.2c-0.2,0-0.4-0.7-0.4-0.7l-0.3-0.3c0,0-0.6,0.2-0.6-0.2c0-0.2,0.1-0.7,0-1.2c-0.1-0.5-1-0.6-1.1-1.6
		c-0.1-1.2,0.6-2.2,1.2-2.7c0.1-0.1,0.2-0.1,0.2-0.2c-4.8-12.6-17.1-21.6-31.5-21.6c-18.6,0-33.6,15.2-33.6,33.7
		c0,4.9,1.1,9.6,3,13.8c1.2-1.2,2.3-1.6,2.6-1.7c0.9-0.3,3.2-1.3,5.8,0.5c2.2,1.5,2,3.8,1.7,4.6c-0.3,0.7-0.6,1.4-2,1.8
		c-1.3,0.3-2.5-0.1-2.8-1.2c-0.2-0.7,0.1-1.4,0.8-1.8c0.7-0.4,1.9-0.1,2.2,0.8c0,0,0.8-0.3,0.3-1.6c-0.5-1.3-2.1-1.7-3.2-1.5
		c-1.2,0.2-2.3,1.9-2.4,3.2c-0.2,2.9,2,4.8,4.4,7.3c3,3.1,8.3,6.5,12.8,7.8c0.6,0.2,1.2,0.4,1.7,0.5c1.1,0.3,2.3,0.6,3.5,0.8
		l0.5-10.9l-1.1-11.4c-0.9-0.2-2-0.7-4.1-1.8c-3.5-1.8-4.3-3.8-4.7-5c-0.4-1.3-0.8-4.5,1.8-8.6c2.6-4.1,4.6-7.5,4.1-9.3
		c-0.6-1.7-1.7-2.4-2.4-2.4c-0.7,0-0.8,0-1.9,1.2c-1.1,1.2-1.7,0.6-2.4,1.5c-0.7,0.9-0.1,3.8-0.1,3.8s-1.4-0.4-1.6-2.9
		c0-0.8,0-1.6,0-1.6s-0.6-2.4,1-4c1.6-1.6,3.6-1,3.6-1s3.3,0.6,4.8,2.4c1.5,1.7,1.8,3.7,1.6,4.7c-0.2,1.3-1.7,3.5-4.1,6.6
		c-2.9,3.7-2.9,6.5-1.5,8.3c1.4,1.8,2,1.2,2,1.2s0.6-0.5,0.2-1.5c-0.3-0.9-2.2-3.5-0.3-6.1c0,0,2.2-5.4,8.5-4.5
		c0.6,0.1,1.3,0.3,2,0.7c0,0,0.1,0,0.1,0.1c1.4,0.3,4.7,1.4,5.9,6.2c0.1,0.5,0.1,0.9,0.2,1.4c0.1,0.1,0.3,0.3,0.4,0.4
		c2.4,2.1,2.1,4.3,2.1,4.3c0.9,1.8,0.9,3.1,0.9,3.1l0.1,3.2c0,0-0.7-1.7-1.7-2.1c-0.5-0.2-1.4-0.6-2.2-0.9c0.3,1.3,0.6,2.7,0.6,2.7
		c-1.5-1.1-1.4-1-2.5-1.9c-0.4-0.4-0.9-1.3-1.2-2c-0.7,0.8-2.2,2.3-4,3.2c0,0-1,0.3-2.3,0.6l1.7,9c0,0,0.4,0.3,0.5,0.9
		c0.1,0.6-0.3,1.1-0.3,1.1l0.6,11.7c0,0,0.1,0,0.1,0c6.7,0,12.9-1.9,18.1-5.3c0-0.6-0.1-1.4-0.1-1.4c-0.4-2.4-0.1-4.3,0.1-5
		c0.1-0.7,0.2-1.3,0.3-1.7c0.1-0.3-0.5-1.2-0.5-1.7c0-0.4-0.8,2-0.8,2.2c-0.1,0.4-0.4,1-0.4,1.2c-0.1,0.3-0.1,1.3-0.1,1.6
		c0,0.4,0,0.7,0.1,0.9c0.2,0.2,0.1,0.8,0.2,1.1c0,0.3,0.1,1.5,0,1.5c-0.1,0-0.6-0.1-0.9-0.2c-0.3-0.1-0.4-0.4-0.6-0.8
		c-0.2-0.4-0.1-0.7-0.1-0.8c0-0.1,0-0.3,0-0.6c0-0.3-0.1-2.2-0.1-3.1c0-0.8,0.3-1.1,0.3-1.5c0.1-0.3,0.3-1.5,0.3-2.1
		c0.1-0.6,0.4-1.3,0.8-1.7c0,0,2-1.7,2-1.9c0-0.2-0.1-0.4-0.4-0.6c-0.3-0.2-2,0-2.8-1.6c-0.6-1.1,0-2.4,0.9-2.9
		c0.8-0.5,2.3-0.9,3.4-0.3c0.6,0.3,0.7,0.7,0.7,1.5c0,0,0,0.2,0.2,0.3c0.2,0.1,0.5,0.1,0.6,0.3c0.1,0.1,0.2,0.7,0.3,0.8
		c0.1,0.1,0.1,0.2,0.2,0.4c0,0.1,0,0.3-0.1,0.3c-0.1,0.1-0.7,0.4-0.8,0.4c-0.1,0.1-0.2,0.1-0.1,0.3c0.1,0.2,0.2,0.3,0.6,0.4
		c0.4,0.1,1.4,0.2,1.7,0.2c0.3,0.1,0.3,0,0.4,0.1c0.1,0.1,2.1,2.2,2.5,2.1c0.3-0.1,1.1-0.9,1.5-1.3c0,0,0-0.1,0-0.1
		c-0.1-0.4-0.1-1.6,0-1.9c0.1-0.3,0.8-0.9,0.8-0.9s-0.3,0-0.3-0.4c0-0.3,0.2-0.2,0.4-2.8c0.3-2.6,0.3-4.6,1.1-8.8
		c0.7-4.2,1-4.1,1.4-4.4c0.7-0.4,2-0.7,2.5-0.9C166.6,79.5,166.6,79.4,166.6,79.3z M129.9,95.8c-0.3,0-0.6,0.1-0.9,0.1
		c-0.3,0-0.6,0-0.8,0l0.9,9.1c0,0,0.4,0.3,0.5,1c0.1,0.7-0.4,1.1-0.4,1.1l-0.4,11.1c1.2,0.2,2.5,0.3,3.7,0.3l-0.5-11.5L129.9,95.8z"
		/>
	<path fill="#044437" d="M159.9,50.9h-3.2v24.4h3.2c1.3,0,2.5,0.3,3.6,0.7c-0.1-0.2-0.2-0.4-0.2-0.6c-0.1-1.2,0.6-2.2,1.2-2.7
		c0.6-0.5,1.4-0.7,1.4-0.7c1.8-0.5,3.3,0.6,3.8,1.4c0.4,0.9,0.1,2.7,0,3.2c-0.2,0.9,0.4,2.2,0.4,2.2s3.1,1.3,4.1,1.9
		c0.4,0.2,0.8,3,0.8,4.1c0,0.8,0,3.8,0,4.1c0,0.3,0.1,5.5,0,5.9c-0.1,0.5-0.3,0.9-0.5,1.3c-0.1,0.4-0.6,0.6-0.8,0.9
		c-0.2,0.4,0.1,1.7,0.1,1.7s0,1.2-0.2,1.6c-0.2,0.4-0.6,1-0.6,1l0.6,17h20V84.6C193.7,66.1,178.5,50.9,159.9,50.9z"/>
	<path fill="#00924B" d="M223,97.5l1.5-1.9c-0.7-0.4-1.2-0.9-1.2-0.9s-0.8,0.5-1.6-0.2c0,2.2,0.1,4,0.1,4.1
		C221.9,98.7,223,97.5,223,97.5z M220.2,50.8c-18.6,0-33.7,15.2-33.7,33.9c0,18.6,15.1,33.9,33.7,33.9c0.1,0,0.2,0,0.3,0
		c0.1-6.9,0.1-13.6-0.1-13.8c-0.3-0.5-0.3-0.5-0.8-1.4c-0.3-0.5-3.2-5.3-5.7-9.5c-0.4-0.1-0.7,0.6-0.7,0.6s-1,1.9-2.4,1.6
		c-1.4-0.3-1.8-1.8-1.9-2.4c-0.1-0.6-0.5,0-0.5,0s-0.8,1-1.8,0.8c-0.9-0.2-0.8-1.6-0.9-2.1c-0.1-0.3-0.5-1-0.5-1s-0.5-1.1-0.1-2.2
		c0.5-1.2,1.3-1,1.3-1s-0.1-1,0.4-1.6c0.5-0.6,1.8-0.4,1.8-0.4s0.4-1,1.2-1c0.8,0,1.8,1.3,1.8,1.3s0.1-1.1-0.5-1.2
		c-2.8-0.7-2.7-2.1-2.7-2.1s0-0.7-0.1-1.1c-0.1-0.4-0.5-0.7-0.5-1.6c0.1-1,0.7-1.7,0.7-1.7l0.8-1c0,0,0.7-0.9,1.5-0.9
		c0.8,0,1.1,0.5,1.1,0.5s-1.1-4.1,2.4-6.2c1.6-1,3-0.5,3-0.5s-0.4-1.3,0.6-2.1c1-0.7,2.1,0,2.1,0s-0.7-1.3,0.6-2.7
		c1.4-1.3,2.7-0.9,2.7-0.9c1.9-0.1,3.2,2.8,3.2,2.8s1.4,0.5,2,1.5c0.6,1,0.3,2.3,0.4,2.5c0.1,0.2,0.7,0,0.7,0s2-0.2,2.7,1.3
		c0.6,1.3,0.2,2.4,0.2,2.4l0.8,0.1c0,0,2.1,0.3,3.1,2.1c1.1,2-0.2,3.8-0.4,4c-0.1,0.1,0.2,1-0.5,1.4c-0.6,0.3-1.6,0-1.6,0l0.3,0.8
		c0,0,2.9,0.2,4.1,2.2c2.1,3.3,0.4,5.6-0.3,6.4c-1.3,1.5-2.8,2.4-5,2.5c-2.1,0.1-3.3-1.5-3.3-1.5s0.1,1.7-2.4,2.4
		c-0.9,0.3-1.6,0.2-2.3,0c-1.3,1.7-2.4,3-2.6,3.3c-0.7,0.8-0.6,5.8-0.6,5.8s-0.2,6.5-0.3,13.5c18.1-0.8,32.3-15.7,32.3-33.8
		C254.1,66,239,50.8,220.2,50.8z M217.7,94.2c-1,0.5-2,0.3-2.7,0c2.3,3.8,4.7,7.7,4.8,7.8c0.4,0.4,0.4-0.2,0.4-0.2l0.1-10.1
		c-0.1,0-0.2-0.1-0.2-0.1S219.2,93.4,217.7,94.2z"/>
</g>
</svg>
