<?xml version="1.0" encoding="utf-8"?>
<!-- Generator: Adobe Illustrator 19.1.0, SVG Export Plug-In . SVG Version: 6.00 Build 0)  -->
<svg version="1.1" id="Layer_1" xmlns="http://www.w3.org/2000/svg" xmlns:xlink="http://www.w3.org/1999/xlink" x="0px" y="0px"
	 viewBox="0 0 64.8 65" enable-background="new 0 0 64.8 65" xml:space="preserve">
<g>
	<g>
		<path fill="#231F20" d="M0.7,24l0.2-0.5l3.2,1l0.5-1.7L5,22.9l-0.7,2.2L0.7,24z"/>
		<path fill="#231F20" d="M1.8,20.6c0.1-0.2,0.3-0.3,0.5-0.2c0.2,0.1,0.3,0.3,0.2,0.5c-0.1,0.2-0.3,0.3-0.5,0.2
			C1.8,21,1.7,20.8,1.8,20.6z M2.9,21.3l0.2-0.5l2.4,0.9l-0.2,0.5L2.9,21.3z"/>
		<path fill="#231F20" d="M4,19.8l-0.2,0.5l-0.4-0.2l0.2-0.5l-0.5-0.2c-0.6-0.3-0.8-0.7-0.6-1.2c0-0.1,0.1-0.2,0.2-0.3L3.1,18
			C3,18.1,3,18.2,2.9,18.3c-0.2,0.3,0,0.5,0.4,0.6l0.5,0.3l0.2-0.5l0.4,0.2l-0.2,0.5l2,0.9L6,20.7L4,19.8z"/>
		<path fill="#231F20" d="M5.8,18.4c0.4,0.2,0.9,0,1.1-0.4c0.1-0.3,0.1-0.5,0-0.8L7.4,17c0.2,0.4,0.1,0.8-0.1,1.3
			c-0.4,0.7-1.2,0.9-1.8,0.5c-0.7-0.4-0.9-1.2-0.5-1.8c0.5-0.8,1.2-0.8,1.8-0.4l0.2,0.1L5.8,18.4z M6.3,16.9c-0.4-0.2-0.8-0.2-1,0.3
			c-0.2,0.4,0,0.9,0.3,1.1L6.3,16.9z"/>
		<path fill="#231F20" d="M6.2,13.3c0.2,0.1,0.4,0.1,0.5-0.1c0.1-0.2,0.1-0.4-0.1-0.5c-0.2-0.1-0.4-0.1-0.5,0.1
			C6.1,12.9,6.1,13.2,6.2,13.3z M9.1,15.3l0.3-0.4l-2.1-1.6l-0.3,0.4L9.1,15.3z"/>
		<path fill="#231F20" d="M8,12.6l0.3-0.4l0.3,0.3l0,0c-0.1-0.3,0-0.6,0.2-0.9c0.3-0.4,0.8-0.5,1.4,0l1.3,1.1l-0.3,0.4l-1.1-1
			c-0.4-0.3-0.7-0.2-0.9,0c-0.3,0.3-0.3,0.7,0.2,1.1l1,0.9l-0.3,0.4L8,12.6z"/>
		<path fill="#231F20" d="M10.5,7.7l0.4-0.3l1.2,1.5l0,0C12,8.6,12.2,8.3,12.5,8c0.4-0.3,0.9-0.4,1.4,0.2l1.1,1.3l-0.4,0.3l-1-1.2
			c-0.3-0.4-0.6-0.3-0.9-0.1c-0.3,0.3-0.4,0.7,0,1.1l0.8,1l-0.4,0.3L10.5,7.7z"/>
		<path fill="#231F20" d="M14.3,7.1c0.1-0.4,0.3-0.7,0.6-0.9C15.5,5.8,16,6,16.3,6.4L17,7.5c0.1,0.2,0.2,0.3,0.3,0.4l-0.4,0.2
			c-0.1-0.1-0.2-0.2-0.2-0.3l0,0c0,0.4-0.2,0.7-0.5,0.9c-0.4,0.3-0.9,0.3-1.2-0.2c-0.4-0.6,0-1.1,0.7-1.5L16,6.8L16,6.7
			c-0.1-0.2-0.5-0.3-0.8-0.1c-0.3,0.2-0.4,0.4-0.5,0.7L14.3,7.1z M16,7.2c-0.4,0.3-0.8,0.6-0.6,1c0.2,0.2,0.4,0.2,0.7,0
			c0.5-0.3,0.4-0.7,0.2-1l-0.1-0.1L16,7.2z"/>
		<path fill="#231F20" d="M16.7,5.2L17.1,5l0.2,0.4l0,0c0-0.3,0.2-0.6,0.5-0.8c0.1,0,0.1-0.1,0.2-0.1l0.2,0.5c-0.1,0-0.2,0-0.2,0.1
			c-0.4,0.2-0.5,0.6-0.3,1.1l0.6,1.1l-0.4,0.2L16.7,5.2z"/>
		<path fill="#231F20" d="M18.7,4.1l0.4-0.2l0.2,0.4l0,0c0-0.2,0.2-0.6,0.6-0.7c0.4-0.1,0.7-0.1,0.9,0.1c0-0.4,0.3-0.6,0.6-0.8
			c0.7-0.3,1.1,0.2,1.3,0.7L23.3,5l-0.5,0.2l-0.5-1.3c-0.1-0.4-0.4-0.7-0.8-0.5c-0.4,0.2-0.5,0.5-0.3,1l0.5,1.3l-0.5,0.2l-0.5-1.3
			C20.6,4.1,20.4,3.8,20,4c-0.3,0.1-0.5,0.5-0.3,1l0.5,1.2l-0.5,0.2L18.7,4.1z"/>
		<path fill="#231F20" d="M24.6,1.9c0.7-0.2,1.5,0.2,1.7,1c0.2,0.7-0.3,1.5-1,1.7c-0.7,0.2-1.5-0.2-1.7-1
			C23.4,2.9,23.8,2.1,24.6,1.9z M25.2,4.1C25.7,4,25.9,3.6,25.8,3c-0.1-0.5-0.5-0.8-1.1-0.7C24.2,2.5,24,3,24.1,3.5
			S24.6,4.3,25.2,4.1z"/>
		<path fill="#231F20" d="M26.8,1.5l0.5-0.1l0.1,0.4l0,0c0.1-0.3,0.4-0.5,0.8-0.6c0.5-0.1,1,0.2,1.1,0.9l0.2,1.7L29,3.8l-0.2-1.5
			c-0.1-0.5-0.4-0.6-0.7-0.6c-0.4,0.1-0.7,0.4-0.6,1L27.7,4l-0.5,0.1L26.8,1.5z"/>
		<path fill="#231F20" d="M29.8,1.1l0.6,0l0.9,2l0,0L31.9,1l0.5,0l-1.1,3.2C31.2,4.7,31,5,30.5,5c-0.1,0-0.3,0-0.4-0.1l0-0.5
			c0.1,0,0.2,0.1,0.3,0c0.3,0,0.4-0.2,0.5-0.4L31,3.7L29.8,1.1z"/>
		<path fill="#231F20" d="M33,4.3l-0.4,0L32.9,3l0.5,0L33,4.3z"/>
		<path fill="#231F20" d="M36.2,1.3l0.5,0.1l-0.3,2.6l-0.5-0.1L36.2,1.3z M36.7,0C36.9,0,37,0.2,37,0.4c0,0.2-0.2,0.3-0.4,0.3
			c-0.2,0-0.3-0.2-0.3-0.4C36.3,0.1,36.5,0,36.7,0z"/>
		<path fill="#231F20" d="M37.8,1.5l0.5,0.1l-0.1,0.4l0,0c0.2-0.2,0.5-0.4,0.9-0.3c0.5,0.1,0.9,0.5,0.7,1.2l-0.3,1.6L39,4.4l0.3-1.5
			c0.1-0.5-0.1-0.7-0.4-0.8C38.5,2,38.1,2.2,38,2.8l-0.3,1.3L37.2,4L37.8,1.5z"/>
		<path fill="#231F20" d="M42.2,3l-0.7-0.2l-0.3,1.1c-0.1,0.3-0.2,0.6,0.2,0.7c0.1,0,0.2,0.1,0.4,0l-0.1,0.4c-0.1,0-0.4,0-0.4,0
			c-0.7-0.2-0.6-0.7-0.5-1.1L41,2.7l-0.5-0.2l0.1-0.4l0.5,0.2l0.2-0.7l0.5,0.1l-0.2,0.7l0.7,0.2L42.2,3z"/>
		<path fill="#231F20" d="M44.1,3.2c0.7,0.3,1.1,1.1,0.8,1.8c-0.3,0.7-1.1,1-1.8,0.8c-0.7-0.3-1.1-1.1-0.8-1.8
			C42.6,3.3,43.4,2.9,44.1,3.2z M43.3,5.3c0.5,0.2,0.9,0,1.1-0.5c0.2-0.5,0-1-0.5-1.2c-0.5-0.2-0.9,0-1.1,0.5
			C42.6,4.6,42.8,5.1,43.3,5.3z"/>
		<path fill="#231F20" d="M48.7,6l-0.6-0.4l-0.6,1c-0.1,0.3-0.3,0.5,0,0.7c0.1,0.1,0.2,0.1,0.3,0.1l-0.2,0.4c-0.1,0-0.3-0.1-0.4-0.1
			C46.5,7.4,46.8,7,47,6.6l0.7-1.2l-0.5-0.3l0.2-0.4l0.5,0.3l0.4-0.6l0.4,0.2l-0.4,0.6l0.6,0.4L48.7,6z"/>
		<path fill="#231F20" d="M50.5,4.8l0.4,0.3l-1.1,1.6l0,0c0.3-0.2,0.6-0.1,1,0.1c0.4,0.3,0.6,0.8,0.2,1.4l-1,1.4l-0.4-0.3L50.5,8
			c0.3-0.4,0.2-0.7-0.1-0.9c-0.3-0.2-0.7-0.2-1.1,0.3l-0.8,1.1l-0.4-0.3L50.5,4.8z"/>
		<path fill="#231F20" d="M51.5,9.3c-0.3,0.3-0.2,0.8,0.2,1.1c0.2,0.2,0.5,0.2,0.8,0.2l0.1,0.5c-0.4,0.1-0.8,0-1.2-0.4
			c-0.6-0.5-0.6-1.3-0.1-1.9c0.5-0.6,1.3-0.7,1.9-0.2c0.7,0.6,0.5,1.4,0.1,1.9l-0.1,0.1L51.5,9.3z M53,10.1c0.3-0.3,0.3-0.7-0.1-1.1
			c-0.4-0.3-0.9-0.2-1.1,0L53,10.1z"/>
		<path fill="#231F20" d="M55.7,11.8l-0.4-0.4l0.3-0.3l0.4,0.4l0.4-0.4c0.5-0.5,0.9-0.5,1.4,0c0.1,0.1,0.1,0.2,0.2,0.3l-0.4,0.2
			c0-0.1-0.1-0.2-0.1-0.2c-0.2-0.3-0.4-0.2-0.7,0.1l-0.4,0.4l0.4,0.4l-0.3,0.3L56,12.2l-1.6,1.4L54,13.3L55.7,11.8z"/>
		<path fill="#231F20" d="M56.4,16.3l-0.3-0.4l0.3-0.2l0,0c-0.3,0.1-0.6-0.1-0.9-0.4c-0.3-0.4-0.3-0.9,0.2-1.3l1.3-1l0.3,0.4
			l-1.2,0.9c-0.4,0.3-0.4,0.6-0.2,0.9c0.2,0.3,0.6,0.4,1.1,0.1l1.1-0.8l0.3,0.4L56.4,16.3z"/>
		<path fill="#231F20" d="M59.4,17L59,16.4L58,17c-0.2,0.2-0.5,0.3-0.3,0.6c0.1,0.1,0.1,0.2,0.2,0.3l-0.4,0.2
			c-0.1-0.1-0.3-0.2-0.3-0.3c-0.4-0.6,0-0.9,0.3-1.1l1.2-0.7l-0.3-0.5l0.4-0.2l0.3,0.5l0.6-0.4l0.3,0.4l-0.6,0.4l0.4,0.6L59.4,17z"
			/>
		<path fill="#231F20" d="M58.9,20.7l-0.2-0.4l0.4-0.2l0,0c-0.3,0-0.6-0.2-0.8-0.6c-0.2-0.5-0.2-1,0.5-1.3l1.5-0.7l0.2,0.4L59,18.6
			c-0.4,0.2-0.5,0.5-0.3,0.8c0.2,0.4,0.6,0.5,1.1,0.3l1.2-0.6l0.2,0.4L58.9,20.7z"/>
		<path fill="#231F20" d="M61.6,20.5l0.2,0.5l-0.4,0.1l0,0c0.3,0,0.6,0.3,0.7,0.6c0,0.1,0,0.1,0,0.2L61.7,22c0-0.1,0-0.2-0.1-0.2
			c-0.2-0.4-0.5-0.6-1-0.4l-1.2,0.5l-0.2-0.5L61.6,20.5z"/>
		<path fill="#231F20" d="M61,23.1c-0.4,0.1-0.6,0.6-0.5,1.1c0.1,0.3,0.3,0.5,0.6,0.6L61,25.2c-0.4-0.2-0.7-0.5-0.8-0.9
			c-0.2-0.8,0.2-1.5,0.9-1.7c0.7-0.2,1.5,0.1,1.7,0.9c0.3,0.9-0.3,1.4-0.9,1.6l-0.2,0.1L61,23.1z M61.8,24.5
			c0.4-0.1,0.7-0.5,0.5-0.9c-0.1-0.5-0.6-0.7-1-0.6L61.8,24.5z"/>
	</g>
	<g>
		<path fill="#231F20" d="M2.8,31.7c0.3-0.2,0.4-0.5,0.5-0.8c0.1-0.8-0.5-1.4-1.4-1.4c-0.8-0.1-1.4,0.4-1.5,1.2c0,0.4,0.1,0.7,0.4,1
			L0.5,32C0.4,31.9,0,31.4,0,30.6c0.1-1.1,1.1-1.8,2-1.7c1.1,0.1,1.9,0.9,1.8,2c0,0.5-0.2,1-0.6,1.2L2.8,31.7z"/>
		<path fill="#231F20" d="M1.8,32.5c1.1-0.1,1.9,0.7,2,1.8c0.1,1.1-0.7,1.9-1.8,2c-1.1,0.1-1.9-0.7-2-1.8
			C-0.1,33.4,0.7,32.6,1.8,32.5z M2,35.7c0.8,0,1.4-0.6,1.3-1.4c0-0.8-0.7-1.3-1.5-1.3c-0.8,0-1.4,0.6-1.3,1.4
			C0.5,35.3,1.2,35.8,2,35.7z"/>
		<path fill="#231F20" d="M3.9,36.6l0.2,1.2c0.2,0.9-0.3,1.2-0.8,1.3c-0.4,0.1-1-0.1-1.2-1L2,37.4l-1.6,0.3l-0.1-0.5L3.9,36.6z
			 M2.4,37.3L2.5,38c0.1,0.4,0.2,0.7,0.7,0.7c0.5-0.1,0.5-0.5,0.4-0.9l-0.1-0.6L2.4,37.3z"/>
		<path fill="#231F20" d="M4.1,40.4l-0.8-0.5l0.3-0.4l1.1,0.7l0.1,0.4l-3.5,1l-0.1-0.5L4.1,40.4z"/>
		<path fill="#231F20" d="M5.4,42.5c0.3,1-0.6,1.5-1.3,1.8c-0.7,0.3-1.8,0.4-2.2-0.5c-0.3-1,0.6-1.5,1.3-1.8
			C4,41.7,5.1,41.5,5.4,42.5z M2.3,43.6c0.2,0.6,1.2,0.4,1.6,0.2c0.5-0.2,1.3-0.6,1.1-1.2c-0.2-0.6-1.1-0.4-1.6-0.2
			C3,42.6,2.1,43,2.3,43.6z"/>
		<path fill="#231F20" d="M2.5,45.6l0-0.4l4.2-0.2l0,0.4L2.5,45.6z"/>
		<path fill="#231F20" d="M6.8,45.9l0.4,0.6l-1.7,2.4l0,0l2.9-0.4l0.4,0.6L5.7,51l-0.3-0.4L7.9,49l0,0l-3.1,0.5l-0.2-0.3l1.9-2.6
			l0,0L4,48.2l-0.3-0.4L6.8,45.9z"/>
		<path fill="#231F20" d="M7.6,50.6c0.8-0.7,1.9-0.6,2.6,0.2c0.7,0.8,0.6,2-0.3,2.6C9.1,54.1,8,54,7.3,53.2
			C6.6,52.4,6.8,51.2,7.6,50.6z M9.6,53c0.6-0.5,0.8-1.3,0.2-1.9c-0.5-0.6-1.4-0.6-2-0.1c-0.6,0.5-0.8,1.3-0.2,1.9
			C8.2,53.5,9,53.5,9.6,53z"/>
		<path fill="#231F20" d="M11.7,52.6l0.9,0.9c0.7,0.6,0.4,1.2,0.1,1.5c-0.3,0.3-0.9,0.6-1.5-0.1l-0.6-0.5l-1.1,1.1l-0.3-0.3
			L11.7,52.6z M10.9,54.1l0.5,0.4c0.3,0.3,0.6,0.5,1,0.1c0.3-0.3,0.1-0.7-0.2-0.9l-0.5-0.4L10.9,54.1z"/>
		<path fill="#231F20" d="M15,56.1l-1.1-0.9l-0.6,0.7c0.1,0,0.3,0.2,0.4,0.2c0.5,0.4,0.6,1.1,0.1,1.6c-0.4,0.6-1.2,0.6-1.7,0.1
			c-0.4-0.3-0.6-0.8-0.4-1.2l0.5,0.2c-0.1,0.3,0,0.6,0.2,0.8c0.3,0.2,0.7,0.2,1-0.1c0.3-0.4,0.2-0.8-0.2-1.2
			c-0.1-0.1-0.4-0.3-0.7-0.3l1.2-1.5l1.5,1.2L15,56.1z"/>
		<path fill="#231F20" d="M18,57.6l0.4,0.2L18,61.6l-0.5-0.3l0.1-0.9l-1.5-0.8l-0.7,0.6l-0.5-0.3L18,57.6z M17.7,60l0.2-1.8l0,0
			l-1.4,1.1L17.7,60z"/>
		<path fill="#231F20" d="M20.1,58.7l0.4,0.2L19,62.1l-0.4-0.2L20.1,58.7z"/>
		<path fill="#231F20" d="M23.4,60.8c-0.1-0.3-0.4-0.6-0.7-0.7c-0.8-0.3-1.5,0.1-1.8,0.9c-0.3,0.7,0,1.5,0.8,1.8
			c0.4,0.1,0.7,0.1,1-0.1l0.3,0.4c-0.1,0.1-0.7,0.4-1.5,0.1c-1.1-0.4-1.4-1.5-1.1-2.4c0.4-1,1.4-1.5,2.4-1.2c0.4,0.2,0.8,0.5,1,1
			L23.4,60.8z"/>
		<path fill="#231F20" d="M24.5,60.3l0.5,0.1l-0.3,1.4l1.8,0.4l0.3-1.4l0.5,0.1l-0.8,3.5L26,64.4l0.4-1.6l-1.8-0.4l-0.4,1.6
			l-0.5-0.1L24.5,60.3z"/>
		<path fill="#231F20" d="M28.1,61.1l0.5,0.1l-0.5,3.5l-0.5-0.1L28.1,61.1z"/>
		<path fill="#231F20" d="M30.5,63.9l-1.2-0.1l0-0.4l1.2,0.1L30.5,63.9z"/>
		<path fill="#231F20" d="M31.6,61.4l0.6,0l2,2.9h0l-0.1-2.9l0.5,0l0.1,3.6l-0.6,0l-2.1-2.9l0,0l0.1,2.9l-0.5,0L31.6,61.4z"/>
		<path fill="#231F20" d="M36.6,61.1L37,61l2.1,3.3l-0.6,0.1L38,63.6l-1.7,0.3l-0.2,0.9l-0.6,0.1L36.6,61.1z M37.8,63.2l-0.9-1.5
			l0,0l-0.4,1.7L37.8,63.2z"/>
		<path fill="#231F20" d="M42,61.5l0.5,1.7c-0.3,0.3-0.8,0.6-1.2,0.7c-1.2,0.3-2.1-0.3-2.3-1.3c-0.3-1,0.2-2,1.3-2.3
			c0.6-0.2,1.1-0.1,1.4,0.1l-0.2,0.4c-0.4-0.2-0.7-0.2-1.1-0.1c-0.8,0.2-1.1,1-0.9,1.7c0.2,0.8,1,1.2,1.7,1c0.3-0.1,0.6-0.2,0.8-0.4
			l-0.3-1l-0.8,0.2l-0.1-0.4L42,61.5z"/>
		<path fill="#231F20" d="M42.6,61.5c-0.4-1,0-2,1-2.5c1-0.4,2,0,2.5,1c0.4,1,0,2-1,2.5C44,63,43,62.5,42.6,61.5z M45.5,60.3
			c-0.3-0.7-1-1.1-1.8-0.8c-0.8,0.3-1,1.1-0.7,1.8c0.3,0.7,1,1.1,1.8,0.8C45.6,61.8,45.8,61,45.5,60.3z"/>
		<path fill="#231F20" d="M47.4,59.6l-2.2-1.1l0.5-0.3l1.6,0.9l0.1-1.9l0.5-0.3l-0.2,2.5l0.8,1.3l-0.4,0.2L47.4,59.6z"/>
		<path fill="#231F20" d="M48.7,56.3l0.4-0.3l3.3,2.1l-0.5,0.3l-0.8-0.5l-1.4,1l0.2,0.9l-0.5,0.3L48.7,56.3z M50.7,57.7l-1.5-1l0,0
			l0.4,1.7L50.7,57.7z"/>
		<path fill="#231F20" d="M53.5,58.1l-0.3,0.3l-0.5-1.2l0.4-0.3L53.5,58.1z"/>
		<path fill="#231F20" d="M53.4,52.3l0.3-0.4l1.8,1.8c0.6,0.6,0.4,1.2,0.1,1.5c-0.4,0.4-0.8,0.5-1.2,0.2l0.3-0.4
			c0.2,0.1,0.5,0.1,0.7-0.1c0.3-0.3,0.1-0.7-0.2-1L53.4,52.3z"/>
		<path fill="#231F20" d="M54.9,50.5l0.3-0.3l3.8,1l-0.4,0.4l-0.9-0.3l-1.1,1.3l0.5,0.8L56.8,54L54.9,50.5z M57.3,51.3l-1.7-0.5l0,0
			l0.9,1.5L57.3,51.3z"/>
		<path fill="#231F20" d="M56.2,48.8l0.7-1.1c0.5-0.8,1.1-0.7,1.5-0.4c0.4,0.2,0.7,0.7,0.2,1.5l-0.4,0.7l1.3,0.8l-0.3,0.4L56.2,48.8
			z M57.8,49.2l0.3-0.5c0.2-0.3,0.3-0.7-0.1-1s-0.7,0-0.9,0.3l-0.3,0.5L57.8,49.2z"/>
		<path fill="#231F20" d="M58.1,45.7l0.2-0.4l3.9,0.2l-0.3,0.5l-1-0.1l-0.8,1.5l0.6,0.7l-0.3,0.5L58.1,45.7z M60.5,45.9l-1.8-0.1
			l0,0l1.2,1.3L60.5,45.9z"/>
		<path fill="#231F20" d="M59,43.8l0.2-0.6l3.4-0.9l0,0l-2.8-1l0.2-0.5l3.4,1.2l-0.2,0.6l-3.4,0.9l0,0l2.8,1L62.4,45L59,43.8z"/>
		<path fill="#231F20" d="M63.5,39.5l-1.1-1.7c-0.2-0.2-0.4-0.5-0.7-0.5c-0.3-0.1-0.6,0.2-0.7,0.5c-0.1,0.3,0.1,0.6,0.4,0.7
			l-0.1,0.5c-0.6-0.2-0.8-0.7-0.7-1.3c0.1-0.6,0.5-1,1.2-0.9c0.5,0.1,0.7,0.4,1,0.8l0.9,1.4l0.3-1.8l0.4,0.1L64,39.6L63.5,39.5z"/>
		<path fill="#231F20" d="M61,35.1c0.1-1,1.2-1.1,2-1.1c0.8,0.1,1.8,0.4,1.7,1.4c-0.1,1-1.2,1.1-2,1.1C62,36.5,60.9,36.2,61,35.1z
			 M64.3,35.4c0.1-0.7-0.9-0.8-1.4-0.9c-0.5,0-1.4-0.1-1.5,0.6c-0.1,0.7,0.9,0.8,1.4,0.9C63.3,36.1,64.2,36.1,64.3,35.4z"/>
		<path fill="#231F20" d="M61.8,32.6l0.6,0.7L62,33.5l-0.8-1l0-0.4l3.6,0l0,0.5L61.8,32.6z"/>
		<path fill="#231F20" d="M61,30.2c-0.1-1,1-1.3,1.7-1.4c0.8-0.1,1.9,0.1,1.9,1.1c0.1,1-1,1.3-1.7,1.4C62.2,31.3,61.1,31.2,61,30.2z
			 M64.3,29.9c-0.1-0.7-1-0.7-1.5-0.6c-0.5,0-1.4,0.2-1.4,0.9c0.1,0.7,1,0.7,1.5,0.6C63.4,30.7,64.4,30.6,64.3,29.9z"/>
	</g>
	<g>
		<g>
			<g>
				<g>
					<path fill="#034E9E" d="M50.3,38.2c0.1,0.1,0.6,0.8,0.6,0.9c-0.1,0.1-0.5,0.6-0.6,0.7c-0.1-0.1-0.6-0.3-0.6-0.3
						c0-0.1,0-1.1,0-1.2C49.8,38.2,50.2,38.2,50.3,38.2z"/>
					<path fill="#034E9E" d="M50.3,34.6c0.1,0.1,0.5,0.6,0.6,0.7c-0.1,0.1-0.6,0.8-0.6,0.9c-0.1,0-0.4,0-0.6,0c0-0.2,0-1.1,0-1.2
						C49.8,34.9,50.2,34.7,50.3,34.6z"/>
					<path fill="#034E9E" d="M56.4,38.8c0.1,0.2,0.6,1.1,0.7,1.2c0,0.1-1.2,2.7-1.4,3.1c-0.1-0.5-0.7-3-0.8-3.1
						C55,39.9,56.2,38.9,56.4,38.8z"/>
					<path fill="#034E9E" d="M55.6,31.2c0.2,0.5,1.4,3,1.4,3.1c0,0.1-0.6,1-0.7,1.2c-0.2-0.1-1.4-1.1-1.5-1.2
						C54.9,34.3,55.5,31.7,55.6,31.2z"/>
					<path fill="#034E9E" d="M56.5,36.4c0.2,0,1.2,0.1,1.4,0.1c0,0.2,0,1.1,0,1.3c-0.2,0-1.2,0.1-1.4,0.1
						C56.5,37.8,56.5,36.6,56.5,36.4z"/>
					<g>
						<path fill="#88C23F" d="M31.2,20.7c0.1,0.2,0.2,0.7,0.3,0.9c-0.2,0-1,0-1.4,0C30.4,21.3,31.1,20.8,31.2,20.7z"/>
						<path fill="#88C23F" d="M38.6,22.2c-0.4,0.3-3,2.3-3,2.3s1.2,2.6,1.4,3.2c-0.5-0.4-4.4-3.1-4.4-3.1c0-0.1-0.4-1.4-0.5-1.5
							c0.2-0.1,2.5-0.8,2.6-0.8C34.7,22.2,38.1,22.2,38.6,22.2z"/>
						<path fill="#88C23F" d="M33.2,20.6c0.1,0.1,1.1,1.2,1.3,1.4c-0.3,0.1-2.2,0.7-2.4,0.7c-0.1-0.2-0.6-1.9-0.7-2.2
							C31.7,20.6,33.1,20.6,33.2,20.6z"/>
					</g>
					<g>
						<path fill="#0071B8" d="M42.9,9.4c0.3,0.2,4.1,2.7,4.2,2.8c0,0.1-2.1,7.3-2.2,7.5c-0.1,0-1.8,0-2,0
							C42.9,19.5,42.9,9.8,42.9,9.4z"/>
						<g>
							<g>
								<path fill="#0071B8" d="M42.7,9.4c0,0.2,0,6.9,0,7.1c-0.2,0-6.6,0-6.8,0c0-0.2,0-3.7,0-3.8c0.1-0.1,3.1-1.5,3.1-1.5
									s-0.6-1.1-0.7-1.3C38.6,9.8,42.5,9.4,42.7,9.4z"/>
							</g>
							<g>
								<path fill="#0071B8" d="M34,12.3c0,0.1,0.2,1.2,0.2,1.2s1.3-0.6,1.6-0.8c0,0.3,0,6.7,0,6.9c-0.2,0-1.9,0-2,0
									c0-0.2-1.4-7.1-1.5-7.4C32.4,12.3,33.8,12.3,34,12.3z"/>
								<g>
									<g>
										<path fill="#0071B8" d="M30.1,16.4c0.1,0.1,0.9,1,1.1,1.2c-0.1,0.1-0.4,0.4-0.5,0.5c-0.1-0.1-1.2-1.1-1.4-1.3
											C29.4,16.7,30,16.4,30.1,16.4z"/>
										<path fill="#0071B8" d="M29.1,11.1c0.3,0.2,1.5,1.1,1.6,1.1c0,0.1-0.7,3.8-0.7,3.9c-0.1,0-0.7,0.3-0.9,0.4
											C29.1,16.3,29.1,11.5,29.1,11.1z"/>
									</g>
									<path fill="#0071B8" d="M33.2,7c0,0.3,0.7,4.9,0.8,5.1c-0.2,0-3,0-3,0c0,0-1.6-1.2-1.8-1.3c0.1-0.1,1.1-2.4,1.1-2.5
										C30.3,8.4,32.9,7.1,33.2,7z"/>
								</g>
								<path fill="#0071B8" d="M33.4,6.9c0.2,0,3.4,0.5,3.5,0.5c0,0.1,1.7,3.5,1.8,3.7c-0.2,0.1-4.2,2.1-4.4,2.2
									C34.3,13,33.4,7.2,33.4,6.9z"/>
							</g>
						</g>
					</g>
					<g>
						<path fill="#00964E" d="M55.4,23.2c0,0-2.2,2.4-3.6,4.1l-0.6-6.6l3-4.1C54.4,17.6,55.4,23.1,55.4,23.2z M49.8,20.4
							c-0.9-1.2-2.4-3.3-2.9-4c0.5-0.3,2.8-1.8,3.5-2.3L49.8,20.4z M50.7,14.2c0.7,0.4,3,2,3.5,2.3c-0.6,0.8-2.1,2.8-2.9,4
							L50.7,14.2z M45.7,23.2c0-0.1,0.9-5.6,1.1-6.6l3,4.1l-0.6,6.6C47.8,25.7,45.7,23.3,45.7,23.2z M51.9,30.3c-0.2,0-2.5,0-2.7,0
							c0-0.1,1.3-15,1.3-15.8C50.6,15.3,51.8,30.3,51.9,30.3z"/>
					</g>
					<g>
						<path fill="#F8AB17" d="M39.5,19c0,0.2,0,1.5,0,1.7c-0.2,0-2.1,0-2.2,0c0-0.1-0.2-0.8-0.2-1C37.2,19.7,39.3,19.1,39.5,19z"/>
						<path fill="#F8AB17" d="M43,23.8c0.1,0.1,2.8,2.3,2.9,2.4c0,0.1,0,3.3,0,3.4c-0.1,0-3.4,1.4-3.4,1.4c-0.1-0.1-2.6-1.8-2.7-1.9
							c0-0.1,0-4,0-4.1C39.8,24.9,42.9,23.9,43,23.8z"/>
						<path fill="#F8AB17" d="M46,29.8c0.2,0.2,4.9,3.5,5.7,4.1c-0.9-0.2-6.2-1.6-6.4-1.7C45.3,32.1,45.9,30.1,46,29.8z"/>
						<path fill="#F8AB17" d="M39.7,17.2c0.3,0.7,2.9,6,3,6.3c-0.3,0-2.9,0-3,0C39.7,23.3,39.7,18,39.7,17.2z"/>
						<path fill="#F8AB17" d="M42.6,23.7c-0.5,0.2-4.3,1.5-5.1,1.8c0.6-0.5,2-1.8,2.1-1.8C39.7,23.7,42.2,23.7,42.6,23.7z"/>
						<path fill="#F8AB17" d="M42.3,34c0,0.2,0,1.2,0,1.4c-0.2,0-2.1,0-2.7,0C40.2,35.1,42.1,34.2,42.3,34z"/>
						<path fill="#F8AB17" d="M45.8,29.8c-0.1,0.4-1.3,4.3-1.3,4.4c-0.1,0-1.7,1-1.9,1.1c0-0.3,0-4,0-4.1
							C42.6,31.2,45.4,30,45.8,29.8z"/>
					</g>
					<g>
						<path fill="#9C66A6" d="M26.1,22.7c0,0,0.8,0.5,1,0.6c-0.1,0.1-0.7,1-0.8,1.2c-0.2-0.1-1.4-1-1.4-1c0-0.1,0-0.6,0-0.7
							C25.1,22.7,26.1,22.7,26.1,22.7z"/>
						<path fill="#9C66A6" d="M27.1,19c0.1,0.1,1.4,1.3,1.5,1.4c-0.1,0.1-1.3,2-1.3,2.1c-0.1,0-2.2,0-2.4,0c0-0.1,0-1.2,0-1.2
							c0,0,0.8-1.7,0.8-1.8C25.8,19.4,27,19,27.1,19z"/>
						<path fill="#9C66A6" d="M24.7,22.7c0,0.1,0,0.6,0,0.7c-0.1,0.1-1.3,0.9-1.4,1c-0.1-0.1-0.7-1-0.8-1.2c0.1-0.1,0.9-0.6,1-0.6
							C23.5,22.7,24.5,22.7,24.7,22.7z"/>
						<path fill="#9C66A6" d="M22.5,19c0.1,0,1.3,0.4,1.4,0.5c0,0.1,0.8,1.7,0.8,1.8c0,0,0,1.2,0,1.2c-0.2,0-2.3,0-2.4,0
							c-0.1-0.1-1.3-2-1.3-2.1C21.1,20.3,22.4,19.1,22.5,19z"/>
					</g>
					<g>
						<path fill="#00A6A9" d="M16.2,49.5c0.3,0.2,1.3,1.1,1.5,1.2c-0.1,0.1-0.7,0.6-0.7,0.6s0.6,0.5,0.7,0.6c-0.1,0.1-1.2,1-1.5,1.2
							C16.2,52.8,16.2,49.9,16.2,49.5z"/>
						<path fill="#00A6A9" d="M20.6,50.1c0.1,0,1.2,1.1,1.4,1.2c-0.1,0.1-1.3,1.2-1.4,1.2c-0.1,0-1.9,0-2,0c-0.1,0-1.2-1.1-1.4-1.2
							c0.1-0.1,1.3-1.2,1.4-1.2C18.7,50.1,20.5,50.1,20.6,50.1z"/>
					</g>
					<g>
						<g>
							<g>
								<path fill="#EC5B85" d="M57.6,26.6c0,0.2,0,1.2,0,1.3c0,0.1-0.6,0.6-0.7,0.7c-0.1-0.1-1.2-1.2-1.3-1.3
									c0.1-0.1,0.6-0.6,0.7-0.7C56.4,26.6,57.4,26.6,57.6,26.6z"/>
								<path fill="#EC5B85" d="M56.9,28.9c0.1,0.1,0.6,0.6,0.7,0.7c0,0.1,0,1.1,0,1.3c-0.2,0-1.2,0-1.3,0c0,0-0.6-0.6-0.7-0.7
									C55.7,30.1,56.8,29,56.9,28.9z"/>
								<g>
									<path fill="#EC5B85" d="M54,28.9c0.1,0.1,1.2,1.2,1.3,1.3c-0.1,0.1-0.6,0.6-0.7,0.7c-0.1,0-1.1,0-1.3,0c0-0.2,0-1.2,0-1.3
										C53.4,29.5,53.9,29,54,28.9z"/>
									<path fill="#EC5B85" d="M53.4,26.6c0.2,0,1.2,0,1.3,0c0.1,0,0.6,0.6,0.7,0.7c-0.1,0.1-1.2,1.2-1.3,1.3
										c-0.1-0.1-0.6-0.6-0.7-0.7C53.4,27.9,53.4,26.8,53.4,26.6z"/>
								</g>
								<path fill="#EC5B85" d="M55.5,27.4c0.1,0.1,1.2,1.2,1.3,1.3c-0.1,0.1-1.2,1.2-1.3,1.3c-0.1-0.1-1.2-1.2-1.3-1.3
									C54.3,28.6,55.4,27.6,55.5,27.4z"/>
							</g>
						</g>
					</g>
					<g>
						<path fill="#813046" d="M18.5,30.1c0.1,0.2,0.5,1.1,0.6,1.3c-0.2,0-1.6,0-1.9,0C17.4,31.2,18.3,30.3,18.5,30.1z"/>
						<path fill="#813046" d="M9.4,21.4c0,0.4,0,2.2,0,2.8c-0.3-0.5-0.9-1.7-0.9-1.8C8.6,22.2,9.2,21.6,9.4,21.4z"/>
						<path fill="#813046" d="M11.2,19.6c0.1,0.1,2,1.4,2.2,1.5c-0.1,0.2-3.4,3.7-3.6,3.9c-0.1-0.2-0.2-0.5-0.2-0.5c0,0,0-3.3,0-3.4
							C9.7,21.1,11.1,19.7,11.2,19.6z"/>
						<path fill="#813046" d="M13.7,21.3c0.2,0.2,5.4,3.8,5.9,4.1c-0.5,0-3.3,0-3.3,0s1.6,3.4,1.7,3.7c-0.3,0-5.8,0-6.1,0
							C12,28.9,13.6,21.6,13.7,21.3z"/>
						<path fill="#813046" d="M19.9,25.6c0.1,0,2.4,1.7,2.5,1.7c0,0.1,0,2,0,2.1c-0.1,0.1-2.9,1.8-3,1.9c-0.1-0.2-2.5-5.5-2.7-5.7
							C16.9,25.6,19.9,25.6,19.9,25.6z"/>
						<path fill="#813046" d="M13.5,21.3c-0.1,0.4-2.2,9.7-2.2,9.9c-0.2,0-3.4,0-3.7,0c0.1-0.3,2.4-5.9,2.4-5.9
							C9.9,25.3,13.2,21.6,13.5,21.3z"/>
					</g>
					<g>
						<path fill="#D72128" d="M30.6,23.7c0,0.1,0.6,1.8,0.6,1.9c-0.1,0.1-1.1,1-1.2,1.1c-0.1,0-0.9,0-1,0c-0.1-0.1-1.1-1-1.2-1.1
							c0-0.1,0.6-1.7,0.6-1.9C28.6,23.7,30.4,23.7,30.6,23.7z"/>
						<path fill="#D72128" d="M36.7,31c0,0.1,0.5,1.5,0.5,1.6c-0.1,0.1-0.9,0.9-1,0.9c-0.1,0-0.8,0-0.9,0c-0.1-0.1-0.9-0.8-1-0.9
							c0-0.1,0.5-1.4,0.5-1.6C35.1,31,36.5,31,36.7,31z"/>
						<path fill="#D72128" d="M32.7,27c0.2,1.7,0.9,7.8,0.9,7.8c-0.2,0-0.8,0-0.9,0c0-0.2-0.5-3.6-0.5-3.6
							C32.2,31.1,32.7,27.7,32.7,27z"/>
					</g>
					<path fill="#ED72A8" d="M26.9,10.5c0.2,0,0.8,0.1,0.9,0.1c0,0.1,0,1.4,0,2C27.5,12,27,10.8,26.9,10.5z"/>
					<path fill="#ED72A8" d="M24.9,15.8c0,0.1,0.7,2,0.7,2.2c-0.2,0-0.7,0-0.8,0c-0.1-0.1-1.7-2-1.8-2.2
						C23.3,15.8,24.8,15.8,24.9,15.8z"/>
					<path fill="#ED72A8" d="M19.4,23.6c0.2,0.1,1.6,0.7,2.2,0.9c-0.7,0-2.2,0-2.4,0C19.3,24.4,19.4,23.8,19.4,23.6z"/>
					<path fill="#ED72A8" d="M20.1,18.2c0,0.2-0.9,5.6-1,6.1C18.9,24,18.4,23,18.4,23c0,0,0-4.6,0-4.8
						C18.6,18.2,19.9,18.2,20.1,18.2z"/>
					<path fill="#ED72A8" d="M18.6,11.5c-0.7,0.7-4.1,4.3-4.2,4.4c-0.1,0-1.2-0.2-1.5-0.2C13.2,15.4,17.7,12.2,18.6,11.5z"/>
					<path fill="#ED72A8" d="M19.1,11.3c0.1,0.2,5.2,6.4,5.5,6.7c-0.4,0-11.4,0-11.9,0C13,17.7,19,11.4,19.1,11.3z"/>
					<path fill="#ED72A8" d="M23.2,9.9c0.3,0,1.4,0.2,1.5,0.2c0,0.1,2.5,6.1,2.6,6.2c-0.1,0.1-1.2,1.3-1.4,1.5
						C25.7,17.6,23.3,10.2,23.2,9.9z"/>
					<path fill="#ED72A8" d="M25.3,8.4c0.1,0.1,2,1.6,2.4,2c-0.6-0.1-4-0.6-4.5-0.7C23.6,9.5,25.2,8.5,25.3,8.4z"/>
					<path fill="#D72128" d="M26.5,26.9c0,0.2,1.9,14.4,1.9,14.6c0.1,0,0.5,0,1,0V34h0.2v7.5c0.5,0,1,0,1,0c0-0.2,1.9-14.4,1.9-14.6
						C32.4,26.9,26.7,26.9,26.5,26.9z"/>
					<path fill="#D72128" d="M33.7,33.6c0,0.3,1,7.7,1,7.8c0.1,0,0.5,0,1,0v-3.9h0.2v3.9c0.5,0,0.9,0,1,0c0-0.2,1-7.6,1-7.8
						C37.7,33.6,33.9,33.6,33.7,33.6z"/>
					<g>
						<path fill="#F18020" d="M23.5,31.2c0.2,0.1,2.1,0.9,2.3,0.9c0,0.1-0.2,0.8-0.3,0.9c-0.1,0-1.9,0-2,0
							C23.5,32.9,23.5,31.4,23.5,31.2z"/>
						<path fill="#F18020" d="M7.4,38.4c0.2,0.4,0.7,1.5,0.8,1.6c-0.1,0.1-1.5,1.8-1.9,2.4C6.4,41.7,7.3,38.8,7.4,38.4z"/>
						<path fill="#F18020" d="M10.8,31.8c0,0.5,0,12.6,0,13.5c-0.4-0.7-4-8.4-4-8.5C6.9,36.7,10.5,32.2,10.8,31.8z"/>
						<path fill="#F18020" d="M14.8,31.8c0,0.5,0,3.7,0,4.2c-0.3-0.4-1.6-2-1.7-2.1C13.1,33.7,14.5,32.1,14.8,31.8z"/>
						<path fill="#F18020" d="M11,31.8c0.3,0.4,3.7,4.5,3.7,4.5c0,0.1,0,4.3,0,4.5c-0.2,0-3.5,0-3.7,0C11,40.6,11,32.3,11,31.8z"/>
						<path fill="#F18020" d="M19.1,36.9c0.1,0.2,0.6,0.7,0.6,0.7c0,0.1-0.8,3-0.9,3.1c-0.1,0-1.3,0-1.6,0
							C17.4,40.5,19,37.2,19.1,36.9z"/>
						<path fill="#F18020" d="M23.3,30.3c0,0.3,0,7.6,0,7.7c-0.1,0.1-3.7,2.4-4.1,2.7c0.1-0.5,2.7-9.7,2.7-9.8
							C21.9,30.9,23.1,30.4,23.3,30.3z"/>
						<path fill="#F18020" d="M15,31.8c0.3,0.4,3.9,4.9,4,5c-0.1,0.1-3.7,7.7-4,8.5C15,44.4,15,32.3,15,31.8z"/>
					</g>
					<g>
						<path fill="#0093D2" d="M20.8,41.5c0.2,0.1,3.1,1.1,3.6,1.3c-0.5,0.1-3.3,0.8-3.6,0.8C20.8,43.4,20.8,41.7,20.8,41.5z"/>
						<path fill="#0093D2" d="M33,44.2c0,0.2,0,1,0,1.1c-0.1,0-1.5,0.6-1.7,0.7c0-0.2,0-1.6,0-1.8C31.4,44.2,32.8,44.2,33,44.2z"/>
						<path fill="#0093D2" d="M24.5,43c0,0.3-1,5.2-1,5.4c-0.2,0-8.3,0-8.4,0c0,0-1.2-0.9-1.4-1c0.2-0.2,3.4-2.7,3.5-2.8
							C17.3,44.6,24.3,43,24.5,43z"/>
						<path fill="#0093D2" d="M24.9,42.9c0.3,0,6,0,6.1,0c0,0.2,0,3,0,3.1c-0.1,0-4.1,1.6-4.3,1.7C26.7,47.6,25,43.2,24.9,42.9z"/>
						<path fill="#0093D2" d="M23.7,48.5c0,0,0.9-5.1,1-5.4c0.1,0.3,1.8,4.8,1.8,4.9c-0.1,0.1-2.9,2.7-3.3,3
							C23.4,50.5,23.7,48.5,23.7,48.5z"/>
						<path fill="#0093D2" d="M14.8,48.6c-0.3,0.3-2.2,2.2-2.4,2.5c0-0.4,0-2.3,0-2.5C12.6,48.6,14.4,48.6,14.8,48.6z"/>
						<path fill="#0093D2" d="M11.1,45.8c0.5,0.3,3.4,2.3,3.8,2.6c-0.5,0-2.5,0-2.5,0C12.3,48.3,11.4,46.3,11.1,45.8z"/>
					</g>
					<g>
						<path fill="#916338" d="M29.4,56c0.2,0.1,2.2,1,2.8,1.3c-0.7,0-3.1,0-3.3,0C29,57.1,29.3,56.2,29.4,56z"/>
						<path fill="#916338" d="M24.9,54.8c0.1,0.1,0.8,1.6,1.2,2.2c-0.5-0.5-1.8-1.6-2.3-1.9C24,55,24.7,54.9,24.9,54.8z"/>
						<path fill="#916338" d="M31.9,49.7c0.2,0.1,10.1,2.9,10.2,2.9c0,0,1.4,1.6,1.6,1.8c-0.2,0.1-2.7,1.4-2.7,1.4
							c-0.1,0-11.1,0-11.4,0C29.6,55.5,31.8,49.8,31.9,49.7z"/>
						<path fill="#916338" d="M31.5,49.7c-0.3,0.4-4.3,5.9-4.4,6.1c-0.1-0.1-1.5-1.2-1.6-1.2c0-0.1,0-3,0-3.2
							C25.7,51.3,31.1,49.8,31.5,49.7z"/>
						<path fill="#916338" d="M31.6,49.9c-0.3,0.7-2.8,7.1-2.9,7.4c-0.2-0.2-1.3-1.3-1.4-1.4C27.4,55.7,31.1,50.5,31.6,49.9z"/>
						<path fill="#916338" d="M42.4,52.7c0.5,0.1,2.5,0.7,2.6,0.8c0,0.1,0.2,2.1,0.3,2.6C45,55.6,42.8,53.1,42.4,52.7z"/>
						<path fill="#916338" d="M25.3,51.5c0,0.3,0,2.9,0,3c-0.1,0-1.6,0.4-1.7,0.4c-0.1-0.1-0.6-0.5-0.7-0.6c0-0.1,0-1.1,0-1.2
							C23,53.1,25,51.7,25.3,51.5z"/>
					</g>
					<g>
						<path fill="#33BFDC" d="M37.5,47.3c0.1,0,2.7,0.4,3.1,0.5c-0.4,0.3-3.4,2.4-3.4,2.5c-0.1,0-1.5-0.4-1.8-0.5
							C35.6,49.5,37.4,47.4,37.5,47.3z"/>
						<path fill="#33BFDC" d="M36.7,42.9c0.2,0.3,0.9,0.9,1.1,1.1c-0.2,0.1-0.9,0.2-1.1,0.3C36.7,44.1,36.7,43.2,36.7,42.9z"/>
						<path fill="#33BFDC" d="M34.7,45.5c0,0.2,0.1,1,0.1,1.2c-0.2,0-0.9-0.1-1-0.2c0-0.1,0-0.7,0-0.8
							C33.9,45.7,34.6,45.5,34.7,45.5z"/>
						<path fill="#33BFDC" d="M50,41.2c-0.1,0.8-0.9,7.5-0.9,7.6c-0.2,0-3.3-0.5-3.6-0.5C45.7,48,49.6,41.8,50,41.2z"/>
						<path fill="#33BFDC" d="M40.8,43.4c0,0.2,0,4,0,4.2c-0.2,0-5.6-0.8-5.7-0.8c0-0.1-0.1-1.6-0.2-1.8
							C35.1,44.9,40.5,43.4,40.8,43.4z"/>
						<path fill="#33BFDC" d="M50.2,40.9c0.3,0.2,4.9,3.1,5,3.2c-0.1,0.2-3.1,7-3.2,7.2c-0.1,0-2.8,0-3,0
							C49.1,51,50.2,41.2,50.2,40.9z"/>
						<path fill="#33BFDC" d="M49.9,40.9c-0.3,0.4-6.8,10.9-6.9,11c-0.1,0-1.9-0.5-2-0.6c0-0.2,0-7.8,0-8
							C41.1,43.3,49.5,41,49.9,40.9z"/>
					</g>
					<g>
						<path fill="#034E9E" d="M49.9,37.3c0.3,0.4,1.5,2.1,1.6,2.2c0.1,0,2.5,0.9,2.6,1c0.1-0.1,2.2-1.8,2.3-1.9c0,0,0-0.6,0-1.3
							H49.9z"/>
						<path fill="#034E9E" d="M56.3,37.1c0-0.6,0-1.2,0-1.3c0,0-2.2-1.8-2.3-1.9c-0.1,0-2.5,0.9-2.6,1c0,0-1.2,1.7-1.6,2.2H56.3z"/>
					</g>
					<path fill="#5299B7" d="M47.7,37.9c0.1,0.1,0.8,0.3,1.1,0.5c-0.4,0.1-1.1,0.3-1.4,0.4C47.6,38.5,47.7,38,47.7,37.9z"/>
					<path fill="#5299B7" d="M40,39.7c0.1,0.1,1.5,0.7,1.8,0.8c-0.4,0.1-2.3,0.6-2.6,0.7C39.4,41,39.9,39.9,40,39.7z"/>
					<path fill="#5299B7" d="M44,37.1c-0.1,0.2-1.1,3-1.2,3.1c-0.1,0-0.6,0.2-0.7,0.2c-0.1,0-2.6-1.2-2.7-1.2c0-0.1-1-1.9-1.2-2.1
						C38.5,37.1,41.8,37.1,44,37.1z"/>
					<path fill="#5299B7" d="M46,37.1c0,0,1.4,0.6,1.5,0.6c0,0.1-0.3,1.2-0.4,1.3c-0.1,0-1.7,0.5-1.8,0.5c-0.1-0.1-1-2.2-1.1-2.4
						C44.9,37.1,46,37.1,46,37.1z"/>
					<path fill="#5299B7" d="M44.9,39.9c-0.5,0.4-2.1,1.8-2.5,2.1c0.2-0.5,0.6-1.5,0.6-1.6C43.1,40.4,44.3,40.1,44.9,39.9z"/>
					<path fill="#5299B7" d="M44.1,37.3c0.2,0.4,0.9,2.1,1,2.3c-0.2,0-1.8,0.5-2.1,0.6C43.2,39.9,44,37.7,44.1,37.3z"/>
				</g>
			</g>
		</g>
	</g>
</g>
</svg>
