<?xml version="1.0" encoding="utf-8"?>
<!-- Generator: Adobe Illustrator 19.1.0, SVG Export Plug-In . SVG Version: 6.00 Build 0)  -->
<svg version="1.1" id="Layer_1" xmlns="http://www.w3.org/2000/svg" xmlns:xlink="http://www.w3.org/1999/xlink" x="0px" y="0px"
	 viewBox="0 0 67.1 81.7" enable-background="new 0 0 67.1 81.7" xml:space="preserve">
<g>
	<g>
		<g>
			<defs>
				<path id="SVGID_1_" d="M22.9,32.9c0-0.1,0.1-0.1,0.1-0.2C22.9,32.8,22.9,32.9,22.9,32.9 M51.4,5.6c4.9,3.5,8.5,8.7,9.7,15
					c0.4,2,0.5,4.1,0.4,6c-0.4,6.7-3.7,12.9-8.8,17c-0.3,0.3-0.8,0.7-0.8,0.7c-2.8,2.1-6,3.9-9.6,4.6c-5.5,1-7.3,0.5-8.1-1.4
					c-0.5-1.2-1.5-2.4-3-2.8c-1.8-0.5-3.7-0.1-4.4-2.7c-0.1-0.6-0.2-1.3-0.5-1.8c-0.3-0.5-0.7-0.7-1-1.2c-0.3-0.5,0.1-1-0.3-1.6
					c-1.3-2.1-4.2-1.3-2-4.3c-0.9,1.3-1.8,2.6-2.2,4.9c-1.1,5.3-0.6,10.5,2.3,14c3.8,4.7,9.4,8.3,15.5,8.7c3.5,0.1,5,0,6.9-1.2
					c3.5-2.1,4-3.6,6.4-4.1c1-0.2-0.1,1.9-0.7,3.3c2.5-1.7,4.9-3.7,6.9-6.1l0,0c0.6-0.7,1.2-1.5,1.8-2.3c0.1-0.1,0.1-0.2,0.1-0.2
					l0,0c0,0,0,0,0,0C69.8,35.2,66,15.4,51.4,5.6C51.5,5.5,51.5,5.5,51.4,5.6L51.4,5.6z"/>
			</defs>
			<clipPath id="SVGID_2_">
				<use xlink:href="#SVGID_1_"  overflow="visible"/>
			</clipPath>
			
				<radialGradient id="SVGID_3_" cx="-382.9537" cy="335.4572" r="1.1241" gradientTransform="matrix(-42.4915 26.0169 22.0179 35.9603 -23590.4355 -2083.1321)" gradientUnits="userSpaceOnUse">
				<stop  offset="0" style="stop-color:#8EC21F"/>
				<stop  offset="0.1148" style="stop-color:#82C022"/>
				<stop  offset="0.3244" style="stop-color:#61B928"/>
				<stop  offset="0.6032" style="stop-color:#2CAF33"/>
				<stop  offset="0.8116" style="stop-color:#00A63C"/>
				<stop  offset="0.8623" style="stop-color:#02A13A"/>
				<stop  offset="0.9259" style="stop-color:#069135"/>
				<stop  offset="0.9963" style="stop-color:#0E782D"/>
				<stop  offset="1" style="stop-color:#0E762D"/>
			</radialGradient>
			<polygon clip-path="url(#SVGID_2_)" fill="url(#SVGID_3_)" points="94.4,45.6 33.3,83 -5,20.5 56.1,-16.9 			"/>
		</g>
		<g>
			<defs>
				<path id="SVGID_4_" d="M44.3,61.8L44.3,61.8C44.4,61.8,44.4,61.8,44.3,61.8C44.4,61.8,44.4,61.8,44.3,61.8"/>
			</defs>
			<clipPath id="SVGID_5_">
				<use xlink:href="#SVGID_4_"  overflow="visible"/>
			</clipPath>
			
				<radialGradient id="SVGID_6_" cx="-379.7604" cy="338.6903" r="1.1259" gradientTransform="matrix(-19.8158 27.8296 27.8296 19.8158 -16900.957 3884.426)" gradientUnits="userSpaceOnUse">
				<stop  offset="0" style="stop-color:#49AB35"/>
				<stop  offset="0.1853" style="stop-color:#3EA936"/>
				<stop  offset="0.5096" style="stop-color:#21A339"/>
				<stop  offset="0.8116" style="stop-color:#009D3C"/>
				<stop  offset="0.8765" style="stop-color:#098734"/>
				<stop  offset="1" style="stop-color:#1A6226"/>
			</radialGradient>
			<polygon clip-path="url(#SVGID_5_)" fill="url(#SVGID_6_)" points="44.5,61.8 44.4,61.9 44.3,61.8 44.4,61.8 			"/>
		</g>
		<g>
			<defs>
				<path id="SVGID_7_" d="M22.6,3.6C18,4.4,13.9,6.6,10.7,9.6c0,0-0.3,0.3-0.3,0.7c0,1.1,0.9,2,2.1,2.1c0.9,0.1,1.9-0.1,2.8-1.4
					c0.6-1,2.8-1.8,4.2-0.5c0.7,0,3.6-0.1,6.7,1c0,0-4.1-0.6-6.2-0.3c0,0.1-1.1-0.1-1.3,0.9c-0.3,1-1.8,4-6.5,2.7
					c-1.3-0.3-3.6,0.6-5.4,1.8c-0.7,0.4-1.2,0.9-1.6,1.4l-1,1.4c-5.4,12.9-1.7,28.2,9.5,37.2C9.8,53.4,7,48.7,6,43.3
					c-0.4-2.1-0.5-4.1-0.4-6.1c0.5-6.5,3.6-12.5,8.5-16.6c0.4-0.3,0.8-0.7,1.3-1c2.6-1.9,5.6-3.2,8.9-3.9c0,0,8.2-2.1,15.7,3.3
					c1.7,1.2,0.5-1.2-0.5-2.3c-0.8-0.8-1.4-1.3-1.6-1.4c-0.6-0.7,1.1,0,2.5,0.8c1.4,0.8,2.7,2.1,3.9,3.3c1.7,1.7,0.5-1.2-0.9-2.9
					c-1.3-1.5-2.3-2.3-3-3.1c-0.4-0.5,0.3-0.3,0.3-0.3c0.1,0,1.9,0.8,3.3,1.9c2,1.5,3.3,2.9,4.2,4c1.5,1.8,2.3,4.4,2.3,4.2
					c-0.2-1.4-0.7-3.2-1.2-4.7c-0.6-1.7-1.8-4.2-3.5-6.3l0,0C41.5,6.9,35.1,3.4,28,3.2c-0.3,0-0.6,0-0.9,0
					C25.6,3.1,24.1,3.3,22.6,3.6"/>
			</defs>
			<clipPath id="SVGID_8_">
				<use xlink:href="#SVGID_7_"  overflow="visible"/>
			</clipPath>
			
				<radialGradient id="SVGID_9_" cx="-372.3139" cy="321.6805" r="1.1241" gradientTransform="matrix(49.0669 0 0 -49.0669 18276.957 15835.085)" gradientUnits="userSpaceOnUse">
				<stop  offset="0" style="stop-color:#EC6D46"/>
				<stop  offset="0.1648" style="stop-color:#E95F41"/>
				<stop  offset="0.4772" style="stop-color:#E13A34"/>
				<stop  offset="0.7994" style="stop-color:#D70D25"/>
				<stop  offset="0.9934" style="stop-color:#841319"/>
				<stop  offset="1" style="stop-color:#841319"/>
			</radialGradient>
			<rect x="-1.3" y="3.1" clip-path="url(#SVGID_8_)" fill="url(#SVGID_9_)" width="51.8" height="53.6"/>
		</g>
		<g>
			<defs>
				<path id="SVGID_10_" d="M14.1,20.5C9.2,24.6,6,30.6,5.6,37.2c-0.1,2,0,4,0.4,6.1c1,5.4,3.8,10.1,7.7,13.5c0.6,0.5,1.3,1,1.9,1.4
					c0,0,0,0,0,0c1.6,1.1,3.2,2,4.9,2.8c7.4,3.3,15.7,3.6,23.1,1.1l0,0c0.1,0,0.2-0.1,0.3-0.1c0.1,0,0.2-0.1,0.3-0.1v0
					c3.9-1.3,4.9,0.5,9.7,1.7c-0.8-1.8-2.4-3.2-3.2-3.9c-0.5-0.4,2.4-4.7,0.9-4.4c-2.4,0.5-3,2.1-6.4,4.1c-1.9,1.1-3.4,1.3-6.9,1.2
					c-6.1-0.5-11.7-4-15.5-8.7c-2.9-3.5-3.3-8.8-2.3-14c0.6-2.8,1.7-4.2,2.9-5.8c0.9-1.2,2.3-4.3,2.6-6.6c0.3-2.2-0.5-7.1-2.9-8.3
					c-0.4-0.2-0.9-0.3-1.5-0.3C18.5,16.8,14.1,20.5,14.1,20.5"/>
			</defs>
			<clipPath id="SVGID_11_">
				<use xlink:href="#SVGID_10_"  overflow="visible"/>
			</clipPath>
			
				<radialGradient id="SVGID_12_" cx="-391.6768" cy="328.7952" r="1.1241" gradientTransform="matrix(-30.7377 -13.0433 -13.0433 30.7377 -7712.6763 -15168.1924)" gradientUnits="userSpaceOnUse">
				<stop  offset="0" style="stop-color:#37BDEF"/>
				<stop  offset="0.2401" style="stop-color:#37BDEF"/>
				<stop  offset="0.4865" style="stop-color:#209FDC"/>
				<stop  offset="0.7832" style="stop-color:#0075C1"/>
				<stop  offset="0.846" style="stop-color:#0172BE"/>
				<stop  offset="0.8951" style="stop-color:#0368B4"/>
				<stop  offset="0.9397" style="stop-color:#0758A3"/>
				<stop  offset="0.9812" style="stop-color:#0C428C"/>
				<stop  offset="1" style="stop-color:#0F357F"/>
			</radialGradient>
			<polygon clip-path="url(#SVGID_11_)" fill="url(#SVGID_12_)" points="46.6,82 -11.7,57.3 12.9,-0.7 71.2,24.1 			"/>
		</g>
		<g>
			<defs>
				<path id="SVGID_13_" d="M21.4,49.3c0.2,0.2,0.3,0.3,0.5,0.5c8.8,8,22,8,30.7,0.4c-9.4,5.4-21.7,4.5-30-3.3
					c-1-0.9-1.8-1.6-2.5-2.1C20.4,46.4,20.8,47.9,21.4,49.3"/>
			</defs>
			<clipPath id="SVGID_14_">
				<use xlink:href="#SVGID_13_"  overflow="visible"/>
			</clipPath>
			
				<radialGradient id="SVGID_15_" cx="-391.782" cy="333.5801" r="1.1241" gradientTransform="matrix(-29.1773 -2.0763 -2.0763 29.1773 -10698.5283 -10496.8281)" gradientUnits="userSpaceOnUse">
				<stop  offset="0" style="stop-color:#8EC21F"/>
				<stop  offset="0.1054" style="stop-color:#86C021"/>
				<stop  offset="0.2725" style="stop-color:#6FBA25"/>
				<stop  offset="0.4805" style="stop-color:#49B02D"/>
				<stop  offset="0.7191" style="stop-color:#16A338"/>
				<stop  offset="0.8116" style="stop-color:#009D3C"/>
				<stop  offset="0.8765" style="stop-color:#098734"/>
				<stop  offset="1" style="stop-color:#1A6226"/>
			</radialGradient>
			<polygon clip-path="url(#SVGID_14_)" fill="url(#SVGID_15_)" points="52.5,60.1 19.3,57.7 20.4,42.5 53.6,44.9 			"/>
		</g>
		<g>
			<defs>
				<path id="SVGID_16_" d="M10.7,9.6c3.2-3,7.3-5.2,11.9-6.1c1.8-0.3,3.6-0.5,5.4-0.4c7.4,0.3,14.1,4,18.4,9.9
					c0.3,0.4,0.5,0.7,0.8,1.1c1.6,2.5,2.7,5.3,3.3,8.4c0.3,1.5,0.4,3.1,0.4,4.6c0,2.7-0.8,4.6-2.1,5.7c-0.7,0.6-2.4,0.4-2.8,0.4
					c-0.8,0-1.5-0.2-2.2-0.5c0-0.3,0-0.6-0.1-0.7c0-0.2,0.1-0.5,0.1-0.5c0.1-0.9-0.2-1.1-0.2-1.1c-1,0.4-1.3,1.3-1.4,1.9
					c0,0-0.1,0-0.1,0c0-0.1,0-1.6,1.2-2.4c0,0,0.2-0.1,0.1-0.2c-0.1-0.1-1.5,0.4-2.1,2.7c0,0-0.1,0-0.1,0c0-0.4,0.2-1.3,0.8-1.9
					c0,0,0.2-0.2-0.2-0.1c-0.3,0.1-1.1,1.2-1.1,2.2c-0.3,0.1-0.4,0.3-0.4,0.3c-0.2,0.2-0.5,0.4-0.7,0.7c-0.2,0.3-0.4,1.2-0.5,1.3
					c0,0.1-0.2,0.6-0.3,0.8c-0.2,0.6-0.5,1.3-0.7,1.8c0,0,0,0.1,0,0.1l0,0c0,0-0.2,0.4-0.3,0.7c-0.1,0.3-0.1,0.6,0.1,0.7
					c0.4,0.4,0.8,0.2,0.8,0.4c0,0.2,0.4,0.2,0.8,0.1c0.4-0.1,1.4-0.7,2.1-0.9c1.2-0.4,2.4-0.3,3.6,0.4c1.1,0.6,1.9,1.9,1.6,4.2
					c-0.3,2.1-1.8,4.4-6.5,6.2c0.6-0.1,1.2-0.2,1.9-0.3c3.6-0.7,6.9-2.5,9.6-4.6c0,0,0.5-0.4,0.8-0.7c0.5-0.4,0.9-0.8,1.4-1.2
					c0,0,0,0,0,0c3.2-3.1,5.6-7,6.7-11.3c0,0,0,0,0,0c0.1-0.3,0.2-0.7,0.2-1c0,0,0-0.1,0-0.1c0.1-0.3,0.1-0.7,0.2-1c0,0,0-0.1,0-0.1
					c0.1-0.3,0.1-0.7,0.1-1c0,0,0-0.1,0-0.1c0-0.3,0.1-0.7,0.1-1.1c0-0.7,0.1-1.5,0-2.2c0-0.5,0-1-0.1-1.5c0-0.5-0.1-1-0.2-1.5
					c0-0.3-0.1-0.5-0.1-0.8c-1-5.5-3.9-10.2-7.8-13.6c0,0-0.1-0.1-0.1-0.1c-0.2-0.2-0.4-0.3-0.6-0.5c-0.2-0.2-0.5-0.4-0.7-0.5
					c-0.1-0.1-0.3-0.2-0.5-0.3l0-0.1C46,1.8,39.8,0,33.6,0C25.2,0,16.8,3.3,10.7,9.6"/>
			</defs>
			<clipPath id="SVGID_17_">
				<use xlink:href="#SVGID_16_"  overflow="visible"/>
			</clipPath>
			
				<radialGradient id="SVGID_18_" cx="-370.8042" cy="329.5545" r="1.1241" gradientTransform="matrix(27.2823 36.7575 36.7575 -27.2823 -1971.8784 22623.3574)" gradientUnits="userSpaceOnUse">
				<stop  offset="0" style="stop-color:#C7954D"/>
				<stop  offset="0.2041" style="stop-color:#C69349"/>
				<stop  offset="0.404" style="stop-color:#C28E3D"/>
				<stop  offset="0.6017" style="stop-color:#BD852A"/>
				<stop  offset="0.7415" style="stop-color:#B77D17"/>
				<stop  offset="0.8811" style="stop-color:#9A6026"/>
				<stop  offset="1" style="stop-color:#854C30"/>
			</radialGradient>
			<polygon clip-path="url(#SVGID_17_)" fill="url(#SVGID_18_)" points="43.5,-24.3 85.1,31.7 28.8,73.5 -12.8,17.5 			"/>
		</g>
		<g>
			<defs>
				<path id="SVGID_19_" d="M17.2,10.8c-0.3,0.1-0.2,0.1-0.1,0.2c0.1,0.2,0.2,0.2,0.4,0.2c0.2,0,0.3,0,0.4-0.1
					c0.1-0.1,0.2-0.3-0.1-0.3c0,0-0.1,0-0.3,0C17.4,10.7,17.3,10.7,17.2,10.8"/>
			</defs>
			<clipPath id="SVGID_20_">
				<use xlink:href="#SVGID_19_"  overflow="visible"/>
			</clipPath>
			
				<radialGradient id="SVGID_21_" cx="-370.3719" cy="311.2794" r="1.1243" gradientTransform="matrix(21.2554 -10.2103 -10.2103 -21.2554 11068.3662 2855.8979)" gradientUnits="userSpaceOnUse">
				<stop  offset="0" style="stop-color:#DF4336"/>
				<stop  offset="0.7994" style="stop-color:#8A272A"/>
				<stop  offset="0.8657" style="stop-color:#731D1F"/>
				<stop  offset="0.9934" style="stop-color:#3C0606"/>
				<stop  offset="1" style="stop-color:#3C0606"/>
			</radialGradient>
			<polygon clip-path="url(#SVGID_20_)" fill="url(#SVGID_21_)" points="16.7,10.8 17.8,10.3 18.3,11.2 17.2,11.7 			"/>
		</g>
	</g>
	<g>
		<g>
			<defs>
				<rect id="SVGID_22_" x="0" y="70.6" width="67.1" height="11.2"/>
			</defs>
			<clipPath id="SVGID_23_">
				<use xlink:href="#SVGID_22_"  overflow="visible"/>
			</clipPath>
			<path clip-path="url(#SVGID_23_)" fill="#3F3B3A" d="M0.7,79.7c0.1,0,0.2,0,0.3,0c0.5,0,0.8-0.2,0.8-0.7c0-0.4-0.3-0.6-0.7-0.6
				c-0.2,0-0.3,0-0.4,0V79.7z M0,78C0.2,78,0.6,78,1,78c0.5,0,0.8,0.1,1.1,0.3c0.2,0.2,0.4,0.5,0.4,0.8c0,0.3-0.1,0.6-0.3,0.8
				c-0.3,0.3-0.7,0.4-1.1,0.4c-0.1,0-0.2,0-0.3,0v1.4H0V78z"/>
			<path clip-path="url(#SVGID_23_)" fill="#3F3B3A" d="M3.8,81.7v-1.5L2.6,78h0.8l0.4,0.9c0.1,0.3,0.2,0.5,0.3,0.7h0
				c0.1-0.2,0.2-0.5,0.3-0.7L4.9,78h0.8l-1.2,2.1v1.5H3.8z"/>
		</g>
		<polygon fill="#3F3B3A" points="6,78 6,81.7 8.2,81.7 8.2,81.1 6.6,81.1 6.6,80 8,80 8,79.5 6.6,79.5 6.6,78.5 8.1,78.5 8.1,78 		
			"/>
		<g>
			<defs>
				<rect id="SVGID_24_" x="0" y="70.6" width="67.1" height="11.2"/>
			</defs>
			<clipPath id="SVGID_25_">
				<use xlink:href="#SVGID_24_"  overflow="visible"/>
			</clipPath>
			<path clip-path="url(#SVGID_25_)" fill="#3F3B3A" d="M9.3,79.8c0,0.7,0.4,1.3,1,1.3c0.6,0,1-0.6,1-1.4c0-0.7-0.3-1.3-1-1.3
				C9.6,78.5,9.3,79.1,9.3,79.8 M12,79.8c0,1.2-0.7,1.9-1.7,1.9c-1,0-1.7-0.8-1.7-1.9c0-1.1,0.7-1.9,1.7-1.9
				C11.4,77.9,12,78.7,12,79.8"/>
			<path clip-path="url(#SVGID_25_)" fill="#3F3B3A" d="M12.6,81.7V78h0.8l0.9,1.6c0.2,0.4,0.5,0.8,0.6,1.2h0c0-0.5-0.1-1-0.1-1.5
				V78h0.6v3.7h-0.7l-1-1.6c-0.2-0.4-0.5-0.9-0.7-1.3l0,0c0,0.5,0,1,0,1.6v1.3H12.6z"/>
			<path clip-path="url(#SVGID_25_)" fill="#3F3B3A" d="M19.1,81.5c-0.2,0.1-0.7,0.2-1.2,0.2c-0.6,0-1.1-0.2-1.4-0.5
				c-0.3-0.3-0.5-0.8-0.5-1.4c0-1.2,0.8-1.9,2-1.9c0.4,0,0.8,0.1,1,0.2l-0.1,0.5c-0.2-0.1-0.4-0.2-0.8-0.2c-0.8,0-1.3,0.5-1.3,1.3
				c0,0.8,0.5,1.3,1.3,1.3c0.2,0,0.4,0,0.5-0.1v-0.9h-0.6v-0.5h1.3V81.5z"/>
			<path clip-path="url(#SVGID_25_)" fill="#3F3B3A" d="M22.4,81.5c-0.2,0.1-0.5,0.2-0.9,0.2c-1.2,0-1.9-0.7-1.9-1.8
				c0-1.2,0.8-1.9,1.9-1.9c0.4,0,0.8,0.1,0.9,0.2l-0.1,0.5c-0.2-0.1-0.4-0.1-0.7-0.1c-0.7,0-1.3,0.5-1.3,1.4c0,0.8,0.5,1.3,1.3,1.3
				c0.3,0,0.6-0.1,0.7-0.1L22.4,81.5z"/>
		</g>
		<polygon fill="#3F3B3A" points="25.2,78 25.2,79.5 23.6,79.5 23.6,78 23,78 23,81.7 23.6,81.7 23.6,80 25.2,80 25.2,81.7 
			25.8,81.7 25.8,78 		"/>
		<g>
			<defs>
				<rect id="SVGID_26_" x="0" y="70.6" width="67.1" height="11.2"/>
			</defs>
			<clipPath id="SVGID_27_">
				<use xlink:href="#SVGID_26_"  overflow="visible"/>
			</clipPath>
			<path clip-path="url(#SVGID_27_)" fill="#3F3B3A" d="M28.4,80.1l-0.3-0.9C28,79,28,78.7,27.9,78.5h0c-0.1,0.2-0.1,0.5-0.2,0.7
				l-0.3,0.9H28.4z M27.3,80.6l-0.3,1h-0.7l1.2-3.7h0.8l1.2,3.7h-0.7l-0.3-1H27.3z"/>
			<path clip-path="url(#SVGID_27_)" fill="#3F3B3A" d="M30,81.7V78h0.8l0.9,1.6c0.2,0.4,0.5,0.8,0.6,1.2h0c0-0.5-0.1-1-0.1-1.5V78
				h0.6v3.7h-0.7l-1-1.6c-0.2-0.4-0.5-0.9-0.7-1.3l0,0c0,0.5,0,1,0,1.6v1.3H30z"/>
			<path clip-path="url(#SVGID_27_)" fill="#3F3B3A" d="M36.6,81.5c-0.2,0.1-0.7,0.2-1.2,0.2c-0.6,0-1.1-0.2-1.4-0.5
				c-0.3-0.3-0.5-0.8-0.5-1.4c0-1.2,0.8-1.9,2-1.9c0.4,0,0.8,0.1,1,0.2l-0.1,0.5c-0.2-0.1-0.4-0.2-0.8-0.2c-0.8,0-1.3,0.5-1.3,1.3
				c0,0.8,0.5,1.3,1.3,1.3c0.2,0,0.4,0,0.5-0.1v-0.9h-0.6v-0.5h1.3V81.5z"/>
			<path clip-path="url(#SVGID_27_)" fill="#3F3B3A" d="M38.7,78h0.7v1.7h0c0.1-0.1,0.2-0.3,0.3-0.4l1-1.3h0.8l-1.3,1.6l1.3,2.1
				h-0.8l-1-1.7l-0.3,0.4v1.3h-0.7V78z"/>
			<path clip-path="url(#SVGID_27_)" fill="#3F3B3A" d="M42.2,79.8c0,0.7,0.4,1.3,1,1.3c0.6,0,1-0.6,1-1.4c0-0.7-0.3-1.3-1-1.3
				C42.6,78.5,42.2,79.1,42.2,79.8 M45,79.8c0,1.2-0.7,1.9-1.7,1.9c-1,0-1.7-0.8-1.7-1.9c0-1.1,0.7-1.9,1.7-1.9
				C44.3,77.9,45,78.7,45,79.8"/>
			<path clip-path="url(#SVGID_27_)" fill="#3F3B3A" d="M46.2,79.7h0.4c0.4,0,0.7-0.2,0.7-0.6c0-0.4-0.3-0.6-0.7-0.6
				c-0.2,0-0.3,0-0.4,0V79.7z M45.5,78c0.2,0,0.6-0.1,1-0.1c0.5,0,0.9,0.1,1.1,0.3c0.2,0.2,0.3,0.4,0.3,0.7c0,0.5-0.3,0.8-0.7,0.9v0
				c0.3,0.1,0.4,0.4,0.5,0.7c0.1,0.5,0.2,0.9,0.3,1h-0.7c-0.1-0.1-0.1-0.4-0.2-0.9c-0.1-0.5-0.3-0.6-0.7-0.6h-0.3v1.5h-0.7V78z"/>
		</g>
		<polygon fill="#3F3B3A" points="48.6,78 48.6,81.7 50.8,81.7 50.8,81.1 49.3,81.1 49.3,80 50.6,80 50.6,79.5 49.3,79.5 49.3,78.5 
			50.7,78.5 50.7,78 		"/>
		<g>
			<defs>
				<rect id="SVGID_28_" x="0" y="70.6" width="67.1" height="11.2"/>
			</defs>
			<clipPath id="SVGID_29_">
				<use xlink:href="#SVGID_28_"  overflow="visible"/>
			</clipPath>
			<path clip-path="url(#SVGID_29_)" fill="#3F3B3A" d="M53.2,80.1l-0.3-0.9c-0.1-0.2-0.1-0.5-0.2-0.7h0c-0.1,0.2-0.1,0.5-0.2,0.7
				l-0.3,0.9H53.2z M52.1,80.6l-0.3,1h-0.7l1.2-3.7h0.8l1.2,3.7h-0.7l-0.3-1H52.1z"/>
			<path clip-path="url(#SVGID_29_)" fill="#3F3B3A" d="M56.4,81.7v-0.4l0.4-0.4c0.8-0.8,1.2-1.2,1.2-1.7c0-0.3-0.2-0.6-0.6-0.6
				c-0.3,0-0.6,0.2-0.8,0.3l-0.2-0.5c0.3-0.2,0.6-0.4,1.1-0.4c0.8,0,1.2,0.5,1.2,1.1c0,0.6-0.4,1.1-1.1,1.7l-0.3,0.3v0h1.4v0.6H56.4
				z"/>
		</g>
		<polygon fill="#3F3B3A" points="63.2,78.1 62.4,78.5 62.5,79 63.1,78.7 63.2,78.7 63.2,81.7 63.8,81.7 63.8,78.1 		"/>
		<g>
			<defs>
				<rect id="SVGID_30_" x="0" y="70.6" width="67.1" height="11.2"/>
			</defs>
			<clipPath id="SVGID_31_">
				<use xlink:href="#SVGID_30_"  overflow="visible"/>
			</clipPath>
			<path clip-path="url(#SVGID_31_)" fill="#3F3B3A" d="M60,79.9c0,0.9,0.2,1.3,0.6,1.3c0.4,0,0.6-0.5,0.6-1.3
				c0-0.8-0.2-1.3-0.6-1.3C60.3,78.6,60,79,60,79.9 M61.9,79.9c0,1.1-0.4,1.9-1.3,1.9c-0.8,0-1.2-0.7-1.2-1.8c0-1.1,0.5-1.8,1.3-1.8
				C61.5,78.1,61.9,78.8,61.9,79.9"/>
			<path clip-path="url(#SVGID_31_)" fill="#3F3B3A" d="M66.1,80.3v-1c0-0.2,0-0.4,0-0.6h0c-0.1,0.2-0.2,0.4-0.3,0.6l-0.6,1l0,0
				H66.1z M66.1,81.7v-0.9h-1.6v-0.4l1.4-2.2h0.8v2.1h0.5v0.5h-0.5v0.9H66.1z"/>
			<path clip-path="url(#SVGID_31_)" fill="#3F3B3A" d="M3.8,75.5c-0.2,0.1-0.7,0.2-1.2,0.2c-1.7,0-2.5-1-2.5-2.4
				c0-1.7,1.2-2.6,2.6-2.6c0.6,0,1,0.1,1.2,0.2l-0.2,0.9c-0.2-0.1-0.5-0.2-0.9-0.2c-0.9,0-1.5,0.5-1.5,1.6c0,1,0.6,1.6,1.5,1.6
				c0.3,0,0.7-0.1,0.9-0.2L3.8,75.5z"/>
			<path clip-path="url(#SVGID_31_)" fill="#3F3B3A" d="M5.1,73.2c0,1,0.4,1.6,1.2,1.6c0.7,0,1.2-0.7,1.2-1.7c0-0.9-0.4-1.6-1.2-1.6
				C5.5,71.5,5.1,72.3,5.1,73.2 M8.6,73.1c0,1.6-1,2.6-2.4,2.6c-1.4,0-2.3-1.1-2.3-2.5c0-1.5,0.9-2.6,2.4-2.6
				C7.8,70.7,8.6,71.8,8.6,73.1"/>
			<path clip-path="url(#SVGID_31_)" fill="#3F3B3A" d="M10.3,73c0.1,0,0.2,0,0.4,0c0.6,0,0.9-0.3,0.9-0.8c0-0.4-0.3-0.7-0.9-0.7
				c-0.2,0-0.4,0-0.5,0V73z M9.2,70.8c0.3-0.1,0.8-0.1,1.5-0.1c0.7,0,1.2,0.1,1.5,0.4c0.3,0.2,0.5,0.7,0.5,1.1
				c0,0.5-0.2,0.9-0.4,1.2c-0.4,0.4-0.9,0.5-1.6,0.5c-0.1,0-0.3,0-0.4,0v1.7H9.2V70.8z"/>
		</g>
		<polygon fill="#3F3B3A" points="14.5,71.9 14.5,71.9 13.6,72.3 13.4,71.5 14.7,70.9 15.6,70.9 15.6,75.6 14.5,75.6 		"/>
		<g>
			<defs>
				<rect id="SVGID_32_" x="0" y="70.6" width="67.1" height="11.2"/>
			</defs>
			<clipPath id="SVGID_33_">
				<use xlink:href="#SVGID_32_"  overflow="visible"/>
			</clipPath>
			<path clip-path="url(#SVGID_33_)" fill="#3F3B3A" d="M17,75.6V75l0.6-0.6c1-0.9,1.5-1.4,1.5-2c0-0.4-0.2-0.7-0.8-0.7
				c-0.4,0-0.8,0.2-1,0.4l-0.3-0.8c0.4-0.3,0.9-0.5,1.5-0.5c1.1,0,1.6,0.6,1.6,1.5c0,0.8-0.6,1.4-1.2,2l-0.4,0.4v0h1.8v0.9H17z"/>
		</g>
		<polygon fill="#3F3B3A" points="23.5,70.6 22.1,75.5 22.7,75.5 24.2,70.6 		"/>
		<g>
			<defs>
				<rect id="SVGID_34_" x="0" y="70.6" width="67.1" height="11.2"/>
			</defs>
			<clipPath id="SVGID_35_">
				<use xlink:href="#SVGID_34_"  overflow="visible"/>
			</clipPath>
			<path clip-path="url(#SVGID_35_)" fill="#3F3B3A" d="M30,73.8c0-0.6,0-1.3,0-2h0c-0.2,0.6-0.4,1.3-0.5,1.9l-0.6,1.9H28l-0.5-1.9
				c-0.2-0.6-0.3-1.3-0.4-1.9h0c0,0.7-0.1,1.4-0.1,2l-0.1,1.9h-1l0.3-4.9h1.5l0.5,1.6c0.1,0.6,0.3,1.2,0.4,1.7h0
				c0.1-0.6,0.3-1.2,0.5-1.8l0.5-1.6h1.4l0.3,4.9h-1.1L30,73.8z"/>
			<path clip-path="url(#SVGID_35_)" fill="#3F3B3A" d="M32.8,73.2c0,1,0.4,1.6,1.2,1.6c0.7,0,1.2-0.7,1.2-1.7
				c0-0.9-0.4-1.6-1.2-1.6C33.3,71.5,32.8,72.3,32.8,73.2 M36.3,73.1c0,1.6-1,2.6-2.4,2.6c-1.4,0-2.3-1.1-2.3-2.5
				c0-1.5,0.9-2.6,2.4-2.6C35.5,70.7,36.3,71.8,36.3,73.1"/>
			<path clip-path="url(#SVGID_35_)" fill="#3F3B3A" d="M38,73c0.1,0,0.2,0,0.4,0c0.6,0,0.9-0.3,0.9-0.8c0-0.4-0.3-0.7-0.9-0.7
				c-0.2,0-0.4,0-0.5,0V73z M36.9,70.8c0.3-0.1,0.8-0.1,1.5-0.1c0.7,0,1.2,0.1,1.5,0.4c0.3,0.2,0.5,0.7,0.5,1.1
				c0,0.5-0.2,0.9-0.4,1.2c-0.4,0.4-0.9,0.5-1.6,0.5c-0.1,0-0.3,0-0.4,0v1.7h-1.1V70.8z"/>
		</g>
		<polygon fill="#3F3B3A" points="44.2,70.9 44.2,71.6 42.3,75.6 41.1,75.6 43,71.8 43,71.8 40.9,71.8 40.9,70.9 		"/>
		<polygon fill="#3F3B3A" points="47.4,70.6 45.9,75.5 46.6,75.5 48,70.6 		"/>
		<g>
			<defs>
				<rect id="SVGID_36_" x="0" y="70.6" width="67.1" height="11.2"/>
			</defs>
			<clipPath id="SVGID_37_">
				<use xlink:href="#SVGID_36_"  overflow="visible"/>
			</clipPath>
			<path clip-path="url(#SVGID_37_)" fill="#3F3B3A" d="M53.9,73.8c0-0.6,0-1.3,0-2h0c-0.2,0.6-0.4,1.3-0.5,1.9l-0.6,1.9h-0.9
				l-0.5-1.9c-0.2-0.6-0.3-1.3-0.4-1.9h0c0,0.7-0.1,1.4-0.1,2l-0.1,1.9h-1l0.3-4.9h1.5l0.5,1.6c0.1,0.6,0.3,1.2,0.4,1.7h0
				c0.1-0.6,0.3-1.2,0.5-1.8l0.5-1.6h1.4l0.3,4.9h-1.1L53.9,73.8z"/>
			<path clip-path="url(#SVGID_37_)" fill="#3F3B3A" d="M56.7,73.2c0,1,0.4,1.6,1.2,1.6c0.7,0,1.2-0.7,1.2-1.7
				c0-0.9-0.4-1.6-1.2-1.6C57.1,71.5,56.7,72.3,56.7,73.2 M60.2,73.1c0,1.6-1,2.6-2.4,2.6c-1.4,0-2.3-1.1-2.3-2.5
				c0-1.5,0.9-2.6,2.4-2.6C59.4,70.7,60.2,71.8,60.2,73.1"/>
			<path clip-path="url(#SVGID_37_)" fill="#3F3B3A" d="M61.9,73c0.1,0,0.2,0,0.4,0c0.6,0,0.9-0.3,0.9-0.8c0-0.4-0.3-0.7-0.9-0.7
				c-0.2,0-0.4,0-0.5,0V73z M60.8,70.8c0.3-0.1,0.8-0.1,1.5-0.1c0.7,0,1.2,0.1,1.5,0.4c0.3,0.2,0.5,0.7,0.5,1.1
				c0,0.5-0.2,0.9-0.4,1.2c-0.4,0.4-0.9,0.5-1.6,0.5c-0.1,0-0.3,0-0.4,0v1.7h-1.1V70.8z"/>
		</g>
		<polygon fill="#3F3B3A" points="66.2,70.9 65,71.5 65.2,72.3 66.1,71.9 66.1,71.9 66.1,75.6 67.1,75.6 67.1,70.9 		"/>
	</g>
</g>
</svg>
