<?xml version="1.0" encoding="utf-8"?>
<!-- Generator: Adobe Illustrator 19.1.0, SVG Export Plug-In . SVG Version: 6.00 Build 0)  -->
<svg version="1.1" id="Layer_1" xmlns="http://www.w3.org/2000/svg" xmlns:xlink="http://www.w3.org/1999/xlink" x="0px" y="0px"
	 viewBox="0 0 74.2 65" enable-background="new 0 0 74.2 65" xml:space="preserve">
<g>
	<g>
		<path fill="#333333" d="M62.1,52.9c-2.3,0.6-4.7,0.8-6.9,1.6c3.7-3.3,3.5-8.4,6-12.3c0.8-1.1,1.4-2.2,2.4-3.3
			c-1.5,3.1-0.9,7.2-2.6,10.2c-0.7,1.2-1.6,2.4-2.7,3.3c0.3,0,0.6-0.3,1-0.5c2.8-2.9,6.5-3.7,9.5-6.1c1.2-1,2.3-2.3,2.9-3.7
			C71.1,47,66.5,51.5,62.1,52.9"/>
		<path fill="#333333" d="M72.3,33.4c-1.4,2-3,3.9-4.3,6c0.1-1.6,0.3-3.6-0.3-5.2c-1.1-3.3-2-6.7-2.3-10.3l0-1.4
			c0.8,3.7,4.3,6.3,4.1,10.5c0.1,1-0.2,1.9-0.4,2.8l0.1,0.1l0.2-0.2c0.5-2,0.8-4.2,1.6-6.1c1.2-2.8,2.6-5.5,2-8.9
			C74.7,24.5,74.2,29.7,72.3,33.4"/>
		<path fill="#333333" d="M70.1,12.3c2.3,3.3,2.8,8.4,1.1,12.2c-0.6,1.6-1.1,3.3-1.3,5c-0.1-0.3-0.1-0.7-0.3-1
			c-0.9-3.6-4.3-6.3-5.6-9.7c-0.4-1.1-0.8-2.3-1-3.5c1.5,2.8,5.1,4.3,6.1,7.3c0.4,0.8,0.4,1.8,0.6,2.6c0.1,0,0.1,0,0.1-0.1
			c-0.4-3.2-0.3-6.5,0.1-9.7c0-1.7-0.2-3.4-1.1-4.7C69.4,11.1,69.7,11.8,70.1,12.3"/>
		<path fill="#333333" d="M68.5,11.7c0.6,2.8-0.3,5.6,0.3,8.5l0,0c-1.5-3-4.7-4.5-6.9-6.9c-1.3-1.4-1.8-3.2-2.1-5.1
			c1.3,3.1,4.6,3.8,6.6,6.5c0.7,0.6,0.9,1.4,1.3,2.1l0.1-0.1c-1.1-2.5-1.5-5.2-2.3-7.9c-0.4-1.1-1.2-2.3-2.2-3
			C65.7,6.4,67.9,9.2,68.5,11.7"/>
		<path fill="#333333" d="M61.6,5.1c1.9,1.8,2.8,4.1,3.4,6.5l0.3,0.8c-2.8-2.1-5.3-4.9-7.1-7.8L56,2.3C57.9,3.1,60,3.6,61.6,5.1"/>
		<path fill="#333333" d="M17.5,2.7c-1.9,1.7-3.3,4-4.7,6c-1.3,1.6-2.9,2.7-4.4,4.1c0.8-1.7,0.8-3.7,1.9-5.2
			C12,4.7,14.9,3.7,17.5,2.7"/>
		<path fill="#333333" d="M7,8.7c0.9-1.2,2.1-2,3.5-2.4C7.8,8.2,8,11.5,7.2,14.3c-0.3,1-0.7,2-0.9,3l0.1,0.1C6.7,16.1,7.5,15,8.4,14
			c1.8-1.8,4.6-2.9,5.5-5.5c0,3.6-3,6.5-5.8,8.5c-1.2,1-2.3,2.2-2.9,3.6c-0.1-0.9,0.1-1.8,0.1-2.8C5,14.7,4.8,11.1,7,8.7"/>
		<path fill="#333333" d="M1.7,19.6c-0.1-3.2,1.2-5.8,3-8.2c0.1,0,0.1-0.1,0.2-0.1c-2,3.1-0.3,7.1-0.4,10.6l-0.3,3.6
			c0,0,0,0.1,0.1,0.1c0.1-0.4,0.1-0.8,0.2-1.3c0.5-2.9,2.9-5,5.1-7.1c0.5-0.5,0.9-1.1,1.1-1.7c-0.2,1.5-0.6,2.9-1.2,4.3
			c-1.7,3.4-4.8,6.2-5.4,10C3.9,26.3,1.5,23.5,1.7,19.6"/>
		<path fill="#333333" d="M0.2,24.1c0.2-1,0.4-2,0.8-3c-0.8,4.2,2,7.3,2.9,11c0.4,1.4,0.5,2.8,1,4.1c0.1,0,0.1,0,0.1-0.1
			c-1.3-3.9,0.6-7.5,2.6-10.6c0.5-0.8,0.7-1.7,1-2.7c0.2,1.8-0.2,3.8-0.5,5.6c-0.5,2.3-1.2,4.5-1.8,6.8c-0.4,1.4-0.3,3-0.1,4.5
			L6,39.7c-1.4-2.7-4.3-4.9-5.1-7.8C0.2,29.4-0.3,26.7,0.2,24.1"/>
		<path fill="#333333" d="M0.1,32.4c0.3,4.5,5,6.9,7.2,10.6c0.5,0.8,1,1.6,1.6,2.2c-0.1-0.5-0.5-0.9-0.7-1.4c-0.8-1.6-1-3.4-0.9-5.3
			c0.2-2.3,1.1-4.4,0.8-6.8c1.9,4.2,1.3,9.5,2.4,14.1c0.3,1,0.8,1.9,1.2,2.9c-3.9-2.8-9.2-5.4-11-10.4C0,36.5-0.1,34.4,0.1,32.4"/>
		<path fill="#333333" d="M2.4,42.7c2.2,5.1,7.6,5.5,11.3,8.6c0.7,0.6,1.4,1.1,2.1,1.5l0,0c-0.8-0.8-1.8-1.7-2.4-2.7
			c-2.1-3.1-1.4-7.4-3-10.7c1.5,1.8,2.8,3.7,3.7,5.7c1.3,3.3,1.8,7.1,4.8,9.6c-3.3-1.1-7.1-0.8-10-2.9C5.8,49.8,3,46.4,2.4,42.7"/>
		<path fill="#333333" d="M8,52.2c3.5,4.1,9.2,2.7,13.9,3.8c0.7,0.1,1.3,0.4,2,0.3c-0.6-0.4-1.3-0.3-1.9-0.7
			c-3.7-1.3-4.2-5.4-6.2-8.2c2.5,1.7,4.7,4.1,7,6.3c1.7,1.5,3.7,2.2,5.8,2.7c-0.5,0.2-1.2,0.1-1.7,0.3c-3.8,1-8.1,2.6-12.1,1.1
			C12.1,57,9.3,54.9,8,52.2"/>
		<path fill="#333333" d="M55.4,61.8c-3.9,1.5-8.1-0.1-11.1-2.5c-1.2-0.8-2.3-2-4-1.9c-0.6,0-1.1,0-1.6,0.2c3,1.4,5.8,3.4,8.3,6
			c-0.4,0.5-1,1-1.5,1.4c-2.4-2.7-5.2-5.3-8.2-6.9c-0.6,0.1-1.2,0.4-1.7,0.7c-2.5,1.6-4.9,3.7-6.7,6.2l-1.6-1.3
			c2.5-2.6,5.3-4.7,8.4-6.1c-3-1-4.9,1.6-7.2,2.9c-2.7,1.9-6.5,2.8-9.7,1.5c-1.7-0.7-3.4-1.7-4.6-3.3c2.5,1.8,6.3,2,9.1,0.8
			c3.8-1.7,7.8-3.9,12.5-2.9c0.7,0,1.4,0.8,2.1,0.1c3.4-0.9,7.3-0.3,10.3,1.3l3.1,1.3c2.8,1.1,6.5,0.8,8.9-1
			C58.9,60,57.2,61.1,55.4,61.8"/>
		<path fill="#333333" d="M59.7,57.6c-4.4,1.7-8.9-0.4-13.1-1.1l-0.8-0.1v0c2-0.5,4-1.1,5.6-2.6c2.4-2.4,4.5-4.8,7.1-6.6
			c-2,2.6-2.2,6.3-5.4,7.9c-0.8,0.5-1.8,0.6-2.6,1c1.2,0,2.3-0.4,3.4-0.5c4.3-0.7,9.3,0,12.3-3.8C65.1,54.4,62.2,56.6,59.7,57.6"/>
		<path fill="#333333" d="M67.7,44.7c-1.7,1.2-3.5,2.3-5.2,3.6v-0.2c2.6-4.4,1.3-10.5,2.9-15.3l0.6-1.6c-0.3,3,0.9,5.6,0.9,8.6
			c-0.1,1.8-0.7,3.5-1.6,4.9h0.2c1.3-1.7,2.2-3.5,3.7-5.2c2.3-2.3,4.6-4.6,4.9-7.8C74.8,37.1,71.9,41.7,67.7,44.7"/>
		<path fill="#333333" d="M60.7,15.5C56.4,6,47,0,37.1,0c-4.3,0.1-8.3,1.1-11.9,2.9c-6.5,3.2-11.8,10.1-13.5,17
			c-2.9,11.6,1,23.3,10.6,30c6.9,5.1,17.9,6.1,25.7,2.2c6.9-3,12.8-10.3,14.6-17.6C64.2,28.4,63.4,20.9,60.7,15.5 M61.9,25.1
			c0.1,0.5,0,1,0.2,1.4l-3.8,0.1c-0.1,0.1-0.2,0.1-0.3,0.1l0.1-0.2c-0.1-3.1-0.9-5.8-2-8.4c0-1.2-1.1-2-1.6-3
			c-0.8-0.6-1.1-1.7-2.1-2.2c-0.2-0.2-0.3-0.5-0.5-0.6l0.4-0.1c0.9-1,1.9-1.9,2.6-2.9C59,13.9,61.4,19,61.9,25.1 M51.3,39.7
			c-0.3-0.3-0.3-1-0.9-0.9c-0.2,0-0.3,0.2-0.3,0.3c0,0.1,0,0.2,0,0.3l-1.2-1.1c0.6-0.3,1-1.1,1.4-1.7c1.1-1.6,1.7-3.4,2.3-5.2
			c0.2,0.2,0.4,0.2,0.6,0c0.2-0.1,0.2-0.4,0.1-0.6l-0.4-0.5c0.1-0.8,0.3-1.6,0.2-2.4l0.3,0.1c1.2,0,2.5,0.1,3.6-0.1l-0.2,0.2
			c-0.3,4.9-1.9,9.3-5.3,12.9C51.6,40.6,51.2,40.2,51.3,39.7 M48.2,43.6c-0.7-0.6,0.4-1.2,0.6-1.8c-0.1-0.6-0.8-1-1.3-1.2
			c-0.2-0.1-0.2-0.5-0.2-0.7c0.2-0.2,0.5-0.4,0.6-0.8l0.1,0.3l1.6,1.7c0,0.4,0.1,0.7,0.4,0.9c0.2,0.1,0.4-0.1,0.5,0h-0.1
			c-0.7,0.8-1.6,1.4-2.3,2L48,44.3C47.9,44.1,48.4,44,48.2,43.6 M40.8,22.6c-0.2,0.1-0.4,0.2-0.7,0.1c-0.2-0.2-0.5-0.6-0.9-0.6
			c-0.2,0.1-0.4,0.4-0.7,0.2c0.5-0.5,1.3-0.6,1.7-1.4c0.1-0.4,0.2-0.7,0.2-1.1c-0.1-0.2-0.3-0.3-0.5-0.2c-0.3,0.4-0.9,0.5-1.1,1
			l-0.9-0.3c-0.2-0.9,0.1-2-0.2-2.8c0.5,0.2,1.1,0.2,1.6,0.3c1.3,0.4,2.6,1,3.7,1.8c-0.3,0.1-0.6,0.4-0.8,0.7c0,0.2,0.2,0.2,0.4,0.3
			l0.2-0.1C42.4,21.7,41,21.5,40.8,22.6 M41.9,33.8c0,0.5-0.7,0.5-1,0.8c-0.2-0.1,0-0.3,0-0.4C41.2,34,41.5,33.8,41.9,33.8
			 M49.4,20.9c0.4,0.1,0.7,0.6,1.1,0.7c0.4,0.6,0.5,1.3,0.7,2c-0.3,0.4-0.4,1.3-1.1,1.2c-0.2-0.4,0.3-0.7,0.2-1.1
			c0.1-0.1,0.3-0.2,0.4-0.4c0-0.4-0.5-0.3-0.6-0.7c-0.2-0.2-0.4-0.2-0.6-0.3c-0.5-0.2-1,1-1.1,0c0.2-0.1,0.3-0.3,0.1-0.5
			c-0.4-0.2-0.5-0.9-0.9-1.1c-0.6,0-1.2-0.3-1.9-0.1c-0.4-0.1-0.9-0.4-1.2,0.1c0,0.3-0.2,0.6-0.2,1c-0.1-0.1-0.3-0.2-0.4-0.4
			c1.2-1.3,2.5-2.7,3.7-4l0.1-0.2c0.6,0.8,1.3,1.5,1.8,2.4C49.5,20,48.5,20.5,49.4,20.9 M51.7,28c-0.2,0.7-0.2,1.6-0.4,2.3
			c0,0.1,0,0.3-0.1,0.4c-0.2-0.5-0.4-1.1-0.9-1.3c-0.4-0.2-0.2-0.9-0.6-1.1l-0.4-0.4C50,28.2,50.9,28.1,51.7,28 M46.2,16.5
			c-0.7,0.8-1.6,1.5-2.2,2.4l-0.1-0.3c-1.7-1.4-3.7-2.2-5.9-2.5l-0.3,0.1l0-3.7l-0.1-0.3c1.4,0.2,2.9,0.4,4.2,0.9
			c1.7,0.6,3.3,1.6,4.7,2.8l0.3,0.1L46.2,16.5z M42.6,36.6c1.2,0.1,2.2,0.4,3.3,0.8c0.3,0,0.6,0,0.7-0.2c-0.1-0.4,0.5-0.7,0.4-1.1
			c0.2-0.4,0.1-0.9,0.4-1.2c0-0.5,0-1-0.3-1.4c-0.3-0.2-0.5,0.1-0.8,0.1c-0.3,0.2-0.2,1-0.7,0.8c-0.1,0.2-0.4,0.2-0.6,0.1
			c0-0.1-0.1-0.1-0.1-0.2c0.4-0.2,1.1-0.1,1.1-0.7c0.3-0.3,0.7-0.1,1-0.5c0.2-0.3,0.3-0.6,0.6-0.9c0-0.1,0.1-0.3,0.1-0.4
			c0.1,0.2,0.1,0.4,0.3,0.6c0.3,0.1,0.4-0.2,0.6-0.4c0-0.1,0.1-0.3,0.2-0.2c0.3,0.3,0.8,0,1.2,0.1c0.3-0.1,0.7-0.2,1-0.2
			c-0.3,1.5-1.1,2.9-1.9,4.2c-0.3,0.4-0.6,0.9-1,1.3c-0.1-0.3-0.1-0.7-0.4-1l-0.2,0c-0.2,0.4-0.6,0.8-0.6,1.3
			c-0.3,0.5-1.1,0.1-1.6,0.4c-0.6,0.2-0.9-0.4-1.3-0.5c-0.5-0.2-1.1-0.2-1.5-0.5C42.4,36.7,42.5,36.6,42.6,36.6 M40.1,1.7
			c5.3,0.7,10,2.9,13.9,6.8l-0.5,0.2c-0.7,0.8-1.6,1.5-2,2.4c0-0.3-0.4-0.4-0.5-0.7c-0.1-0.7-0.8-1.5-1.4-1.8
			c-0.5-0.1-0.6-0.9-1.3-0.6c-0.5-0.5-1.2-0.1-1.7,0.1v0.1c-2.5-1.5-5.3-2.4-8.3-2.6c-0.1,0-0.2,0.1-0.4,0.1
			c0.2-0.1,0.1-0.4,0.1-0.6c-0.1-0.1-0.2-0.3-0.4-0.2c-0.1,0.1-0.1,0.2-0.1,0.3c0.1-1.2,0.1-2.7,0-3.7C38.4,1.6,39.3,1.5,40.1,1.7
			 M39.1,7.1C41.4,7.4,43.5,8,45.5,9c0.3,0.5,0.9,0.7,1,1.3c-0.3,0.8,1.1,0.8,0.4,1.7c0,0.3,0.2,0.4,0.3,0.6c0.1,0.2,0,0.6,0.2,0.7
			c0.5,0.1,0.7-0.5,1.1-0.4c0.6,0.5,0.7,1.2,0.7,1.9c0.1,0.4,0.4,0.7,0.8,0.9c0.8-0.2,0.4,0.7,0.9,0.9c0.6,0.1,0.9,0.9,1.6,0.8
			c0.6,0.5,0.9,1.1,1.4,1.7c0,0.1,0,0.2,0.2,0.3c0.3,0.1,0.5-0.2,0.8-0.2c1,2.1,1.5,4.5,1.7,7l0.1,0.3c-1.3,0-2.5,0-3.9,0.1
			c0-0.8,0-1.6-0.4-2.2c0.2-0.4,0.2-0.9,0.2-1.4c-0.1-0.2-0.3,0-0.3,0c-0.4,0.4-0.5,1-0.7,1.5c-0.4,0.5-0.4,1.3-0.2,1.9l0.2,0.2
			l-1.5,0c0.3-0.2-0.3-0.7,0.1-1l0.7-0.1c0.2-0.5,0.7-0.9,0.7-1.5c0.3-0.4,0.6-0.8,0.3-1.3c-0.3-0.7,0.5-1.5-0.1-2.2
			c0.1-0.2-0.1-0.5-0.3-0.5c-0.2-0.1-0.4,0-0.4-0.3c0.1-0.2,0.4-0.4,0.4-0.7c-0.2-0.2-0.4,0-0.6,0c-0.1-0.3,0.5-0.7,0-1
			c-0.4-0.1-0.6,0.4-0.9,0.2c-0.2-0.1-0.3-0.4-0.1-0.6l-0.8-1c-0.1-0.1-0.3,0.1-0.3-0.1c0.1-0.8-0.9-1.2-0.9-2
			c-0.3-0.3-0.1-0.8-0.4-1c-0.2-0.2-0.4-0.4-0.7-0.2c-0.3-0.5-0.7-1-1.2-1.4c-0.1,0-0.2,0-0.3,0.1c0.1,0.4,0.5,0.6,0.5,1
			c-0.1,0-0.1,0-0.2,0.1c0.1,0.4,0.4,0.7,0.6,1c-2.1-1.6-4.5-2.5-7.1-2.9c-0.5,0-1-0.2-1.5-0.1c0.1-1.2,0-2.5,0.1-3.8l-0.1-0.3
			C38,7.1,38.6,7,39.1,7.1 M36.9,22.7l0.2,0.1c-0.3,0-0.6-0.2-0.8,0c-0.2,0.1-0.1,0.3,0,0.5c0.5,0.2,0.6,1,1.2,0.7
			c0.3,0.1,0.6,0.1,0.7,0.4c0.4,0.1,0.4,0.8,0.9,0.7c0,0.3-0.1,0.7,0.2,0.9c-0.1,0.2-0.4,0.3-0.4,0.6c-0.1,0.1-0.1,0.2,0,0.3
			c0.5,0.1,0.5,0.6,0.7,0.9c-0.1,0.4,0,0.8,0.4,1c-0.1,0.5-0.2,0.9-0.4,1.3c-0.5,0.3-1.4-0.4-1.5,0.6c-0.3,0.3,0,1-0.6,1.1
			c-1.1,0.1-2.1-0.2-2.9-0.8c0.5-0.3,1.5,0.1,1.6-0.7c0.1-0.1,0.2-0.3,0.1-0.5c0.2-0.3,0.3-0.6,0.5-0.9c-0.2-0.2-0.1-0.3-0.1-0.6
			c-0.5-0.6-1.3-0.3-2-0.3c-0.4,0.2,0,0.7-0.3,1c-0.5,0.1-0.5,0.6-0.9,0.9c-0.2-0.1-0.4-0.4-0.4-0.6h0.1c0,0.1,0,0.2,0.1,0.2
			c0.5,0.1,0.3-0.5,0.5-0.8c0.1-0.3,0.8-0.8,0.2-1c0-0.1,0.1-0.3-0.1-0.4c-0.2,0.1-0.5,0.1-0.5,0.4c0.1,0.2,0,0.5-0.2,0.7h-0.1
			c0-0.2-0.1-0.3-0.2-0.3c-0.3,0-0.5,0.2-0.9,0.2c-0.4,0.1-0.9,0.2-1.3,0.2c0-0.3,0.3-0.2,0.4-0.4c-0.1-0.4,0.2-0.7,0.4-1
			c0.1-0.1,0.3-0.1,0.4,0c0.1,0.1,0.2,0.2,0.4,0.2l0.1-0.2c0.4,0.2,0.2,1.4,0.9,0.9c0.1-0.5,0-1.1,0.2-1.6c-0.2-0.4,0.3-0.6,0.4-0.9
			c0.4,0,0.4-0.4,0.5-0.7c0.6-0.2,1.3-0.3,1.7-1c-0.2-0.3-0.1-0.8-0.3-1.1C36.3,22.6,36.7,22.5,36.9,22.7 M36.3,47.9L36,47.6
			c-4.9-0.3-9.1-2.3-12.7-5.6c0.6-0.1,0.8,0.7,1.5,0.5c0.7-0.1,1.3-0.7,2-0.5c0.4,0,0.8,0,1.1-0.4c0.1-0.4-0.3-0.6-0.4-0.9
			c2.5,1.9,5.3,3.1,8.5,3.3l0.3-0.1v3.6L36.3,47.9z M22.6,28.3L22.4,28c0.4,0.3,0.8,0.2,1.3,0.1c-0.6,0.2-0.4,1-0.7,1.5
			c0,0.2,0.3,0.3,0.3,0.6c-0.3,0.2-0.4,0.5-0.5,0.8C22.9,30.1,22.6,29.2,22.6,28.3 M18.6,33c-0.4,0-0.3,0.4-0.4,0.6
			c0-0.9-0.4-1.9-0.5-2.8l-0.3-2.5l-0.2-0.2c1.2,0.2,2.4,0.1,3.6,0.1l0.3-0.1c-0.1,0.6-0.1,1.5,0.3,2c-0.1-0.2-0.4-0.6-0.7-0.6
			c-0.7,0-0.7,1-1.4,1c-0.6,0.5-0.6,1.1-0.7,1.8C18.9,32.4,18.4,32.7,18.6,33 M21.3,26.7l-0.3-0.1l-3.6,0.1c0.3-4.1,1.4-8,3.8-11.3
			l1.4-1.9l0-0.3c0.8,1,1.8,2,2.8,2.9c-2.6,2.9-3.9,6.3-4.2,10.2C21.2,26.5,21.1,26.6,21.3,26.7 M36.2,10.9
			c-0.7-0.1-1.4,0.1-2.1,0.2c-2.9,0.6-5.6,1.9-7.9,4.1l-0.1-0.3c-0.9-0.8-1.7-1.9-2.6-2.5c0.8-0.5,1.6-1.3,2.4-1.9
			c3-2.1,6.5-3.3,10.3-3.5C36,8.3,36.1,9.6,36.2,10.9 M30.3,31.4c0,0.1,0.2,0.3,0.3,0.2c0.1-0.2-0.3-0.6,0-0.7
			c0.2,0.2,0.1,0.7,0.2,0.9c0.1,0.2,0.1,0.3,0.1,0.5c-0.4,0.4-0.9,0.8-1.1,1.3c-0.2-0.6-0.8-1.1-1-1.7c-0.4-0.7-0.6-1.5-0.9-2.2
			c0.3,0.4,1.2-0.1,1.2,0.7c0.1,0,0.1,0,0.2,0c0.1-0.1,0.1-0.1,0.3-0.1c0.1,0.1,0.4,0.2,0.1,0.4C29.7,31,30,31.3,30.3,31.4
			 M34.2,41.9l0.6,0.3c-2.3-0.6-4.7-1.4-6.7-3.1c-0.3-0.2-0.6-0.7-1-0.7c0.9-0.8,1.8-1.8,2.6-2.8c0.3,0.6,1.1,1,1.6,1.4
			c1,0.5,2,1.3,3.2,1.1c-0.4,0.1-0.7,0.3-1,0.7c-0.2,0.4-0.1,0.9-0.6,1.1C33,40.7,33.7,41.4,34.2,41.9 M25.8,37.1l-0.1-0.8
			c-0.7-0.7-0.5-1.9-0.6-2.8c-0.5-0.4-0.1-1.1-0.5-1.6c0-0.8-1.2-1.1-0.8-1.9c-0.1-0.2-0.3-0.5-0.2-0.8c0.2-0.3,0.7,0,0.9-0.4
			l0.1-0.7c0.3-0.2,0.7,0.2,0.8-0.2c0.3-0.7-1-1.5,0.1-1.9c0.4,0,0.8-0.1,1,0.3c0.1,0.5,0.2,1.1,0,1.6c0.3,0.1,0,0.4,0,0.7
			c-0.2,0.1-0.4,0.3-0.7,0.2c-0.1-0.2-0.3-0.5-0.5-0.5c-0.2,0.3,0.1,0.6,0,0.9c-0.1,0.2,0,0.4-0.1,0.6c-0.1-0.1-0.2-0.1-0.3-0.1
			c-0.2,0.1-0.1,0.4,0,0.5c0.2,0.2,0.4,0.4,0.7,0.4l0.1-0.2c0-0.4,0.2-0.8,0.2-1.2l0.4,0.2c0.4,1.7,1.1,3.2,2,4.7l0.5,0.5
			c-1.2,1.1-2.4,2.3-3.4,3.6v0c0-0.1-0.1-0.3-0.2-0.2C25.1,37.6,26,37.7,25.8,37.1 M27.6,21.1c-0.4,0.2-0.7,0.6-0.9,0.9
			c-0.3,0.2-0.7,0.2-1,0.6c0,0.1,0.2,0.3,0,0.4c-0.3,0.3-0.9-0.1-1.1,0.5c-0.1,0.5-0.6,0.8-0.6,1.3c-0.3,0.2-0.3,0.6-0.2,1
			c0.2,0.2-0.1,0.6,0.2,0.8c-0.5-0.1-1.2-0.1-1.6,0.1c0.3-0.6,0.2-1.4,0.3-2c0.5-2.8,1.7-5.3,3.5-7.5c0.9,0.9,1.9,2,2.9,2.8
			C28.4,20,28.4,21.1,27.6,21.1 M35.7,35.7c-0.2,0.3,0,0.8-0.1,1.1c-1.7-0.3-3.3-1.1-4.7-2.2c0.8-0.9,1.9-1.7,2.4-2.7
			c0.1,0.4,0.6,0.6,0.9,0.8c0.7,0.3,1.5,0.8,2.3,0.5c-0.1,0.1-0.1,0.1-0.2,0.2c0.2,0.2-0.2,0.5,0.1,0.7c0.1,0.2-0.2,0.1-0.2,0.3
			c0.1,0.2,0,0.7,0.3,0.8c0.1,0.1,0,0.3-0.2,0.4C36.2,35.4,35.9,35.4,35.7,35.7 M31.5,31.7c0.2-0.2,0.5-0.5,0.5-0.9l0.4,0.2
			C32.1,31,31.9,31.5,31.5,31.7L31.5,31.7z M35.2,20.6c-0.1-0.2,0.1-0.4-0.1-0.5c-0.6,0.3-0.4,1-0.8,1.4c-0.1,0.4-0.5,0.2-0.7,0.4
			c-0.2-0.3-0.5-0.2-0.7-0.1c-0.3,0-0.4-0.7-0.7-0.3c-0.1,0.1,0,0.4-0.3,0.3c-0.1-0.1-0.1-0.1-0.2-0.2c0-0.2,0.3-0.2,0.2-0.4
			c-0.2-0.4-0.8-0.4-1.1-0.7h-0.3c1.5-1.7,3.5-2.4,5.6-2.7c0,1-0.1,2.1,0.2,3C36,20.3,35.6,20.8,35.2,20.6 M36.2,16.2
			c-0.7-0.2-1.3,0.2-2,0.2c-1.5,0.4-2.8,1.2-4,2.1c-0.1,0.1-0.1,0.2-0.2,0.3c-0.9-0.8-1.8-2-2.8-2.7c2.5-2.2,5.4-3.6,8.8-3.8
			l0.2-0.1C36.1,13.5,36.1,15,36.2,16.2 M22,6.6c4.2-3.1,8.8-4.9,14.1-5.2L36,1.8l0,3.3l0.1,0.3c-5.1,0.2-9.6,2.2-13.4,5.8l-0.1,0.2
			c-0.9-1-1.9-2.1-2.9-2.9h-0.1C20.5,8.1,21.2,7.2,22,6.6 M12.2,24.2c0.7-5.6,3-10.5,6.7-14.8L19,9.8c0.9,0.9,1.8,1.9,2.6,2.7
			c-0.7,0.5-1.2,1.4-1.8,2.1c-2.4,3.4-3.7,7.3-3.9,11.6l0.1,0.5c-1.3-0.1-2.7-0.1-4.1,0C12.2,25.9,12.1,25,12.2,24.2 M15.3,40.1
			c-1.9-3.6-3-7.6-3.2-11.9l3.6,0L16,28c-0.1,0.2,0,0.5,0,0.8l0,0c-0.1,0.1,0.1,0.1,0.1,0.2c0.1,1.4,0.3,2.8,0.6,4.1l0.2,0.3
			c-0.3-0.3-0.4-0.6-0.6-0.8c-0.3,0.1-0.6,0.1-0.9,0.3c0.1,0.4-0.2,0.3-0.4,0.4C15,33.2,14.8,33,14.7,33c-0.3,0-0.6,0-0.7,0.3
			c0,0.2-0.2,0.3-0.3,0.5c-0.1,0.6-0.3,1.4,0.2,1.9c0,0.4,0.2,0.9,0.5,1.1c0.1,0,0.2-0.1,0.3-0.1c0.4,0.3,0.5,0.9,1.1,0.8
			c0.2-0.1,0.1-0.2,0.2-0.4c0.3,0.3,0.4,0.9,0.9,0.8c0.1,0.1,0.2,0.4,0.4,0.4c0.6-0.2,0.4,0.6,0.8,0.9c0.3,0.2,0.5,0.7,0.9,0.5
			l0.2-0.2c0.1,0.1,0,0.4,0.2,0.5c0.2,0.4,0.7,0.7,1.1,0.9c0.4,0.5,0.8,1,1.2,1.3l-0.3,0.1l-2.6,2.8C17.6,43.4,16.2,41.8,15.3,40.1
			 M33.7,52.9c-5.3-0.7-9.9-3.1-14-6.8l2.7-2.8l0-0.2c3.7,3.7,8.3,5.6,13.4,6l0.4-0.1l-0.1,0.2v3.7l0.2,0.3
			C35.5,53,34.6,53,33.7,52.9 M36.9,37.5c-0.3,0-0.5,0-0.8-0.1c-0.1,0-0.1-0.1-0.1-0.2c0.4,0,0.6-0.5,1-0.4c0.2-0.2,0.3-0.6,0.6-0.7
			c-0.1-0.4,0.3-0.1,0.4-0.3c0.1-0.1,0.3-0.2,0.4-0.1c0.3,0.4,0.8,0.2,1.1,0.7c0.1,0.1,0.2-0.1,0.2-0.2V36c0.4,0,0.6,0.6,1.1,0.2
			c0.1-0.1,0.1-0.3,0-0.4c0,0-0.1-0.1-0.1-0.1c0.3-0.2,0.5,0.5,0.8,0.3c0.3-0.3,0.5-0.6,0.9-0.6l0.1,0.1c0.1,0.8-0.6,1.3-1.2,1.7
			c-0.4,0.2-1.1,0.1-1,0.7c-0.4,0.4-0.8-0.2-1.4-0.1c-0.2-0.1,0-0.5-0.4-0.6C38,37.4,37.3,36.9,36.9,37.5 M37.9,44.4
			c0.5,0.2,1.3-0.2,1.5,0.4c-0.1,0.3-0.4,0.6-0.3,1c0.2,0.5,0.5,1.2,1.1,1.2c0.2,0.2,0.4,0.3,0.6,0.4c-1.1,0.2-2.2,0.1-3.2,0.5
			c0.1-1.1,0-2.2,0-3.3l-0.2-0.3C37.7,44.1,37.8,44.3,37.9,44.4 M37.9,53.1l-0.3,0.2c0.1-1.4,0.1-2.9,0-4.3c0.7,0.2,1.4,0,2.1,0
			l2-0.4c1,0.2,1.7,1.9,2.8,0.9c0.4-0.5,1.1-0.4,1.3-1.1c0.6-0.2,0.8-0.9,1.3-1.3c0.4-1.3,1.8-1.5,2.7-2.3c0.6-0.6,1.4-1,1.8-1.8
			l0.1,0.3l2.8,2.7C49.7,50.3,44.3,52.8,37.9,53.1 M62,28.2c-0.3,6.3-2.5,11.8-6.6,16.6L55.4,45c-0.8-0.9-1.9-2.2-2.9-3
			c0.6-0.4,1.1-1.2,1.5-1.7c2.5-3.5,4-7.5,4.2-12L58,27.9l0.2,0.2l3.7,0l0.2-0.1L62,28.2z"/>
		<path fill="#333333" d="M48.7,7c0,0.1,0,0.3,0.1,0.4c0.6,0.2,0.6,1,1.3,0.8C50.3,7.9,50,7.7,50,7.4c-0.1-0.3-0.3-0.4-0.6-0.5
			C49.2,7.2,48.9,6.6,48.7,7"/>
		<path fill="#333333" d="M38.2,4.7c0.7,0.9,1.9,0.4,2.8,0.2c0.6,0.3,1.2-0.1,1.7-0.5V4.3c-0.4-0.6-1.3-0.7-2-0.8l-1.9,0.8
			c-0.2-0.1-0.5-0.2-0.6,0.1C38.1,4.5,38.2,4.6,38.2,4.7"/>
	</g>
</g>
</svg>
