<?xml version="1.0" encoding="utf-8"?>
<!-- Generator: Adobe Illustrator 19.1.0, SVG Export Plug-In . SVG Version: 6.00 Build 0)  -->
<svg version="1.1" id="Layer_1" xmlns="http://www.w3.org/2000/svg" xmlns:xlink="http://www.w3.org/1999/xlink" x="0px" y="0px"
	 viewBox="0 0 277.3 69.6" enable-background="new 0 0 277.3 69.6" xml:space="preserve">
<g>
	<path fill="#069554" d="M226.8,18.1h-11.6c-2.5-10.3-11.8-17.9-22.9-17.9c-13,0-23.5,10.6-23.5,23.6c0,2.3,0.3,4.5,0.9,6.6
		c0.2,0.2,0.4,0.5,0.6,0.7c-0.1-0.8,0-1.6,0.1-2c0.7,0.2,1.2,0.9,1.5,1.8c0.3-3.2,1.3-6.4,3.1-8.9c-0.4-0.9-0.8-2.2,0-2.9
		c0.1-0.1,2.1-1.3,2.1-1.3c0.3-0.1,0.3,0.7,0.2,1.5c0.6-0.3,1.5-0.7,1.8-0.6c0.3,0.1,0,0.9-0.3,1.7c0.6,0.3,1.3,0.7,1.4,1
		c0,0.3-0.6,0.6-1.3,0.9c0.4,0.3,0.8,0.7,0.9,0.9c0,0.5-2,0.7-2.7,0.7c-0.2,0-0.4,0-0.7-0.2c-0.1-0.1-0.7-0.5-1.2-0.9
		c-2.5,3.6-3.3,7.8-1.7,12.2c0.7,1.9,1.7,4.1,3,5.7c1.2,1.4,2.9,2.8,4.5,3.7c0.2,0.1,0.2,0.2,0.5,0.3c3.2,1.7,6.9,2.6,10.8,2.6
		c0.1,0,0.1,0,0.2,0v0c0.1,0,0.2,0,0.3,0c0.7,0,1.3-0.1,2-0.1c10.4-1.1,18.8-8.9,20.7-19h11.3V18.1z M190.6,29.9
		c0.2-1.1,0.6-2.1,1.4-2.8c0.7-0.7,1.6-1.2,2.6-1.3c0.2,0.2,0.4,0.5,0.6,0.7c-1,0.2-1.8,0.7-2.5,1.4c-0.7,0.7-1.1,1.6-1.3,2.6
		C191.1,30.3,190.8,30.1,190.6,29.9 M193.2,31.3c-0.3-0.1-0.6-0.2-0.9-0.3c0.2-0.9,0.5-1.7,1.1-2.4c0.6-0.6,1.4-1,2.3-1.2
		c0.2,0.3,0.3,0.6,0.4,0.9c-0.7,0.2-1.3,0.6-1.8,1.1C193.7,29.9,193.4,30.6,193.2,31.3 M196.1,31.3c-0.6,0.2-1.3,0.2-1.9,0.2
		c0.2-0.5,0.4-0.9,0.7-1.3c0.3-0.4,0.8-0.6,1.2-0.8C196.3,30,196.2,30.7,196.1,31.3 M192.9,25.3c-0.6,0.3-1.2,0.7-1.7,1.2
		c-0.6,0.6-1.1,1.4-1.4,2.3c-0.4,1.9-1.1,3.7-3.1,4c-1.7,0.2-2-1.1-1.4-2.4c0.2-0.3,0.4-0.8,0.6-1.2c-1.2,1.1-2.6,1.9-4.2,1.2
		c-1.5-0.7-1.1-2,0.1-2.8c1-0.7,3.2-1.8,5-2.7c-0.1,0-0.1-0.1-0.2-0.2c-0.2-0.2-0.3-0.4-0.4-0.7c-0.1-0.2-0.1-0.4-0.1-0.6
		c-0.1,0-0.2,0-0.2-0.1c-0.2-0.2-0.2-0.5,0.1-0.8c0,0,0,0,0,0c0,0,0,0,0,0c0,0,0,0,0,0c-0.2-0.2-0.5-0.3-0.8-0.3
		c-0.3,0-0.6,0.1-0.8,0.3c-0.1,0.1-0.1,0.2-0.2,0.3c-0.1,0.3-0.1,0.6,0.1,0.8c0,0,0,0.1,0,0.1c0,0,0,0-0.1,0.1c0,0,0,0-0.1,0
		c0,0,0,0-0.1,0c0,0,0,0,0,0c0,0,0,0,0,0c0,0,0,0,0-0.1c0,0,0,0,0,0c0,0,0,0,0,0c-0.1-0.2-0.2-0.3-0.2-0.5c0-0.3,0.1-0.6,0.3-0.8
		c0.1-0.1,0.2-0.1,0.3-0.2c0.2-0.1,0.5-0.2,0.8-0.2c0.4,0,0.8,0.1,1.1,0.4c0,0,0.1,0,0.1,0c0,0,0,0,0,0c0.1,0,0.2,0,0.3,0
		c0,0,0.1-0.1,0.1-0.1c0-0.1,0-0.2,0.1-0.4c0,0,0-0.1,0-0.1c0,0,0,0,0-0.1c0,0-0.1-0.1-0.1-0.1c0,0,0,0-0.1-0.1
		c-0.2-0.3-0.3-0.7-0.3-1c0,0,0,0,0,0c0-0.1,0-0.2,0-0.2c0-0.1,0.1-0.1,0.1-0.2c0,0,0,0,0,0c0-0.1,0.1-0.1,0.1-0.2c0,0,0,0,0,0
		c0,0,0,0,0,0c0.1-0.1,0.2-0.2,0.4-0.3c0.2-0.1,0.3-0.1,0.5-0.1c0.2,0,0.4,0.1,0.6,0.2c0,0,0,0,0,0c0,0,0,0,0,0.1c0,0,0,0,0,0.1l0,0
		c0,0,0,0-0.1,0c0,0-0.1,0-0.1,0c-0.3-0.3-0.8-0.2-1.1,0.1c-0.4,0.5-0.4,1.2,0.1,1.7c0.3-0.2,0.6-0.2,0.7,0c0,0,0.1,0.1,0.1,0.1
		c0.1,0,0.3,0,0.4,0c0.4,0,0.8,0.2,1.1,0.5c0.1,0.1,0.2,0.2,0.2,0.3c0.8-1.8,1.9-4,2.6-5.1c0.7-1.2,2-1.7,2.8-0.2
		c0.8,1.6,0,3.1-1.1,4.4c0.5-0.3,1-0.6,1.4-0.8c1.3-0.7,2.6-0.4,2.4,1.3C197.3,24.2,194.9,24.9,192.9,25.3"/>
	<path fill="#069554" d="M236.3,35.1c0.9,0.1,1.6-0.1,1.6-0.1c1.4-0.8,3.2,0,3.2,0c0.4,0.2,1.7,0.3,1.7,0.3c1,0,2.2,0.3,2.2,0.3
		c0.4-0.1,1.1,0.1,1.1,0.1c0.6-0.5,0.6,0.2,0.6,0.2c0.7,0.3,1.1,0.7,1.1,0.7c0.3,0.2,0.1,0.4,0.1,0.4c-0.2,0.1,1.1,1.2,1.1,1.2
		c0.4,0.2-0.2,0.6-0.2,0.6c-0.4,0.6-1.3,0.5-1.3,0.5c-0.3-0.1-2.1,0.1-2.1,0.1c-0.6,0-1.7,0.6-1.7,0.6c0.5,0.9,0,3.5,1.3,4.8
		c0.2,0.2,0.3,0.5,0.5,0.9c2.5,0.9,5.3,1.5,8.1,1.5c0.1,0,0.1,0,0.2,0v0c0.1,0,0.2,0,0.3,0c0.7,0,1.3-0.1,2-0.1
		c3-0.3,5.8-1.2,8.4-2.5c2.8-2.8,4-6.4,3.8-10.4c-0.6,0.1-1.4,0.2-1.5,0.2c-0.2,0-0.5-0.1-0.6-0.2c-0.6-0.4-2.2-1.6-2-2
		c0.1-0.2,0.7-0.3,1.2-0.4c-0.4-0.6-0.8-1.2-0.6-1.4c0.2-0.2,1.1-0.2,1.7-0.2c0.1-0.8,0.3-1.6,0.6-1.6c0.3,0,0.9,0.9,1.2,1.4
		c0.3-0.7,0.8-1.5,1-1.2c0,0,1.1,2,1.2,2.2c0.3,1.1-0.7,1.9-1.5,2.5c0.5,2.8-0.1,6.6-2.3,9.8c6.4-4.2,10.6-11.5,10.6-19.7
		c0-13-10.5-23.6-23.6-23.6c-13,0-23.5,10.6-23.5,23.6c0,4,1,7.8,2.7,11.1C234.6,34.9,236.3,35.1,236.3,35.1 M249.7,15.2
		c1.8,0.9,4.4,2.9,6.3,5c0-2.7,0.8-4.5,1.2-5.5c0.2-0.5,0.4-0.8,0.9,0c0.7,1.3,1.3,2.9,1.8,5.1c-0.7,0.1-1.4,0.3-2.1,0.7
		c1.1-0.4,2.5-0.6,3.7-0.2c1.6,0.5,2.1,2,1.7,3.6c-0.1,0.3-0.1,0.6,0.1,0.9c0.6,0.7,1.1,1.9,1.2,2.6c-0.5-0.8-1.1-1.6-1.7-2.3
		c-0.2-0.2-0.5-0.3-0.7-0.4c-0.6-0.2-1.3-0.4-1.9-0.4c-0.6,0-0.7,0.3-0.9,0.8c-0.3,0.7-0.9,1.7-2.2,2.4c-1,0.5-2.9,0.5-3.7,0.6
		c-1,0.1-1.8,0.8-2.4,1.4c-0.1,0.1-0.2,0-0.2-0.1c0.3-1.5,1.3-3.4,2.3-4.8c-3-3-4-7.4-4.1-9.1C248.7,15.1,248.8,14.8,249.7,15.2"/>
	<path fill="#004844" d="M42.6,33.3c-0.8,0.2-1.6,1.4-1.7,2.3c-0.1,2,1.4,3.4,3.1,5.2c0.3,0.3,0.5,0.5,0.8,0.8v-4.6
		c-0.1,0-0.2,0.1-0.3,0.1c-0.9,0.2-1.8-0.1-2-0.8c-0.1-0.5,0.1-1,0.6-1.3c0.5-0.3,1.3,0,1.6,0.6c0,0,0.1,0,0.2-0.1v-1
		C44.5,33.4,43.4,33.1,42.6,33.3 M38.7,30.3c5.4-2.9,5.5-12.5,5.5-13c0-13.2-10.5-17.2-21.4-17.2C-0.6,0.8,0,22.5,0,22.5h16.5
		c0.1-1.9,1.7-3.5,3.6-3.5c2,0,3.7,1.6,3.7,3.6c0,2.1-1.3,3.1-3.7,3.5c-1.4,0.2-2.2,0.4-4,0.8c-7.5,1.9-14,6.3-15.4,20.5h26.3
		c-0.7-0.7-6.3-6.7-0.5-9.4c0,0,1.1-0.5,2.2-0.3c0.8,0.2,1.6,1,1.8,1.7c0.1,0.7-0.2,1.8-1,1.9c-0.5,0.1-0.9-0.1-1-0.2
		c-0.3-0.2-0.4-0.6-0.2-1c0.1-0.2,0.7-0.4,1,0c0,0,0-0.7-0.6-0.9c-1-0.3-2.5,0.9-2.1,2.6c0.2,0.9,1,1.6,2.1,1.6
		c1.6,0,2.6-1.9,3.1-2.4c0.3-0.3,0.8-0.6,1.5-0.7c0,0,1.6-0.2,2.2,1.4c0,0,0.7,2-1.1,2.1c0,0-1.4,0-1-1.1c0,0,0.3-0.7,1.2-0.2
		c0,0-0.9-1.6-2-0.1c0,0-0.5,0.8-0.3,1.7c0.2,0.8,1.4,2.3,3.2,2c0.7-0.1,3-0.3,2.8-2.4c-0.1-1.1-2.6-5.9-0.4-9.2
		c1.1-1.7,2.4-2.1,2.7-2.2c0.6-0.2,2.2-0.9,4,0.4c0.1,0,0.1,0.1,0.1,0.1v-2.4H38.7z M16.3,33.9c0.9-4,4.2-2.7,4.2-2.7
		s0.5,3.5-3.7,3.4c0,0,0.3,0.9-0.2,1.5c0,0-0.7-0.8-0.6-1.3l0,0c-0.7,0-1.2-1-1.2-1C15.6,33.4,16.3,33.9,16.3,33.9 M16.4,40.5
		c0,0,0.2,1.2-0.6,1.8c0,0-0.8-1.2-0.5-1.8l0,0C14.4,40.4,14,39,14,39c1-0.3,1.8,0.5,1.8,0.5c2-4.9,5.9-2.6,5.9-2.6
		S21.6,41.5,16.4,40.5 M27.2,32.5c0,0,0.3,0.9-0.2,1.5c0,0-0.7-0.8-0.6-1.3l0,0c-0.7,0-1.2-1-1.2-1c0.7-0.3,1.5,0.2,1.5,0.2
		c0.9-4,4.2-2.7,4.2-2.7S31.3,32.6,27.2,32.5"/>
	<path fill="#069554" d="M83.7,19.9C83.5,20,83.1,20,83,20c-0.1,0-0.3-0.5-0.3-0.5l-0.2-0.2c0,0-0.4,0.2-0.4-0.2
		c0-0.2,0.1-0.5,0-0.9c-0.1-0.3-0.7-0.4-0.8-1.1c-0.1-0.8,0.4-1.5,0.9-1.9c0.1,0,0.1-0.1,0.2-0.1C79,6.4,70.5,0,60.4,0
		c-13,0-23.6,10.6-23.6,23.6c0,3.5,0.7,6.7,2.1,9.7c0.9-0.8,1.6-1.1,1.8-1.2c0.6-0.2,2.2-0.9,4,0.4c1.6,1.1,1.4,2.7,1.2,3.2
		c-0.2,0.5-0.4,1-1.4,1.2c-0.9,0.2-1.8-0.1-2-0.8c-0.1-0.5,0.1-1,0.6-1.3c0.5-0.3,1.3,0,1.6,0.6c0,0,0.6-0.2,0.2-1.1
		c-0.4-0.9-1.4-1.2-2.3-1c-0.8,0.2-1.6,1.4-1.7,2.3c-0.1,2,1.4,3.4,3.1,5.2c2.1,2.2,5.8,4.5,9,5.5c0.4,0.1,0.8,0.3,1.2,0.4
		c0.8,0.2,1.6,0.4,2.4,0.5l0.4-7.6l-0.7-8c-0.6-0.2-1.4-0.5-2.9-1.3c-2.4-1.2-3-2.6-3.3-3.5c-0.3-0.9-0.5-3.2,1.3-6
		c1.8-2.8,3.2-5.3,2.8-6.5c-0.4-1.2-1.2-1.7-1.7-1.7c-0.5,0-0.6,0-1.3,0.8c-0.8,0.8-1.2,0.5-1.7,1.1C49,15,49.5,17,49.5,17
		s-1-0.3-1.1-2c0-0.6,0-1.1,0-1.1s-0.4-1.7,0.7-2.8c1.2-1.1,2.5-0.7,2.5-0.7s2.3,0.5,3.4,1.7c1.1,1.2,1.2,2.6,1.1,3.3
		c-0.2,0.9-1.2,2.5-2.9,4.6c-2,2.6-2.1,4.6-1.1,5.8c1,1.3,1.4,0.8,1.4,0.8s0.4-0.4,0.2-1c-0.2-0.7-1.5-2.5-0.2-4.3
		c0,0,1.5-3.8,5.9-3.2c0.4,0.1,0.9,0.2,1.4,0.5c0,0,0.1,0,0.1,0c1,0.2,3.3,1,4.1,4.4c0.1,0.3,0.1,0.7,0.1,1c0.1,0.1,0.2,0.2,0.3,0.3
		c1.6,1.5,1.5,3,1.5,3c0.6,1.3,0.6,2.1,0.6,2.1l0.1,2.3c0,0-0.5-1.2-1.2-1.4c-0.3-0.1-1-0.4-1.5-0.6c0.2,0.9,0.4,1.9,0.4,1.9
		c-1-0.8-1-0.7-1.7-1.4c-0.3-0.2-0.6-0.9-0.8-1.4c-0.5,0.6-1.5,1.6-2.8,2.3c0,0-0.7,0.2-1.6,0.4l1.2,6.3c0,0,0.3,0.2,0.4,0.7
		c0.1,0.5-0.2,0.8-0.2,0.8l0.4,8.2c0,0,0.1,0,0.1,0c4.7,0,9-1.4,12.7-3.7c0-0.4-0.1-1-0.1-1c-0.3-1.7-0.1-3,0-3.5
		c0.1-0.5,0.1-0.9,0.2-1.2c0-0.2-0.3-0.9-0.3-1.2c0-0.3-0.5,1.4-0.6,1.6c-0.1,0.3-0.2,0.7-0.3,0.8c0,0.2,0,0.9,0,1.2
		c0,0.3,0,0.5,0.1,0.6c0.1,0.1,0.1,0.6,0.1,0.8c0,0.2,0.1,1,0,1.1c-0.1,0-0.4-0.1-0.6-0.1c-0.2-0.1-0.3-0.3-0.4-0.5
		C71,42,71,41.8,71,41.7c0-0.1,0-0.2,0-0.4c0-0.2-0.1-1.6-0.1-2.1c0-0.6,0.2-0.8,0.2-1c0.1-0.2,0.2-1,0.2-1.5
		c0.1-0.4,0.3-0.9,0.6-1.2c0,0,1.4-1.2,1.4-1.4c0-0.1,0-0.3-0.3-0.4c-0.2-0.1-1.4,0-2-1.1c-0.4-0.8,0-1.7,0.6-2
		c0.6-0.3,1.6-0.7,2.4-0.2c0.4,0.2,0.5,0.5,0.5,1.1c0,0,0,0.2,0.1,0.2c0.2,0.1,0.3,0.1,0.4,0.2c0.1,0.1,0.1,0.5,0.2,0.6
		c0,0.1,0.1,0.2,0.1,0.3c0,0.1,0,0.2-0.1,0.2c-0.1,0-0.5,0.3-0.6,0.3c-0.1,0-0.1,0.1-0.1,0.2c0.1,0.1,0.1,0.2,0.4,0.3
		c0.3,0,1,0.1,1.2,0.1c0.2,0,0.2,0,0.3,0.1c0.1,0,1.5,1.5,1.7,1.5c0.2,0,0.8-0.6,1.1-0.9c0,0,0,0,0-0.1c-0.1-0.3-0.1-1.1,0-1.3
		c0.1-0.2,0.6-0.7,0.6-0.7s-0.2,0-0.2-0.3c0-0.2,0.1-0.2,0.3-2c0.2-1.8,0.2-3.2,0.7-6.2c0.5-2.9,0.7-2.9,1-3.1
		c0.5-0.3,1.4-0.5,1.8-0.6C83.7,20.1,83.7,20,83.7,19.9"/>
	<path fill="#069554" d="M58,31.5c-0.2,0-0.4,0-0.7,0c-0.2,0-0.4,0-0.6,0l0.6,6.4c0,0,0.3,0.2,0.3,0.7c0,0.5-0.3,0.8-0.3,0.8
		l-0.3,7.8c0.9,0.1,1.7,0.2,2.6,0.2l-0.3-8.1L58,31.5z"/>
	<path fill="#069554" d="M80.2,34.7c-0.1,0.1-1.3,1.6-1.4,1.7c-0.2,0.2-0.2,0.1-0.4,0c-0.2-0.1-1.5-1-1.8-1.1c0,0-0.2-0.1-0.3,0
		c-0.2,0.2,0.2,1.4,0.3,2c0.1,0.6,0.2,2.4,0.2,2.4c0,0.3,0.1,0.6,0.1,0.8c1.5-1.5,2.8-3.1,3.8-4.9l-0.1-1.2L80.2,34.7z"/>
	<path fill="#00473A" d="M176.5,43.9c-1.5-2.1-3.6-5.7-4.2-9.5c-0.7,0.6-3.4,0.5-4,0.1c0.1-0.2,0.3-0.4,0.6-0.5
		c-0.9-0.2-1.8-0.6-2.1-0.9c0.3-0.3,0.6-0.5,1-0.6c-1-0.2-1.8-0.6-1.8-0.9c0.2-0.4,0.5-0.6,0.8-0.7c-1.1-0.5-2.2-1.4-1.9-1.8
		c0.3-0.4,1.4-0.1,2.4,0.5c-0.3-0.5-0.3-1,0-1.3c0.6,0.1,2.1,1.5,3.1,2.9c-0.1-0.8,0-1.6,0.1-2c0.7,0.2,1.2,0.9,1.5,1.8
		c0.3-3.2,1.3-6.4,3.1-8.9c-0.4-0.9-0.8-2.2,0-2.9c0.1-0.1,1.2-0.8,1.8-1.1c0-0.4,0-0.7,0-0.7c0-13.1-10.5-17.1-21.3-17.1
		c-23.3,0.8-22.7,22.3-22.7,22.3h16.4c0.1-1.9,1.7-3.5,3.6-3.5c2,0,3.7,1.6,3.7,3.6c0,2-1.3,3.1-3.7,3.5c-1.4,0.2-2.2,0.4-4,0.8
		c-7.5,1.9-13.9,6.3-15.3,20.5h18.9h25l0-2.4C177.2,44.6,176.8,44.3,176.5,43.9"/>
	<path fill="#00473A" d="M228.1,47.5c-1-0.1-0.7-1.5-0.7-1.5c-0.2,0.2-0.7,0.6-0.7,0.6c-0.3,0.3,0.1,0.6,0.1,0.6
		c0.1,0.1,0.2,0.2,0.2,0.2L228.1,47.5C228.1,47.5,228.1,47.5,228.1,47.5"/>
	<path fill="#00473A" d="M224.5,47.5c-0.5-0.6-0.9-1.1-0.9-1.1c-0.5-0.4,1.6-2.7,1.6-2.7c0.3-0.4,0-0.8,0-0.8
		c-0.3-0.8-0.5-2.1-0.5-2.1c-0.3-2.3,0.9-3.6,0.9-3.6c1.3-1.6,4.3-2.4,4.3-2.4c1.4-0.2,6.5,0.3,6.5,0.3c0.9,0.1,1.6-0.1,1.6-0.1
		c1.4-0.8,3.2,0,3.2,0c0.4,0.2,1.7,0.3,1.7,0.3c0.3,0,0.7,0,1,0.1v-0.2v-1v-1.6v-1.9v-0.5h-6.1c5.4-2.9,5.5-12.5,5.5-13
		C243.1,4,232.6,0,221.7,0c-23.4,0.8-22.8,22.4-22.8,22.4h16.5c0.1-1.9,1.7-3.5,3.6-3.5c2,0,3.7,1.6,3.7,3.6c0,2.1-1.3,3.1-3.7,3.5
		c-1.4,0.2-2.2,0.4-4,0.8c-7.5,1.9-14,6.3-15.4,20.6h19v0H224.5z"/>
	<path fill="#00473A" d="M231.4,47.2c0,0.1-0.1,0.2-0.3,0.3h6c-0.3-0.3-0.4-0.6-0.4-0.6c0-0.5-0.5-1.5-0.5-1.5c-1-1-0.2-2.9-0.2-2.9
		c0.1-0.4-1,0.1-1,0.1c-0.6,0.3-2,0.2-2,0.2c-0.9-0.2-2.3,0.4-2.3,0.4c-0.2,0.1-0.4,2.2-0.4,2.2c-0.1,0.5,0.4,0.8,0.4,0.8
		c0.5,0,0.7,0.4,0.7,0.4C231.7,47.4,231.4,47.2,231.4,47.2"/>
	<path fill="#00473A" d="M243.8,46.4c-0.3-0.1-0.4-0.1-0.6-0.2c-0.2-0.1-0.4-0.4-0.6-0.6c-1-1.1-2.3-3.6-2.3-3.6
		c-0.2,0.8-0.6,1.4-0.6,1.4c-0.9,1-1,2.8-1,2.8c0,0.3,0.8,0.3,0.8,0.3c0.6,0.1,0.6,0.6,0.6,0.6l0.1,0.3c0,0.1,0,0.1,0,0.2h3.7
		L243.8,46.4C243.8,46.4,243.8,46.4,243.8,46.4"/>
	<path fill="#069554" d="M98.5,0h-2.3v17.2h2.3c0.1,0,0.2,0,0.3,0c0.1-0.8,0.4-1.7,1.5-2.3c0.9-0.6,1.8-0.3,1.8-0.3
		s-0.3-0.8,0.4-1.2c0.6-0.4,1.2,0,1.2,0s-0.4-0.8,0.4-1.5c0.8-0.8,1.6-0.5,1.6-0.5c1.1-0.1,1.9,1.6,1.9,1.6s0.8,0.3,1.2,0.9
		c0.4,0.6,0.2,1.3,0.2,1.5c0.1,0.1,0.4,0,0.4,0s1.2-0.1,1.6,0.7c0.4,0.8,0.1,1.4,0.1,1.4l0.5,0.1c0,0,1.2,0.2,1.8,1.2
		c0.7,1.2-0.1,2.2-0.2,2.3c0,0.1,0.1,0.6-0.3,0.8c-0.3,0.2-0.9,0-0.9,0l0.2,0.5c0,0,1.7,0.1,2.4,1.3c1.2,2,0.2,3.3-0.2,3.7
		c-0.8,0.9-1.7,1.4-2.9,1.5c-1.3,0.1-1.9-0.9-1.9-0.9s-0.1,0.6-1.4,1.4c-0.2,0.1-0.4,0.2-0.7,0.1c-0.2,0.9-1.2,3.2-1.7,4.4
		c0,1.2-0.1,2.9-0.2,5.2c-0.1,2.3,0,1.9,0,2.4c0,0.6,0,1.2,0.1,1.7c0,0.5-0.1,1.1,0,1.3c0.1,0.2,0,1.2,0,1.5c0,0.3,0.1,0.8,0.2,1.3
		h16.7V23.8C122.2,10.7,111.5,0,98.5,0"/>
	<path fill="#069554" d="M105.5,28.7c0,0-0.2,0.1-0.4,0.1v3.3c0.5-0.9,1.4-2.7,1.4-2.7C105.8,29.3,105.5,28.7,105.5,28.7"/>
	<path fill="#00473A" d="M102.6,45.8c0-0.8,0-1.3,0-1.6v-2.4c0-0.6,0-1.5-0.1-2.1c0-0.6-0.1-1.9-0.1-2.2c0.1-0.4,0-2,0-2.8
		c0-0.8,0-1.5-0.1-1.9c0-0.1,0-0.3,0-0.6c-0.6-1-1.5-2.5-2.4-4c-0.2,0-0.4,0.3-0.4,0.3s-0.6,1.1-1.4,0.9c-0.8-0.2-1.1-1.1-1.1-1.4
		c0-0.3-0.3,0-0.3,0s-0.5,0.6-1,0.5c-0.5-0.1-0.5-0.9-0.5-1.2c0-0.2-0.3-0.6-0.3-0.6s-0.3-0.6-0.1-1.3c0.3-0.7,0.8-0.6,0.8-0.6
		s-0.1-0.6,0.2-0.9c0.3-0.3,1-0.2,1-0.2s0.2-0.6,0.7-0.6c0.5,0,1.1,0.8,1.1,0.8s0.1-0.6-0.3-0.7c-1.6-0.4-1.6-1.2-1.6-1.2
		s0-0.4-0.1-0.6c-0.1-0.3-0.3-0.4-0.3-0.9c0-0.6,0.4-1,0.4-1l0.5-0.6c0,0,0.4-0.5,0.9-0.5c0.5,0,0.6,0.3,0.6,0.3s-0.7-2.4,1.4-3.6
		c0.2-0.1,0.5-0.2,0.7-0.3C97.4,6.1,88.9,0,79,0h-2.3v17.1H79c0.9,0,1.7,0.2,2.5,0.5c-0.1-0.1-0.1-0.3-0.1-0.4
		c-0.1-0.8,0.4-1.5,0.9-1.9c0.4-0.3,1-0.5,1-0.5c1.3-0.4,2.3,0.4,2.6,1c0.3,0.6,0.1,1.9,0,2.2c-0.2,0.7,0.3,1.5,0.3,1.5
		s2.1,0.9,2.8,1.3c0.3,0.2,0.6,2.1,0.6,2.9c0,0.6,0,2.6,0,2.9c0,0.2,0.1,3.9,0,4.1c-0.1,0.4-0.2,0.7-0.3,0.9
		c-0.1,0.3-0.4,0.4-0.5,0.6c-0.1,0.3,0.1,1.2,0.1,1.2s0,0.8-0.1,1.1s-0.4,0.7-0.4,0.7l0.4,12.1h14C102.6,46.7,102.6,46.2,102.6,45.8
		"/>
	<path fill="#00473A" d="M102.7,30.5v-0.6c0,0,0-0.1,0-0.1c-0.1-0.2,0-0.4,0-0.6v-1.1c-0.2,0.1-0.3,0.2-0.5,0.3
		c-0.6,0.3-0.7,0.3-1.1,0.1c0.7,1.1,1.2,1.9,1.6,2.4C102.6,30.8,102.7,30.7,102.7,30.5"/>
	<path fill="#00473A" d="M133.5,25h-2.9H127h-2.7v4.1l0,0c0.1,0.8,0.7,1.5,1.5,1.5l0,0h0.1h6.5h2.7v-4C135.1,25.7,134.4,25,133.5,25
		"/>
	<path fill="#069554" d="M6.7,62.7c0,1.1-0.5,1.7-1.7,1.7c-1.2,0-1.7-0.5-1.7-1.7v-6.3H0.9V62c0,1,0.1,2,0.6,2.8
		c0.8,1.1,2.2,1.6,3.5,1.6c1.2,0,2.3-0.4,3.1-1.4c0.7-0.9,0.8-1.9,0.8-3v-5.6H6.7V62.7z"/>
	<path fill="#069554" d="M14.9,58.7c-0.4,0-1.2,0.2-1.7,0.7v-0.6H11v7.4h2.3v-5.4c0.3-0.2,1-0.4,1.4-0.4c0.6,0,0.9,0.5,0.9,1v4.8
		h2.3v-4.7C17.7,59.8,16.7,58.7,14.9,58.7"/>
	<rect x="19.8" y="56.4" fill="#069554" width="2.3" height="1.8"/>
	<rect x="19.8" y="58.9" fill="#069554" width="2.3" height="7.4"/>
	<path fill="#069554" d="M27.1,64.6c-0.4,0-0.8-0.2-0.8-0.7v-3.2h1.8v-1.8h-1.8v-1.6H24v1.6v1.8v3.1c0,0.8,0.2,1.5,0.8,2
		c0.5,0.4,1.3,0.5,2,0.6c0.6,0,1.2-0.1,1.8-0.3v-1.8h-0.3C28.1,64.4,27.6,64.6,27.1,64.6"/>
	<path fill="#069554" d="M33,58.7c-1.1,0-2.4,0.5-3,1.4c-0.5,0.8-0.7,1.7-0.7,2.5c0,1,0.3,1.9,0.9,2.6c0.8,0.8,2.2,1.2,3.3,1.2
		c1.2,0,1.9-0.3,2.7-0.5v-1.7h-0.3c-0.4,0.3-1.4,0.6-2,0.6c-1,0-2.1-0.4-2.3-1.5h4.9c0-1.1,0-2.1-0.5-3C35.4,59.2,34.1,58.7,33,58.7
		 M31.6,61.9c0.1-1,0.8-1.5,1.5-1.5c0.6,0,1.1,0.5,1.2,1.5H31.6z"/>
	<path fill="#069554" d="M42.4,59c-0.3-0.2-0.9-0.3-1.2-0.3c-0.8,0-1.8,0.3-2.4,0.9c-0.8,0.7-1.1,1.8-1.1,2.9c0,1,0.2,2,0.9,2.8
		c0.7,0.8,1.9,1.1,2.9,1.1h0.9c1.2,0,2.2-1,2.2-2.2v-8.3h-2.3V59z M42.4,64.1c0,0.3-0.2,0.5-0.5,0.5h-0.2c-0.4,0-0.9-0.1-1.2-0.5
		c-0.3-0.4-0.4-1.2-0.4-1.7c0-0.6,0.1-1.3,0.6-1.7c0.5-0.4,1.2-0.3,1.8-0.1V64.1z"/>
	<path fill="#069554" d="M56.1,62.2l-2.9-5c-0.3-0.6-1-0.9-1.7-0.9c-0.8,0-1.6,0.6-1.6,1.5v8.5h2.1v-6.1l3.6,6.1h2.6v-9.9h-2.1V62.2
		z"/>
	<path fill="#069554" d="M63.1,58.7c-0.8,0-1.6,0.2-2.4,0.4v1.7H61c0.6-0.3,1.3-0.5,1.9-0.5c0.7,0,1.6,0.4,1.6,0.9
		c-0.7,0.1-1.5,0.2-2.1,0.3c-1.3,0.2-2.2,1-2.3,2.3c0,1.5,1.2,2.5,2.6,2.5c0.6,0,1.3-0.2,1.8-0.7v0.5h2.2v-4.9
		C66.7,59.4,65,58.7,63.1,58.7 M64.5,64.3c-0.4,0.3-0.9,0.5-1.3,0.5c-0.4,0-0.8-0.2-0.8-0.8c0-0.6,0.4-0.8,0.8-0.9l1.3-0.2V64.3z"/>
	<path fill="#069554" d="M71.7,64.6c-0.4,0-0.8-0.2-0.8-0.7v-3.2h1.8v-1.8h-1.8v-1.6h-2.3v1.6v1.8v3.1c0,0.8,0.2,1.5,0.8,2
		c0.5,0.4,1.3,0.5,2,0.6c0.6,0,1.2-0.1,1.8-0.3v-1.8h-0.3C72.6,64.4,72.2,64.6,71.7,64.6"/>
	<rect x="74.5" y="58.9" fill="#069554" width="2.3" height="7.4"/>
	<rect x="74.5" y="56.4" fill="#069554" width="2.3" height="1.8"/>
	<path fill="#069554" d="M82.1,58.7c-2.2,0-3.7,1.6-3.7,3.8c0,2,1.3,3.9,3.6,3.9c2.4,0,3.8-1.5,3.8-3.9
		C85.8,60.4,84.4,58.7,82.1,58.7 M82,64.7c-1,0-1.3-1.3-1.3-2.2c0-0.8,0.3-2,1.4-2c1,0,1.4,1.1,1.4,2C83.5,63.4,83.2,64.7,82,64.7"
		/>
	<path fill="#069554" d="M91.3,58.7c-0.4,0-1.2,0.2-1.7,0.7v-0.6h-2.2v7.4h2.3v-5.4c0.3-0.2,1-0.4,1.4-0.4c0.6,0,0.9,0.5,0.9,1v4.8
		h2.3v-4.7C94.1,59.8,93.1,58.7,91.3,58.7"/>
	<path fill="#00473A" d="M174.8,58.7c-0.4,0-1.2,0.2-1.7,0.7v-0.6h-2.2v7.4h2.3v-5.4c0.3-0.2,1-0.4,1.4-0.4c0.6,0,0.9,0.5,0.9,1v4.8
		h2.3v-4.7C177.6,59.8,176.5,58.7,174.8,58.7"/>
	<path fill="#069554" d="M100.6,62c-0.6-0.3-1.3-0.5-1.9-0.8c-0.3-0.1-0.7-0.3-0.7-0.5c0-0.4,0.9-0.4,1.1-0.4c0.5,0,1.3,0.2,1.8,0.5
		h0.3v-1.7c-0.8-0.2-1.6-0.4-2.5-0.4c-0.5,0-1.1,0.1-1.6,0.3c-0.7,0.4-1.2,1.1-1.2,1.9c0,0.9,0.3,1.6,1,2c0.6,0.4,1.5,0.6,2.2,0.8
		c0.4,0.1,0.6,0.3,0.6,0.5c0,0.4-1.3,0.5-1.6,0.5c-0.6,0-1.5-0.2-2.1-0.5h-0.3V66c0.8,0.3,1.6,0.4,2.4,0.4c0.8,0,1.8-0.2,2.5-0.6
		c0.7-0.5,1-1.1,1.1-1.9C101.7,63.1,101.3,62.4,100.6,62"/>
	<path fill="#00473A" d="M112.1,56.4h-1.5c-1.3,0-2.3,1-2.3,2.3v7.6h3.9c3.3,0,4.8-1.9,4.9-5C117,57.9,115.3,56.4,112.1,56.4
		 M112,64.1h-1.3v-5.5c0-0.1,0.1-0.2,0.2-0.2h1.2c1.9,0,2.4,1.1,2.4,2.7C114.6,63.2,114,64.1,112,64.1"/>
	<path fill="#00473A" d="M122,58.7c-1.1,0-2.4,0.5-3,1.4c-0.5,0.8-0.7,1.7-0.7,2.5c0,1,0.3,1.9,0.9,2.6c0.8,0.8,2.2,1.2,3.3,1.2
		c1.2,0,1.9-0.3,2.7-0.5v-1.7h-0.3c-0.4,0.3-1.4,0.6-2,0.6c-1,0-2.1-0.4-2.3-1.5h4.9c0-1.1,0-2.1-0.5-3
		C124.4,59.2,123.1,58.7,122,58.7 M120.6,61.9c0.1-1,0.8-1.5,1.5-1.5c0.6,0,1.1,0.5,1.2,1.5H120.6z"/>
	<path fill="#00473A" d="M130.8,64.6c-1.2,0-1.7-1-1.7-2c0-1.2,0.4-2.1,1.7-2.1c0.5,0,1.4,0.2,1.8,0.5h0.3v-1.8
		c-0.8-0.4-1.4-0.5-2.3-0.5c-1.2,0-2.5,0.4-3.2,1.5c-0.5,0.7-0.6,1.6-0.6,2.5c0,0.8,0.2,1.7,0.7,2.4c0.6,0.9,1.9,1.4,3,1.4
		c0.9,0,1.6-0.1,2.4-0.5v-1.7h-0.3C132.1,64.5,131.4,64.6,130.8,64.6"/>
	<path fill="#00473A" d="M137.1,58.7c-0.8,0-1.6,0.2-2.4,0.4v1.7h0.3c0.6-0.3,1.3-0.5,1.9-0.5c0.7,0,1.6,0.4,1.6,0.9
		c-0.7,0.1-1.5,0.2-2.1,0.3c-1.3,0.2-2.2,1-2.3,2.3c0,1.5,1.2,2.5,2.6,2.5c0.6,0,1.3-0.2,1.8-0.7v0.5h2.2v-4.9
		C140.6,59.4,138.9,58.7,137.1,58.7 M138.4,64.3c-0.4,0.3-0.9,0.5-1.3,0.5c-0.4,0-0.8-0.2-0.8-0.8c0-0.6,0.4-0.8,0.8-0.9l1.3-0.2
		V64.3z"/>
	<path fill="#00473A" d="M146.9,59c-0.3-0.2-0.9-0.3-1.2-0.3c-0.8,0-1.8,0.3-2.4,0.9c-0.8,0.7-1.1,1.8-1.1,2.9c0,1,0.2,2,0.9,2.8
		c0.7,0.8,1.9,1.1,2.9,1.1h0.9c1.2,0,2.2-1,2.2-2.2v-8.3h-2.3V59z M146.9,64.1c0,0.3-0.2,0.5-0.5,0.5h-0.2c-0.4,0-0.9-0.1-1.2-0.5
		c-0.3-0.4-0.4-1.2-0.4-1.7c0-0.6,0.1-1.3,0.6-1.7c0.5-0.4,1.2-0.3,1.8-0.1V64.1z"/>
	<path fill="#00473A" d="M154.4,58.7c-1.1,0-2.4,0.5-3,1.4c-0.5,0.8-0.7,1.7-0.7,2.5c0,1,0.3,1.9,0.9,2.6c0.8,0.8,2.2,1.2,3.3,1.2
		c1.2,0,1.9-0.3,2.7-0.5v-1.7h-0.3c-0.4,0.3-1.4,0.6-2,0.6c-1,0-2.1-0.4-2.3-1.5h4.9c0-1.1,0-2.1-0.5-3
		C156.8,59.2,155.6,58.7,154.4,58.7 M153,61.9c0.1-1,0.8-1.5,1.5-1.5c0.6,0,1.1,0.5,1.2,1.5H153z"/>
	<path fill="#00473A" d="M165.9,58.7c-2.2,0-3.7,1.6-3.7,3.8c0,2,1.3,3.9,3.6,3.9c2.4,0,3.8-1.5,3.8-3.9
		C169.6,60.4,168.2,58.7,165.9,58.7 M165.8,64.7c-1,0-1.3-1.3-1.3-2.2c0-0.8,0.3-2,1.4-2c1,0,1.4,1.1,1.4,2
		C167.4,63.4,167,64.7,165.8,64.7"/>
	<path fill="#00473A" d="M189.3,61c0.9-0.2,1.6-1,1.6-1.9c0-0.8-0.4-1.5-1.1-2c-0.7-0.6-1.8-0.7-2.7-0.7h-1.6
		c-1.4,0-2.3,1.1-2.3,2.4v7.5h3.9c1,0,2.3-0.1,3.1-0.8c0.7-0.6,1-1.3,1-2.2C191.3,62,190.4,61.2,189.3,61 M185.7,58.6
		c0-0.1,0.1-0.3,0.2-0.3h1c0.8,0,1.5,0.1,1.5,0.9c0,0.9-0.9,0.8-1.5,0.8h-1.2V58.6z M187.3,64.2h-1.6V62h1.4c0.7,0,1.7,0,1.7,1.1
		C188.8,64.1,188,64.2,187.3,64.2"/>
	<rect x="193" y="58.9" fill="#00473A" width="2.3" height="7.4"/>
	<rect x="193" y="56.4" fill="#00473A" width="2.3" height="1.8"/>
	<path fill="#00473A" d="M200.6,58.7c-2.2,0-3.7,1.6-3.7,3.8c0,2,1.3,3.9,3.6,3.9c2.4,0,3.8-1.5,3.8-3.9
		C204.3,60.4,202.9,58.7,200.6,58.7 M200.5,64.7c-1,0-1.3-1.3-1.3-2.2c0-0.8,0.3-2,1.4-2c1,0,1.4,1.1,1.4,2
		C202,63.4,201.7,64.7,200.5,64.7"/>
	<path fill="#00473A" d="M210.1,59c-0.3-0.2-0.9-0.3-1.2-0.3c-0.8,0-1.8,0.3-2.4,0.9c-0.8,0.7-1.1,1.8-1.1,2.9c0,1,0.2,2,0.9,2.8
		c0.7,0.8,1.9,1.1,2.9,1.1h0.9c1.2,0,2.2-1,2.2-2.2v-8.3h-2.3V59z M210.1,64.1c0,0.3-0.2,0.5-0.5,0.5h-0.2c-0.4,0-0.9-0.1-1.2-0.5
		c-0.3-0.4-0.4-1.2-0.4-1.7c0-0.6,0.1-1.3,0.6-1.7c0.5-0.4,1.2-0.3,1.8-0.1V64.1z"/>
	<rect x="214.4" y="58.9" fill="#00473A" width="2.3" height="7.4"/>
	<rect x="214.4" y="56.4" fill="#00473A" width="2.3" height="1.8"/>
	<path fill="#00473A" d="M221.7,63.5l-1.6-4.7h-2.4l2.4,6.6c0.3,0.6,0.7,0.8,1.3,0.9c0.6,0,1.2-0.3,1.4-0.9l2.4-6.6h-1.9L221.7,63.5
		z"/>
	<path fill="#00473A" d="M229.4,58.7c-1.1,0-2.4,0.5-3,1.4c-0.5,0.8-0.7,1.7-0.7,2.5c0,1,0.3,1.9,0.9,2.6c0.8,0.8,2.2,1.2,3.3,1.2
		c1.2,0,1.9-0.3,2.7-0.5v-1.7h-0.3c-0.4,0.3-1.4,0.6-2,0.6c-1,0-2.1-0.4-2.3-1.5h4.9c0-1.1,0-2.1-0.5-3
		C231.8,59.2,230.5,58.7,229.4,58.7 M228,61.9c0.1-1,0.8-1.5,1.5-1.5c0.6,0,1.1,0.5,1.2,1.5H228z"/>
	<path fill="#00473A" d="M236.8,58.9h-2.2v7.4h2.3v-5.1c0.6-0.4,1.3-0.5,2-0.4h0.3v-2.1c-0.8,0-1.7,0.1-2.3,0.7V58.9z"/>
	<path fill="#00473A" d="M244.5,62c-0.6-0.3-1.3-0.5-1.9-0.8c-0.3-0.1-0.7-0.3-0.7-0.5c0-0.4,0.9-0.4,1.1-0.4c0.6,0,1.3,0.2,1.8,0.5
		h0.3v-1.7c-0.8-0.2-1.6-0.4-2.5-0.4c-0.5,0-1.1,0.1-1.6,0.3c-0.7,0.4-1.2,1.1-1.2,1.9c0,0.9,0.3,1.6,1,2c0.6,0.4,1.5,0.6,2.2,0.8
		c0.4,0.1,0.6,0.3,0.6,0.5c0,0.4-1.3,0.5-1.6,0.5c-0.6,0-1.5-0.2-2.1-0.5h-0.3V66c0.8,0.3,1.6,0.4,2.4,0.4c0.8,0,1.8-0.2,2.5-0.6
		c0.6-0.5,1-1.1,1.1-1.9C245.7,63.1,245.3,62.4,244.5,62"/>
	<rect x="247.2" y="56.4" fill="#00473A" width="2.3" height="1.8"/>
	<rect x="247.2" y="58.9" fill="#00473A" width="2.3" height="7.4"/>
	<path fill="#00473A" d="M254.2,64.6c-0.4,0-0.8-0.2-0.8-0.7v-3.2h1.8v-1.8h-1.8v-1.6h-2.3v1.6v1.8v3.1c0,0.8,0.2,1.5,0.8,2
		c0.5,0.4,1.3,0.5,2,0.6c0.6,0,1.2-0.1,1.8-0.3v-1.8h-0.3C255.1,64.4,254.7,64.6,254.2,64.6"/>
	<path fill="#00473A" d="M262,58.9l-1.6,4.5l-1.9-4.5H256l3.3,7.5l-0.3,0.9c-0.2,0.6-0.4,0.6-1.2,0.6h-0.9v1.8h0.9
		c1.3,0,2.4-0.5,3-1.8l3.2-8.9H262z"/>
</g>
</svg>
