<?xml version="1.0" encoding="utf-8"?>
<!-- Generator: Adobe Illustrator 19.1.0, SVG Export Plug-In . SVG Version: 6.00 Build 0)  -->
<svg version="1.1" id="Layer_1" xmlns="http://www.w3.org/2000/svg" xmlns:xlink="http://www.w3.org/1999/xlink" x="0px" y="0px"
	 viewBox="0 0 56.4 65" enable-background="new 0 0 56.4 65" xml:space="preserve">
<g>
	<path fill="#231F20" d="M42.3,20.3c0.3,1.2,0.5,2.4,0.5,3.7c0,6.5-4.3,12-10.1,13.8c-1.3-1.6-3.2-5-3.1-10.5
		c0.1-4.8,3.3-5.6,3.3-5.6C34.1,21.3,39,20.7,42.3,20.3L42.3,20.3z M14.5,19.6c1.9-5.9,7.3-10.1,13.8-10.1c6.5,0,12,4.2,13.8,10.1
		l-12.5-1.3c0,0-0.5-0.1-0.9-0.3c1-0.2,1.8-1.1,1.8-2.2c0-1.2-1-2.2-2.2-2.2c-1.2,0-2.2,1-2.2,2.2c0,1.1,0.8,2,1.8,2.2
		c-0.4,0.3-0.8,0.3-0.8,0.3L14.5,19.6L14.5,19.6z M13.8,24c0-1.3,0.2-2.5,0.5-3.7c3.3,0.4,8.2,1,9.5,1.4c0,0,3.2,0.8,3.3,5.6
		c0.1,5.4-1.9,8.8-3.1,10.5C18.1,35.9,13.8,30.5,13.8,24L13.8,24z"/>
	<path fill-rule="evenodd" clip-rule="evenodd" fill="#231F20" d="M14.4,50.9H9.6v0.4c1.5,0.1,2,0.4,2,2.7v5.6
		c0,1.7-0.2,2.4-0.5,2.8c-0.6,1-1.8,1.6-3.4,1.6C4,64.1,4,61.2,4,59.9v-6.7c0-1.5,0.3-1.8,1.9-1.9v-0.4H0v0.4
		c1.6,0.1,1.9,0.3,1.9,1.9v6.5C1.9,61,1.9,65,7,65c5.4,0,5.4-3.9,5.4-5.6V54c0-2.2,0.4-2.5,2-2.7V50.9L14.4,50.9z"/>
	<path fill-rule="evenodd" clip-rule="evenodd" fill="#231F20" d="M30.3,50.9h-4.9v0.4c1.4,0.1,2,0.3,2,2.7v7h0l-8-10h-3.6v0.4
		c0.8,0,1.2,0.1,2,1.1v9.2c0,2.2-0.4,2.6-2,2.7v0.4h4.9v-0.4c-1.5-0.1-2-0.5-2-2.7v-8.1h0L28,65h0.4V54c0-2.4,0.7-2.5,2-2.7V50.9
		L30.3,50.9z"/>
	<path fill-rule="evenodd" clip-rule="evenodd" fill="#231F20" d="M44,61.2h-0.6c-0.9,2.1-2,2.7-4.6,2.7c-3.1,0-3.1,0-3.1-0.9v-5.2
		l3.2,0c1.7,0,2,0.3,2.3,2h0.5v-4.8h-0.5c-0.2,1.5-0.4,2-2.3,2h-3.2v-4.6c0-0.7,0.3-0.7,0.7-0.7h2.8c2.3,0,2.9,0.3,3.2,2.2h0.5
		l-0.1-3H31.8v0.4c1.3,0.1,1.8,0.2,1.8,1.9v9.2c0,1.6-0.5,1.8-1.8,1.9v0.4H43L44,61.2L44,61.2z"/>
	<path fill-rule="evenodd" clip-rule="evenodd" fill="#231F20" d="M45.5,51.3c1.5,0.1,1.8,0.4,1.8,1.9v9c0,1.5,0,2-1.8,2.1v0.4h5.8
		v-0.4c-1.6,0-2-0.4-2-1.9v-3.8c0.5,0,0.9,0.1,1.4,0.1c2.2,0,3.5-0.4,4.4-1.2c0.4-0.3,1.3-1.2,1.3-2.8c0-2.6-2.6-3.7-5.5-3.7h-5.5
		V51.3L45.5,51.3z M49.3,52.4c0-0.7,0.2-0.7,0.9-0.7c0.9,0,4,0,4,3c0,3.2-2.8,3.2-3.6,3.2c-0.4,0-0.9,0-1.3-0.1V52.4L49.3,52.4z"/>
	<path fill-rule="evenodd" clip-rule="evenodd" fill="#231F20" d="M3.7,22.8c0,0,0.2-1.8,1.9-3.6c0.7-0.7,1.1-1.1,2.3-2.7
		c0.8-1,1.5-3.3,1.5-3.3c0,0-2.9,1.6-3.9,2.8c-0.7,0.9-1.2,2.2-1.4,3.4c-0.1,0.2-0.2,0.2-0.2,0c0,0,0.3-1.2,0.3-3.2
		c0-1.3-0.2-2.4-0.2-3.6c0-2.4,1-4.2,1-4.2S2.9,9.7,2.1,13c-0.3,1.4-0.5,3.2,0.1,4.7C3.4,20.4,3.7,22.8,3.7,22.8L3.7,22.8z"/>
	<path fill-rule="evenodd" clip-rule="evenodd" fill="#231F20" d="M5.1,14.6c0,0,1.3-1.9,2.6-2.4c1-0.4,2.6-1.1,3.8-2.2
		c1-0.9,2.3-2.1,2.3-2.1s-3.2,0.8-4.4,1.4c-0.9,0.5-1.6,1.1-2.3,1.9c-0.1,0.2-0.3,0.1-0.2-0.1c0,0,0.7-0.8,1.4-2.1
		c0.4-0.8,0.9-2.2,1.3-3.2c1-2.6,1.6-3.1,1.6-3.1s-2,0.8-3.7,3.3c-0.7,1.1-1.7,3.1-1.7,4.8C5.6,13.7,5.1,14.6,5.1,14.6L5.1,14.6z"/>
	<path fill-rule="evenodd" clip-rule="evenodd" fill="#231F20" d="M10.2,7.6c0,0,1-0.8,2.7-1c1-0.1,2.9-0.4,4.3-1
		c1.2-0.4,2.6-1,2.6-1s-3.1-0.3-4.3,0c-0.9,0.2-1.9,0.6-2.7,1.1c-0.2,0.1-0.3,0-0.1-0.2c0,0,1.1-0.6,2.2-1.5
		c0.6-0.5,1.1-0.9,1.7-1.7C17.6,0.6,18.7,0,18.7,0s-1.9,0.2-4.2,1.8c-0.9,0.7-2.3,2.3-2.9,3.7C11.1,6.6,10.2,7.6,10.2,7.6L10.2,7.6z
		"/>
	<path fill-rule="evenodd" clip-rule="evenodd" fill="#231F20" d="M17.1,3.1c0,0,1.2-0.3,2.4,0.2c0.8,0.3,2.4,0.8,3.6,0.9
		c1,0.1,3,0,3,0c0,0-1.4-0.5-2.8-1.1c-1.4-0.6-2.9-0.4-3.6-0.4c-0.2,0-0.2-0.1,0-0.2c0,0,0.8-0.4,1.9-0.7c0.9-0.3,1.5-0.5,2.2-0.8
		c1.3-0.6,2.6-0.6,2.6-0.6s-1.4-0.7-3.6-0.3c-0.9,0.2-2.5,0.8-3.4,1.6C18.4,2.4,17.1,3.1,17.1,3.1L17.1,3.1z"/>
	<path fill-rule="evenodd" clip-rule="evenodd" fill="#231F20" d="M24.6,2.2c0,0,0.6-0.2,2.3,1.2c0.4,0.3,1.7,1.1,2.6,1.3
		c0.8,0.2,1.5,0.4,1.5,0.4c0,0-0.7-0.8-1.9-1.8c-0.7-0.5-1.8-0.8-2.4-1c-0.1,0-0.1-0.1,0-0.1c0,0,0.7,0.2,1.7,0.1
		c0.6,0,1.4-0.2,2-0.3c1.2-0.2,2-0.1,2-0.1s-0.9-0.7-2.8-0.9c-1-0.1-1.9-0.1-3.1,0.5C25.9,1.9,24.6,2.2,24.6,2.2L24.6,2.2z"/>
	<path fill-rule="evenodd" clip-rule="evenodd" fill="#231F20" d="M31.2,3.4c0,0,1.5-0.2,2.9,0.8c1.4,1,2.1,2,2.2,2.3
		c0,0-1.7-1.1-2.7-1.5C32.7,4.5,31.2,3.4,31.2,3.4L31.2,3.4z"/>
	<path fill-rule="evenodd" clip-rule="evenodd" fill="#231F20" d="M8.8,43c0,0,2.6,2.7,8.3,2.1c5.7-0.6,7.5-4,12.5-1.2
		c3.3,1.9,4.3,4,4.3,4l0.9-0.6c0,0-2.4-3.2-7.3-4.7c-5.2-1.6-9.5-0.6-11.1-0.1C10.8,44.4,8.8,43,8.8,43L8.8,43z"/>
	<path fill-rule="evenodd" clip-rule="evenodd" fill="#231F20" d="M17.5,41.4c0,0-1.5-0.6-2.2-2.2c-0.4-0.8-0.6-1.5-1.5-3.1
		c-0.7-1.2-2.9-3.7-2.9-3.7c0,0,0.1,3.3,1,5.1c0.5,0.9,0.7,1.8,3.5,3.4c0,0-1.3-0.5-3.6-1.4c-2.5-1-4.5-0.2-6.6-2
		c-1.7-1.4-2.3-2-2.3-2c0,0,1.8,4.8,6.2,5.8c2.6,0.8,3.7,0.3,5.8,0.1C15.7,41.3,17.5,41.4,17.5,41.4L17.5,41.4z"/>
	<path fill-rule="evenodd" clip-rule="evenodd" fill="#231F20" d="M10,37.9c0,0-0.8-1.8-0.8-3.4c0-1.1,0.1-1.5-0.1-3.8
		c-0.1-1.2-1.4-3.9-1.4-3.9c0,0-1.2,1.9-0.9,4.8c0.2,1.7,0.5,2.6,1.9,4.9c0,0-1.1-1.2-2.4-2.6c-0.7-0.8-1.5-1.7-2.6-2.6
		c-2-1.6-3.1-4-3.1-4c0,0-0.4,3.7,2.1,6.5c1.4,1.6,2.8,2.3,4.6,2.9C8.2,36.9,10,37.9,10,37.9L10,37.9z"/>
	<path fill-rule="evenodd" clip-rule="evenodd" fill="#231F20" d="M5.4,30.8c0,0,0-1.8,0.6-3.3c0.4-1,0.5-1.2,1.2-3.3
		c0.4-1.2,0.4-4.6,0.4-4.6c0,0-0.3,0.8-0.9,1.6c-0.5,0.7-1.1,1-1.5,2.6c-0.4,1.5-0.4,2.5-0.3,4.5c0,0.3-0.2,0.4-0.2,0.1
		c0-0.2,0-0.6-0.6-2.5c-0.4-1.2-1.2-2.1-1.9-3.3c-1.3-2.3-1.2-4.3-1.2-4.3c0,0-1.7,2-0.5,5.6c0.5,1.5,1.6,3.1,3,4.4
		C4,28.8,5.4,30.8,5.4,30.8L5.4,30.8z"/>
	<path fill-rule="evenodd" clip-rule="evenodd" fill="#231F20" d="M46.8,43c0,0-2.6,2.7-8.3,2.1c-5.7-0.6-7.5-4-12.5-1.2
		c-3.3,1.9-4.3,4-4.3,4l-0.9-0.6c0,0,2.4-3.2,7.3-4.7C33.2,41,37.5,42,39,42.6C44.8,44.4,46.8,43,46.8,43L46.8,43z"/>
	<path fill-rule="evenodd" clip-rule="evenodd" fill="#231F20" d="M38.6,41.8c0,0,1.4-0.4,2.1-2.1c0.4-0.8,0.7-2.2,1.7-3.4
		c1-1.1,2.8-3.1,2.8-3.1c0,0-0.1,2.4-1,4.2c-0.5,0.9-1.5,2.3-3.3,3.5c0,0,0.5,0.2,2.7-0.9c2.2-1.1,3.4-0.9,6.9-2.5
		c1.6-0.7,2.8-2.3,2.8-2.3s-1.1,4-6,6c-3.1,1-3.8,0.5-5.9,0.2C40.3,41.5,38.6,41.8,38.6,41.8L38.6,41.8z"/>
	<path fill-rule="evenodd" clip-rule="evenodd" fill="#231F20" d="M46.1,37.9c0,0,0.6-0.5,0.6-3.1c0-1.4-0.2-2.5,0.3-4
		c0.5-1.8,1.8-4.1,1.8-4.1c0,0,0.6,2.1,0.4,4.7c-0.1,1.7-0.8,3.1-1.8,5c0,0,0.9-0.5,2.5-2.6c1-1.3,1.7-2.1,2.7-3.1
		c3-2.7,3.2-4.4,3.2-4.4c0,0,0,3.9-2.6,7.1c-1.2,1.5-2.7,2.4-4.5,3C48.1,36.8,46.1,37.9,46.1,37.9L46.1,37.9z"/>
	<path fill-rule="evenodd" clip-rule="evenodd" fill="#231F20" d="M51,30.8c0,0,0.5-1.7-0.1-3.2c-0.4-1-0.6-1.3-1.2-3.5
		c-0.7-2.4,0-4.8,0-4.8c0,0,0.4,1.5,0.9,2.3c0.6,0.9,0.9,1.3,1.2,2.3c0.2,0.8,0.2,1.6,0.1,3.7c0,0.3,0.2,0.3,0.3,0
		c0,0,0.2-0.9,0.9-2.7c0.5-1.2,0.9-1.5,1.6-2.7c1.3-2.3,1.4-3,1.4-3c0,0,0.6,1-0.5,4.6c-0.3,1-1.2,2.7-2.6,4
		C52.3,28.5,51,30.8,51,30.8L51,30.8z"/>
	<path fill-rule="evenodd" clip-rule="evenodd" fill="#231F20" d="M52.8,22.5c0,0,0-1.7-0.9-2.7c-0.6-0.7-1.5-1.8-2.1-3
		c-0.7-1.4-1-3-1-3s2.7,2.4,3.3,3.4c0.5,0.7,0.6,1.5,0.8,2.4c0,0.2,0.2,0.2,0.2,0c0,0,0-0.9,0-2.2c0-1.4,0.3-1.9,0.5-2.8
		c0.3-2.2,0.3-2.6,0.3-2.6c0,0,0.9,1,1,3.8c0,1-0.3,2.7-0.9,3.9C52.9,21.7,52.8,22.5,52.8,22.5L52.8,22.5z"/>
	<path fill-rule="evenodd" clip-rule="evenodd" fill="#231F20" d="M52.6,14.8c0,0-0.4-0.9-1.5-1.7c-0.7-0.5-2.3-1.5-3-2.4
		c-0.7-0.8-1.9-2.9-1.9-2.9s0.5,0.7,2.6,1.5c0.9,0.3,1.5,0.7,2.9,3c0.1,0.1,0.2,0.1,0.2-0.1c0,0-0.2-0.8-0.7-1.9
		c-0.2-0.4-0.6-1.1-0.8-2c-0.3-1.6-0.5-2.9-0.5-2.9s1.3,1,2.2,3c0.3,0.6,0.9,2.4,0.9,3.8C52.8,13.7,52.6,14.8,52.6,14.8L52.6,14.8z"
		/>
	<path fill-rule="evenodd" clip-rule="evenodd" fill="#231F20" d="M49.3,8.3c0,0-0.8-1.2-3-1.8c-0.7-0.2-1.6-0.6-2.3-1.1
		c-0.7-0.5-1.4-1-1.4-1s1.1,0.1,2.6,0.4c1.3,0.3,2.1,1.1,2.6,1.4c0.1,0.1,0.2-0.1,0.1-0.1c0,0-0.3-0.4-1.1-1.5
		c-0.3-0.4-0.6-1.1-1-1.6C45.3,2.6,45,2.2,45,2.2c0,0,1.8,0.6,2.4,1.4c0.7,0.9,0.8,1.3,1.1,2.2C48.8,6.5,49.3,8.3,49.3,8.3L49.3,8.3
		z"/>
	<path fill-rule="evenodd" clip-rule="evenodd" fill="#231F20" d="M44.6,3.4c0,0-1.2-1.5-2.4-1.9C40.6,1,39.7,0.9,39.4,1
		c0,0,0.8,0.3,2.6,1.6C42.7,3,44.6,3.4,44.6,3.4L44.6,3.4z"/>
</g>
</svg>
