<?xml version="1.0" encoding="utf-8"?>
<!-- Generator: Adobe Illustrator 19.1.0, SVG Export Plug-In . SVG Version: 6.00 Build 0)  -->
<svg version="1.1" id="Layer_1" xmlns="http://www.w3.org/2000/svg" xmlns:xlink="http://www.w3.org/1999/xlink" x="0px" y="0px"
	 viewBox="0 0 300 180" enable-background="new 0 0 300 180" xml:space="preserve">
<g>
	<path fill-rule="evenodd" clip-rule="evenodd" fill="#B4BF00" d="M62.5,49.1c2-0.1,4.7,0,6.7,0.1c0.8,0,1.4,0.1,1.6,0.7
		c0.1,0.2,0,0.6,0,0.9c0,0.5,0.1,1,0.2,1.5c0.1,0.5,0,1,0.1,1.5c0.1,1,0.2,1.9,0.4,2.9c0.2,0.8,0.1,2.2,0,3.1c0,0.4-0.2,0.9-0.2,1.4
		c0,0.9,0.1,1.7-0.4,2.1c-0.3,0.3-1.3,0.3-1.8,0.4c-1.9,0.3-4,0.4-6.2,0.4c-2.9,0-5.7,0.4-8.1,0.7c-2.1,0.2-4.2,0.2-6.3,0.1
		c-2.1-0.2-3.7-0.6-5.7-0.9c-0.6-0.1-1.3-0.2-1.9-0.3c-0.6-0.1-1.3-0.2-1.9-0.3c-1.2-0.1-1.8,0.4-2.2,1.2c-0.2,0.5-0.2,1.3-0.9,1.4
		c-0.3,0.1-0.8-0.1-1.2-0.2c-0.4-0.1-0.9-0.1-1.2-0.2c-0.8-0.2-1.5-0.4-2.4-0.5c-1.1-0.2-2.4-0.4-3.5-0.8c-0.5-0.2-1.1-0.2-1.1-0.9
		c0-0.3,0.4-0.6,0.7-0.9c1.8-1.8,3.9-3.4,6-4.9c2.6-1.9,5.2-3.1,8.2-4.3C47.5,50.9,54.5,49.5,62.5,49.1
		C62.4,49.1,62.5,49.1,62.5,49.1z"/>
	<path fill-rule="evenodd" clip-rule="evenodd" fill="#F29223" d="M72,50.1c0,0.1,0,0.2,0,0.4C71.9,50.4,71.9,50.2,72,50.1z"/>
	<path fill-rule="evenodd" clip-rule="evenodd" fill="#F29223" d="M72,51c0.1,0.1,0,0.2,0,0.3C72,51.3,72,51.1,72,51z"/>
	<path fill-rule="evenodd" clip-rule="evenodd" fill="#F29223" d="M72.2,52.6c0.1,0.2,0,0.5,0,0.8C72.2,53.2,72.2,52.8,72.2,52.6z"
		/>
	<path fill-rule="evenodd" clip-rule="evenodd" fill="#F29223" d="M72.7,57.6c0,0.2,0,0.6,0,0.7C72.7,58.1,72.7,57.9,72.7,57.6z"/>
	<path fill-rule="evenodd" clip-rule="evenodd" fill="#F29223" d="M72.7,59.4c0,0.1,0,0.3,0,0.3C72.7,59.7,72.6,59.5,72.7,59.4z"/>
	<path fill-rule="evenodd" clip-rule="evenodd" fill="#F29223" d="M76.2,63.2c0.2,0,0.4,0,0.6,0C76.6,63.2,76.4,63.3,76.2,63.2z"/>
	<path fill-rule="evenodd" clip-rule="evenodd" fill="#F19300" d="M24.9,65.2c0.6-0.5,1.4-0.1,2.1,0.1c1.2,0.5,2.8,0.7,4.2,1
		c0.9,0.2,1.9,0.4,2.9,0.6c1,0.2,2,0.3,2.8,0.6c0.6,0.3,0.9,0.7,1.4,1.2c0.6,0.6,1.5,0.9,1.7,1.7c0.2,0.7,0,1.5,0,2.3
		c0,0.2,0.1,0.3,0.1,0.5c0,0.4,0,0.9,0,1.4c0.1,1.3,0.2,3,0.1,4.5c0,0.4-0.1,0.7-0.1,1.1c-0.1,1-0.2,2.4-0.1,3.5
		c0.1,0.6,0.4,1.3,0.5,2c0.1,0.4,0.1,0.7,0.1,1.1c0.1,0.7,0.1,1.2-0.2,1.7c-0.2,0.3-0.6,0.5-1,0.8c-0.7,0.5-1.3,1-2,1.5
		c-0.6,0.4-1.1,0.9-2,0.9c-0.3,0-0.6-0.1-0.9-0.1c-3.4-0.3-7.2-0.2-10.8-0.2c-0.7,0-1.4,0.1-2,0.1c-0.6-0.1-1-0.3-1.6-0.4
		c-0.4-0.1-0.9,0-1.3,0c-0.8,0.1-1.5,0.3-1.7-0.4c-0.1-0.3,0-0.8,0.1-1.3c0.3-2.5,0.9-4.8,1.5-7c0.2-0.5,0.4-1,0.3-1.7
		c-0.2-0.8-0.8-1.2-0.9-2.1c-0.1-0.8,0.1-1.6,0.3-2.3C19.4,71.6,22.3,68.2,24.9,65.2z"/>
	<path fill-rule="evenodd" clip-rule="evenodd" fill="#ADC42C" d="M41.1,71.5c0,0.7,0,1.5,0,2.2C41,73,41,72.2,41.1,71.5z"/>
	<path fill-rule="evenodd" clip-rule="evenodd" fill="#ADC42C" d="M48,72.2c0.1,0,0.3,0,0.3,0C48.2,72.2,48.1,72.2,48,72.2z"/>
	<path fill-rule="evenodd" clip-rule="evenodd" fill="#ADC42C" d="M48.5,72.2c0.1,0,0.3,0,0.4,0C48.7,72.2,48.5,72.3,48.5,72.2z"/>
	<path fill-rule="evenodd" clip-rule="evenodd" fill="#ADC42C" d="M50.7,72.3c0.2,0,0.4,0,0.6,0C51.1,72.3,50.8,72.3,50.7,72.3z"/>
	<path fill-rule="evenodd" clip-rule="evenodd" fill="#ADC42C" d="M41.1,74.1c0.1,0,0,0.2,0,0.3C41.1,74.4,41.1,74.2,41.1,74.1z"/>
	<path fill-rule="evenodd" clip-rule="evenodd" fill="#ADC42C" d="M58,74.1c0,0,0,0.3,0,0.3C58,74.3,58,74.2,58,74.1z"/>
	<path fill-rule="evenodd" clip-rule="evenodd" fill="#ADC42C" d="M57,79.6c0,0.2,0,0.4,0,0.5C57,80,56.9,79.7,57,79.6z"/>
	<path fill-rule="evenodd" clip-rule="evenodd" fill="#F29223" d="M107.5,83.4c0.1,0.1,0,0.3,0,0.4
		C107.5,83.7,107.5,83.5,107.5,83.4z"/>
	<path fill-rule="evenodd" clip-rule="evenodd" fill="#F29223" d="M107.5,88.4c0,0.1,0,0.3,0,0.4C107.5,88.7,107.5,88.5,107.5,88.4z
		"/>
	<path fill-rule="evenodd" clip-rule="evenodd" fill="#ADC42C" d="M68,88.8c0.2-0.1,0.5,0,0.7,0C68.5,88.9,68.3,88.8,68,88.8z"/>
	<path fill-rule="evenodd" clip-rule="evenodd" fill="#F29223" d="M17.6,92.3c0.1-0.1,0.3,0,0.5,0C17.9,92.3,17.7,92.3,17.6,92.3z"
		/>
	<path fill-rule="evenodd" clip-rule="evenodd" fill="#ADC42C" d="M59.7,92.3c0.4-0.1,0.9,0,1.3,0C60.6,92.3,60.1,92.3,59.7,92.3z"
		/>
	<path fill-rule="evenodd" clip-rule="evenodd" fill="#F29223" d="M32.3,92.6c0.1,0,0.4,0,0.4,0C32.6,92.6,32.4,92.6,32.3,92.6z"/>
	<path fill-rule="evenodd" clip-rule="evenodd" fill="#F29223" d="M16.6,94.3c0,1.2,0,2.3,0,3.5C16.6,96.7,16.6,95.4,16.6,94.3z"/>
	<path fill-rule="evenodd" clip-rule="evenodd" fill="#F29223" d="M41,97.9c0.1,1.3,0,2.8,0,4.2C40.9,100.7,41,99.3,41,97.9z"/>
	<path fill-rule="evenodd" clip-rule="evenodd" fill="#F29223" d="M16.7,98.6c0.1,0.1,0,0.3,0,0.4C16.7,99,16.7,98.8,16.7,98.6z"/>
	<path fill-rule="evenodd" clip-rule="evenodd" fill="#F29223" d="M31.1,100.8c0.1,0,0.2,0,0.3,0C31.4,100.9,31.1,100.9,31.1,100.8z
		"/>
	<path fill-rule="evenodd" clip-rule="evenodd" fill="#ADC42C" d="M67,109.1c0.2-0.1,0.5,0,0.7,0C67.5,109.1,67.2,109,67,109.1z"/>
	<path fill-rule="evenodd" clip-rule="evenodd" fill="#F29223" d="M23,109.3c0.1-0.1,0.3,0,0.5,0C23.4,109.3,23.1,109.3,23,109.3z"
		/>
	<path fill-rule="evenodd" clip-rule="evenodd" fill="#F29223" d="M26.8,109.3c0.2,0,0.5,0,0.6,0C27.2,109.3,26.9,109.3,26.8,109.3z
		"/>
	<path fill-rule="evenodd" clip-rule="evenodd" fill="#F29223" d="M27.6,109.3c0.1,0,0.3,0,0.3,0C27.8,109.3,27.7,109.4,27.6,109.3z
		"/>
	<path fill-rule="evenodd" clip-rule="evenodd" fill="#F29223" d="M29.5,109.4c0.2,0,0.5,0,0.6,0C29.9,109.4,29.6,109.5,29.5,109.4z
		"/>
	<path fill-rule="evenodd" clip-rule="evenodd" fill="#F29223" d="M20.3,109.7c0.1,0,0.3,0,0.4,0C20.6,109.8,20.4,109.8,20.3,109.7z
		"/>
	<path fill-rule="evenodd" clip-rule="evenodd" fill="#F19300" d="M70.4,118.1c0,0.7-0.1,1.5-0.1,2.2c0,0.7,0.1,1.4,0.2,2.1
		c0.1,0.8,0,1.7,0,2.5c0,0.8,0.2,1.6,0.1,2.4c0,0.3-0.1,0.6-0.2,1c-0.2,0.7-0.1,1.2-0.7,1.5c-0.4,0.2-1.2,0.3-1.8,0.4
		c-1.8,0.3-3.9,0.6-5.8,0.7c-1.4,0.1-2.8,0.1-4.3,0.1c-4.3,0-8.1-0.6-11.6-1.5c-1.1-0.3-2.3-0.6-3.3-1c-5.4-1.9-9.9-4.5-14-7.8
		c-2.4-1.9-4.6-4.1-6.5-6.6c-0.3-0.4-0.6-0.8-0.9-1.2c-0.3-0.4-0.8-1.1-0.8-1.4c0-0.7,0.6-0.7,1.3-0.9c1.1-0.3,2.4-0.2,3.8-0.2
		c0.9,0,1.9,0,2.7,0.1c0.1,0,0.3,0.1,0.4,0.1c0.3,0,0.6,0,0.9,0c1.4,0.1,2.8,0.4,4.2,0.6c1,0.2,1.8,0.1,2.1,0.7
		c0.2,0.3,0.1,0.7,0.2,1c0.3,1,1.3,1.9,2.3,2c0.7,0.1,1.4-0.2,1.8-0.5c0.7-0.4,1.3-1.2,2-1.7c0.4-0.3,0.8-0.9,1.4-0.9
		c0.4-0.1,1,0,1.5,0c0.5,0,1,0,1.4,0c0.5,0,1.3,0.2,1.9,0.2c0.9,0,1.9-0.2,3-0.2c0.6,0,1.1-0.1,1.2,0.4c0,0.3-0.2,0.5-0.3,0.7
		c-0.4,0.5-0.8,1.3-1.1,1.7c-0.5,0.7-1.2,1.6-1.3,2.5c-0.2,1.5,1.1,2.5,2.3,2.8c1.7,0.3,2.7-0.9,3.4-1.8c0.6-0.7,1.1-1.3,1.6-2.1
		c0.8-1,1.5-2.2,2.2-3.3c0.3-0.4,0.5-1,0.9-1.2c0.5-0.4,1.2-0.5,1.9-0.8c0.7-0.2,1.5-0.4,2.2-0.4c0.7-0.1,1.5,0,2.3-0.1
		c0.7-0.1,1.4-0.1,1.5,0.6c0.1,0.4-0.2,0.9-0.3,1.2c-0.1,0.4-0.2,0.8-0.3,1.2c-0.2,0.7-0.5,1.7-0.2,2.6c0.2,0.7,0.7,1,1.1,1.2
		C69.6,117.4,70.2,117.3,70.4,118.1z"/>
	<path fill-rule="evenodd" clip-rule="evenodd" fill="#ADC42C" d="M51.7,110.7c0.2-0.1,0.6,0,0.9,0C52.4,110.7,52,110.6,51.7,110.7z
		"/>
	<path fill-rule="evenodd" clip-rule="evenodd" fill="#F29223" d="M78.9,110.6c0.9,0,1.9,0,2.8,0C80.8,110.6,79.8,110.7,78.9,110.6z
		"/>
	<path fill-rule="evenodd" clip-rule="evenodd" fill="#ADC42C" d="M50.7,110.7c0.1-0.1,0.3,0,0.5,0
		C51.1,110.8,50.8,110.7,50.7,110.7z"/>
	<path fill-rule="evenodd" clip-rule="evenodd" fill="#F29223" d="M89.7,111.1c0.2-0.1,0.6,0,0.9,0
		C90.3,111.1,89.9,111.1,89.7,111.1z"/>
	<path fill-rule="evenodd" clip-rule="evenodd" fill="#F29223" d="M92.6,111.1c0.3,0,0.7,0,0.9,0C93.2,111.1,92.8,111.1,92.6,111.1z
		"/>
	<path fill-rule="evenodd" clip-rule="evenodd" fill="#F29223" d="M85.8,111.1c1.1,0,2.2,0,3.3,0C88.1,111.2,86.9,111.2,85.8,111.1z
		"/>
	<path fill-rule="evenodd" clip-rule="evenodd" fill="#F29223" d="M93.9,111.1c0.1,0,0.3,0,0.3,0C94.1,111.1,94,111.2,93.9,111.1z"
		/>
	<path fill-rule="evenodd" clip-rule="evenodd" fill="#B4BF00" d="M72,129.2c-0.2-0.1-0.3-0.3-0.4-0.4c0-0.5,0.2-0.8,0.2-1.2
		c0.1-0.7,0-1.4-0.1-2.2c-0.1-0.9,0.1-1.8,0-2.6c-0.1-1-0.3-1.7-0.3-2.8c0.1-0.8,0.1-1.6,0.2-2.4c0.1-0.8,0.7-1.2,1-1.9
		c0.4-0.7,0.7-1.5,1.1-2.3c0.3-0.7,0.5-1.6,1.3-1.7c0.2,0,0.5,0,0.8,0.1c1.8,0.2,4.1,0,6.1,0.1c0.6,0,1.2,0.2,1.8,0.2
		c0.6,0.1,1.2,0.2,1.7,0.2c1.2,0.1,2.4,0.1,3.6,0c0.4,0,0.7-0.1,1.1-0.1c1.4-0.2,2.8,0.1,4.1,0.2c0.6,0,1.2,0.1,1.7,0.1
		c0.2,0,0.4,0.1,0.7,0.1c0.6,0,1-0.1,1,0.5c0,0.2-0.3,0.6-0.5,0.8c-0.6,0.7-1.3,1.4-1.9,2c-0.9,0.9-1.8,1.8-2.7,2.6
		c-1.9,1.7-3.9,3.1-6,4.5c-2.1,1.4-4.5,2.5-6.9,3.6c-1.8,0.8-3.7,1.6-5.7,2.2C73.4,128.9,72.7,129.2,72,129.2z"/>
	<path fill-rule="evenodd" clip-rule="evenodd" fill="#F29223" d="M81.7,61.2c0.1-0.1,0.2-0.2,0.4-0.4C81.9,61,81.8,61.1,81.7,61.2z
		"/>
	<path fill-rule="evenodd" clip-rule="evenodd" fill="#F29223" d="M84.9,58.1c0.1-0.1,0.2-0.2,0.3-0.3
		C85.2,57.9,85.1,58.1,84.9,58.1z"/>
	<path fill-rule="evenodd" clip-rule="evenodd" fill="#ADC42C" d="M42,96.7c0,0.1,0.1,0.2,0.1,0.3C42,96.9,42,96.8,42,96.7z"/>
	<path fill-rule="evenodd" clip-rule="evenodd" fill="#F29223" d="M16.7,93c0,0.2,0,0.4-0.1,0.5C16.7,93.4,16.7,93.2,16.7,93z"/>
	<path fill-rule="evenodd" clip-rule="evenodd" fill="#E4342D" d="M72,50.1c0-0.2,0.4-0.6,0.7-0.7c0.2,0,0.7,0.1,1.1,0.1
		c5,0.7,9.4,2.2,13.4,4c0.5,0.2,1.1,0.4,1,1.1c0,0.3-0.4,0.6-0.6,0.9c-0.7,0.8-1.5,1.5-2.2,2.2c-0.1,0.1-0.2,0.2-0.3,0.3
		c-1,0.9-1.9,1.8-2.9,2.7c-0.1,0.1-0.2,0.2-0.4,0.4c-0.9,0.8-1.8,2.2-3.3,2.2c-0.6,0-1-0.2-1.6-0.2c-0.1-0.1-0.4,0-0.6,0
		c-0.7,0-1.6-0.1-2.4-0.1c-0.2,0-0.5,0-0.7,0c-0.8-0.2-0.8-1.1-0.7-2.2c0-0.5,0.1-0.8,0.2-1.2c0.1,0,0-0.2,0-0.3
		c0.1-0.3,0-0.8,0.1-1.1c0-0.2,0-0.6,0-0.7c-0.1-1.5-0.5-2.7-0.5-4.2c0-0.3,0-0.6,0-0.8c0-0.4-0.1-0.8-0.1-1.2c0-0.1,0-0.3,0-0.3
		c0-0.2,0-0.4-0.1-0.6C72,50.3,72,50.2,72,50.1z"/>
	<path fill-rule="evenodd" clip-rule="evenodd" fill="#E4342D" d="M78.9,110.6c-1.1-0.1-2.4,0-3.4-0.1c-0.8-0.5-0.3-1.4,0.1-2.3
		c0.2-0.5,0.4-1.1,0.5-1.6c0.2-1.2,0.4-2.5,0.7-3.6c0.1-0.5,0.3-1.1,0.5-1.6c0.2-0.5,0.4-1.1,0.6-1.6c0.4-1.1,0.9-1.9,1.5-2.7
		c0.6-0.8,1.1-1.7,1.7-2.6c0.6-0.8,1.2-1.6,1.9-2.4c1.3-1.5,2.5-3.1,3.8-4.8c0.6-0.8,1.2-1.6,1.8-2.5c0.6-0.8,1.3-1.6,1.8-2.5
		c0.8-1.3,1.2-3,2-4.3c0.3-0.4,0.6-0.8,0.9-1.2c1.3-1.5,2.9-2.7,4.5-4.1c1.2-1,2.4-1.8,3.7-2.7c0.4-0.3,1-0.7,1.3-0.8
		c0.3-0.1,0.6,0.1,0.7,0.2c0.3,0.2,0.6,1,0.8,1.4c1.6,3.7,2.8,7.5,3.1,12.4c0,0.1,0,0.3,0,0.4c0,1.5,0,3.2,0,4.6
		c-0.1,0.1,0,0.3,0,0.4c-0.4,4.7-1.3,8.8-2.9,12.5c-1.1,2.7-2.4,5.2-3.9,7.7c-0.5,0.7-1.1,1.7-1.8,2.1c-1.2,0.6-3.4,0.1-4.8,0.1
		c0-0.1-0.2,0-0.3,0c-0.2,0-0.3,0-0.4,0c-0.2-0.1-0.6,0-0.9,0c-0.6-0.1-1.5-0.1-2,0c-0.3,0-0.7,0-0.9,0c-0.1,0-0.3,0-0.5,0
		c-1.1,0-2.2,0-3.3,0c-1.5-0.1-2.7-0.4-4.1-0.5C80.8,110.6,79.9,110.7,78.9,110.6z"/>
	<path fill-rule="evenodd" clip-rule="evenodd" fill="#E4342D" d="M18,92.3c0.9-0.3,2.1,0.1,2.9,0.2c0.7,0.1,1.4,0,2.1,0
		c1.1-0.1,2.3,0,3.5,0c2,0,3.9,0,5.7,0.1c0.1,0.1,0.3,0,0.4,0c0.3,0,0.5,0.2,0.5,0.4c0,0.3-0.3,0.4-0.6,0.7
		c-0.7,0.5-1.5,1.1-2.2,1.6c-0.9,0.7-2.1,1.9-1.9,3.4c0.2,1.1,1.1,2.1,2.5,2.2c0,0,0.3,0,0.3,0c1.8-0.3,3-1.1,4.6-2
		c1-0.5,2.1-1.1,3.1-1.8c0.2-0.2,0.7-0.6,1-0.6c0.7,0,0.8,0.8,0.9,1.4c0,1.4,0,2.9,0,4.2c0,1.2,0.4,2.7-0.2,3.6
		c-0.2,0.4-0.7,0.7-1,1c-0.6,0.7-1.2,1.4-1.8,2.2c-0.4,0.6-0.9,1.4-1.8,1.4c-0.2,0-0.5-0.1-0.8-0.1c-1.8-0.2-3.6-0.6-5.4-0.8
		c-0.1-0.1-0.4,0-0.6,0c-0.4-0.1-1.1,0-1.6-0.1c0-0.1-0.2,0-0.3,0c-0.1,0-0.1,0-0.2,0c-0.1-0.1-0.4,0-0.6,0c-1-0.1-2.3-0.1-3.3,0
		c-0.2,0-0.4,0-0.5,0c-0.9,0-1.4,0.4-2.3,0.4c-0.1,0-0.3,0-0.4,0c-0.8-0.1-1-0.9-1.4-1.6c-1.1-2.5-2-5.8-2.2-9.1c0-0.1,0-0.3,0-0.4
		c-0.1-0.2-0.1-0.5-0.1-0.8c0-1.2,0-2.3,0-3.5c0-0.3,0-0.5,0-0.8c0.1-0.1,0.1-0.3,0.1-0.5c0.1-0.4,0.4-0.6,0.8-0.7
		C17.7,92.3,17.9,92.3,18,92.3z"/>
	<path fill-rule="evenodd" clip-rule="evenodd" fill="#00934B" d="M41.1,71.5c0-0.2,0.4-0.5,0.6-0.5c0.1,0,0.5,0.2,0.7,0.3
		c1.4,0.6,3.5,1.1,5.6,0.9c0,0.1,0.2,0,0.3,0c0,0,0.1,0,0.1,0c0.1,0.1,0.2,0,0.4,0c0.6,0,1.2,0,1.9,0c0.1,0.1,0.4,0,0.6,0
		c2.7,0.2,6.4-0.7,6.8,1.8c0,0.1,0,0.2,0,0.3c-0.3,1.7-1.3,2.7-2.5,3.6c-0.6,0.5-1.2,1-1.8,1.4c-1.2,0.9-2.2,2-3.6,2.8
		c-2,1.1-4,2.3-5.9,3.7c-0.3,0.2-0.6,0.4-0.9,0.7c-0.6,0.4-1.1,0.8-1.6,0.2c-0.1-0.6-0.1-1.2-0.3-1.8c-0.1-0.6-0.3-1.1-0.4-1.6
		c-0.2-1.7,0.1-3.4,0.2-4.9c0.1-1.4-0.1-2.7-0.1-4.1c0-0.1,0-0.3,0-0.3c0-0.1,0-0.3,0-0.4C41.1,73,41.1,72.2,41.1,71.5z"/>
	<path fill-rule="evenodd" clip-rule="evenodd" fill="#00934B" d="M57,79.6c0-0.5,0.3-0.9,0.8-0.9c0.3,0,0.5,0.2,0.7,0.4
		c0.3,0.5,0.5,1.1,0.5,2c0,0.8-0.2,1.8,0.2,2.3c0.5,0.6,1.6,0.2,2.2-0.1c1.3-0.8,2.1-1.9,3.1-3.1c0.4-0.5,0.9-1.1,1.5-1.6
		c0.4-0.4,1-1.4,1.9-1.2c0.9,0.3,0.1,1.4-0.2,1.8C67,80,66.5,80.6,66,81.4c-0.3,0.4-0.9,1.2-0.4,1.5c0.5,0.1,0.9-0.3,1.3-0.6
		c0.7-0.6,1.4-1.1,2.1-1.6c0.4-0.3,1-1,1.7-0.9c0.4,0.1,0.6,0.4,0.5,0.9c-0.1,0.4-0.7,0.9-1,1.2c-0.2,0.2-0.4,0.4-0.6,0.5
		c-0.8,0.7-1.4,1.4-2.2,2.1c-0.2,0.2-0.5,0.4-0.5,0.6c0,0.3,0.2,0.5,0.4,0.7c0.7-0.1,1.4-0.4,2-0.6c0.6-0.3,1.2-0.7,1.7-0.9
		c0.5-0.2,1.4-0.2,1.3,0.6c-0.1,0.6-0.8,1-1.4,1.3c-1,0.6-2.4,1.3-3.5,1.8c-0.1,0.3,0,0.7,0.1,0.9c0.2,0,0.3,0.1,0.4,0
		c0.2,0,0.5,0,0.7,0c0.7,0.1,2-0.6,2.5,0c0.6,0.7-0.6,1.1-1.2,1.3c-0.8,0.3-1.7,0.3-2.7,0.4c-2.3,0.3-4.1,1.7-6.4,1.7
		c-0.4,0-0.9,0-1.3,0c-2.3,0.1-4.1,0.9-5.8,1.7c-1.6,0.8-3,1.6-4.3,2.5c-0.7,0.4-1.2,1-1.8,1.6c-1.1,1.2-2.2,2.3-3.3,3.6
		c-0.5,0.6-1,1.3-1.6,1.8c-0.3,0-0.5-0.1-0.6-0.2c-0.3-0.4-0.1-2.1-0.2-2.8C42,99.1,42.3,98,42,97c0-0.1,0-0.2-0.1-0.3
		c-0.5-1.7,1.1-2,2.1-2.6c0.5-0.3,1.1-0.7,1.6-1c0.6-0.3,1.1-0.6,1.7-0.9c1.8-0.8,3.3-1.8,5.1-2.6c0.5-0.3,1.1-0.6,1.7-0.9
		c0.5-0.3,1.2-0.7,1.5-1.1c0.3-0.4,0.5-1,0.6-1.6c0.1-0.6,0.3-1.2,0.4-1.8c0.1-0.6,0.2-1.3,0.2-1.9c0.1-0.7,0-1.5,0.1-2.3
		C57,80,57,79.8,57,79.6z"/>
	<path fill-rule="evenodd" clip-rule="evenodd" fill="#00934B" d="M50.7,110.7c-1.7,0.4-3.2-0.2-4.9-0.1c-0.7-0.5,0-1.1,0.5-1.5
		c0.9-0.9,1.9-1.8,2.8-2.6c1.2-1.1,2.7-2.1,3.8-3.3c1.2-1.2,2.3-2.4,3.5-3.6c0.9-0.8,1.8-1.7,2.7-2.6c0.3-0.3,0.6-0.7,0.9-0.8
		c0.9-0.3,1.3,0.6,1.1,1.5c-0.1,0.5-0.5,1.1-0.7,1.6c-0.6,1.1-1,2-1.6,3c-0.8,1.4-1.5,3.1-2.2,4.6c-0.2,0.5-0.5,1.1-0.7,1.6
		c-0.4,0.8-0.9,1.8-1.8,2c-0.4,0.1-0.9,0.1-1.4,0.1c-0.3,0-0.7,0-0.9,0c-0.2,0-0.3,0-0.5,0C51,110.7,50.8,110.7,50.7,110.7z"/>
	<path fill-rule="evenodd" clip-rule="evenodd" fill="#00934B" d="M67,109.1c-0.7,0.1-1.7,0.1-2.5,0.1c-0.5,0-1.1,0.3-1.4,0.1
		c-0.1,0-0.2-0.3-0.2-0.4c0-0.4,0.7-0.9,0.9-1.2c0.8-1.2,1.6-2.9,2.3-4c0.7-1.2,1.4-2.8,2.2-4.1C68.6,99,69,98,70,98
		c0.6,0,1,0.4,1.2,0.9c-0.2,2.6-0.8,4.9-1.2,7.2c-0.1,0.4-0.1,0.7-0.2,1.1c-0.2,0.9-0.4,1.8-1.4,1.8c-0.2,0-0.5-0.1-0.7,0
		C67.4,109.1,67.1,109,67,109.1z"/>
	<text transform="matrix(1 0 0 1 124.3682 69.4448)"><tspan x="0" y="0" fill="#0A71B3" font-family="'AdobeHeitiStd-Regular-GBpc-EUC-H'" font-size="10.0213px">22 MAY 2015</tspan><tspan x="0" y="12" fill="#0A71B3" font-family="'AdobeHeitiStd-Regular-GBpc-EUC-H'" font-size="10.0213px">INTERNATIONAL DAY </tspan><tspan x="0" y="24.1" fill="#0A71B3" font-family="'AdobeHeitiStd-Regular-GBpc-EUC-H'" font-size="10.0213px">FOR BIOLOGICAL DIVERSITY</tspan><tspan x="0" y="36.1" fill="#36AADC" font-family="'AdobeHeitiStd-Regular-GBpc-EUC-H'" font-size="10.0213px">BIODIVERSITY FOR  SUSTAINABLE </tspan><tspan x="0" y="48.1" fill="#36AADC" font-family="'AdobeHeitiStd-Regular-GBpc-EUC-H'" font-size="10.0213px">DEVELOPMENT</tspan></text>
</g>
</svg>
