<?xml version="1.0" encoding="utf-8"?>
<!-- Generator: Adobe Illustrator 19.1.0, SVG Export Plug-In . SVG Version: 6.00 Build 0)  -->
<svg version="1.1" id="Layer_1" xmlns="http://www.w3.org/2000/svg" xmlns:xlink="http://www.w3.org/1999/xlink" x="0px" y="0px"
	 viewBox="0 0 508.6 445.9" enable-background="new 0 0 508.6 445.9" xml:space="preserve">
<g>
	<path fill="#4DA7D7" d="M426.1,362.8c-15.5,4.3-32,5.7-47.1,11c25.5-22.6,24-57.5,41.1-84.2c5.4-7.5,9.9-15.4,16.2-22.6
		c-10.4,21.5-5.9,49.3-17.8,70.1c-4.6,8.3-11.1,16.3-18.4,22.8c2.4-0.1,4.4-2.2,6.5-3.6c19.3-19.9,44.6-25.5,65.4-41.6
		c8.4-6.9,16-15.9,19.7-25.7C487.9,322,456.1,353,426.1,362.8"/>
	<path fill="#4DA7D7" d="M495.7,229.1c-9.5,13.9-20.9,26.8-29.6,40.9c1-11.2,2.3-24.9-2-35.5c-7.3-22.8-13.7-45.9-15.8-71l0.3-9.6
		c5.5,25.6,29.8,43.1,28.3,71.8c0.5,6.9-1.5,12.8-2.8,18.9l0.4,0.5l1.1-1.3c3.6-14,5.4-28.8,11-41.9c8-18.9,17.9-37.9,13.9-60.7
		C512.6,168.1,508.9,204,495.7,229.1"/>
	<path fill="#4DA7D7" d="M480.8,84.4c15.9,22.3,19.4,57.8,7.8,83.4c-4.3,10.8-7.4,22.4-9.1,34.4c-0.8-2.1-1-4.8-1.7-7.2
		c-6.3-25-29.3-42.9-38.7-66.5c-3-7.7-5.5-15.7-6.9-24.1c10.1,19.3,34.9,29.2,41.7,50.4c2.8,5.4,2.6,12.1,4.3,17.9
		c0.4,0,0.7-0.3,0.7-0.7c-3-21.8-2.1-44.7,0.8-66.3c-0.2-11.7-1.3-23-7.6-32.1C476.2,76.1,478,80.7,480.8,84.4"/>
	<path fill="#4DA7D7" d="M469.5,80.1c4.2,19.5-1.9,38.6,1.9,58.3l-0.1,0.2c-10.3-20.9-32.2-30.8-47.2-47.5
		c-8.7-9.9-12.5-22-14.7-34.8c8.6,21.5,31.9,26.2,45.2,44.3c4.5,4.2,5.9,9.9,8.8,14.7l0.5-0.5c-7.7-16.9-10.3-36-15.6-54
		c-2.7-7.8-8-15.5-15.1-20.4C450.7,43.9,465.9,62.8,469.5,80.1"/>
	<path fill="#4DA7D7" d="M422.7,35.3c13.2,12.2,19.2,28,23,44.3l2.2,5.2c-19.2-14.2-36.6-33.4-48.8-53.6l-15-15.6
		C397.3,21.4,411.4,24.8,422.7,35.3"/>
	<path fill="#4DA7D7" d="M120.2,18.2C107,30.2,97.8,45.4,88,59.5c-8.8,11.3-20.1,18.7-30,28.4c5.4-11.5,5.6-25.3,13.2-35.9
		C82,32.4,102.2,25.5,120.2,18.2"/>
	<path fill="#4DA7D7" d="M47.8,60c6.4-8.3,14.6-14,23.8-16.4C53.8,56.2,54.9,78.9,49.3,97.7c-1.8,7-4.9,13.4-6.5,20.5l0.5,0.4
		c3-8.1,8.2-15.7,14.7-22.3c12.7-12.1,31.4-19.6,37.6-37.5c-0.3,24.8-20.3,44.4-39.5,58.3c-7.9,7.2-15.5,15.3-19.9,24.6
		c-0.4-6.3,0.9-12.6,0.5-19.3C34.5,100.8,33,76.1,47.8,60"/>
	<path fill="#4DA7D7" d="M11.7,134.1c-0.5-22,8.3-39.9,20.7-56.3c0.4-0.2,0.6-0.6,1.1-0.5c-13.7,21.5-2.4,48.6-3,73l-1.8,25
		c0.3,0.2,0.3,0.9,0.9,0.6c0.8-2.8,1-5.8,1.5-8.6c3.2-20.2,20.2-34.5,35-48.5c3.2-3.6,6-7.3,7.6-11.6c-1.2,10-4.2,20.2-8.3,29.5
		c-11.5,23.2-32.8,42.3-36.7,68.9C26.8,180.2,10,161.1,11.7,134.1"/>
	<path fill="#4DA7D7" d="M1.4,165.3c1.5-6.9,2.7-14,5.6-20.3c-5.5,29,13.4,50,19.6,75.1c2.6,9.4,3.2,19.5,7,28.3
		c0.3,0.2,0.6-0.2,0.9-0.5c-9.2-26.7,4.1-51.6,17.5-72.5c3.3-5.7,5.1-12,6.7-18.5c1.4,12.1-1.5,26-3.2,38.6
		c-3.2,16-8.1,31.2-12.3,46.7c-2.8,9.7-2,20.6-0.6,30.8l-1.3-1.1c-9.8-18.7-29.3-33.3-35-53.7C1.3,202-1.9,183.1,1.4,165.3"/>
	<path fill="#4DA7D7" d="M0.5,222.1c2.2,30.8,34.2,47,49.1,72.5c3.5,5.2,6.6,11,11.2,15.4c-0.7-3.3-3.7-6-4.8-9.4
		c-5.2-10.7-7.1-23.4-5.8-36.4c1.4-15.7,7.8-30.3,5.4-46.8c13.1,29.1,9.1,65.3,16.4,96.8c1.9,6.9,5.8,13,8.3,19.6
		C53.4,314.9,16.8,297,5,262.4C-0.1,250.5-0.6,235.7,0.5,222.1"/>
	<path fill="#4DA7D7" d="M16.5,292.7c15,34.9,52.4,37.8,77.5,59.1c4.6,4.2,9.5,7.8,14.7,10.3l0.3-0.3c-5.8-5.4-12.5-11.5-16.5-18.5
		c-14.7-21.1-9.5-50.7-20.5-73.4c10,12.4,19.1,25.2,25.1,39.2c9,22.9,12.4,48.7,33.2,66c-22.5-7.6-48.8-5.5-68.7-19.8
		C39.9,341.7,20.5,318.4,16.5,292.7"/>
	<path fill="#4DA7D7" d="M54.9,357.9c24,28.1,63.1,18.8,95.1,26.1c4.5,0.6,8.6,2.5,13.4,1.7c-3.8-2.5-9.1-2.2-13.2-4.5
		c-25-9.1-28.7-37.1-42.3-56c17.4,11.9,32,28,48,43.5c11.5,10.4,25.4,15.2,40,18.3c-3.5,1.3-8.1,1-11.9,2
		c-26.2,6.7-55.4,17.6-83.2,7.8C82.7,391.1,64,376.3,54.9,357.9"/>
	<path fill="#4DA7D7" d="M380.3,423.5c-27,10.4-55.2-0.5-76.3-17c-8.5-5.6-16.1-13.7-27.1-13c-4-0.1-7.9,0.1-11.3,1.1
		c20.5,9.9,39.5,23.4,57,40.8c-2.9,3.5-6.7,6.7-10.3,9.7c-16.8-18.7-35.4-36.6-56.2-47.1c-4.1,0.5-7.9,3.1-11.6,5.1
		c-16.9,11.1-33.7,25.3-46.3,42.7l-10.8-9.2c17.3-18,36.4-32.1,57.3-42.1c-20.5-6.7-33.9,11-49.5,20.1
		c-18.2,13.1-44.3,19.3-66.3,10.2c-11.8-4.6-23.2-11.4-31.8-22.5c17.3,12.3,43,13.6,62.7,5.6c26.3-11.8,53.7-26.8,85.5-19.6
		c5,0.1,9.8,5.2,14.5,0.8c23.6-6.3,50.4-2,70.7,9.2l21,8.7c19.5,7.5,44.7,5.4,61.4-6.9C404.1,411.2,392.4,419.1,380.3,423.5"/>
	<path fill="#4DA7D7" d="M409.3,394.7c-30.3,11.8-60.8-2.7-89.9-7.5l-5.6-0.7v-0.2c13.9-3.2,27.4-7.5,38.4-17.8
		c16.3-16.2,30.8-32.8,48.9-45.6c-13.4,17.8-14.9,43.1-37,54.5c-5.5,3.7-12.4,4.4-18.1,7.2c8.1,0.2,15.5-2.8,23.5-3.6
		c29.7-4.8,63.7,0.1,84.6-26C446.3,373.1,426.9,388.3,409.3,394.7"/>
	<path fill="#4DA7D7" d="M464.4,306.6c-12,8.1-24.1,15.6-35.6,24.8v-1.1c17.6-30.3,9-71.9,19.9-105.1l4-11.2
		c-2.3,20.7,6.5,38.3,5.9,59.1c-0.6,12.6-4.6,23.7-11,33.8h1.1c8.6-11.7,15.4-24.2,25.5-35.3c15.7-15.6,31.6-31.6,33.7-53.3
		C513.1,254.4,493.4,286.1,464.4,306.6"/>
	<path fill="#4DA7D7" d="M416.4,106.2C386.9,41.3,322,0.1,254.2,0c-29.7,0.6-57,7.4-81.9,20.1C127.8,42,91.6,89.5,79.5,136.5
		c-19.9,79.2,7,159.5,72.8,206c47.3,35.1,122.8,41.8,176,14.9c47.1-20.5,87.6-70.7,100-120.5C440.4,194.8,435.1,143.5,416.4,106.2
		 M424.9,171.8c0.4,3.2-0.3,7,1.4,9.6l-25.9,0.5c-0.6,0.5-1.3,0.8-2.2,0.8l0.7-1.1c-0.6-21-5.9-39.9-13.7-57.7
		c-0.3-8-7.8-13.4-11-20.4c-5.8-4.1-7.5-11.4-14.1-15c-1.2-1.4-1.8-3.7-3.7-4.2l3.1-0.6c6.2-6.6,13-13,17.9-19.9
		C404.4,95,421.4,130.5,424.9,171.8 M351.6,272.4c-2.3-2.2-2.3-6.6-6.3-6.5c-1.4-0.2-1.9,1.1-1.9,2.2c-0.1,0.6,0.2,1.4-0.3,1.9
		l-8.2-7.4c3.8-2.1,6.7-7.4,9.7-11.3c7.6-10.9,12-23.1,15.8-35.5c1.2,1,2.9,1.1,4.1,0.3c1.2-1,1.4-3,0.7-4.3l-3-3.3
		c0.4-5.6,1.9-11.1,1.3-16.8l2,0.7c8.4-0.1,16.9,0.5,25-0.3l-1.3,1.5c-2,33.6-13.4,63.9-36.1,88.6
		C354.1,278.8,351.1,276,351.6,272.4 M330.4,299.2c-4.7-4.5,2.9-8.2,4.3-12.3c-0.8-4.3-5.5-6.8-9.1-8c-1.7-1-1.1-3.3-1.3-4.7
		c1.7-1.7,3.3-3.1,4.1-5.3l0.6,1.8l11.1,11.8c0,2.7,0.5,5,3,6.3c1.2,0.5,2.6-0.6,3.7-0.2h-0.6c-4.8,5.4-10.7,9.5-16,13.9l-1.3,1.7
		C328.3,302.3,331.9,301.4,330.4,299.2 M280.1,155.1c-1.5,0.6-3,1.6-4.6,0.8c-1.6-1.7-3.5-3.9-6-4.2c-1.7,0.5-2.9,2.7-4.9,1.5
		c3.2-3.6,9-4.3,11.4-9.3c0.7-2.4,1.3-4.9,1.1-7.4c-0.9-1.1-2.3-2.1-3.5-1.1c-1.8,3.1-5.9,3.7-7.8,7l-6.5-2.3
		c-1.1-6.1,0.4-13.9-1.3-19.2c3.4,1.3,7.2,1.4,10.8,2.2c9.2,2.4,17.6,6.9,25.7,12.1c-1.9,0.7-3.9,3-5.4,4.5
		c-0.1,1.7,1.7,1.2,2.4,2.2l1.7-0.6C290.5,148.5,281.1,147.4,280.1,155.1 M287.6,232.1c-0.1,3.3-4.8,3.2-6.9,5.5
		c-1.3-0.5-0.3-1.8,0-2.5C282.9,233.4,284.5,231.6,287.6,232.1 M338.6,143c3,0.7,4.8,4.3,7.8,4.9c2.6,4.3,3.7,9.2,5,14
		c-2.4,2.8-2.6,9-7.8,8c-1.2-3,2.4-4.7,1.5-7.5c0.9-0.8,2.4-1.1,2.6-2.5c-0.2-2.8-3.6-2.2-4.2-5.1c-1.1-1.6-2.9-1.4-4.3-1.9
		c-3.5-1.7-6.7,7.1-7.6,0.2c1.1-0.9,1.7-2.3,0.9-3.5c-3-1.7-3.2-5.9-6.5-7.6c-4.4,0.1-8.4-1.9-12.8-0.9c-2.8-0.7-6-2.6-8.2,0.5
		c-0.2,2.3-1.4,4.3-1.7,6.5c-1-0.6-1.9-1.6-2.4-2.7c7.9-9.1,17-18.3,25.3-27.2l0.5-1.1c4.1,5.3,9,10.6,12,16.5
		C339.5,137,332.8,140.7,338.6,143 M354.3,192.3c-1.5,5-1.3,10.8-2.6,15.9c-0.2,0.9-0.2,1.8-0.8,2.7c-1.5-3.1-2.8-7.4-6.3-9.2
		c-3-1.7-1.1-5.8-3.9-7.8L338,191C342.7,193.1,349,192.6,354.3,192.3 M316.8,113.4c-4.7,5.6-10.9,10.6-14.9,16.5l-0.6-2
		c-11.8-9.9-25.5-14.9-40.4-17l-2.3,0.4l0.2-25.2l-0.9-2.1c9.9,1.6,19.9,3,29,6.3c11.7,4.3,22.5,10.8,32.4,19.3l2.2,0.9L316.8,113.4
		z M292.1,251.1c7.9,0.7,15.4,2.5,22.5,5.3c1.8,0,3.8-0.2,4.9-1.5c-0.4-3.1,3.2-4.5,2.8-7.5c1.5-2.6,0.5-6.2,2.6-8.5
		c0.3-3.3-0.1-6.9-2.1-9.4c-2-1.3-3.8,0.4-5.7,0.6c-2.2,1.7-1.3,6.6-5.1,5.6c-0.9,1.3-2.7,1.3-3.9,0.9c-0.3-0.5-0.9-0.6-0.7-1.1
		c2.7-1.4,7.5-0.5,7.8-4.9c2-1.8,5-1,6.9-3.2c1.3-2.2,2-4.2,3.9-6.3c0.2-0.9,0.5-1.8,0.5-2.9c0.6,1.3,0.6,3.1,2.1,3.8
		c2.1,0.7,3-1.1,3.9-2.5c-0.1-0.7,0.4-1.8,1.2-1.1c2.3,1.9,5.4,0.3,8,0.5c2.2-0.7,4.7-1.2,7.1-1.3c-2.2,10.2-7.2,19.8-13.2,28.7
		c-2.2,2.9-4.2,6-6.7,8.7c-0.8-2.2-0.7-5-2.5-7l-1.1,0.3c-1.5,3-4.3,5.5-4,8.9c-2.1,3.5-7.6,0.6-10.8,2.4c-3.9,1.2-5.9-2.7-9-3.5
		c-3.4-1.5-7.4-1.6-10.6-3.3C291,252,291.4,251.3,292.1,251.1 M275.3,11.4c36,5.1,68.3,19.9,95.6,46.7l-3.1,1.3
		c-4.9,5.5-10.7,10-13.6,16.3c-0.3-1.8-2.9-3-3.7-4.7c-0.5-5.1-5.3-10-9.5-12.6c-3.5-0.7-4.3-6.1-8.7-4.4c-3.6-3.2-8.1-0.8-11.6,0.9
		v0.5c-17.1-10-36.2-16.3-56.8-17.9c-1,0-1.5,0.8-2.6,0.6c1.1-0.7,0.5-3,0.4-4.2c-0.6-1-1.6-2.1-2.9-1.3c-0.4,0.6-0.8,1.4-0.8,2.2
		c0.6-8.3,0.8-18.3-0.3-25.7C263.2,10.9,269.6,10.3,275.3,11.4 M268.4,48.6c15.8,2,29.7,6.4,43.7,12.9c2,3.3,6.1,4.8,6.6,8.9
		c-2,5.7,7.3,5.6,3.1,11.4c-0.3,1.8,1.2,2.9,1.9,4.3c0.5,1.6-0.3,4,1.6,4.9c3.2,0.7,4.6-3.7,7.8-2.5c4.2,3.2,5.1,8.4,5.1,13.2
		c0.5,3.1,3.1,5.1,5.7,6.2c5.3-1.7,2.8,4.5,6.5,6c4.1,0.5,6.2,6,10.8,5.6c4.1,3.1,6.3,7.8,9.9,11.3c-0.1,0.8,0.3,1.6,1.1,1.9
		c2.2,0.5,3.5-1,5.4-1.1c7,14.7,10.4,30.9,11.7,48.1l0.8,1.8c-8.7-0.1-17.5,0.1-26.4,0.7c-0.2-5.3,0.1-10.9-2.8-15.2
		c1.4-2.8,1.7-6.4,1.5-9.6c-0.5-1.4-1.7-0.2-2.3,0c-2.9,2.9-3.3,6.9-4.8,10.3c-2.5,3.6-2.8,9.1-1.4,13.2l1.1,1.1l-10.1-0.2
		c2.4-1.6-2.1-4.6,0.4-7.2l4.6-0.9c1.4-3.4,5-6,4.9-10c2-2.5,3.8-5.7,2.4-9.1c-2.2-5.1,3.7-10.3-0.8-15.2c0.4-1.4-0.5-3.4-2.2-3.3
		c-1.4-0.4-3.1,0-3.1-2c0.8-1.3,2.9-2.6,2.4-4.6c-1.1-1.4-2.8-0.2-4.1-0.3c-0.4-2.3,3.7-4.7,0.2-6.7c-2.4-0.4-3.8,2.7-6.2,1.6
		c-1.1-0.9-1.9-2.5-0.9-3.8l-5.4-6.9c-0.5-0.7-2.1,0.4-2.1-0.9c0.4-5.5-6.1-8.6-6.5-14c-2-1.9-0.4-5.3-3-6.9c-1.5-1.1-3.1-2.4-5-1.6
		c-2.3-3.4-4.9-6.6-8-9.6c-0.9-0.3-1.5,0.3-1.9,0.8c0.4,2.6,3.4,4.1,3.2,6.9c-0.4-0.1-0.8,0-1.1,0.4c0.4,2.7,2.4,4.9,4.1,6.7
		C302.7,84,286,78.1,268.4,75.2c-3.4-0.1-6.9-1.6-10.4-0.4c0.8-8.1,0.3-17.3,0.5-26l-0.9-1.8C260.9,48.9,264.5,48.1,268.4,48.6
		 M253.3,155.8l1.5,0.8c-1.9,0.1-4-1.1-5.6,0.3c-1.1,0.8-0.4,2.3,0,3.3c3.2,1.3,4,6.8,8.3,4.7c1.8,0.4,4.1,0.8,4.7,2.9
		c2.6,1,3,5.7,6.5,4.7c-0.2,1.7-0.7,4.8,1.3,6.2c-0.5,1.6-2.5,2.3-2.4,4.3c-0.4,0.5-0.9,1.5-0.3,2.2c3.3,0.3,3.1,4.3,4.7,6.4
		c-0.7,2.7,0.2,5.5,2.4,7c-0.4,3.2-1.7,5.9-3.1,8.7c-3.5,1.8-9.3-2.7-10.5,3.8c-2,2.3-0.3,7.2-4.2,7.3c-7.4,0.6-14.2-1.1-19.9-5.6
		c3.7-1.9,10,0.8,11.2-4.9c1-0.8,1.4-2.3,0.9-3.5c1.7-1.8,2.3-4.1,3.2-6.2c-1.3-1.4-0.7-2.2-0.4-3.8c-3.7-3.9-8.7-1.9-13.4-1.8
		c-2.8,1.7-0.1,4.8-2,6.9c-3.6,0.5-3.7,4.1-6.2,6.2c-1.4-0.7-2.5-2.7-2.4-4.2h0.5c-0.2,0.7,0.3,1.4,0.9,1.6c3.4,0.5,2.3-3.5,3.4-5.2
		c0.6-2.2,5.6-5.3,1.5-6.9c-0.2-0.9,0.5-2.1-0.6-2.7c-1.2,0.6-3.3,0.6-3.5,2.5c0.6,1.7,0,3.4-1.4,4.5h-0.7c0.3-1.1-0.5-1.9-1.3-2.3
		c-2,0.1-3.8,1.7-5.8,1.1c-2.9,0.6-6.1,1.2-9.1,1.3c-0.3-1.8,2.4-1.2,2.9-2.9c-0.5-2.8,1.3-4.5,2.5-6.5c0.7-0.7,2.1-0.5,2.9-0.2
		c0.7,0.7,1.4,1.4,2.5,1.1l0.9-1.6c2.7,1.7,1.2,9.7,6.5,6.2c0.8-3.4,0.1-7.5,1.5-10.7c-1.2-3,1.9-4.2,2.8-6.3c2.8,0.3,2.5-3,3.7-4.5
		c4.2-1.3,8.7-2.3,11.4-7c-1.1-2.3-0.4-5.7-2.1-7.5C248.6,155.1,251.8,154.1,253.3,155.8 M249.1,328.2l-2.5-1.8
		c-33.5-1.9-62.2-16-87.2-38.6c4.1-0.4,5.6,5.1,10,3.7c4.9-0.6,8.6-4.6,13.8-3.7c2.5,0.1,5.7,0,7.2-2.5c0.8-2.8-2.1-4.2-2.6-6.4
		c17,13.1,36.2,21.4,58.1,22.5l2.1-1v24.5L249.1,328.2z M154.8,194.2l-1.4-2.2c2.7,2,5.5,1.4,8.7,0.8c-4.4,1.5-2.8,7.1-4.5,10.5
		c-0.3,1.7,2.1,2.1,1.9,3.8c-2.2,1.1-2.4,3.5-3.4,5.3C157.3,206.2,154.9,200.3,154.8,194.2 M127.5,226.3c-2.4,0.3-1.8,3.1-2.8,4.4
		c0.2-6.5-2.6-12.8-3.4-19.4l-2-17.1l-1.1-1.6c7.9,1.2,16.7,0.4,25,0.7l2-1c-0.7,4.1-0.9,10,2,13.7c-1-1.1-2.4-4.4-4.8-4.3
		c-4.6,0.3-5,6.5-9.6,6.7c-3.8,3.3-4.3,7.8-5.1,12.3C129.4,222.4,126.5,224.2,127.5,226.3 M145.9,183.2l-2.3-0.9l-24.7,0.4
		c2.3-28.4,9.8-54.6,25.8-77.2l9.7-12.7l0.2-1.8c5.8,7,12.2,13.5,19,19.6c-17.8,19.7-26.7,43.4-28.7,69.8
		C145.2,181.4,144.9,182.5,145.9,183.2 M248,74.8c-4.7-1-9.4,0.6-14.2,1.1c-20.1,4.3-38.7,13.1-54,28.3l-0.6-1.8
		c-6-5.8-11.5-13-18.2-17.4c5.8-3.5,10.9-8.7,16.5-12.7c20.9-14.5,44.3-22.7,70.4-24.3C247,56.7,247.7,66,248,74.8 M207.7,215.1
		c0.1,0.9,1.2,1.8,2.2,1.1c1-1.4-2.2-3.8,0.2-4.7c1.4,1.7,0.7,4.5,1.5,6.4c0.7,1,1,2.2,0.8,3.6c-2.5,3.1-5.9,5.8-7.6,9.1
		c-1.6-4.2-5.2-7.5-6.8-11.8c-2.6-4.9-3.9-10.3-6.5-15.2c2.1,2.8,7.9-0.4,7.9,4.9c0.3,0.3,0.9,0.2,1.3,0.2c0.7-0.8,0.8-0.9,1.7-0.5
		c0.4,0.9,2.6,1.4,0.9,2.5C204,212.8,205.6,214.7,207.7,215.1 M234.4,287.6l4.3,2c-15.6-4-32.5-9.6-46-21.2
		c-2.3-1.4-3.9-4.5-6.7-4.7c6.3-5.3,12.6-12.3,17.9-19c2.3,4.5,7.4,6.9,11.3,9.9c6.8,3.3,13.9,9.2,21.9,7.5c-2.5,1-4.7,2.4-6.7,4.6
		c-1.1,2.5-0.7,6.2-4,7.3C226.6,279.3,231.2,283.8,234.4,287.6 M177,254.8l-0.9-5.8c-5.1-4.8-3.5-13-4.3-19c-3.6-3-0.7-7.8-3.2-11.1
		c0-5.4-8.1-7.3-5.6-13.2c-1-1.5-2.2-3.4-1.1-5.3c1.6-2,5.1,0.2,6.2-2.7l0.7-4.9c1.9-1.1,4.6,1.4,5.6-1.3c1.8-4.6-6.7-10.3,0.6-12.7
		c2.4-0.3,5.8-0.8,6.8,2.3c0.6,3.5,1.4,7.3,0.2,11c2.3,0.9,0.2,3.1,0.2,4.6c-1.4,0.6-2.8,2.1-4.5,1.6c-0.7-1.2-2-3.4-3.7-3.2
		c-1.4,1.9,0.6,4,0.3,6.2c-0.4,1.3-0.1,2.8-0.9,3.8c-0.6-0.4-1.3-0.7-2.2-0.6c-1.5,0.8-0.5,2.5-0.2,3.5c1.6,1,2.8,2.6,4.7,2.7
		l0.9-1.1c-0.2-3,1.1-5.3,1.2-8.3l2.6,1.4c2.4,11.5,7.5,22,13.9,31.9l3.4,3.5c-8.2,7.4-16.2,16.1-23.1,24.4v0.2
		c-0.1-0.4-0.4-1.9-1.4-1.3C172.4,257.7,178.1,258.8,177,254.8 M189.5,144.8c-2.5,1.5-4.5,4.1-6,6.5c-2.2,1.4-4.9,1.3-6.8,3.8
		c0,1,1.2,2.3-0.1,3.1c-2.1,2-6.4-0.6-7.4,3.3c-0.4,3.4-4.3,5.4-4.1,9.2c-2.2,1.5-1.8,4.4-1.5,6.7c1.2,1.5-0.5,4.2,1.5,5.3
		c-3.5-0.4-8.1-1-11.3,0.5c1.7-4.2,1.2-9.4,2.2-13.9c3.3-19.2,11.8-36.2,24.2-51.5c6.2,6.3,12.9,13.7,19.9,19.2
		C195,137.2,194.9,145,189.5,144.8 M245.1,245c-1.3,2.1-0.3,5.3-0.9,7.8c-12-2.2-22.8-7.3-32.4-15.4c5.4-6.1,12.8-12,16.6-18.5
		c0.6,3,4,4.4,6.3,5.7c4.8,2.2,10.6,5.6,16.1,3.3c-0.5,0.4-0.8,0.9-1.3,1.2c1.6,1.6-1.1,3.3,0.7,4.8c0.4,1.2-1.2,1-1.3,2
		c0.9,1.7-0.3,4.6,2.3,5.2c0.7,0.9,0,2.3-1.1,2.4C248.4,243.1,246,243,245.1,245 M216.1,217.1c1.6-1.7,3.2-3.7,3.7-6l3.1,1.6
		c-2.8,0.2-4.3,3.1-6.5,4.7L216.1,217.1z M241.2,141.5c-0.5-1.3,1-2.7-0.4-3.5c-4.2,2-2.6,6.7-5.4,9.8c-0.5,2.4-3.5,1.2-4.9,2.5
		c-1.1-1.7-3.3-1.7-4.8-0.7c-2.2,0-2.5-4.5-4.8-2.2c-0.6,0.7-0.2,2.4-2,1.8c-0.4-0.6-1-0.7-1.4-1.1c-0.1-1.4,2.3-1.2,1.4-2.9
		c-1.6-3-5.2-2.5-7.3-4.7h-2c10.6-11.6,23.9-16.7,38.4-18.7c-0.2,6.7-0.7,14.2,1.4,20.3C247.1,139,244,142.6,241.2,141.5
		 M248.3,111.3c-4.7-1.1-9.1,1.1-13.6,1.6c-10.1,2.6-18.9,8.4-27.4,14.7c-0.5,0.7-0.9,1.4-1.4,2c-6.2-5.7-12.3-13.6-19.2-18.5
		c17.4-14.8,37.2-24.6,60.1-26.3l1.5-0.9C247.3,92.9,247.3,102.6,248.3,111.3 M150.8,45.5c28.5-21.2,60.7-33.9,96.8-35.4l-0.7,2.6
		l0.2,22.3l0.8,2.2c-35.1,1.7-65.7,15.3-92,40l-0.5,1.3c-6-6.7-12.8-14.4-19.9-19.8h-0.8C140.5,55.3,145.3,49.4,150.8,45.5
		 M83.8,166c4.6-38.4,20.4-72.1,46.1-101.6l0.6,2.5c6.2,6.2,12.3,12.8,18.1,18.5c-5,3.5-8,9.5-12,14.2c-16.2,23.6-25.3,50-27,79.7
		l0.7,3.6c-9-0.8-18.9-0.8-27.8,0C83.5,177.3,82.8,171.6,83.8,166 M104.6,274.7c-13-24.8-20.6-51.9-22.1-81.7l25,0.2l2.4-1
		c-0.4,1.4-0.2,3.2-0.3,5.2l-0.2-0.3c-0.7,0.6,0.6,0.8,0.5,1.4c0.4,9.8,2.2,19.2,4.3,28.3l1.3,2c-1.9-1.7-2.6-3.9-4.1-5.7
		c-2.1,0.4-4.3,0.8-5.8,2.2c1,2.7-1.6,1.8-2.8,2.6c-0.4-0.6-1.1-1.4-1.8-1.8c-1.9,0.1-3.9,0.3-4.7,2.2c0.3,1.4-1.3,2-1.8,3.2
		c-0.6,4.2-1.9,9.6,1.1,13.1c0.1,3.1,1.5,5.9,3.7,7.8c0.9,0.2,1.4-0.5,2-0.8c2.4,1.9,3.7,6.4,7.3,5.6c1.1-0.5,0.7-1.7,1.1-2.5
		c1.9,2,2.8,6,6.3,5.6c0.9,0.9,1.3,2.6,2.8,2.7c3.8-1.1,2.4,4.4,5.2,6c2.1,1.4,3.3,4.8,6.4,3.2l1.1-1.4c1,0.7,0.2,2.6,1.1,3.6
		c1.5,3,4.6,5.1,7.5,5.9c2.6,3.1,5.3,6.7,8.4,8.9l-2.2,0.9l-17.9,19.1C120.4,298,111,286.9,104.6,274.7 M231.5,362.8
		c-36.2-5.1-67.9-21.3-95.9-46.4l18.5-19.3l0.3-1.1c25.7,25.6,56.7,38.4,91.8,40.9l2.8-0.7l-0.9,1.4v25.2l1.4,2.3
		C243.8,363.3,237.2,363.8,231.5,362.8 M253.3,257.5c-2,0.3-3.6,0.1-5.2-0.7c-0.8-0.1-0.5-1-0.8-1.6c2.6,0.1,3.9-3.2,6.7-2.7
		c1.6-1.5,1.9-4,4.1-4.9c-0.7-2.4,2.2-0.8,2.8-2.2c0.8-0.8,1.9-1.6,3.1-0.9c1.8,2.7,5.5,1.6,7.3,4.6c0.9,0.4,1.2-0.6,1.1-1.3v-1.1
		c2.9-0.3,4.3,4,7.4,1.1c0.7-0.6,0.6-2.1,0-2.7c-0.3-0.2-0.8-0.4-0.9-0.8c2.1-1,3.3,3.2,5.8,1.8c2.1-1.8,3.5-4,6.3-4l0.6,0.9
		c0.4,5.6-4.2,8.9-8.2,11.4c-2.6,1.1-7.4,0.8-7.2,5.1c-3,2.8-5.8-1.7-9.5-0.5c-1.7-0.9-0.1-3.5-2.4-4
		C260.5,256.7,255.9,253,253.3,257.5 M259.9,304.6c3.3,1.4,8.8-1.4,10.6,2.4c-1,2.2-2.6,4.2-2,6.7c1.3,3.4,3.3,8,7.6,8.3
		c1,1.5,2.5,1.8,4,2.4c-7.2,1.2-15,0.8-21.6,3.1c0.9-7.5,0-15.3,0-23l-1.4-2.1C258.4,302.8,259,303.9,259.9,304.6 M260.2,364.1
		l-1.7,1.1c0.6-9.5,0.6-19.7,0-29.2c4.5,1.6,9.3-0.2,14.1-0.2l13.8-2.5c6.8,1.4,11.7,12.8,19.2,5.9c2.6-3.2,7.2-3,8.8-7.5
		c4.4-1.6,5.5-6.3,8.6-9.3c3-8.7,12.5-10,18.4-16.1c4.3-3.9,9.8-7.2,12.4-12.3l0.4,2.2l19,18.7C341,345.2,303.6,362.2,260.2,364.1
		 M425.5,193.7c-1.7,43.5-17.4,81.1-44.9,113.5l-0.7,1.4c-5.7-6.4-13.2-14.8-20.1-20.3c4.1-2.9,7.3-7.9,10.6-12
		c17.1-24.3,27.1-51.6,28.6-82.6l-0.9-2.5l1.5,1.1l25.7-0.2l1.3-0.7L425.5,193.7z"/>
	<path fill="#4DA7D7" d="M333.8,47.7c-0.1,1,0.1,1.9,0.6,2.7c3.8,1.4,4.2,7.1,9.1,5.8c1.5-1.7-0.9-3.5-0.4-5.6c-0.6-2-2.3-2.8-4-3.4
		C337.2,49.1,335.5,45.6,333.8,47.7"/>
	<path fill="#4DA7D7" d="M261.9,31.9c4.8,6.3,13.1,2.8,19,1.6c4.3,1.9,8.5-0.4,11.7-3.2v-0.7c-3.1-4.4-8.8-5.1-14-5.6l-13,5.8
		c-1.1-0.5-3.1-1.1-3.9,0.5C261.2,30.8,261.7,31.5,261.9,31.9"/>
</g>
</svg>
