<?xml version="1.0" encoding="utf-8"?>
<!-- Generator: Adobe Illustrator 19.1.0, SVG Export Plug-In . SVG Version: 6.00 Build 0)  -->
<svg version="1.1" id="Layer_1" xmlns="http://www.w3.org/2000/svg" xmlns:xlink="http://www.w3.org/1999/xlink" x="0px" y="0px"
	 viewBox="0 0 48 48" enable-background="new 0 0 48 48" xml:space="preserve">
<g>
	<g>
		<path fill="#00473A" d="M37.4,15.8c4.5,0,8.2,3.7,8.2,8.2c0,4.5-3.7,8.2-8.2,8.2c-4.5,0-8.2-3.7-8.2-8.2
			C29.2,19.5,32.9,15.8,37.4,15.8 M37.4,13.4c-5.8,0-10.6,4.7-10.6,10.6c0,5.8,4.7,10.6,10.6,10.6C43.2,34.6,48,29.8,48,24
			C48,18.2,43.2,13.4,37.4,13.4L37.4,13.4z"/>
		<path fill="#00473A" d="M21.2,24c0,5.8-4.7,10.6-10.6,10.6C4.8,34.6,0,29.8,0,24c0-5.8,4.7-10.6,10.5-10.6
			C16.4,13.4,21.2,18.2,21.2,24z"/>
	</g>
</g>
</svg>
