<?xml version="1.0" encoding="utf-8"?>
<!-- Generator: Adobe Illustrator 19.1.0, SVG Export Plug-In . SVG Version: 6.00 Build 0)  -->
<svg version="1.1" id="Layer_1" xmlns="http://www.w3.org/2000/svg" xmlns:xlink="http://www.w3.org/1999/xlink" x="0px" y="0px"
	 viewBox="0 0 48 48" enable-background="new 0 0 48 48" xml:space="preserve">
<g>
	<path fill-rule="evenodd" clip-rule="evenodd" fill="#00483A" d="M11.1,7.7c8.6,0,17.2,0,25.8,0c1.7,0.6,3,1.6,3.4,3.6
		c0,0,0.1,0,0.1,0c0,8.4,0,16.8,0,25.2c0,0-0.1,0-0.1,0c-0.4,2.2-1.8,3.2-3.8,3.7c-8.2,0-16.5,0-24.7,0c-2.1-0.4-3.4-1.6-3.9-3.6
		c0-8.5,0-16.9,0-25.4C8.2,9.4,9.3,8.3,11.1,7.7z M36.6,16.9c0.3-0.8,0.4-3.9,0-4.9c-0.4-1.1-3.4-1.3-5.2-0.9
		c-0.5,0.1-1.1,0.4-1.3,1c-0.7,1.5-0.4,5.1,0.9,5.5C32.9,17.5,35.9,18.6,36.6,16.9z M18,21.2c-1.9,3.9,0.7,8.7,5.3,9.2
		c3.9,0.4,7.4-2.5,7.4-6.4c0-3.8-3.2-6.6-7-6.4C20.8,17.7,18.9,19.3,18,21.2z M11.3,21.6c0,2.4,0,5.1,0,7.5c0,1.6-0.5,6.2,0.4,7.1
		c0.7,0.7,4.2,0.4,6,0.4c4.8,0,7.9,0,12.7,0c1.5,0,5.1,0.5,6-0.4c0.6-0.6,0.4-2.2,0.4-3.4c0-4.2,0-7.1,0-11.4c-0.8-0.2-2,0-2.9-0.1
		C35.5,29,29.6,34.5,23,33.9c-5.9-0.5-10.2-5.8-8.7-12.5c-0.8-0.2-2,0-2.9-0.1C11.3,21.4,11.2,21.5,11.3,21.6z"/>
</g>
</svg>
