<?xml version="1.0" encoding="utf-8"?>
<!-- Generator: Adobe Illustrator 19.1.0, SVG Export Plug-In . SVG Version: 6.00 Build 0)  -->
<svg version="1.1" id="Layer_1" xmlns="http://www.w3.org/2000/svg" xmlns:xlink="http://www.w3.org/1999/xlink" x="0px" y="0px"
	 viewBox="0 0 48 48" enable-background="new 0 0 48 48" xml:space="preserve">
<path fill="#FFFFFF" d="M44.2,27.8H3.8C1.7,27.8,0,26.1,0,24l0,0c0-2.1,1.7-3.8,3.8-3.8h40.5c2.1,0,3.8,1.7,3.8,3.8l0,0
	C48,26.1,46.3,27.8,44.2,27.8z"/>
<path fill="#FFFFFF" d="M44.2,46.7H3.8C1.7,46.7,0,45,0,42.9l0,0c0-2.1,1.7-3.8,3.8-3.8h40.5c2.1,0,3.8,1.7,3.8,3.8l0,0
	C48,45,46.3,46.7,44.2,46.7z"/>
<path fill="#FFFFFF" d="M44.2,8.9H3.8C1.7,8.9,0,7.2,0,5.1l0,0C0,3,1.7,1.2,3.8,1.2h40.5C46.3,1.2,48,3,48,5.1l0,0
	C48,7.2,46.3,8.9,44.2,8.9z"/>
</svg>
