<?xml version="1.0" encoding="utf-8"?>
<!-- Generator: Adobe Illustrator 19.1.0, SVG Export Plug-In . SVG Version: 6.00 Build 0)  -->
<svg version="1.1" id="Layer_1" xmlns="http://www.w3.org/2000/svg" xmlns:xlink="http://www.w3.org/1999/xlink" x="0px" y="0px"
	 viewBox="0 0 396.1 69.5" style="enable-background:new 0 0 396.1 69.5;" xml:space="preserve">
<style type="text/css">
	.st0{fill:#069554;}
	.st1{fill:#004844;}
	.st2{fill:#00473A;}
	.st3{fill:#333333;}
</style>
<g>
	<path class="st0" d="M345.7,18.1h-11.6c-2.5-10.3-11.8-17.9-22.9-17.9c-13,0-23.5,10.6-23.5,23.6c0,2.3,0.3,4.5,0.9,6.6
		c0.2,0.2,0.4,0.5,0.6,0.7c-0.1-0.8,0-1.6,0.1-2c0.7,0.2,1.2,0.9,1.5,1.8c0.3-3.2,1.3-6.4,3.1-8.9c-0.4-0.9-0.8-2.2,0-2.9
		c0.1-0.1,2.1-1.3,2.1-1.3c0.3-0.1,0.3,0.7,0.2,1.5c0.6-0.3,1.5-0.7,1.8-0.6c0.3,0.1,0,0.9-0.3,1.7c0.6,0.3,1.3,0.7,1.4,1
		c0,0.3-0.6,0.6-1.3,0.9c0.4,0.3,0.8,0.7,0.9,0.9c0,0.5-2,0.7-2.7,0.7c-0.2,0-0.4,0-0.7-0.2c-0.1-0.1-0.7-0.5-1.2-0.9
		c-2.5,3.6-3.3,7.8-1.7,12.2c0.7,1.9,1.7,4.1,3,5.7c1.2,1.4,2.9,2.8,4.5,3.7c0.2,0.1,0.2,0.2,0.5,0.3c3.2,1.7,6.9,2.6,10.8,2.6
		c0.1,0,0.1,0,0.2,0v0c0.1,0,0.2,0,0.3,0c0.7,0,1.3-0.1,2-0.1c10.4-1.1,18.8-8.9,20.7-19h11.3V18.1z M309.5,29.9
		c0.2-1.1,0.6-2.1,1.4-2.8c0.7-0.7,1.6-1.2,2.6-1.3c0.2,0.2,0.4,0.5,0.6,0.7c-1,0.2-1.8,0.7-2.5,1.4c-0.7,0.7-1.1,1.6-1.3,2.6
		C310,30.3,309.7,30.1,309.5,29.9 M312.1,31.3c-0.3-0.1-0.6-0.2-0.9-0.3c0.2-0.9,0.5-1.7,1.1-2.4c0.6-0.6,1.4-1,2.3-1.2
		c0.2,0.3,0.3,0.6,0.4,0.9c-0.7,0.2-1.3,0.6-1.8,1.1C312.6,29.9,312.3,30.6,312.1,31.3 M315,31.3c-0.6,0.2-1.3,0.2-1.9,0.2
		c0.2-0.5,0.4-0.9,0.7-1.3c0.3-0.4,0.8-0.6,1.2-0.8C315.1,30,315.1,30.7,315,31.3 M311.8,25.3c-0.6,0.3-1.2,0.7-1.7,1.2
		c-0.6,0.6-1.1,1.4-1.4,2.3c-0.4,1.9-1.1,3.7-3.1,4c-1.7,0.2-2-1.1-1.4-2.4c0.2-0.3,0.4-0.8,0.6-1.2c-1.2,1.1-2.6,1.9-4.2,1.2
		c-1.5-0.7-1.1-2,0.1-2.8c1-0.7,3.2-1.8,5-2.7c-0.1,0-0.1-0.1-0.2-0.2c-0.2-0.2-0.3-0.4-0.4-0.7c-0.1-0.2-0.1-0.4-0.1-0.6
		c-0.1,0-0.2,0-0.2-0.1c-0.2-0.2-0.2-0.5,0.1-0.8c0,0,0,0,0,0c0,0,0,0,0,0c0,0,0,0,0,0c-0.2-0.2-0.5-0.3-0.8-0.3
		c-0.3,0-0.6,0.1-0.8,0.3c-0.1,0.1-0.1,0.2-0.2,0.3c-0.1,0.3-0.1,0.6,0.1,0.8c0,0,0,0.1,0,0.1c0,0,0,0-0.1,0.1c0,0,0,0-0.1,0
		c0,0,0,0-0.1,0c0,0,0,0,0,0c0,0,0,0,0,0c0,0,0,0,0-0.1c0,0,0,0,0,0c0,0,0,0,0,0c-0.1-0.2-0.2-0.3-0.2-0.5c0-0.3,0.1-0.6,0.3-0.8
		c0.1-0.1,0.2-0.1,0.3-0.2c0.2-0.1,0.5-0.2,0.8-0.2c0.4,0,0.8,0.1,1.1,0.4c0,0,0.1,0,0.1,0c0,0,0,0,0,0c0.1,0,0.2,0,0.3,0
		c0,0,0.1-0.1,0.1-0.1c0-0.1,0-0.2,0.1-0.4c0,0,0-0.1,0-0.1c0,0,0,0,0-0.1c0,0-0.1-0.1-0.1-0.1c0,0,0,0-0.1-0.1
		c-0.2-0.3-0.3-0.7-0.3-1c0,0,0,0,0,0c0-0.1,0-0.2,0-0.2c0-0.1,0.1-0.1,0.1-0.2c0,0,0,0,0,0c0-0.1,0.1-0.1,0.1-0.2c0,0,0,0,0,0
		c0,0,0,0,0,0c0.1-0.1,0.2-0.2,0.4-0.3c0.2-0.1,0.3-0.1,0.5-0.1c0.2,0,0.4,0.1,0.6,0.2c0,0,0,0,0,0c0,0,0,0,0,0.1c0,0,0,0,0,0.1l0,0
		c0,0,0,0-0.1,0c0,0-0.1,0-0.1,0c-0.3-0.3-0.8-0.2-1.1,0.1c-0.4,0.5-0.4,1.2,0.1,1.7c0.3-0.2,0.6-0.2,0.7,0c0,0,0.1,0.1,0.1,0.1
		c0.1,0,0.3,0,0.4,0c0.4,0,0.8,0.2,1.1,0.5c0.1,0.1,0.2,0.2,0.2,0.3c0.8-1.8,1.9-4,2.6-5.1c0.7-1.2,2-1.7,2.8-0.2
		c0.8,1.6,0,3.1-1.1,4.4c0.5-0.3,1-0.6,1.4-0.8c1.3-0.7,2.6-0.4,2.4,1.3C316.2,24.2,313.8,24.9,311.8,25.3"/>
	<path class="st0" d="M355.2,35.1c0.9,0.1,1.6-0.1,1.6-0.1c1.4-0.8,3.2,0,3.2,0c0.4,0.2,1.7,0.3,1.7,0.3c1,0,2.2,0.3,2.2,0.3
		c0.4-0.1,1.1,0.1,1.1,0.1c0.6-0.5,0.6,0.2,0.6,0.2c0.7,0.3,1.1,0.7,1.1,0.7c0.3,0.2,0.1,0.4,0.1,0.4c-0.2,0.1,1.1,1.2,1.1,1.2
		c0.4,0.2-0.2,0.6-0.2,0.6c-0.4,0.6-1.3,0.5-1.3,0.5c-0.3-0.1-2.1,0.1-2.1,0.1c-0.6,0-1.7,0.6-1.7,0.6c0.5,0.9,0,3.5,1.3,4.8
		c0.2,0.2,0.3,0.5,0.5,0.9c2.5,0.9,5.3,1.5,8.1,1.5c0.1,0,0.1,0,0.2,0v0c0.1,0,0.2,0,0.3,0c0.7,0,1.3-0.1,2-0.1
		c3-0.3,5.8-1.2,8.4-2.5c2.8-2.8,4-6.4,3.8-10.4c-0.6,0.1-1.4,0.2-1.5,0.2c-0.2,0-0.5-0.1-0.6-0.2c-0.6-0.4-2.2-1.6-2-2
		c0.1-0.2,0.7-0.3,1.2-0.4c-0.4-0.6-0.8-1.2-0.6-1.4c0.2-0.2,1.1-0.2,1.7-0.2c0.1-0.8,0.3-1.6,0.6-1.6c0.3,0,0.9,0.9,1.2,1.4
		c0.3-0.7,0.8-1.5,1-1.2c0,0,1.1,2,1.2,2.2c0.3,1.1-0.7,1.9-1.5,2.5c0.5,2.8-0.1,6.6-2.3,9.8c6.4-4.2,10.6-11.5,10.6-19.7
		c0-13-10.5-23.6-23.6-23.6c-13,0-23.5,10.6-23.5,23.6c0,4,1,7.8,2.7,11.1C353.5,34.9,355.2,35.1,355.2,35.1 M368.6,15.2
		c1.8,0.9,4.4,2.9,6.3,5c0-2.7,0.8-4.5,1.2-5.5c0.2-0.5,0.4-0.8,0.9,0c0.7,1.3,1.3,2.9,1.8,5.1c-0.7,0.1-1.4,0.3-2.1,0.7
		c1.1-0.4,2.5-0.6,3.7-0.2c1.6,0.5,2.1,2,1.7,3.6c-0.1,0.3-0.1,0.6,0.1,0.9c0.6,0.7,1.1,1.9,1.2,2.6c-0.5-0.8-1.1-1.6-1.7-2.3
		c-0.2-0.2-0.5-0.3-0.7-0.4c-0.6-0.2-1.3-0.4-1.9-0.4c-0.6,0-0.7,0.3-0.9,0.8c-0.3,0.7-0.9,1.7-2.2,2.4c-1,0.5-2.9,0.5-3.7,0.6
		c-1,0.1-1.8,0.8-2.4,1.4c-0.1,0.1-0.2,0-0.2-0.1c0.3-1.5,1.3-3.4,2.3-4.8c-3-3-4-7.4-4.1-9.1C367.6,15.1,367.7,14.8,368.6,15.2"/>
	<path class="st1" d="M161.5,33.3c-0.8,0.2-1.6,1.4-1.7,2.3c-0.1,2,1.4,3.4,3.1,5.2c0.3,0.3,0.5,0.5,0.8,0.8v-4.6
		c-0.1,0-0.2,0.1-0.3,0.1c-0.9,0.2-1.8-0.1-2-0.8c-0.1-0.5,0.1-1,0.6-1.3c0.5-0.3,1.3,0,1.6,0.6c0,0,0.1,0,0.2-0.1v-1
		C163.4,33.4,162.3,33.1,161.5,33.3 M157.6,30.3c5.4-2.9,5.5-12.5,5.5-13c0-13.2-10.5-17.2-21.4-17.2c-23.4,0.8-22.8,22.4-22.8,22.4
		h16.5c0.1-1.9,1.7-3.5,3.6-3.5c2,0,3.7,1.6,3.7,3.6c0,2.1-1.3,3.1-3.7,3.5c-1.4,0.2-2.2,0.4-4,0.8c-7.5,1.9-14,6.3-15.4,20.5H146
		c-0.7-0.7-6.3-6.7-0.5-9.4c0,0,1.1-0.5,2.2-0.3c0.8,0.2,1.6,1,1.8,1.7c0.1,0.7-0.2,1.8-1,1.9c-0.5,0.1-0.9-0.1-1-0.2
		c-0.3-0.2-0.4-0.6-0.2-1c0.1-0.2,0.7-0.4,1,0c0,0,0-0.7-0.6-0.9c-1-0.3-2.5,0.9-2.1,2.6c0.2,0.9,1,1.6,2.1,1.6
		c1.6,0,2.6-1.9,3.1-2.4c0.3-0.3,0.8-0.6,1.5-0.7c0,0,1.6-0.2,2.2,1.4c0,0,0.7,2-1.1,2.1c0,0-1.4,0-1-1.1c0,0,0.3-0.7,1.2-0.2
		c0,0-0.9-1.6-2-0.1c0,0-0.5,0.8-0.3,1.7c0.2,0.8,1.4,2.3,3.2,2c0.7-0.1,3-0.3,2.8-2.4c-0.1-1.1-2.6-5.9-0.4-9.2
		c1.1-1.7,2.4-2.1,2.7-2.2c0.6-0.2,2.2-0.9,4,0.4c0.1,0,0.1,0.1,0.1,0.1v-2.4H157.6z M135.2,33.9c0.9-4,4.2-2.7,4.2-2.7
		s0.5,3.5-3.7,3.4c0,0,0.3,0.9-0.2,1.5c0,0-0.7-0.8-0.6-1.3l0,0c-0.7,0-1.2-1-1.2-1C134.5,33.4,135.2,33.9,135.2,33.9 M135.3,40.5
		c0,0,0.2,1.2-0.6,1.8c0,0-0.8-1.2-0.5-1.8l0,0c-0.9-0.1-1.3-1.5-1.3-1.5c1-0.3,1.8,0.5,1.8,0.5c2-4.9,5.9-2.6,5.9-2.6
		S140.5,41.5,135.3,40.5 M146.1,32.5c0,0,0.3,0.9-0.2,1.5c0,0-0.7-0.8-0.6-1.3l0,0c-0.7,0-1.2-1-1.2-1c0.7-0.3,1.5,0.2,1.5,0.2
		c0.9-4,4.2-2.7,4.2-2.7S150.2,32.6,146.1,32.5"/>
	<path class="st0" d="M202.6,19.9c-0.2,0.1-0.6,0.1-0.7,0.1c-0.1,0-0.3-0.5-0.3-0.5l-0.2-0.2c0,0-0.4,0.2-0.4-0.2
		c0-0.2,0.1-0.5,0-0.9c-0.1-0.3-0.7-0.4-0.8-1.1c-0.1-0.8,0.4-1.5,0.9-1.9c0.1,0,0.1-0.1,0.2-0.1C197.9,6.4,189.4,0,179.3,0
		c-13,0-23.6,10.6-23.6,23.6c0,3.5,0.7,6.7,2.1,9.7c0.9-0.8,1.6-1.1,1.8-1.2c0.6-0.2,2.2-0.9,4,0.4c1.6,1.1,1.4,2.7,1.2,3.2
		c-0.2,0.5-0.4,1-1.4,1.2c-0.9,0.2-1.8-0.1-2-0.8c-0.1-0.5,0.1-1,0.6-1.3c0.5-0.3,1.3,0,1.6,0.6c0,0,0.6-0.2,0.2-1.1
		c-0.4-0.9-1.4-1.2-2.3-1c-0.8,0.2-1.6,1.4-1.7,2.3c-0.1,2,1.4,3.4,3.1,5.2c2.1,2.2,5.8,4.5,9,5.5c0.4,0.1,0.8,0.3,1.2,0.4
		c0.8,0.2,1.6,0.4,2.4,0.5l0.4-7.6l-0.7-8c-0.6-0.2-1.4-0.5-2.9-1.3c-2.4-1.2-3-2.6-3.3-3.5c-0.3-0.9-0.5-3.2,1.3-6
		c1.8-2.8,3.2-5.3,2.8-6.5c-0.4-1.2-1.2-1.7-1.7-1.7c-0.5,0-0.6,0-1.3,0.8c-0.8,0.8-1.2,0.5-1.7,1.1c-0.5,0.6-0.1,2.7-0.1,2.7
		s-1-0.3-1.1-2c0-0.6,0-1.1,0-1.1s-0.4-1.7,0.7-2.8c1.2-1.1,2.5-0.7,2.5-0.7s2.3,0.5,3.4,1.7c1.1,1.2,1.2,2.6,1.1,3.3
		c-0.2,0.9-1.2,2.5-2.9,4.6c-2,2.6-2.1,4.6-1.1,5.8c1,1.3,1.4,0.8,1.4,0.8s0.4-0.4,0.2-1c-0.2-0.7-1.5-2.5-0.2-4.3
		c0,0,1.5-3.8,5.9-3.2c0.4,0.1,0.9,0.2,1.4,0.5c0,0,0.1,0,0.1,0c1,0.2,3.3,1,4.1,4.4c0.1,0.3,0.1,0.7,0.1,1c0.1,0.1,0.2,0.2,0.3,0.3
		c1.6,1.5,1.5,3,1.5,3c0.6,1.3,0.6,2.1,0.6,2.1l0.1,2.3c0,0-0.5-1.2-1.2-1.4c-0.3-0.1-1-0.4-1.5-0.6c0.2,0.9,0.4,1.9,0.4,1.9
		c-1-0.8-1-0.7-1.7-1.4c-0.3-0.2-0.6-0.9-0.8-1.4c-0.5,0.6-1.5,1.6-2.8,2.3c0,0-0.7,0.2-1.6,0.4l1.2,6.3c0,0,0.3,0.2,0.4,0.7
		c0.1,0.5-0.2,0.8-0.2,0.8l0.4,8.2c0,0,0.1,0,0.1,0c4.7,0,9-1.4,12.7-3.7c0-0.4-0.1-1-0.1-1c-0.3-1.7-0.1-3,0-3.5
		c0.1-0.5,0.1-0.9,0.2-1.2c0-0.2-0.3-0.9-0.3-1.2c0-0.3-0.5,1.4-0.6,1.6c-0.1,0.3-0.2,0.7-0.3,0.8c0,0.2,0,0.9,0,1.2
		c0,0.3,0,0.5,0.1,0.6c0.1,0.1,0.1,0.6,0.1,0.8c0,0.2,0.1,1,0,1.1c-0.1,0-0.4-0.1-0.6-0.1c-0.2-0.1-0.3-0.3-0.4-0.5
		c-0.2-0.3-0.1-0.5-0.1-0.6c0-0.1,0-0.2,0-0.4c0-0.2-0.1-1.6-0.1-2.1c0-0.6,0.2-0.8,0.2-1c0.1-0.2,0.2-1,0.2-1.5
		c0.1-0.4,0.3-0.9,0.6-1.2c0,0,1.4-1.2,1.4-1.4c0-0.1,0-0.3-0.3-0.4c-0.2-0.1-1.4,0-2-1.1c-0.4-0.8,0-1.7,0.6-2
		c0.6-0.3,1.6-0.7,2.4-0.2c0.4,0.2,0.5,0.5,0.5,1.1c0,0,0,0.2,0.1,0.2c0.2,0.1,0.3,0.1,0.4,0.2c0.1,0.1,0.1,0.5,0.2,0.6
		c0,0.1,0.1,0.2,0.1,0.3c0,0.1,0,0.2-0.1,0.2c-0.1,0-0.5,0.3-0.6,0.3c-0.1,0-0.1,0.1-0.1,0.2c0.1,0.1,0.1,0.2,0.4,0.3
		c0.3,0,1,0.1,1.2,0.1c0.2,0,0.2,0,0.3,0.1c0.1,0,1.5,1.5,1.7,1.5c0.2,0,0.8-0.6,1.1-0.9c0,0,0,0,0-0.1c-0.1-0.3-0.1-1.1,0-1.3
		c0.1-0.2,0.6-0.7,0.6-0.7s-0.2,0-0.2-0.3c0-0.2,0.1-0.2,0.3-2c0.2-1.8,0.2-3.2,0.7-6.2c0.5-2.9,0.7-2.9,1-3.1
		c0.5-0.3,1.4-0.5,1.8-0.6C202.6,20.1,202.6,20,202.6,19.9"/>
	<path class="st0" d="M176.9,31.5c-0.2,0-0.4,0-0.7,0c-0.2,0-0.4,0-0.6,0l0.6,6.4c0,0,0.3,0.2,0.3,0.7c0,0.5-0.3,0.8-0.3,0.8
		l-0.3,7.8c0.9,0.1,1.7,0.2,2.6,0.2l-0.3-8.1L176.9,31.5z"/>
	<path class="st0" d="M199.1,34.7c-0.1,0.1-1.3,1.6-1.4,1.7c-0.2,0.2-0.2,0.1-0.4,0c-0.2-0.1-1.5-1-1.8-1.1c0,0-0.2-0.1-0.3,0
		c-0.2,0.2,0.2,1.4,0.3,2c0.1,0.6,0.2,2.4,0.2,2.4c0,0.3,0.1,0.6,0.1,0.8c1.5-1.5,2.8-3.1,3.8-4.9l-0.1-1.2L199.1,34.7z"/>
	<path class="st2" d="M295.4,43.9c-1.5-2.1-3.6-5.7-4.2-9.5c-0.7,0.6-3.4,0.5-4,0.1c0.1-0.2,0.3-0.4,0.6-0.5
		c-0.9-0.2-1.8-0.6-2.1-0.9c0.3-0.3,0.6-0.5,1-0.6c-1-0.2-1.8-0.6-1.8-0.9c0.2-0.4,0.5-0.6,0.8-0.7c-1.1-0.5-2.2-1.4-1.9-1.8
		c0.3-0.4,1.4-0.1,2.4,0.5c-0.3-0.5-0.3-1,0-1.3c0.6,0.1,2.1,1.5,3.1,2.9c-0.1-0.8,0-1.6,0.1-2c0.7,0.2,1.2,0.9,1.5,1.8
		c0.3-3.2,1.3-6.4,3.1-8.9c-0.4-0.9-0.8-2.2,0-2.9c0.1-0.1,1.2-0.8,1.8-1.1c0-0.4,0-0.7,0-0.7c0-13.1-10.5-17.1-21.3-17.1
		c-23.3,0.8-22.7,22.3-22.7,22.3h16.4c0.1-1.9,1.7-3.5,3.6-3.5c2,0,3.7,1.6,3.7,3.6c0,2-1.3,3.1-3.7,3.5c-1.4,0.2-2.2,0.4-4,0.8
		c-7.5,1.9-13.9,6.3-15.3,20.5h18.9h25l0-2.4C296.1,44.6,295.7,44.3,295.4,43.9"/>
	<path class="st2" d="M347,47.5c-1-0.1-0.7-1.5-0.7-1.5c-0.2,0.2-0.7,0.6-0.7,0.6c-0.3,0.3,0.1,0.6,0.1,0.6c0.1,0.1,0.2,0.2,0.2,0.2
		L347,47.5C347,47.5,347,47.5,347,47.5"/>
	<path class="st2" d="M343.4,47.5c-0.5-0.6-0.9-1.1-0.9-1.1c-0.5-0.4,1.6-2.7,1.6-2.7c0.3-0.4,0-0.8,0-0.8c-0.3-0.8-0.5-2.1-0.5-2.1
		c-0.3-2.3,0.9-3.6,0.9-3.6c1.3-1.6,4.3-2.4,4.3-2.4c1.4-0.2,6.5,0.3,6.5,0.3c0.9,0.1,1.6-0.1,1.6-0.1c1.4-0.8,3.2,0,3.2,0
		c0.4,0.2,1.7,0.3,1.7,0.3c0.3,0,0.7,0,1,0.1v-0.2v-1v-1.6v-1.9v-0.5h-6.1c5.4-2.9,5.5-12.5,5.5-13C362,4,351.5,0,340.6,0
		c-23.4,0.8-22.8,22.4-22.8,22.4h16.5c0.1-1.9,1.7-3.5,3.6-3.5c2,0,3.7,1.6,3.7,3.6c0,2.1-1.3,3.1-3.7,3.5c-1.4,0.2-2.2,0.4-4,0.8
		c-7.5,1.9-14,6.3-15.4,20.6h19v0H343.4z"/>
	<path class="st2" d="M350.3,47.2c0,0.1-0.1,0.2-0.3,0.3h6c-0.3-0.3-0.4-0.6-0.4-0.6c0-0.5-0.5-1.5-0.5-1.5c-1-1-0.2-2.9-0.2-2.9
		c0.1-0.4-1,0.1-1,0.1c-0.6,0.3-2,0.2-2,0.2c-0.9-0.2-2.3,0.4-2.3,0.4c-0.2,0.1-0.4,2.2-0.4,2.2c-0.1,0.5,0.4,0.8,0.4,0.8
		c0.5,0,0.7,0.4,0.7,0.4C350.6,47.4,350.3,47.2,350.3,47.2"/>
	<path class="st2" d="M362.7,46.4c-0.3-0.1-0.4-0.1-0.6-0.2c-0.2-0.1-0.4-0.4-0.6-0.6c-1-1.1-2.3-3.6-2.3-3.6
		c-0.2,0.8-0.6,1.4-0.6,1.4c-0.9,1-1,2.8-1,2.8c0,0.3,0.8,0.3,0.8,0.3c0.6,0.1,0.6,0.6,0.6,0.6l0.1,0.3c0,0.1,0,0.1,0,0.2h3.7
		L362.7,46.4C362.7,46.4,362.7,46.4,362.7,46.4"/>
	<path class="st0" d="M217.4,0h-2.3v17.2h2.3c0.1,0,0.2,0,0.3,0c0.1-0.8,0.4-1.7,1.5-2.3c0.9-0.6,1.8-0.3,1.8-0.3s-0.3-0.8,0.4-1.2
		c0.6-0.4,1.2,0,1.2,0s-0.4-0.8,0.4-1.5c0.8-0.8,1.6-0.5,1.6-0.5c1.1-0.1,1.9,1.6,1.9,1.6s0.8,0.3,1.2,0.9c0.4,0.6,0.2,1.3,0.2,1.5
		c0.1,0.1,0.4,0,0.4,0s1.2-0.1,1.6,0.7c0.4,0.8,0.1,1.4,0.1,1.4l0.5,0.1c0,0,1.2,0.2,1.8,1.2c0.7,1.2-0.1,2.2-0.2,2.3
		c0,0.1,0.1,0.6-0.3,0.8c-0.3,0.2-0.9,0-0.9,0l0.2,0.5c0,0,1.7,0.1,2.4,1.3c1.2,2,0.2,3.3-0.2,3.7c-0.8,0.9-1.7,1.4-2.9,1.5
		c-1.3,0.1-1.9-0.9-1.9-0.9s-0.1,0.6-1.4,1.4c-0.2,0.1-0.4,0.2-0.7,0.1c-0.2,0.9-1.2,3.2-1.7,4.4c0,1.2-0.1,2.9-0.2,5.2
		c-0.1,2.3,0,1.9,0,2.4c0,0.6,0,1.2,0.1,1.7c0,0.5-0.1,1.1,0,1.3c0.1,0.2,0,1.2,0,1.5c0,0.3,0.1,0.8,0.2,1.3h16.7V23.8
		C241.1,10.7,230.4,0,217.4,0"/>
	<path class="st0" d="M224.4,28.7c0,0-0.2,0.1-0.4,0.1v3.3c0.5-0.9,1.4-2.7,1.4-2.7C224.6,29.3,224.4,28.7,224.4,28.7"/>
	<path class="st2" d="M221.5,45.8c0-0.8,0-1.3,0-1.6v-2.4c0-0.6,0-1.5-0.1-2.1c0-0.6-0.1-1.9-0.1-2.2c0.1-0.4,0-2,0-2.8
		c0-0.8,0-1.5-0.1-1.9c0-0.1,0-0.3,0-0.6c-0.6-1-1.5-2.5-2.4-4c-0.2,0-0.4,0.3-0.4,0.3s-0.6,1.1-1.4,0.9c-0.8-0.2-1.1-1.1-1.1-1.4
		c0-0.3-0.3,0-0.3,0s-0.5,0.6-1,0.5c-0.5-0.1-0.5-0.9-0.5-1.2c0-0.2-0.3-0.6-0.3-0.6s-0.3-0.6-0.1-1.3c0.3-0.7,0.8-0.6,0.8-0.6
		s-0.1-0.6,0.2-0.9c0.3-0.3,1-0.2,1-0.2s0.2-0.6,0.7-0.6c0.5,0,1.1,0.8,1.1,0.8s0.1-0.6-0.3-0.7c-1.6-0.4-1.6-1.2-1.6-1.2
		s0-0.4-0.1-0.6c-0.1-0.3-0.3-0.4-0.3-0.9c0-0.6,0.4-1,0.4-1l0.5-0.6c0,0,0.4-0.5,0.9-0.5s0.6,0.3,0.6,0.3s-0.7-2.4,1.4-3.6
		c0.2-0.1,0.5-0.2,0.7-0.3C216.3,6.1,207.8,0,197.9,0h-2.3v17.1h2.3c0.9,0,1.7,0.2,2.5,0.5c-0.1-0.1-0.1-0.3-0.1-0.4
		c-0.1-0.8,0.4-1.5,0.9-1.9c0.4-0.3,1-0.5,1-0.5c1.3-0.4,2.3,0.4,2.6,1c0.3,0.6,0.1,1.9,0,2.2c-0.2,0.7,0.3,1.5,0.3,1.5
		s2.1,0.9,2.8,1.3c0.3,0.2,0.6,2.1,0.6,2.9c0,0.6,0,2.6,0,2.9c0,0.2,0.1,3.9,0,4.1c-0.1,0.4-0.2,0.7-0.3,0.9
		c-0.1,0.3-0.4,0.4-0.5,0.6c-0.1,0.3,0.1,1.2,0.1,1.2s0,0.8-0.1,1.1c-0.1,0.3-0.4,0.7-0.4,0.7l0.4,12.1h14
		C221.5,46.7,221.5,46.2,221.5,45.8"/>
	<path class="st2" d="M221.6,30.5v-0.6c0,0,0-0.1,0-0.1c-0.1-0.2,0-0.4,0-0.6v-1.1c-0.2,0.1-0.3,0.2-0.5,0.3
		c-0.6,0.3-0.7,0.3-1.1,0.1c0.7,1.1,1.2,1.9,1.6,2.4C221.5,30.8,221.6,30.7,221.6,30.5"/>
	<path class="st2" d="M252.4,25h-2.9h-3.6h-2.7v4.1l0,0c0.1,0.8,0.7,1.5,1.5,1.5l0,0h0.1h6.5h2.7v-4C254,25.7,253.3,25,252.4,25"/>
	<path class="st0" d="M125.6,62.7c0,1.1-0.5,1.7-1.7,1.7c-1.2,0-1.7-0.5-1.7-1.7v-6.3h-2.4V62c0,1,0.1,2,0.6,2.8
		c0.8,1.1,2.2,1.6,3.5,1.6c1.2,0,2.3-0.4,3.1-1.4c0.7-0.9,0.8-1.9,0.8-3v-5.6h-2.1V62.7z"/>
	<path class="st0" d="M133.8,58.7c-0.4,0-1.2,0.2-1.7,0.7v-0.6h-2.2v7.4h2.3v-5.4c0.3-0.2,1-0.4,1.4-0.4c0.6,0,0.9,0.5,0.9,1v4.8
		h2.3v-4.7C136.6,59.8,135.6,58.7,133.8,58.7"/>
	<rect x="138.7" y="56.4" class="st0" width="2.3" height="1.8"/>
	<rect x="138.7" y="58.9" class="st0" width="2.3" height="7.4"/>
	<path class="st0" d="M146,64.6c-0.4,0-0.8-0.2-0.8-0.7v-3.2h1.8v-1.8h-1.8v-1.6h-2.3v1.6v1.8v3.1c0,0.8,0.2,1.5,0.8,2
		c0.5,0.4,1.3,0.5,2,0.6c0.6,0,1.2-0.1,1.8-0.3v-1.8h-0.3C146.9,64.4,146.5,64.6,146,64.6"/>
	<path class="st0" d="M151.9,58.7c-1.1,0-2.4,0.5-3,1.4c-0.5,0.8-0.7,1.7-0.7,2.5c0,1,0.3,1.9,0.9,2.6c0.8,0.8,2.2,1.2,3.3,1.2
		c1.2,0,1.9-0.3,2.7-0.5v-1.7h-0.3c-0.4,0.3-1.4,0.6-2,0.6c-1,0-2.1-0.4-2.3-1.5h4.9c0-1.1,0-2.1-0.5-3
		C154.3,59.2,153,58.7,151.9,58.7 M150.5,61.9c0.1-1,0.8-1.5,1.5-1.5c0.6,0,1.1,0.5,1.2,1.5H150.5z"/>
	<path class="st0" d="M161.3,59c-0.3-0.2-0.9-0.3-1.2-0.3c-0.8,0-1.8,0.3-2.4,0.9c-0.8,0.7-1.1,1.8-1.1,2.9c0,1,0.2,2,0.9,2.8
		c0.7,0.8,1.9,1.1,2.9,1.1h0.9c1.2,0,2.2-1,2.2-2.2v-8.3h-2.3V59z M161.3,64.1c0,0.3-0.2,0.5-0.5,0.5h-0.2c-0.4,0-0.9-0.1-1.2-0.5
		c-0.3-0.4-0.4-1.2-0.4-1.7c0-0.6,0.1-1.3,0.6-1.7c0.5-0.4,1.2-0.3,1.8-0.1V64.1z"/>
	<path class="st0" d="M175,62.2l-2.9-5c-0.3-0.6-1-0.9-1.7-0.9c-0.8,0-1.6,0.6-1.6,1.5v8.5h2.1v-6.1l3.6,6.1h2.6v-9.9H175V62.2z"/>
	<path class="st0" d="M182,58.7c-0.8,0-1.6,0.2-2.4,0.4v1.7h0.3c0.6-0.3,1.3-0.5,1.9-0.5c0.7,0,1.6,0.4,1.6,0.9
		c-0.7,0.1-1.5,0.2-2.1,0.3c-1.3,0.2-2.2,1-2.3,2.3c0,1.5,1.2,2.5,2.6,2.5c0.6,0,1.3-0.2,1.8-0.7v0.5h2.2v-4.9
		C185.6,59.4,183.9,58.7,182,58.7 M183.4,64.3c-0.4,0.3-0.9,0.5-1.3,0.5c-0.4,0-0.8-0.2-0.8-0.8c0-0.6,0.4-0.8,0.8-0.9l1.3-0.2V64.3
		z"/>
	<path class="st0" d="M190.6,64.6c-0.4,0-0.8-0.2-0.8-0.7v-3.2h1.8v-1.8h-1.8v-1.6h-2.3v1.6v1.8v3.1c0,0.8,0.2,1.5,0.8,2
		c0.5,0.4,1.3,0.5,2,0.6c0.6,0,1.2-0.1,1.8-0.3v-1.8h-0.3C191.5,64.4,191.1,64.6,190.6,64.6"/>
	<rect x="193.4" y="58.9" class="st0" width="2.3" height="7.4"/>
	<rect x="193.4" y="56.4" class="st0" width="2.3" height="1.8"/>
	<path class="st0" d="M201,58.7c-2.2,0-3.7,1.6-3.7,3.8c0,2,1.3,3.9,3.6,3.9c2.4,0,3.8-1.5,3.8-3.9C204.7,60.4,203.3,58.7,201,58.7
		 M200.9,64.7c-1,0-1.3-1.3-1.3-2.2c0-0.8,0.3-2,1.4-2c1,0,1.4,1.1,1.4,2C202.4,63.4,202.1,64.7,200.9,64.7"/>
	<path class="st0" d="M210.2,58.7c-0.4,0-1.2,0.2-1.7,0.7v-0.6h-2.2v7.4h2.3v-5.4c0.3-0.2,1-0.4,1.4-0.4c0.6,0,0.9,0.5,0.9,1v4.8
		h2.3v-4.7C213,59.8,212,58.7,210.2,58.7"/>
	<path class="st2" d="M293.7,58.7c-0.4,0-1.2,0.2-1.7,0.7v-0.6h-2.2v7.4h2.3v-5.4c0.3-0.2,1-0.4,1.4-0.4c0.6,0,0.9,0.5,0.9,1v4.8
		h2.3v-4.7C296.5,59.8,295.4,58.7,293.7,58.7"/>
	<path class="st0" d="M219.4,62c-0.6-0.3-1.3-0.5-1.9-0.8c-0.3-0.1-0.7-0.3-0.7-0.5c0-0.4,0.9-0.4,1.1-0.4c0.5,0,1.3,0.2,1.8,0.5
		h0.3v-1.7c-0.8-0.2-1.6-0.4-2.5-0.4c-0.5,0-1.1,0.1-1.6,0.3c-0.7,0.4-1.2,1.1-1.2,1.9c0,0.9,0.3,1.6,1,2c0.6,0.4,1.5,0.6,2.2,0.8
		c0.4,0.1,0.6,0.3,0.6,0.5c0,0.4-1.3,0.5-1.6,0.5c-0.6,0-1.5-0.2-2.1-0.5h-0.3V66c0.8,0.3,1.6,0.4,2.4,0.4c0.8,0,1.8-0.2,2.5-0.6
		c0.7-0.5,1-1.1,1.1-1.9C220.6,63.1,220.2,62.4,219.4,62"/>
	<path class="st2" d="M231,56.4h-1.5c-1.3,0-2.3,1-2.3,2.3v7.6h3.9c3.3,0,4.8-1.9,4.9-5C235.8,57.9,234.2,56.4,231,56.4 M230.9,64.1
		h-1.3v-5.5c0-0.1,0.1-0.2,0.2-0.2h1.2c1.9,0,2.4,1.1,2.4,2.7C233.4,63.2,232.9,64.1,230.9,64.1"/>
	<path class="st2" d="M240.9,58.7c-1.1,0-2.4,0.5-3,1.4c-0.5,0.8-0.7,1.7-0.7,2.5c0,1,0.3,1.9,0.9,2.6c0.8,0.8,2.2,1.2,3.3,1.2
		c1.2,0,1.9-0.3,2.7-0.5v-1.7h-0.3c-0.4,0.3-1.4,0.6-2,0.6c-1,0-2.1-0.4-2.3-1.5h4.9c0-1.1,0-2.1-0.5-3
		C243.3,59.2,242,58.7,240.9,58.7 M239.5,61.9c0.1-1,0.8-1.5,1.5-1.5c0.6,0,1.1,0.5,1.2,1.5H239.5z"/>
	<path class="st2" d="M249.7,64.6c-1.2,0-1.7-1-1.7-2c0-1.2,0.4-2.1,1.7-2.1c0.5,0,1.4,0.2,1.8,0.5h0.3v-1.8
		c-0.8-0.4-1.4-0.5-2.3-0.5c-1.2,0-2.5,0.4-3.2,1.5c-0.5,0.7-0.6,1.6-0.6,2.5c0,0.8,0.2,1.7,0.7,2.4c0.6,0.9,1.9,1.4,3,1.4
		c0.9,0,1.6-0.1,2.4-0.5v-1.7h-0.3C251,64.5,250.3,64.6,249.7,64.6"/>
	<path class="st2" d="M256,58.7c-0.8,0-1.6,0.2-2.4,0.4v1.7h0.3c0.6-0.3,1.3-0.5,1.9-0.5c0.7,0,1.6,0.4,1.6,0.9
		c-0.7,0.1-1.5,0.2-2.1,0.3c-1.3,0.2-2.2,1-2.3,2.3c0,1.5,1.2,2.5,2.6,2.5c0.6,0,1.3-0.2,1.8-0.7v0.5h2.2v-4.9
		C259.5,59.4,257.8,58.7,256,58.7 M257.3,64.3c-0.4,0.3-0.9,0.5-1.3,0.5c-0.4,0-0.8-0.2-0.8-0.8c0-0.6,0.4-0.8,0.8-0.9l1.3-0.2V64.3
		z"/>
	<path class="st2" d="M265.8,59c-0.3-0.2-0.9-0.3-1.2-0.3c-0.8,0-1.8,0.3-2.4,0.9c-0.8,0.7-1.1,1.8-1.1,2.9c0,1,0.2,2,0.9,2.8
		c0.7,0.8,1.9,1.1,2.9,1.1h0.9c1.2,0,2.2-1,2.2-2.2v-8.3h-2.3V59z M265.8,64.1c0,0.3-0.2,0.5-0.5,0.5H265c-0.4,0-0.9-0.1-1.2-0.5
		c-0.3-0.4-0.4-1.2-0.4-1.7c0-0.6,0.1-1.3,0.6-1.7c0.5-0.4,1.2-0.3,1.8-0.1V64.1z"/>
	<path class="st2" d="M273.3,58.7c-1.1,0-2.4,0.5-3,1.4c-0.5,0.8-0.7,1.7-0.7,2.5c0,1,0.3,1.9,0.9,2.6c0.8,0.8,2.2,1.2,3.3,1.2
		c1.2,0,1.9-0.3,2.7-0.5v-1.7h-0.3c-0.4,0.3-1.4,0.6-2,0.6c-1,0-2.1-0.4-2.3-1.5h4.9c0-1.1,0-2.1-0.5-3
		C275.7,59.2,274.5,58.7,273.3,58.7 M271.9,61.9c0.1-1,0.8-1.5,1.5-1.5c0.6,0,1.1,0.5,1.2,1.5H271.9z"/>
	<path class="st2" d="M284.8,58.7c-2.2,0-3.7,1.6-3.7,3.8c0,2,1.3,3.9,3.6,3.9c2.4,0,3.8-1.5,3.8-3.9
		C288.5,60.4,287.1,58.7,284.8,58.7 M284.7,64.7c-1,0-1.3-1.3-1.3-2.2c0-0.8,0.3-2,1.4-2c1,0,1.4,1.1,1.4,2
		C286.3,63.4,285.9,64.7,284.7,64.7"/>
	<path class="st2" d="M308.2,61c0.9-0.2,1.6-1,1.6-1.9c0-0.8-0.4-1.5-1.1-2c-0.7-0.6-1.8-0.7-2.7-0.7h-1.6c-1.4,0-2.3,1.1-2.3,2.4
		v7.5h3.9c1,0,2.3-0.1,3.1-0.8c0.7-0.6,1-1.3,1-2.2C310.2,62,309.3,61.2,308.2,61 M304.6,58.6c0-0.1,0.1-0.3,0.2-0.3h1
		c0.8,0,1.5,0.1,1.5,0.9c0,0.9-0.9,0.8-1.5,0.8h-1.2V58.6z M306.1,64.2h-1.6V62h1.4c0.7,0,1.7,0,1.7,1.1
		C307.7,64.1,306.9,64.2,306.1,64.2"/>
	<rect x="311.9" y="58.9" class="st2" width="2.3" height="7.4"/>
	<rect x="311.9" y="56.4" class="st2" width="2.3" height="1.8"/>
	<path class="st2" d="M319.5,58.7c-2.2,0-3.7,1.6-3.7,3.8c0,2,1.3,3.9,3.6,3.9c2.4,0,3.8-1.5,3.8-3.9
		C323.2,60.4,321.8,58.7,319.5,58.7 M319.4,64.7c-1,0-1.3-1.3-1.3-2.2c0-0.8,0.3-2,1.4-2c1,0,1.4,1.1,1.4,2
		C320.9,63.4,320.6,64.7,319.4,64.7"/>
	<path class="st2" d="M329,59c-0.3-0.2-0.9-0.3-1.2-0.3c-0.8,0-1.8,0.3-2.4,0.9c-0.8,0.7-1.1,1.8-1.1,2.9c0,1,0.2,2,0.9,2.8
		c0.7,0.8,1.9,1.1,2.9,1.1h0.9c1.2,0,2.2-1,2.2-2.2v-8.3H329V59z M329,64.1c0,0.3-0.2,0.5-0.5,0.5h-0.2c-0.4,0-0.9-0.1-1.2-0.5
		c-0.3-0.4-0.4-1.2-0.4-1.7c0-0.6,0.1-1.3,0.6-1.7c0.5-0.4,1.2-0.3,1.8-0.1V64.1z"/>
	<rect x="333.3" y="58.9" class="st2" width="2.3" height="7.4"/>
	<rect x="333.3" y="56.4" class="st2" width="2.3" height="1.8"/>
	<path class="st2" d="M340.6,63.5l-1.6-4.7h-2.4l2.4,6.6c0.3,0.6,0.7,0.8,1.3,0.9c0.6,0,1.2-0.3,1.4-0.9l2.4-6.6h-1.9L340.6,63.5z"
		/>
	<path class="st2" d="M348.3,58.7c-1.1,0-2.4,0.5-3,1.4c-0.5,0.8-0.7,1.7-0.7,2.5c0,1,0.3,1.9,0.9,2.6c0.8,0.8,2.2,1.2,3.3,1.2
		c1.2,0,1.9-0.3,2.7-0.5v-1.7h-0.3c-0.4,0.3-1.4,0.6-2,0.6c-1,0-2.1-0.4-2.3-1.5h4.9c0-1.1,0-2.1-0.5-3
		C350.7,59.2,349.4,58.7,348.3,58.7 M346.9,61.9c0.1-1,0.8-1.5,1.5-1.5c0.6,0,1.1,0.5,1.2,1.5H346.9z"/>
	<path class="st2" d="M355.7,58.9h-2.2v7.4h2.3v-5.1c0.6-0.4,1.3-0.5,2-0.4h0.3v-2.1c-0.8,0-1.7,0.1-2.3,0.7V58.9z"/>
	<path class="st2" d="M363.4,62c-0.6-0.3-1.3-0.5-1.9-0.8c-0.3-0.1-0.7-0.3-0.7-0.5c0-0.4,0.9-0.4,1.1-0.4c0.6,0,1.3,0.2,1.8,0.5
		h0.3v-1.7c-0.8-0.2-1.6-0.4-2.5-0.4c-0.5,0-1.1,0.1-1.6,0.3c-0.7,0.4-1.2,1.1-1.2,1.9c0,0.9,0.3,1.6,1,2c0.6,0.4,1.5,0.6,2.2,0.8
		c0.4,0.1,0.6,0.3,0.6,0.5c0,0.4-1.3,0.5-1.6,0.5c-0.6,0-1.5-0.2-2.1-0.5h-0.3V66c0.8,0.3,1.6,0.4,2.4,0.4c0.8,0,1.8-0.2,2.5-0.6
		c0.6-0.5,1-1.1,1.1-1.9C364.6,63.1,364.2,62.4,363.4,62"/>
	<rect x="366.1" y="56.4" class="st2" width="2.3" height="1.8"/>
	<rect x="366.1" y="58.9" class="st2" width="2.3" height="7.4"/>
	<path class="st2" d="M373.1,64.6c-0.4,0-0.8-0.2-0.8-0.7v-3.2h1.8v-1.8h-1.8v-1.6H370v1.6v1.8v3.1c0,0.8,0.2,1.5,0.8,2
		c0.5,0.4,1.3,0.5,2,0.6c0.6,0,1.2-0.1,1.8-0.3v-1.8h-0.3C374,64.4,373.6,64.6,373.1,64.6"/>
	<path class="st2" d="M380.9,58.9l-1.6,4.5l-1.9-4.5h-2.4l3.3,7.5l-0.3,0.9c-0.2,0.6-0.4,0.6-1.2,0.6h-0.9v1.8h0.9
		c1.3,0,2.4-0.5,3-1.8l3.2-8.9H380.9z"/>
</g>
<g>
	<path class="st3" d="M66.2,56.6c-2.4,0.7-5,0.9-7.3,1.7c4-3.5,3.7-8.9,6.4-13.1c0.8-1.2,1.5-2.4,2.5-3.5c-1.6,3.3-0.9,7.7-2.8,10.9
		c-0.7,1.3-1.7,2.5-2.9,3.5c0.4,0,0.7-0.3,1-0.6c3-3.1,6.9-4,10.2-6.5c1.3-1.1,2.5-2.5,3.1-4C75.8,50.2,70.8,55,66.2,56.6"/>
	<path class="st3" d="M77,35.8c-1.5,2.2-3.2,4.2-4.6,6.4c0.2-1.7,0.4-3.9-0.3-5.5c-1.1-3.5-2.1-7.1-2.5-11l0-1.5
		c0.9,4,4.6,6.7,4.4,11.2c0.1,1.1-0.2,2-0.4,2.9l0.1,0.1l0.2-0.2c0.6-2.2,0.8-4.5,1.7-6.5c1.2-2.9,2.8-5.9,2.2-9.4
		C79.6,26.3,79,31.9,77,35.8"/>
	<path class="st3" d="M74.7,13.3c2.5,3.5,3,9,1.2,13c-0.7,1.7-1.1,3.5-1.4,5.3c-0.1-0.3-0.2-0.8-0.3-1.1c-1-3.9-4.6-6.7-6-10.3
		c-0.5-1.2-0.9-2.4-1.1-3.7c1.6,3,5.4,4.5,6.5,7.8c0.4,0.8,0.4,1.9,0.7,2.8c0.1,0,0.1,0,0.1-0.1c-0.5-3.4-0.3-7,0.1-10.3
		c0-1.8-0.2-3.6-1.2-5C74,12,74.2,12.7,74.7,13.3"/>
	<path class="st3" d="M72.9,12.6c0.7,3-0.3,6,0.3,9.1l0,0c-1.6-3.2-5-4.8-7.3-7.4c-1.4-1.5-1.9-3.4-2.3-5.4c1.3,3.3,5,4.1,7,6.9
		c0.7,0.6,0.9,1.5,1.4,2.3l0.1-0.1c-1.2-2.6-1.6-5.6-2.4-8.4c-0.4-1.2-1.2-2.4-2.4-3.2C70,7,72.4,9.9,72.9,12.6"/>
	<path class="st3" d="M65.6,5.6c2.1,1.9,3,4.3,3.6,6.9l0.3,0.8c-3-2.2-5.7-5.2-7.6-8.3l-2.3-2.4C61.7,3.5,63.9,4,65.6,5.6"/>
	<path class="st3" d="M18.6,3c-2.1,1.9-3.5,4.2-5,6.4c-1.4,1.8-3.1,2.9-4.7,4.4C9.8,12,9.8,9.9,11,8.2C12.7,5.2,15.8,4.1,18.6,3"/>
	<path class="st3" d="M7.4,9.5c1-1.3,2.3-2.2,3.7-2.6c-2.8,2-2.6,5.5-3.5,8.4c-0.3,1.1-0.8,2.1-1,3.2l0.1,0.1
		c0.5-1.3,1.3-2.4,2.3-3.5c2-1.9,4.9-3,5.8-5.8c0,3.9-3.2,6.9-6.1,9.1c-1.2,1.1-2.4,2.4-3.1,3.8c-0.1-1,0.1-2,0.1-3
		C5.3,15.8,5.1,12,7.4,9.5"/>
	<path class="st3" d="M1.7,21C1.7,17.6,3,14.8,5,12.3c0.1,0,0.1-0.1,0.2-0.1C3,15.5,4.8,19.7,4.7,23.5l-0.3,3.9c0,0,0,0.1,0.1,0.1
		c0.1-0.4,0.1-0.9,0.2-1.3c0.5-3.1,3.1-5.4,5.4-7.5c0.5-0.6,0.9-1.1,1.2-1.8c-0.2,1.6-0.7,3.1-1.3,4.6C8.3,25,5,28,4.4,32.1
		C4.1,28.2,1.5,25.2,1.7,21"/>
	<path class="st3" d="M0.1,25.9c0.2-1.1,0.4-2.2,0.9-3.2c-0.9,4.5,2.1,7.8,3.1,11.7c0.4,1.5,0.5,3,1.1,4.4c0.1,0,0.1,0,0.1-0.1
		c-1.4-4.2,0.6-8,2.7-11.3c0.5-0.9,0.8-1.9,1-2.9c0.2,1.9-0.2,4-0.5,6c-0.5,2.5-1.3,4.8-1.9,7.3c-0.4,1.5-0.3,3.2-0.1,4.8l-0.2-0.2
		c-1.5-2.9-4.5-5.2-5.4-8.4C0.1,31.6-0.4,28.6,0.1,25.9"/>
	<path class="st3" d="M0,34.7C0.3,39.5,5.3,42,7.6,46c0.5,0.8,1,1.7,1.7,2.4c-0.1-0.5-0.6-0.9-0.7-1.5c-0.8-1.7-1.1-3.6-0.9-5.7
		C8,38.8,8.9,36.5,8.6,34c2,4.5,1.4,10.2,2.5,15.1c0.3,1.1,0.9,2,1.3,3.1C8.2,49.1,2.5,46.3,0.7,41C-0.1,39.1-0.2,36.8,0,34.7"/>
	<path class="st3" d="M2.5,45.7c2.3,5.4,8.1,5.9,12.1,9.2c0.7,0.7,1.5,1.2,2.3,1.6l0,0c-0.9-0.8-1.9-1.8-2.6-2.9
		c-2.3-3.3-1.5-7.9-3.2-11.4c1.6,1.9,3,3.9,3.9,6.1c1.4,3.6,1.9,7.6,5.2,10.3c-3.5-1.2-7.6-0.9-10.7-3.1C6.1,53.3,3.1,49.7,2.5,45.7
		"/>
	<path class="st3" d="M8.5,55.8c3.7,4.4,9.8,2.9,14.8,4.1c0.7,0.1,1.3,0.4,2.1,0.3c-0.6-0.4-1.4-0.3-2.1-0.7
		c-3.9-1.4-4.5-5.8-6.6-8.7c2.7,1.9,5,4.3,7.5,6.8c1.8,1.6,3.9,2.4,6.2,2.8c-0.5,0.2-1.3,0.1-1.8,0.3c-4.1,1-8.6,2.7-12.9,1.2
		C12.8,61,9.9,58.7,8.5,55.8"/>
	<path class="st3" d="M59.1,66c-4.2,1.6-8.6-0.1-11.9-2.6c-1.3-0.9-2.5-2.1-4.2-2c-0.6,0-1.2,0-1.8,0.2c3.2,1.5,6.1,3.6,8.9,6.3
		c-0.5,0.5-1,1-1.6,1.5c-2.6-2.9-5.5-5.7-8.7-7.3c-0.6,0.1-1.2,0.5-1.8,0.8c-2.6,1.7-5.2,3.9-7.2,6.6L29.1,68c2.7-2.8,5.7-5,8.9-6.5
		c-3.2-1-5.3,1.7-7.7,3.1c-2.8,2-6.9,3-10.3,1.6c-1.8-0.7-3.6-1.8-4.9-3.5c2.7,1.9,6.7,2.1,9.7,0.9c4.1-1.8,8.4-4.2,13.3-3.1
		c0.8,0,1.5,0.8,2.2,0.1c3.7-1,7.8-0.3,11,1.4l3.3,1.3c3,1.2,6.9,0.8,9.5-1.1C62.8,64.1,60.9,65.3,59.1,66"/>
	<path class="st3" d="M63.6,61.5c-4.7,1.8-9.5-0.4-14-1.2l-0.9-0.1v0c2.2-0.5,4.3-1.2,6-2.8c2.5-2.5,4.8-5.1,7.6-7.1
		c-2.1,2.8-2.3,6.7-5.8,8.5c-0.9,0.6-1.9,0.7-2.8,1.1c1.3,0,2.4-0.4,3.6-0.6c4.6-0.7,9.9,0,13.1-4C69.3,58.2,66.3,60.5,63.6,61.5"/>
	<path class="st3" d="M72.1,47.8c-1.9,1.3-3.7,2.4-5.5,3.9v-0.2c2.7-4.7,1.4-11.2,3.1-16.3l0.6-1.7c-0.4,3.2,1,6,0.9,9.2
		c-0.1,2-0.7,3.7-1.7,5.2h0.2c1.3-1.8,2.4-3.8,4-5.5c2.4-2.4,4.9-4.9,5.2-8.3C79.7,39.7,76.6,44.6,72.1,47.8"/>
	<path class="st3" d="M64.7,16.7C60.1,6.6,50,0.2,39.4,0.2c-4.6,0.1-8.9,1.1-12.7,3.1c-6.9,3.4-12.5,10.8-14.4,18.1
		c-3.1,12.3,1.1,24.8,11.3,32c7.4,5.5,19.1,6.5,27.4,2.3c7.3-3.2,13.6-11,15.5-18.7C68.4,30.4,67.6,22.5,64.7,16.7 M66,26.9
		c0.1,0.5,0,1.1,0.2,1.5l-4,0.1c-0.1,0.1-0.2,0.1-0.3,0.1l0.1-0.2c-0.1-3.3-0.9-6.2-2.1-9c0-1.2-1.2-2.1-1.7-3.2
		c-0.9-0.6-1.2-1.8-2.2-2.3c-0.2-0.2-0.3-0.6-0.6-0.6l0.5-0.1c1-1,2-2,2.8-3.1C62.8,14.9,65.4,20.4,66,26.9 M54.6,42.5
		c-0.4-0.3-0.4-1-1-1c-0.2,0-0.3,0.2-0.3,0.3c0,0.1,0,0.2,0,0.3L52,41c0.6-0.3,1-1.2,1.5-1.8c1.2-1.7,1.9-3.6,2.5-5.5
		c0.2,0.2,0.4,0.2,0.6,0c0.2-0.2,0.2-0.5,0.1-0.7l-0.5-0.5c0.1-0.9,0.3-1.7,0.2-2.6l0.3,0.1c1.3,0,2.6,0.1,3.9-0.1l-0.2,0.2
		c-0.3,5.2-2.1,9.9-5.6,13.8C55,43.5,54.5,43.1,54.6,42.5 M51.3,46.7c-0.7-0.7,0.5-1.3,0.7-1.9c-0.1-0.7-0.9-1.1-1.4-1.2
		c-0.3-0.2-0.2-0.5-0.2-0.7c0.3-0.3,0.5-0.5,0.6-0.8l0.1,0.3l1.7,1.8c0,0.4,0.1,0.8,0.5,1c0.2,0.1,0.4-0.1,0.6,0h-0.1
		c-0.7,0.8-1.7,1.5-2.5,2.2l-0.2,0.3C51,47.2,51.5,47,51.3,46.7 M43.5,24.3c-0.2,0.1-0.5,0.2-0.7,0.1c-0.2-0.3-0.5-0.6-0.9-0.7
		c-0.3,0.1-0.5,0.4-0.8,0.2c0.5-0.6,1.4-0.7,1.8-1.4c0.1-0.4,0.2-0.8,0.2-1.2c-0.1-0.2-0.4-0.3-0.5-0.2c-0.3,0.5-0.9,0.6-1.2,1.1
		l-1-0.4c-0.2-1,0.1-2.2-0.2-3c0.5,0.2,1.1,0.2,1.7,0.3c1.4,0.4,2.7,1.1,4,1.9c-0.3,0.1-0.6,0.5-0.8,0.7c0,0.3,0.3,0.2,0.4,0.3
		l0.3-0.1C45.1,23.2,43.6,23.1,43.5,24.3 M44.6,36.2c0,0.5-0.7,0.5-1.1,0.9c-0.2-0.1,0-0.3,0-0.4C43.9,36.4,44.2,36.2,44.6,36.2
		 M52.6,22.4c0.5,0.1,0.7,0.7,1.2,0.8c0.4,0.7,0.6,1.4,0.8,2.2c-0.4,0.4-0.4,1.4-1.2,1.2c-0.2-0.5,0.4-0.7,0.2-1.2
		c0.1-0.1,0.4-0.2,0.4-0.4c0-0.4-0.6-0.3-0.6-0.8c-0.2-0.2-0.4-0.2-0.7-0.3c-0.5-0.3-1,1.1-1.2,0c0.2-0.1,0.3-0.4,0.1-0.5
		c-0.5-0.3-0.5-0.9-1-1.2c-0.7,0-1.3-0.3-2-0.1c-0.4-0.1-0.9-0.4-1.3,0.1c0,0.4-0.2,0.7-0.3,1c-0.2-0.1-0.3-0.2-0.4-0.4
		c1.2-1.4,2.6-2.9,3.9-4.2l0.1-0.2c0.6,0.8,1.4,1.6,1.9,2.6C52.7,21.5,51.7,22,52.6,22.4 M55,30.1c-0.2,0.8-0.2,1.7-0.4,2.5
		c0,0.1,0,0.3-0.1,0.4c-0.2-0.5-0.4-1.1-1-1.4c-0.5-0.3-0.2-0.9-0.6-1.2l-0.4-0.4C53.2,30.2,54.2,30.1,55,30.1 M49.2,17.8
		c-0.7,0.9-1.7,1.6-2.3,2.6L46.8,20c-1.8-1.5-4-2.3-6.3-2.6l-0.4,0.1l0-3.9L40,13.2c1.5,0.2,3.1,0.5,4.5,1c1.8,0.7,3.5,1.7,5,3
		l0.3,0.1L49.2,17.8z M45.3,39.2c1.2,0.1,2.4,0.4,3.5,0.8c0.3,0,0.6,0,0.8-0.2c-0.1-0.5,0.5-0.7,0.4-1.2c0.2-0.4,0.1-1,0.4-1.3
		c0-0.5,0-1.1-0.3-1.5c-0.3-0.2-0.6,0.1-0.9,0.1c-0.3,0.3-0.2,1-0.8,0.9C48.3,37,48,37,47.8,36.9c0-0.1-0.1-0.1-0.1-0.2
		c0.4-0.2,1.2-0.1,1.2-0.8c0.3-0.3,0.8-0.2,1.1-0.5c0.2-0.3,0.3-0.7,0.6-1c0-0.1,0.1-0.3,0.1-0.4c0.1,0.2,0.1,0.5,0.3,0.6
		c0.3,0.1,0.5-0.2,0.6-0.4c0-0.1,0.1-0.3,0.2-0.2c0.4,0.3,0.8,0,1.3,0.1c0.3-0.1,0.7-0.2,1.1-0.2c-0.3,1.6-1.1,3.1-2,4.5
		c-0.3,0.4-0.7,0.9-1,1.4C51,39.5,51,39,50.7,38.7l-0.2,0c-0.2,0.5-0.7,0.9-0.6,1.4c-0.3,0.6-1.2,0.1-1.7,0.4
		c-0.6,0.2-0.9-0.4-1.4-0.5c-0.5-0.2-1.1-0.2-1.6-0.5C45.2,39.3,45.2,39.2,45.3,39.2 M42.7,1.9C48.3,2.7,53.4,5,57.6,9.2l-0.5,0.2
		c-0.8,0.9-1.7,1.6-2.1,2.5c-0.1-0.3-0.4-0.5-0.6-0.7c-0.1-0.8-0.8-1.5-1.5-2c-0.5-0.1-0.7-1-1.3-0.7c-0.6-0.5-1.3-0.1-1.8,0.1v0.1
		C47.1,7.2,44.2,6.2,41,6c-0.2,0-0.2,0.1-0.4,0.1c0.2-0.1,0.1-0.5,0.1-0.7c-0.1-0.1-0.3-0.3-0.4-0.2C40.1,5.3,40,5.4,40,5.6
		c0.1-1.3,0.1-2.8,0-4C40.8,1.9,41.8,1.8,42.7,1.9 M41.7,7.7c2.5,0.3,4.6,1,6.8,2c0.3,0.5,1,0.8,1,1.4C49.2,12,50.6,12,50,12.9
		c0,0.3,0.2,0.4,0.3,0.7c0.1,0.2,0,0.6,0.2,0.8c0.5,0.1,0.7-0.6,1.2-0.4c0.7,0.5,0.8,1.3,0.8,2.1c0.1,0.5,0.5,0.8,0.9,1
		c0.8-0.3,0.4,0.7,1,0.9c0.6,0.1,1,0.9,1.7,0.9c0.6,0.5,1,1.2,1.5,1.8c0,0.1,0.1,0.2,0.2,0.3c0.3,0.1,0.5-0.2,0.8-0.2
		c1.1,2.3,1.6,4.8,1.8,7.5l0.1,0.3c-1.4,0-2.7,0-4.1,0.1c0-0.8,0-1.7-0.4-2.4c0.2-0.4,0.3-1,0.2-1.5c-0.1-0.2-0.3,0-0.4,0
		c-0.4,0.5-0.5,1.1-0.7,1.6c-0.4,0.6-0.4,1.4-0.2,2l0.2,0.2l-1.6,0c0.4-0.2-0.3-0.7,0.1-1.1l0.7-0.1c0.2-0.5,0.8-0.9,0.8-1.6
		c0.3-0.4,0.6-0.9,0.4-1.4c-0.3-0.8,0.6-1.6-0.1-2.4c0.1-0.2-0.1-0.5-0.3-0.5c-0.2-0.1-0.5,0-0.5-0.3c0.1-0.2,0.5-0.4,0.4-0.7
		c-0.2-0.2-0.4,0-0.6,0c-0.1-0.4,0.6-0.7,0-1c-0.4-0.1-0.6,0.4-1,0.2c-0.2-0.1-0.3-0.4-0.1-0.6l-0.8-1.1c-0.1-0.1-0.3,0.1-0.3-0.1
		c0.1-0.9-1-1.3-1-2.2c-0.3-0.3-0.1-0.8-0.5-1.1c-0.2-0.2-0.5-0.4-0.8-0.2c-0.4-0.5-0.8-1-1.2-1.5c-0.1,0-0.2,0-0.3,0.1
		c0.1,0.4,0.5,0.6,0.5,1.1c-0.1,0-0.1,0-0.2,0.1c0.1,0.4,0.4,0.8,0.6,1c-2.2-1.8-4.8-2.7-7.5-3.1c-0.5,0-1.1-0.2-1.6-0.1
		c0.1-1.3,0-2.7,0.1-4L40,7.5C40.5,7.8,41.1,7.6,41.7,7.7 M39.3,24.4l0.2,0.1c-0.3,0-0.6-0.2-0.9,0c-0.2,0.1-0.1,0.4,0,0.5
		c0.5,0.2,0.6,1.1,1.3,0.7c0.3,0.1,0.6,0.1,0.7,0.5c0.4,0.2,0.5,0.9,1,0.7c0,0.3-0.1,0.7,0.2,1c-0.1,0.2-0.4,0.4-0.4,0.7
		c-0.1,0.1-0.1,0.2-0.1,0.3c0.5,0.1,0.5,0.7,0.7,1c-0.1,0.4,0,0.9,0.4,1.1c-0.1,0.5-0.3,0.9-0.5,1.3c-0.5,0.3-1.4-0.4-1.6,0.6
		c-0.3,0.4,0,1.1-0.6,1.1c-1.1,0.1-2.2-0.2-3.1-0.9c0.6-0.3,1.6,0.1,1.7-0.8c0.2-0.1,0.2-0.4,0.1-0.5c0.3-0.3,0.4-0.6,0.5-1
		c-0.2-0.2-0.1-0.3-0.1-0.6c-0.6-0.6-1.4-0.3-2.1-0.3c-0.4,0.3,0,0.7-0.3,1.1c-0.6,0.1-0.6,0.6-1,1c-0.2-0.1-0.4-0.4-0.4-0.6h0.1
		c0,0.1,0,0.2,0.1,0.2c0.5,0.1,0.4-0.5,0.5-0.8c0.1-0.3,0.9-0.8,0.2-1.1c0-0.1,0.1-0.3-0.1-0.4c-0.2,0.1-0.5,0.1-0.5,0.4
		c0.1,0.3,0,0.5-0.2,0.7h-0.1c0-0.2-0.1-0.3-0.2-0.4c-0.3,0-0.6,0.3-0.9,0.2c-0.4,0.1-1,0.2-1.4,0.2c-0.1-0.3,0.4-0.2,0.5-0.4
		c-0.1-0.4,0.2-0.7,0.4-1c0.1-0.1,0.3-0.1,0.5,0c0.1,0.1,0.2,0.2,0.4,0.2l0.1-0.2c0.4,0.3,0.2,1.5,1,1c0.1-0.5,0-1.2,0.2-1.7
		c-0.2-0.5,0.3-0.7,0.4-1c0.4,0,0.4-0.5,0.6-0.7c0.7-0.2,1.4-0.4,1.8-1.1c-0.2-0.4-0.1-0.9-0.3-1.2C38.6,24.3,39.1,24.1,39.3,24.4
		 M38.7,51.2l-0.4-0.3c-5.2-0.3-9.7-2.5-13.6-6c0.6-0.1,0.9,0.8,1.6,0.6c0.8-0.1,1.3-0.7,2.1-0.6c0.4,0,0.9,0,1.1-0.4
		c0.1-0.4-0.3-0.6-0.4-1c2.6,2,5.6,3.3,9,3.5l0.3-0.1v3.8L38.7,51.2z M24,30.4L23.8,30c0.4,0.3,0.9,0.2,1.3,0.1
		c-0.7,0.2-0.4,1.1-0.7,1.6c0,0.3,0.3,0.3,0.3,0.6c-0.3,0.2-0.4,0.5-0.5,0.8C24.4,32.2,24,31.3,24,30.4 M19.7,35.3
		c-0.4,0-0.3,0.5-0.4,0.7c0-1-0.4-2-0.5-3l-0.3-2.7l-0.2-0.2c1.2,0.2,2.6,0.1,3.9,0.1l0.3-0.1c-0.1,0.6-0.1,1.6,0.3,2.1
		c-0.2-0.2-0.4-0.7-0.7-0.7c-0.7,0-0.8,1-1.5,1c-0.6,0.5-0.7,1.2-0.8,1.9C20,34.7,19.6,35,19.7,35.3 M22.6,28.6l-0.4-0.1l-3.8,0.1
		c0.4-4.4,1.5-8.5,4-12l1.5-2l0-0.3c0.9,1.1,1.9,2.1,3,3c-2.8,3.1-4.2,6.7-4.5,10.9C22.5,28.4,22.4,28.5,22.6,28.6 M38.5,11.8
		c-0.7-0.2-1.5,0.1-2.2,0.2c-3.1,0.7-6,2-8.4,4.4l-0.1-0.3c-0.9-0.9-1.8-2-2.8-2.7c0.9-0.5,1.7-1.4,2.6-2c3.2-2.3,6.9-3.5,10.9-3.8
		C38.3,9,38.4,10.4,38.5,11.8 M32.2,33.6c0,0.1,0.2,0.3,0.3,0.2c0.2-0.2-0.3-0.6,0-0.7c0.2,0.3,0.1,0.7,0.2,1
		c0.1,0.2,0.2,0.3,0.1,0.6c-0.4,0.5-0.9,0.9-1.2,1.4c-0.3-0.6-0.8-1.2-1.1-1.8c-0.4-0.8-0.6-1.6-1-2.4c0.3,0.4,1.2-0.1,1.2,0.8
		c0.1,0,0.1,0,0.2,0c0.1-0.1,0.1-0.1,0.3-0.1c0.1,0.1,0.4,0.2,0.1,0.4C31.6,33.3,31.9,33.5,32.2,33.6 M36.4,44.9l0.7,0.3
		c-2.4-0.6-5-1.5-7.2-3.3c-0.4-0.2-0.6-0.7-1-0.7c1-0.8,2-1.9,2.8-3c0.4,0.7,1.1,1.1,1.7,1.5c1.1,0.5,2.2,1.4,3.4,1.2
		c-0.4,0.2-0.7,0.4-1,0.7c-0.2,0.4-0.1,1-0.6,1.1C35.2,43.6,35.9,44.3,36.4,44.9 M27.4,39.8l-0.1-0.9c-0.8-0.7-0.5-2-0.7-2.9
		c-0.6-0.5-0.1-1.2-0.5-1.7c0-0.8-1.3-1.1-0.9-2.1c-0.2-0.2-0.3-0.5-0.2-0.8c0.2-0.3,0.8,0,1-0.4l0.1-0.8c0.3-0.2,0.7,0.2,0.9-0.2
		c0.3-0.7-1-1.6,0.1-2c0.4,0,0.9-0.1,1.1,0.4c0.1,0.5,0.2,1.1,0,1.7c0.4,0.1,0,0.5,0,0.7c-0.2,0.1-0.4,0.3-0.7,0.2
		c-0.1-0.2-0.3-0.5-0.6-0.5c-0.2,0.3,0.1,0.6,0,1c-0.1,0.2,0,0.4-0.1,0.6c-0.1-0.1-0.2-0.1-0.3-0.1c-0.2,0.1-0.1,0.4,0,0.5
		c0.2,0.2,0.4,0.4,0.7,0.4l0.1-0.2c0-0.5,0.2-0.8,0.2-1.3l0.4,0.2c0.4,1.8,1.2,3.4,2.2,5l0.5,0.5c-1.3,1.1-2.5,2.5-3.6,3.8v0
		c0-0.1-0.1-0.3-0.2-0.2C26.7,40.2,27.6,40.4,27.4,39.8 M29.4,22.7c-0.4,0.2-0.7,0.6-0.9,1c-0.3,0.2-0.8,0.2-1.1,0.6
		c0,0.2,0.2,0.4,0,0.5c-0.3,0.3-1-0.1-1.1,0.5c-0.1,0.5-0.7,0.8-0.6,1.4c-0.3,0.2-0.3,0.7-0.2,1c0.2,0.2-0.1,0.7,0.2,0.8
		c-0.5-0.1-1.3-0.2-1.8,0.1c0.3-0.7,0.2-1.5,0.3-2.2c0.5-3,1.8-5.6,3.8-8c1,1,2,2.1,3.1,3C30.2,21.5,30.2,22.7,29.4,22.7 M38,38.3
		c-0.2,0.3,0,0.8-0.1,1.2c-1.9-0.3-3.5-1.1-5-2.4c0.8-0.9,2-1.9,2.6-2.9c0.1,0.5,0.6,0.7,1,0.9c0.7,0.3,1.7,0.9,2.5,0.5
		c-0.1,0.1-0.1,0.1-0.2,0.2c0.2,0.2-0.2,0.5,0.1,0.7c0.1,0.2-0.2,0.2-0.2,0.3c0.1,0.3,0,0.7,0.4,0.8c0.1,0.1,0,0.4-0.2,0.4
		C38.5,38,38.2,37.9,38,38.3 M33.5,33.9c0.3-0.3,0.5-0.6,0.6-0.9l0.5,0.2C34.1,33.3,33.9,33.7,33.5,33.9L33.5,33.9z M37.4,22.2
		c-0.1-0.2,0.2-0.4-0.1-0.6c-0.6,0.3-0.4,1-0.8,1.5c-0.1,0.4-0.5,0.2-0.8,0.4c-0.2-0.3-0.5-0.3-0.7-0.1c-0.3,0-0.4-0.7-0.7-0.3
		c-0.1,0.1,0,0.4-0.3,0.3c-0.1-0.1-0.2-0.1-0.2-0.2c0-0.2,0.4-0.2,0.2-0.5c-0.3-0.5-0.8-0.4-1.1-0.7h-0.3c1.7-1.8,3.7-2.6,6-2.9
		c0,1-0.1,2.2,0.2,3.1C38.3,21.8,37.9,22.3,37.4,22.2 M38.5,17.5c-0.7-0.2-1.4,0.2-2.1,0.2c-1.6,0.4-2.9,1.3-4.3,2.3
		c-0.1,0.1-0.1,0.2-0.2,0.3c-1-0.9-1.9-2.1-3-2.9c2.7-2.3,5.8-3.8,9.3-4.1l0.2-0.1C38.4,14.6,38.4,16.1,38.5,17.5 M23.4,7.2
		c4.4-3.3,9.4-5.3,15.1-5.5l-0.1,0.4l0,3.5l0.1,0.3C33,6.2,28.3,8.3,24.2,12.2l-0.1,0.2c-0.9-1-2-2.2-3.1-3.1h-0.1
		C21.8,8.8,22.5,7.8,23.4,7.2 M13,26c0.7-6,3.2-11.2,7.2-15.8l0.1,0.4c1,1,1.9,2,2.8,2.9c-0.8,0.6-1.2,1.5-1.9,2.2
		c-2.5,3.7-3.9,7.8-4.2,12.4l0.1,0.6c-1.4-0.1-2.9-0.1-4.3,0C12.9,27.7,12.8,26.8,13,26 M16.2,42.9c-2-3.9-3.2-8.1-3.4-12.7l3.9,0
		l0.4-0.1c-0.1,0.2,0,0.5,0,0.8l0,0C16.9,30.9,17,31,17,31c0.1,1.5,0.3,3,0.7,4.4l0.2,0.3c-0.3-0.3-0.4-0.6-0.6-0.9
		c-0.3,0.1-0.7,0.1-0.9,0.3c0.2,0.4-0.3,0.3-0.4,0.4c-0.1-0.1-0.2-0.2-0.3-0.3c-0.3,0-0.6,0-0.7,0.3c0,0.2-0.2,0.3-0.3,0.5
		c-0.1,0.7-0.3,1.5,0.2,2c0,0.5,0.2,0.9,0.6,1.2c0.1,0,0.2-0.1,0.3-0.1c0.4,0.3,0.6,1,1.1,0.9c0.2-0.1,0.1-0.3,0.2-0.4
		c0.3,0.3,0.4,0.9,1,0.9c0.1,0.1,0.2,0.4,0.4,0.4c0.6-0.2,0.4,0.7,0.8,0.9c0.3,0.2,0.5,0.7,1,0.5l0.2-0.2c0.2,0.1,0,0.4,0.2,0.6
		c0.2,0.5,0.7,0.8,1.2,0.9c0.4,0.5,0.8,1,1.3,1.4l-0.3,0.1l-2.8,3C18.6,46.5,17.2,44.8,16.2,42.9 M35.9,56.6
		c-5.6-0.8-10.6-3.3-14.9-7.2l2.9-3l0-0.2c4,4,8.8,6,14.3,6.4l0.4-0.1l-0.1,0.2v3.9l0.2,0.4C37.8,56.6,36.8,56.7,35.9,56.6
		 M39.3,40.2c-0.3,0-0.6,0-0.8-0.1c-0.1,0-0.1-0.2-0.1-0.2c0.4,0,0.6-0.5,1-0.4c0.3-0.2,0.3-0.6,0.6-0.8c-0.1-0.4,0.3-0.1,0.4-0.3
		c0.1-0.1,0.3-0.2,0.5-0.1c0.3,0.4,0.9,0.2,1.1,0.7c0.1,0.1,0.2-0.1,0.2-0.2v-0.2c0.5,0,0.7,0.6,1.1,0.2c0.1-0.1,0.1-0.3,0-0.4
		c-0.1,0-0.1-0.1-0.1-0.1c0.3-0.2,0.5,0.5,0.9,0.3c0.3-0.3,0.5-0.6,1-0.6l0.1,0.1c0.1,0.9-0.6,1.4-1.3,1.8c-0.4,0.2-1.1,0.1-1.1,0.8
		c-0.5,0.4-0.9-0.3-1.5-0.1c-0.3-0.1,0-0.5-0.4-0.6C40.4,40.1,39.7,39.5,39.3,40.2 M40.3,47.5c0.5,0.2,1.4-0.2,1.6,0.4
		c-0.2,0.3-0.4,0.7-0.3,1c0.2,0.5,0.5,1.2,1.2,1.3c0.2,0.2,0.4,0.3,0.6,0.4c-1.1,0.2-2.3,0.1-3.4,0.5c0.1-1.2,0-2.4,0-3.6l-0.2-0.3
		C40.1,47.2,40.2,47.4,40.3,47.5 M40.4,56.8l-0.3,0.2c0.1-1.5,0.1-3.1,0-4.5c0.7,0.2,1.4,0,2.2,0l2.1-0.4c1.1,0.2,1.8,2,3,0.9
		c0.4-0.5,1.1-0.5,1.4-1.2c0.7-0.3,0.9-1,1.3-1.4c0.5-1.4,1.9-1.6,2.9-2.5c0.7-0.6,1.5-1.1,1.9-1.9l0.1,0.3l3,2.9
		C52.9,53.8,47.1,56.5,40.4,56.8 M66.1,30.3c-0.3,6.8-2.7,12.6-7,17.6L59,48.1c-0.9-1-2.1-2.3-3.1-3.2c0.6-0.5,1.1-1.2,1.6-1.9
		c2.7-3.8,4.2-8,4.4-12.8l-0.1-0.4l0.2,0.2l4,0l0.2-0.1L66.1,30.3z"/>
	<path class="st3" d="M51.8,7.6c0,0.2,0,0.3,0.1,0.4c0.6,0.2,0.7,1.1,1.4,0.9c0.2-0.3-0.1-0.5-0.1-0.9c-0.1-0.3-0.4-0.4-0.6-0.5
		C52.3,7.8,52.1,7.2,51.8,7.6"/>
	<path class="st3" d="M40.6,5.1c0.7,1,2,0.4,3,0.2c0.7,0.3,1.3-0.1,1.8-0.5V4.8C44.9,4.1,44,4,43.2,3.9l-2,0.9
		c-0.2-0.1-0.5-0.2-0.6,0.1C40.5,4.9,40.6,5.1,40.6,5.1"/>
</g>
</svg>
