<?xml version="1.0" encoding="utf-8"?>
<!-- Generator: Adobe Illustrator 19.1.0, SVG Export Plug-In . SVG Version: 6.00 Build 0)  -->
<svg version="1.1" id="Layer_1" xmlns="http://www.w3.org/2000/svg" xmlns:xlink="http://www.w3.org/1999/xlink" x="0px" y="0px"
	 viewBox="-595 456.5 88.5 88.5" style="enable-background:new -595 456.5 88.5 88.5;" xml:space="preserve">
<style type="text/css">
	.st0{fill:none;stroke:#FFFFFF;stroke-width:4.4775;}
</style>
<g>
	<path class="st0" d="M-512.8,517.2c-9.1,21-33.4,30.5-54.3,21.5c-21-9.1-30.6-33.5-21.6-54.3c9.2-21,33.5-30.6,54.4-21.6
		C-513.4,471.9-503.8,496.3-512.8,517.2z"/>
	<line class="st0" x1="-588.8" y1="484.3" x2="-513" y2="517.1"/>
	<line class="st0" x1="-567.5" y1="539.3" x2="-534.6" y2="463.4"/>
	<line class="st0" x1="-576.1" y1="467.8" x2="-509.4" y2="496.8"/>
	<line class="st0" x1="-591.7" y1="504.1" x2="-524.9" y2="533.1"/>
	<path class="st0" d="M-529.6,509.9c-9.1,21-25.9,33.9-37.6,28.7c-11.7-5.1-13.9-26.2-4.8-47.2c9.1-21,25.9-33.8,37.7-28.7
		C-522.6,467.9-520.5,489-529.6,509.9z"/>
</g>
</svg>
