<?xml version="1.0" encoding="utf-8"?>
<!-- Generator: Adobe Illustrator 19.1.0, SVG Export Plug-In . SVG Version: 6.00 Build 0)  -->
<svg version="1.1" id="Layer_1" xmlns="http://www.w3.org/2000/svg" xmlns:xlink="http://www.w3.org/1999/xlink" x="0px" y="0px"
	 viewBox="0 0 48 48" enable-background="new 0 0 48 48" xml:space="preserve">
<path fill="#00473A" d="M46.8,12.8c0-0.2-0.1-0.4-0.1-0.5c0-0.1,0-0.2-0.1-0.2C46,10.2,44.3,9,42.4,9h0.3c0,0-8-1.2-18.7-1.3
	C13.3,7.7,5.3,9,5.3,9h0.3C3.7,9,2,10.2,1.4,12c0,0.1-0.1,0.2-0.1,0.2c0,0.2-0.1,0.3-0.1,0.5C0.9,14.9,0.4,19,0.4,24
	c0,5,0.5,9.1,0.8,11.2c0,0.2,0.1,0.4,0.1,0.5c0,0.1,0,0.2,0.1,0.2C2,37.8,3.7,39,5.6,39H5.3c0,0,8,1.2,18.7,1.3
	c10.7,0,18.7-1.3,18.7-1.3h-0.3c2,0,3.7-1.3,4.3-3.1c0-0.1,0.1-0.2,0.1-0.2c0-0.2,0.1-0.3,0.1-0.5c0.3-2.1,0.8-6.2,0.8-11.2
	C47.6,19,47.1,14.9,46.8,12.8z M31,25l-9.5,6.9c-0.2,0.1-0.4,0.2-0.7,0.2c-0.2,0-0.4,0-0.5-0.1c-0.4-0.2-0.6-0.6-0.6-1V17.2
	c0-0.4,0.2-0.8,0.6-1c0.4-0.2,0.8-0.2,1.2,0.1l9.5,6.9c0.3,0.2,0.5,0.6,0.5,0.9C31.5,24.5,31.3,24.8,31,25z"/>
</svg>
