<?xml version="1.0" encoding="utf-8"?>
<!-- Generator: Adobe Illustrator 19.1.0, SVG Export Plug-In . SVG Version: 6.00 Build 0)  -->
<svg version="1.1" id="Layer_1" xmlns="http://www.w3.org/2000/svg" xmlns:xlink="http://www.w3.org/1999/xlink" x="0px" y="0px"
	 viewBox="0 0 88.5 88.5" enable-background="new 0 0 88.5 88.5" xml:space="preserve">
<g>
	<path fill="#FFFFFF" stroke="#00934B" stroke-width="4.5482" d="M82.8,61c-9.2,21.3-33.9,31-55.2,21.8C6.3,73.6-3.5,48.8,5.7,27.6
		C15,6.3,39.7-3.5,61,5.7C82.2,15,92,39.7,82.8,61z"/>
	<line fill="none" stroke="#00934B" stroke-width="4.5482" x1="5.6" y1="27.5" x2="82.6" y2="60.9"/>
	<line fill="none" stroke="#00934B" stroke-width="4.5482" x1="27.3" y1="83.4" x2="60.7" y2="6.3"/>
	<line fill="none" stroke="#00934B" stroke-width="4.5482" x1="18.5" y1="10.8" x2="86.3" y2="40.2"/>
	<line fill="none" stroke="#00934B" stroke-width="4.5482" x1="2.7" y1="47.7" x2="70.5" y2="77.1"/>
	<path fill="none" stroke="#00934B" stroke-width="4.5482" d="M65.8,53.6C56.6,74.9,39.5,88,27.6,82.8c-11.9-5.2-14.1-26.6-4.9-47.9
		C31.9,13.6,49,0.6,61,5.7C72.9,10.9,75,32.3,65.8,53.6z"/>
</g>
</svg>
